<?xml version="1.0" encoding="UTF-8"?>
<svg width="370px" height="250px" viewBox="0 0 370 250" version="1.1" xmlns="http://www.w3.org/2000/svg" xmlns:xlink="http://www.w3.org/1999/xlink">
    <!-- Generator: Sketch 59 (86127) - https://sketch.com -->
    <title>icon-customer-360</title>
    <desc>Created with Sketch.</desc>
    <g id="icon-customer-360" stroke="none" stroke-width="1" fill="none" fill-rule="evenodd">
        <path d="M341.149805,26.7855401 C336.228202,26.7855401 332.225195,22.7799522 332.225195,17.8573519 C332.225195,12.9337761 336.228202,8.92818818 341.149805,8.92818818 C346.070432,8.92818818 350.074415,12.9337761 350.074415,17.8573519 C350.074415,22.7799522 346.05873,26.7855401 341.149805,26.7855401 L341.149805,26.7855401 Z M341.149805,0 C331.292948,0 323.801814,7.99654267 323.801814,17.8573519 C323.801814,27.7171856 331.795152,35.7137283 341.149805,35.7137283 C351.02324,35.7137283 359,27.7171856 359,17.8573519 C359,7.99654267 351.02324,0 341.149805,0 L341.149805,0 Z M207.274805,205.357108 C207.274805,225.055313 191.253999,241.071812 171.574415,241.071812 C151.894831,241.071812 135.875,225.055313 135.875,205.357108 L135.875,160.714216 C135.875,141.016011 151.894831,124.999512 171.574415,124.999512 C191.253999,124.999512 207.274805,141.016011 207.274805,160.714216 L207.274805,205.357108 Z M171.574415,116.071324 C156.920775,116.071324 144.013636,123.264018 135.875,134.201829 L135.875,112.444248 C135.875,83.4432447 154.371722,57.879087 181.911048,48.8279802 L195.281385,44.4331498 C197.617854,43.6663714 198.89043,41.145563 198.122984,38.8023038 C197.374066,36.4746534 194.915702,35.1752274 192.49537,35.9605412 L179.10553,40.3348851 C147.923028,50.5800591 126.949415,79.5761842 126.949415,112.444248 L126.949415,205.357108 C126.949415,229.97206 146.958601,250 171.072211,250 C195.186795,250 215.195981,229.97206 215.195981,205.357108 L216.199415,160.714216 C216.199415,136.105117 196.174626,116.071324 171.574415,116.071324 L171.574415,116.071324 Z M314.375,205.357108 C314.375,225.055313 298.354194,241.071812 278.67461,241.071812 C258.995026,241.071812 242.97422,225.055313 242.97422,205.357108 L242.97422,80.3566202 C242.97422,60.6584149 258.995026,44.642892 278.67461,44.642892 C298.354194,44.642892 314.375,60.6584149 314.375,80.3566202 L314.375,205.357108 Z M278.67461,35.7137283 C254.058796,35.7137283 234.551814,55.7416679 234.551814,80.3566202 L234.551814,205.357108 C234.551814,229.97206 254.560025,250 278.67461,250 C302.789195,250 322.797406,229.97206 322.797406,205.357108 L322.797406,80.3566202 C323.29961,55.7416679 303.273846,35.7137283 278.67461,35.7137283 L278.67461,35.7137283 Z M46.1725285,116.071324 L33.8456061,116.071324 L94.7030205,43.0244628 C95.801044,41.6899172 96.0448325,39.8422349 95.3124918,38.2725829 C94.5811263,36.7019554 92.9789481,35.7137283 91.25,35.7137283 L6.46230497,35.7137283 C4.00491674,35.7137283 2,37.7116445 2,40.1787979 C2,42.6449757 4.00491674,44.642892 6.46230497,44.642892 L81.711043,44.642892 L20.8760571,117.689753 C19.7829094,119.029177 19.5371706,120.87003 20.2685361,122.432853 C20.9989265,123.995676 22.5884276,124.999512 24.3125,124.999512 L46.1725285,124.999512 C75.9654353,124.999512 100.17461,149.218393 100.17461,179.017392 L100.17461,187.042225 C100.17461,216.852931 75.9654353,241.071812 46.1725285,241.071812 C31.0449636,241.071812 16.9549626,233.867412 10.2995362,222.706201 C9.0279353,220.587317 6.25557231,219.889802 4.18044447,221.162889 C2.05460863,222.427195 1.37492625,225.17433 2.62897437,227.290287 C10.9918956,241.294236 27.6758063,250 46.1725285,250 C80.8743608,250 109.09922,221.762849 109.09922,187.053932 L109.09922,179.029099 C109.09922,144.3075 80.8743608,116.071324 46.1725285,116.071324 L46.1725285,116.071324 Z" id="Fill-4" fill="#8CC6E4"></path>
    </g>
</svg>