<?xml version="1.0" encoding="UTF-8"?>
<svg width="338px" height="250px" viewBox="0 0 338 250" version="1.1" xmlns="http://www.w3.org/2000/svg" xmlns:xlink="http://www.w3.org/1999/xlink">
    <!-- Generator: Sketch 59 (86127) - https://sketch.com -->
    <title>icon-data-sharing</title>
    <desc>Created with Sketch.</desc>
    <g id="icon-data-sharing" stroke="none" stroke-width="1" fill="none" fill-rule="evenodd">
        <path d="M9,192.440463 L9,232.097631 C9,235.017042 10.9693415,237 13.4025279,237 C15.8367139,237 17.8060554,235.020043 17.8060554,232.59387 L17.8060554,192.440463 C17.8060554,155.99985 47.4311492,126.344517 83.8469723,126.344517 L239.430947,126.344517 L143.065171,210.672275 C141.232783,212.272048 141.043847,215.061396 142.652309,216.901286 C143.065171,218.878241 144.275766,218.878241 145.486361,218.878241 C146.518016,218.878241 147.549671,218.517067 148.384392,217.793717 L254.051059,125.259993 C255.005739,124.912825 255.555556,123.701239 255.555556,121.938387 C255.555556,120.664772 255.005739,119.458188 254.051059,118.614781 L148.384392,26.0810563 C146.532011,24.9925302 143.779932,25.1626124 141.688631,26.986494 C140.587999,28.8313857 140.752944,31.6187329 142.569336,33.2215075 L238.935113,117.548265 L83.8469723,117.548265 C42.5817708,117.532258 9,151.130497 9,192.440463 L9,192.440463 Z M213.013781,211.167514 C211.182393,212.768288 210.993456,215.556636 212.600919,217.397526 C213.469628,218.377999 214.69122,218.894249 215.911812,218.894249 C216.944467,218.894249 217.976122,218.533074 218.809843,217.809725 L324.476509,125.276 C325.450184,124.912825 326,123.701239 326,121.938387 C326,120.664772 325.450184,119.458188 324.495503,118.614781 L218.828836,26.0810563 C216.997449,24.4972909 214.219378,24.669374 212.620912,26.4942561 C211.01245,28.3361463 211.202387,31.1234935 213.033774,32.7232667 L314.902711,121.457155 L213.013781,211.167514 Z" id="Fill-8" fill="#95CACA"></path>
    </g>
</svg>