<?xml version="1.0" encoding="UTF-8"?>
<svg width="338px" height="250px" viewBox="0 0 338 250" version="1.1" xmlns="http://www.w3.org/2000/svg" xmlns:xlink="http://www.w3.org/1999/xlink">
    <!-- Generator: Sketch 59 (86127) - https://sketch.com -->
    <title>icon-advanced-analytics</title>
    <desc>Created with Sketch.</desc>
    <g id="icon-advanced-analytics" stroke="none" stroke-width="1" fill="none" fill-rule="evenodd">
        <path d="M207.752479,146.037626 C205.967035,147.767399 203.176532,147.767399 201.391088,146.037626 L151,95.5908668 L82.7524793,163.895052 C80.983935,165.624826 78.1596323,165.624826 76.4129586,163.895052 C74.6722497,162.108614 74.6722497,159.319105 76.4129586,157.532667 L147.819801,86.1049476 C149.605246,84.3741798 152.395748,84.3741798 154.181193,86.1049476 L204.571287,136.550712 L286.212623,54.854699 C287.998067,53.1249254 290.78857,53.1249254 292.574014,54.854699 C294.303788,56.6401435 294.303788,59.430646 292.574014,61.2160905 L207.752479,146.037626 Z M34.9292105,209.821535 C34.9292105,227.064594 48.9185058,241.070789 66.1784649,241.070789 L307.250249,241.070789 C309.705732,241.070789 311.714854,243.079912 311.714854,245.535395 C311.714854,247.990878 309.705732,250 307.250249,250 L66.1784649,250 C43.9916335,250 26,232.031231 26,209.821535 L26,4.46361113 C26,1.9971926 27.9991808,0 30.4646053,0 C32.9310238,0 34.9292105,1.9971926 34.9292105,4.46361113 L34.9292105,209.821535 Z" id="Fill-6" fill="#E8DC8D"></path>
    </g>
</svg>