<?xml version="1.0" encoding="UTF-8"?>
<svg width="218px" height="250px" viewBox="0 0 218 250" version="1.1" xmlns="http://www.w3.org/2000/svg" xmlns:xlink="http://www.w3.org/1999/xlink">
    <!-- Generator: Sketch 59 (86127) - https://sketch.com -->
    <title>icon-all-data-types</title>
    <desc>Created with Sketch.</desc>
    <g id="icon-all-data-types" stroke="none" stroke-width="1" fill="none" fill-rule="evenodd">
        <path d="M124,219.5 C124,232.473608 134.413624,243 147.250104,243 L162.749896,243 C175.585544,243 186,232.473608 186,219.5 L186,172.5 C186,159.526392 175.585544,149 162.749896,149 L147.250104,149 C134.413624,149 124,159.526392 124,172.5 L124,219.5 Z M162.799833,141 C180.008116,141 194,154.965507 194,172.14238 L194,218.856785 C194,236.033657 180.008116,250 162.799833,250 L147.200167,250 C129.991046,250 116,236.033657 116,218.856785 L116,172.14238 C116,154.965507 129.991046,141 147.200167,141 L162.799833,141 Z M54.249584,8 C41.4087713,8 31,18.5213463 31,31.5 L31,78.5 C31,91.4736079 41.4087713,102 54.249584,102 L69.750416,102 C82.5862365,102 93,91.4736079 93,78.5 L93,31.5 C93,18.5213463 82.5862365,8 69.750416,8 L54.249584,8 Z M23,31.1426183 C23,13.9413745 36.9669122,0 54.199665,0 L69.800335,0 C87.0088034,0 101,13.9413745 101,31.1426183 L101,77.8573817 C101,95.0343854 87.0088034,109 69.800335,109 L54.199665,109 C36.9669122,109 23,95.0343854 23,77.8573817 L23,31.1426183 Z M57.9005862,242.214206 L89.1002512,242.214206 C91.2456574,242.214206 93,243.966114 93,246.106685 C93,248.248092 91.2456574,250 89.1002512,250 L18.9005862,250 C16.7468061,250 15,248.248092 15,246.106685 C15,243.966114 16.7468061,242.214206 18.9005862,242.214206 L50.1002512,242.214206 L50.1002512,150.491449 L24.1703133,160.223065 C22.1521912,160.953584 19.9046229,159.931359 19.1484551,157.936223 C18.3922874,155.941087 19.4139093,153.702723 21.4303566,152.924562 L52.6308591,141.246289 C53.8300088,140.808312 55.1706783,140.954583 56.2232839,141.684266 C57.2717025,142.413949 57.9005862,143.630923 57.9005862,144.89554 L57.9005862,242.214206 Z M166.899749,101.214784 L198.100251,101.214784 C200.24482,101.214784 202,102.96675 202,105.107392 C202,107.24887 200.24482,109 198.100251,109 L127.899749,109 C125.75518,109 124,107.24887 124,105.107392 C124,102.96675 125.75518,101.214784 127.899749,101.214784 L159.100251,101.214784 L159.100251,9.50821014 L133.165289,19.2159087 C131.166427,19.9706918 128.923883,18.9534481 128.143431,16.9390212 C126.97359,14.9245944 128.436519,12.6811414 130.435381,11.9271941 L161.635046,0.247697666 C162.804887,-0.20032424 164.169841,-0.0339877486 165.242544,0.693211986 C166.266678,1.42041172 166.899749,2.61569404 166.899749,3.89289082 L166.899749,101.214784 Z" id="Fill-27" fill="#8CC6E4"></path>
    </g>
</svg>