<?xml version="1.0" encoding="UTF-8"?>
<svg width="271px" height="250px" viewBox="0 0 271 250" version="1.1" xmlns="http://www.w3.org/2000/svg" xmlns:xlink="http://www.w3.org/1999/xlink">
    <!-- Generator: Sketch 59 (86127) - https://sketch.com -->
    <title>icon-real-time-data</title>
    <desc>Created with Sketch.</desc>
    <g id="icon-real-time-data" stroke="none" stroke-width="1" fill="none" fill-rule="evenodd">
        <path d="M134.85907,122.262973 C136.38031,123.833417 136.38031,126.287964 134.85907,127.858408 C133.288613,129.380531 130.834046,129.380531 129.263589,127.858408 L82.1409303,80.7370269 C80.6196899,79.1665826 80.6196899,76.7120364 82.1409303,75.1415922 C83.7122822,73.6194693 86.1659535,73.6194693 87.7373054,75.1415922 L134.85907,122.262973 Z M257,125 C257,194.042193 201.042884,250 131.999555,250 C62.9571157,250 7,194.042193 7,125 C7,98.9745416 14.9491114,74.8041659 28.5525069,54.7845825 C29.7684628,53.0274168 32.1950336,52.5387217 33.982471,53.7591241 C35.7645674,54.9804166 36.2283398,57.4212213 35.0123839,59.1792772 C22.2635402,77.9784583 14.8120271,100.585722 14.8120271,125 C14.8120271,189.696457 67.3028674,242.187111 131.999555,242.187111 C196.697133,242.187111 249.187973,189.696457 249.187973,125 C249.187973,61.5720135 198.797015,9.936799 135.906459,7.87609044 L135.906459,58.5935553 C135.906459,60.7423892 134.148396,62.4995549 131.999555,62.4995549 C129.851604,62.4995549 128.093541,60.7423892 128.093541,58.5935553 L128.093541,3.90599964 C128.093541,1.74915435 129.851604,0 131.999555,0 C201.042884,0 257,55.9569165 257,125 L257,125 Z" id="Fill-2" fill="#EDAFCD"></path>
    </g>
</svg>