<?xml version="1.0" encoding="UTF-8"?>
<svg width="263px" height="250px" viewBox="0 0 263 250" version="1.1" xmlns="http://www.w3.org/2000/svg" xmlns:xlink="http://www.w3.org/1999/xlink">
    <!-- Generator: Sketch 59 (86127) - https://sketch.com -->
    <title>icon-governance</title>
    <desc>Created with Sketch.</desc>
    <g id="icon-governance" stroke="none" stroke-width="1" fill="none" fill-rule="evenodd">
        <path d="M103,178.011333 C103,180.016933 102.241489,182.021647 100.724466,183.548669 L44.9047326,239.703707 C43.8370024,241.167804 41.884783,242 39.8074664,242 C37.7283879,242 35.7744065,241.185529 34.3031942,239.704593 L12.2817005,217.550818 C10.8104882,216.072541 10,214.106822 10,212.0188 C10,209.930778 10.8096073,207.9624 12.2817005,206.481464 L68.1023151,150.326426 C69.6149328,148.832196 71.5618665,148 73.6057064,148 C75.6839039,148 77.6387663,148.814471 79.1099786,150.292748 L101.131472,172.446523 C102.659066,173.996587 103,176.00396 103,178.011333 L103,178.011333 Z M84.4506948,145.574332 C81.3844668,142.508922 77.3930838,141 73.4017008,141 C69.4173666,141 65.4339135,142.521254 62.3914752,145.560238 L6.5632169,201.374489 C3.5207786,204.414354 2,208.395864 2,212.380897 C2,216.366812 3.5207786,220.34656 6.5632169,223.388187 L28.5880736,245.40717 C31.6252253,248.491078 35.6113217,250 39.5982992,250 C43.5843956,250 47.5660865,248.478746 50.6076437,245.438 L106.436783,189.623749 C109.47834,186.583003 111,182.59797 111,178.617341 C111,174.634069 109.479221,170.651678 106.437664,167.610052 L84.4506948,145.574332 Z M190.141941,166 L180,155.858059 L223.858059,112 L234,122.141941 L190.141941,166 Z M101,78.2698874 L145.269002,34 L218,106.730998 L173.730113,151 L101,78.2698874 Z M86,61.8701742 L129.858059,18 L140,28.144742 L96.1761505,72 L86,61.8701742 Z M252,113.720439 C252,111.47075 250.162434,109.808051 248.091189,109.808051 C247.088317,109.808051 246.086331,110.190525 245.323334,110.952816 L239.499949,116.778459 L135.251723,12.5047684 L141.075108,6.68001116 C141.838105,5.91683427 142.220488,4.91461126 142.220488,3.91238825 C142.220488,1.6626986 140.382922,0 138.311678,0 C137.308806,0 136.305934,0.3824738 135.543822,1.14476533 L69.1737054,67.5508935 C68.3912351,68.3335483 68,69.3109813 68,70.3388796 C68,72.4141541 69.6685027,74.2494972 71.9096957,74.2494972 C72.9125676,74.2494972 73.9145544,73.8670234 74.6766663,73.1038465 L79.9282453,67.855456 L129.265472,117.204315 L92.7425232,153.727907 L98.2729236,159.259611 L134.803839,122.719198 L184.141066,172.068057 L178.889486,177.320874 C178.126489,178.084051 177.744106,179.086274 177.744106,180.088497 C177.744106,182.339072 179.585212,184 181.653802,184 C182.655788,184 183.657775,183.616641 184.420772,182.854349 L250.822754,116.435826 C251.608765,115.725771 252,114.698758 252,113.720439 L252,113.720439 Z" id="Fill-42" fill="#E8DC8D"></path>
    </g>
</svg>