<svg xmlns="http://www.w3.org/2000/svg" width="51" height="51" viewBox="0 0 51 51">
  <g id="Group_44" data-name="Group 44" transform="translate(-1627 223)">
    <g id="Ellipse_4" data-name="Ellipse 4" transform="translate(1627 -223)" fill="#fff" stroke="#fff" stroke-width="1">
      <circle cx="25.5" cy="25.5" r="25.5" stroke="none"/>
      <circle cx="25.5" cy="25.5" r="25" fill="none"/>
    </g>
    <path id="_104501_twitter_bird_icon" data-name="104501_twitter_bird_icon" d="M26.115,12.494a9.2,9.2,0,0,1-2.656.728,4.633,4.633,0,0,0,2.033-2.559,9.257,9.257,0,0,1-2.937,1.123A4.628,4.628,0,0,0,14.676,16a13.131,13.131,0,0,1-9.533-4.832,4.63,4.63,0,0,0,1.431,6.174,4.611,4.611,0,0,1-2.095-.579c0,.019,0,.039,0,.059a4.628,4.628,0,0,0,3.71,4.534,4.65,4.65,0,0,1-1.219.162,4.582,4.582,0,0,1-.87-.083,4.63,4.63,0,0,0,4.32,3.212,9.332,9.332,0,0,1-6.847,1.915,13.152,13.152,0,0,0,20.247-11.08q0-.3-.013-.6A9.367,9.367,0,0,0,26.115,12.494Z" transform="translate(1637.656 -216.985)" fill="#2b323c"/>
  </g>
</svg>
