<svg xmlns="http://www.w3.org/2000/svg" width="51" height="51" viewBox="0 0 51 51">
  <g id="Group_45" data-name="Group 45" transform="translate(-1684 223)">
    <g id="Ellipse_5" data-name="Ellipse 5" transform="translate(1684 -223)" fill="#fff" stroke="#fff" stroke-width="1">
      <circle cx="25.5" cy="25.5" r="25.5" stroke="none"/>
      <circle cx="25.5" cy="25.5" r="25" fill="none"/>
    </g>
    <path id="_367593_linkedin_business_network_social_icon" data-name="367593_linkedin_business_network_social_icon" d="M46.255,61.54h4.317V74.531H46.255Zm2.187-6.262a2.25,2.25,0,1,0-.057,4.488h.028a2.251,2.251,0,1,0,.029-4.488Zm12.729,5.957a4.286,4.286,0,0,0-3.891,2.144V61.54H52.963c.057,1.219,0,12.991,0,12.991h4.318V67.276a2.973,2.973,0,0,1,.142-1.054,2.364,2.364,0,0,1,2.215-1.579c1.564,0,2.188,1.192,2.188,2.937v6.951h4.318V67.082C66.143,63.092,64.014,61.235,61.172,61.235Z" transform="translate(1654.124 -264.278)" fill="#2b323c"/>
  </g>
</svg>
