<?xml version="1.0" encoding="utf-8"?>
<!-- Generator: Adobe Illustrator 26.2.1, SVG Export Plug-In . SVG Version: 6.00 Build 0)  -->
<svg version="1.1" xmlns="http://www.w3.org/2000/svg" xmlns:xlink="http://www.w3.org/1999/xlink" x="0px" y="0px" width="800px"
	 height="800px" viewBox="0 0 800 800" style="enable-background:new 0 0 800 800;" xml:space="preserve">
<style type="text/css">
	.st0{fill:#CBCBCB;}
</style>
<g id="Layer_1_00000074417458930984025030000010742283932141665959_">
	<path class="st0" d="M413.6,290h0.2c2.9,0.5,4.9,3.2,4.4,6.1s-3.2,4.8-6,4.4H412c-2.9-0.4-4.9-3.1-4.5-6.1
		C407.9,291.6,410.7,289.6,413.6,290L413.6,290"/>
	<path class="st0" d="M433.4,295.1l0.2,0.1c2.7,1,4.1,3.9,3.1,6.6s-3.9,4-6.5,3.1l-0.2-0.1c-2.7-0.9-4.1-3.9-3.2-6.6
		C427.7,295.6,430.6,294.2,433.4,295.1C433.3,295.1,433.4,295.1,433.4,295.1"/>
	<path class="st0" d="M451.9,303.7l0.2,0.1c2.4,1.4,3.2,4.5,1.8,6.8c-1.4,2.4-4.4,3.2-6.8,1.9l-0.2-0.1c-2.4-1.4-3.3-4.4-1.9-6.8
		C446.3,303.2,449.4,302.3,451.9,303.7C451.8,303.7,451.9,303.7,451.9,303.7"/>
	<path class="st0" d="M468.5,315.4l0.2,0.1c2,1.7,2.3,4.8,0.5,6.9c-1.7,2-4.8,2.3-6.8,0.6l-0.2-0.1c-2.1-1.7-2.4-4.8-0.7-6.8
		C463.3,313.9,466.4,313.7,468.5,315.4C468.4,315.4,468.5,315.4,468.5,315.4"/>
	<path class="st0" d="M482.7,329.9l0.1,0.2c1.6,2,1.4,5-0.7,6.6c-2,1.6-4.9,1.4-6.6-0.6l-0.1-0.2c-1.7-2-1.4-5,0.6-6.6
		C478,327.6,481,327.8,482.7,329.9C482.7,329.8,482.7,329.9,482.7,329.9"/>
	<path class="st0" d="M494.1,346.6l0.1,0.2c1.2,2.2,0.4,5-1.8,6.2c-2.2,1.2-4.9,0.4-6.2-1.7l-0.1-0.2c-1.3-2.2-0.5-5,1.7-6.2
		C490,343.6,492.8,344.4,494.1,346.6L494.1,346.6"/>
	<path class="st0" d="M502.4,365.1l0.1,0.2c0.8,2.3-0.4,4.8-2.7,5.6c-2.3,0.8-4.8-0.4-5.6-2.7L494,368c-0.8-2.3,0.4-4.8,2.7-5.6
		C499,361.5,501.5,362.7,502.4,365.1C502.3,365,502.4,365.1,502.4,365.1"/>
	<path class="st0" d="M507.2,384.7v0.2c0.3,2.3-1.3,4.5-3.6,4.8c-2.3,0.3-4.4-1.2-4.8-3.5V386c-0.4-2.3,1.2-4.5,3.5-4.9
		C504.6,380.8,506.8,382.3,507.2,384.7L507.2,384.7"/>
	<path class="st0" d="M508.4,404.9v0.2c-0.1,2.3-2,4-4.2,4c-2.2-0.1-4-1.9-4-4.2v-0.2c0-2.3,1.9-4.1,4.2-4
		C506.6,400.7,508.4,402.5,508.4,404.9C508.4,404.8,508.4,404.9,508.4,404.9"/>
	<path class="st0" d="M506,424.9v0.2c-0.4,2.1-2.5,3.5-4.7,3c-2.1-0.4-3.5-2.5-3.1-4.6v-0.2c0.4-2.1,2.5-3.5,4.6-3.1
		C505,420.6,506.4,422.7,506,424.9C506,424.8,506,424.9,506,424.9"/>
	<path class="st0" d="M500,444.1l-0.1,0.2c-0.8,1.9-3,2.9-5,2.1c-1.9-0.8-2.8-3-2.1-4.9l0.1-0.2c0.8-2,3-2.9,4.9-2.1
		C499.9,439.9,500.8,442.1,500,444.1C500.1,444.1,500,444.1,500,444.1"/>
	<path class="st0" d="M490.8,462l-0.1,0.2c-1.1,1.7-3.3,2.2-5,1.1s-2.2-3.3-1.1-5l0.1-0.2c1.1-1.7,3.3-2.2,5-1.2
		C491.3,458,491.9,460.2,490.8,462L490.8,462"/>
	<path class="st0" d="M478.5,477.9l-0.1,0.2c-1.3,1.4-3.5,1.5-4.9,0.2s-1.5-3.5-0.2-4.9l0.1-0.2c1.3-1.4,3.5-1.5,4.9-0.3
		C479.7,474.2,479.8,476.4,478.5,477.9L478.5,477.9"/>
	<path class="st0" d="M463.6,491.3l-0.2,0.1c-1.5,1.1-3.6,0.8-4.7-0.7s-0.8-3.5,0.6-4.6l0.2-0.1c1.5-1.1,3.6-0.9,4.7,0.6
		C465.4,488,465.1,490.1,463.6,491.3L463.6,491.3"/>
	<path class="st0" d="M446.6,501.8l-0.2,0.1c-1.6,0.8-3.5,0.1-4.3-1.4c-0.8-1.6-0.2-3.5,1.4-4.3l0.2-0.1c1.6-0.8,3.5-0.2,4.3,1.4
		S448.2,501,446.6,501.8L446.6,501.8"/>
	<path class="st0" d="M428,509.1l-0.2,0.1c-1.6,0.5-3.3-0.5-3.8-2.1s0.4-3.3,2-3.7l0.2-0.1c1.6-0.5,3.3,0.4,3.8,2
		S429.6,508.6,428,509.1L428,509.1"/>
	<path class="st0" d="M408.4,513h-0.2c-1.6,0.2-3-1-3.2-2.6s1-3,2.5-3.2h0.2c1.6-0.2,3,0.9,3.2,2.5C411.2,511.4,410,512.8,408.4,513
		L408.4,513"/>
	<path class="st0" d="M388.5,513.3h-0.2c-1.5-0.1-2.6-1.4-2.5-2.9s1.4-2.6,2.9-2.5h0.2c1.5,0.1,2.7,1.4,2.6,2.9
		C391.3,512.3,390,513.4,388.5,513.3L388.5,513.3"/>
	<path class="st0" d="M368.8,510.1l-0.2-0.1c-1.4-0.4-2.2-1.8-1.9-3.1c0.4-1.4,1.7-2.2,3.1-1.9l0.2,0.1c1.4,0.3,2.2,1.7,1.9,3.1
		C371.6,509.6,370.2,510.4,368.8,510.1L368.8,510.1"/>
	<path class="st0" d="M350.1,503.4l-0.2-0.1c-1.2-0.6-1.7-2-1.2-3.2c0.6-1.2,2-1.7,3.2-1.2l0.2,0.1c1.2,0.5,1.8,2,1.2,3.2
		C352.8,503.4,351.3,504,350.1,503.4L350.1,503.4"/>
	<path class="st0" d="M332.8,493.5l-0.2-0.1c-1-0.7-1.3-2.1-0.5-3.2c0.7-1,2.1-1.3,3.1-0.6l0.2,0.1c1,0.7,1.3,2.1,0.6,3.2
		C335.3,493.9,333.9,494.2,332.8,493.5C332.9,493.5,332.9,493.5,332.8,493.5"/>
	<path class="st0" d="M317.7,480.6l-0.1-0.2c-0.8-0.8-0.8-2.2,0-3s2.2-0.8,3,0l0.2,0.1c0.8,0.8,0.8,2.2,0,3
		C319.9,481.5,318.6,481.5,317.7,480.6C317.7,480.7,317.7,480.6,317.7,480.6"/>
	<path class="st0" d="M305.1,465.4l-0.1-0.2c-0.6-0.9-0.4-2.1,0.5-2.7s2.1-0.4,2.7,0.5l0.1,0.2c0.6,0.9,0.4,2.1-0.5,2.7
		C307,466.5,305.8,466.3,305.1,465.4L305.1,465.4"/>
	<path class="st0" d="M295.5,448.1l-0.1-0.2c-0.4-0.9,0-2,0.9-2.4s2,0,2.4,0.9l0.1,0.2c0.4,0.9,0,2-0.9,2.4S295.9,449,295.5,448.1
		L295.5,448.1"/>
	<path class="st0" d="M289.1,429.4l-0.1-0.2c-0.2-0.9,0.3-1.8,1.2-2c0.9-0.2,1.8,0.3,2,1.2l0.1,0.2c0.2,0.9-0.3,1.8-1.2,2
		C290.2,430.9,289.3,430.4,289.1,429.4C289.1,429.5,289.1,429.4,289.1,429.4"/>
	<path class="st0" d="M286.1,409.9v-0.2c0-0.8,0.6-1.6,1.4-1.6s1.5,0.6,1.6,1.4v0.2c0.1,0.8-0.6,1.6-1.4,1.6
		C286.9,411.4,286.2,410.8,286.1,409.9C286.1,410,286.1,409.9,286.1,409.9"/>
	<path class="st0" d="M286.7,390.2V390c0.1-0.7,0.8-1.3,1.5-1.2c0.7,0.1,1.3,0.8,1.2,1.5v0.2c-0.1,0.8-0.8,1.3-1.5,1.2
		C287.2,391.7,286.6,391,286.7,390.2C286.7,390.3,286.7,390.2,286.7,390.2"/>
	<path class="st0" d="M290.7,371l0.1-0.2c0.2-0.6,0.9-1,1.5-0.8s1,0.9,0.8,1.5l-0.1,0.2c-0.2,0.6-0.9,1-1.5,0.8
		S290.6,371.7,290.7,371L290.7,371"/>
	<path class="st0" d="M298.2,352.8l0.1-0.2c0.3-0.5,0.9-0.7,1.4-0.5c0.5,0.3,0.7,0.9,0.5,1.4l-0.1,0.2c-0.3,0.5-0.9,0.7-1.4,0.5
		C298.1,354,297.9,353.3,298.2,352.8L298.2,352.8"/>
	<path class="st0" d="M308.7,336.2l0.1-0.2c0.3-0.4,0.9-0.5,1.3-0.2s0.5,0.9,0.2,1.3l-0.1,0.2c-0.3,0.4-0.9,0.5-1.3,0.2
		C308.5,337.2,308.4,336.7,308.7,336.2C308.7,336.3,308.7,336.2,308.7,336.2"/>
	<path class="st0" d="M322,321.9l0.2-0.1c0.3-0.3,0.8-0.3,1.1,0.1c0.3,0.3,0.3,0.8,0,1.1l-0.2,0.1c-0.3,0.3-0.8,0.3-1.1,0
		C321.7,322.7,321.7,322.2,322,321.9L322,321.9"/>
	<path class="st0" d="M337.7,310.1l0.2-0.1c0.3-0.2,0.7-0.1,0.8,0.2c0.2,0.3,0.1,0.6-0.2,0.8l-0.2,0.1c-0.3,0.2-0.7,0.1-0.8-0.2
		C337.3,310.7,337.4,310.3,337.7,310.1L337.7,310.1"/>
	<path class="st0" d="M355.1,301.4l0.2-0.1c0.2-0.1,0.5,0,0.6,0.3c0.1,0.2,0,0.5-0.3,0.6l-0.2,0.1c-0.2,0.1-0.5,0-0.6-0.2
		C354.8,301.7,354.9,301.5,355.1,301.4L355.1,301.4"/>
	<path class="st0" d="M373.8,295.9h0.2c0.2,0,0.3,0.1,0.4,0.2c0,0.2-0.1,0.3-0.2,0.4H374c-0.2,0-0.3-0.1-0.4-0.2
		C373.5,296.1,373.6,295.9,373.8,295.9L373.8,295.9z"/>
	<path class="st0" d="M393.2,293.8h0.2c0.1,0,0.2,0.1,0.2,0.1c0,0.1-0.1,0.2-0.1,0.2h-0.2c-0.1,0-0.2-0.1-0.2-0.1
		C393,293.9,393.1,293.8,393.2,293.8L393.2,293.8z"/>
	<path class="st0" d="M396.1,303.5h0.2c2.6,0,4.6,2.1,4.6,4.7c0,2.5-2.1,4.6-4.6,4.6h-0.2c-2.6,0-4.6-2-4.7-4.6
		C391.5,305.6,393.5,303.5,396.1,303.5L396.1,303.5z"/>
	<path class="st0" d="M413.8,305.2h0.2c2.4,0.5,4,2.8,3.6,5.3c-0.5,2.4-2.8,4-5.2,3.6h-0.2c-2.4-0.4-4.1-2.8-3.7-5.2
		C409,306.4,411.3,304.8,413.8,305.2C413.7,305.2,413.8,305.2,413.8,305.2"/>
	<path class="st0" d="M430.8,310l0.2,0.1c2.2,0.9,3.4,3.4,2.5,5.6s-3.3,3.3-5.6,2.5l-0.2-0.1c-2.3-0.8-3.4-3.3-2.6-5.6
		C426,310.3,428.5,309.2,430.8,310L430.8,310"/>
	<path class="st0" d="M446.7,317.8l0.2,0.1c2,1.2,2.6,3.8,1.4,5.8s-3.8,2.6-5.8,1.4l-0.2-0.1c-2-1.2-2.7-3.8-1.5-5.8
		C442.1,317.3,444.7,316.6,446.7,317.8L446.7,317.8"/>
	<path class="st0" d="M460.9,328.3l0.1,0.1c1.7,1.5,1.8,4.1,0.3,5.8c-1.5,1.7-4,1.8-5.7,0.4l-0.1-0.1c-1.7-1.5-1.9-4.1-0.4-5.8
		C456.6,327,459.2,326.8,460.9,328.3L460.9,328.3"/>
	<path class="st0" d="M473,341.2l0.1,0.1c1.4,1.7,1,4.2-0.7,5.6c-1.7,1.3-4.2,1.1-5.5-0.6l-0.1-0.1c-1.4-1.7-1.1-4.2,0.6-5.6
		S471.6,339.4,473,341.2C473,341.1,473,341.2,473,341.2"/>
	<path class="st0" d="M482.6,355.9l0.1,0.2c1,1.9,0.3,4.2-1.6,5.2s-4.1,0.3-5.1-1.5l-0.1-0.2c-1-1.9-0.3-4.2,1.5-5.2
		C479.2,353.3,481.5,354,482.6,355.9L482.6,355.9"/>
	<path class="st0" d="M489.4,372.1l0.1,0.2c0.6,2-0.5,4-2.4,4.6s-4-0.4-4.6-2.4l-0.1-0.2c-0.6-1.9,0.4-4,2.3-4.7
		C486.6,369.1,488.7,370.1,489.4,372.1L489.4,372.1"/>
	<path class="st0" d="M493.2,389.3v0.2c0.2,2-1.1,3.7-3.1,4c-1.9,0.2-3.7-1.1-4-3v-0.2c-0.3-1.9,1.1-3.8,3-4
		C491.1,385.9,492.9,387.3,493.2,389.3C493.2,389.2,493.2,389.3,493.2,389.3"/>
	<path class="st0" d="M493.8,406.8v0.2c-0.1,1.9-1.7,3.3-3.6,3.2c-1.9-0.1-3.3-1.7-3.3-3.6v-0.2c0.1-1.9,1.7-3.4,3.6-3.3
		C492.4,403.3,493.9,404.9,493.8,406.8L493.8,406.8"/>
	<path class="st0" d="M491.4,424.2v0.2c-0.4,1.8-2.2,2.9-4,2.5s-2.9-2.2-2.5-3.9v-0.2c0.4-1.8,2.2-2.9,3.9-2.5
		C490.6,420.6,491.8,422.3,491.4,424.2C491.4,424.1,491.4,424.2,491.4,424.2"/>
	<path class="st0" d="M485.8,440.8l-0.1,0.2c-0.7,1.6-2.6,2.3-4.2,1.6c-1.6-0.7-2.3-2.5-1.7-4.1l0.1-0.2c0.7-1.6,2.5-2.4,4.2-1.7
		C485.8,437.3,486.5,439.1,485.8,440.8C485.8,440.7,485.8,440.8,485.8,440.8"/>
	<path class="st0" d="M477.4,456.1l-0.1,0.2c-0.9,1.4-2.8,1.8-4.2,0.8c-1.4-0.9-1.7-2.8-0.8-4.2l0.1-0.2c0.9-1.4,2.8-1.8,4.2-0.9
		C478,452.8,478.4,454.6,477.4,456.1L477.4,456.1"/>
	<path class="st0" d="M466.4,469.6l-0.1,0.1c-1.1,1.1-3,1.2-4.1,0.1s-1.2-2.9-0.1-4.1l0.1-0.1c1.1-1.2,2.9-1.2,4.1-0.1
		S467.6,468.4,466.4,469.6C466.5,469.6,466.5,469.6,466.4,469.6"/>
	<path class="st0" d="M453.3,481l-0.1,0.1c-1.2,0.9-3,0.6-3.9-0.6s-0.6-2.9,0.6-3.8l0.1-0.1c1.2-0.9,3-0.7,3.9,0.6
		C454.8,478.3,454.5,480.1,453.3,481L453.3,481"/>
	<path class="st0" d="M438.3,489.8l-0.2,0.1c-1.3,0.6-2.9,0.1-3.5-1.3c-0.6-1.3-0.1-2.9,1.2-3.5l0.2-0.1c1.3-0.6,2.9-0.1,3.5,1.2
		C440.2,487.6,439.6,489.2,438.3,489.8L438.3,489.8"/>
	<path class="st0" d="M422,495.8h-0.2c-1.3,0.4-2.7-0.4-3.1-1.8c-0.4-1.3,0.4-2.7,1.7-3.1l0.2-0.1c1.3-0.4,2.7,0.4,3.1,1.7
		C424.1,494.1,423.4,495.4,422,495.8L422,495.8"/>
	<path class="st0" d="M404.9,498.8h-0.2c-1.3,0.1-2.5-0.9-2.6-2.2c-0.1-1.3,0.9-2.4,2.1-2.6h0.2c1.3-0.1,2.5,0.8,2.6,2.1
		C407.2,497.5,406.2,498.7,404.9,498.8L404.9,498.8"/>
	<path class="st0" d="M387.6,498.7h-0.2c-1.2-0.1-2.1-1.2-2-2.5c0.1-1.2,1.2-2.1,2.4-2h0.2c1.2,0.1,2.2,1.2,2.1,2.4
		C389.9,497.9,388.8,498.8,387.6,498.7L387.6,498.7"/>
	<path class="st0" d="M370.5,495.5l-0.2-0.1c-1.1-0.3-1.8-1.5-1.5-2.6s1.5-1.8,2.6-1.5h0.2c1.1,0.3,1.8,1.5,1.5,2.6
		C372.9,495.1,371.7,495.8,370.5,495.5C370.6,495.5,370.5,495.5,370.5,495.5"/>
	<path class="st0" d="M354.4,489.3l-0.2-0.1c-1-0.5-1.4-1.7-0.9-2.7s1.6-1.4,2.6-0.9l0.2,0.1c1,0.5,1.4,1.6,0.9,2.6
		C356.6,489.4,355.4,489.8,354.4,489.3L354.4,489.3"/>
	<path class="st0" d="M339.7,480.3l-0.1-0.1c-0.8-0.6-1-1.8-0.4-2.6c0.6-0.8,1.7-1,2.6-0.4l0.2,0.1c0.8,0.6,1,1.7,0.4,2.6
		C341.7,480.8,340.5,481,339.7,480.3C339.7,480.4,339.7,480.3,339.7,480.3"/>
	<path class="st0" d="M326.8,468.9l-0.1-0.1c-0.6-0.7-0.6-1.8,0.1-2.4s1.8-0.6,2.4,0.1l0.1,0.1c0.7,0.7,0.6,1.8,0,2.4
		C328.5,469.6,327.4,469.6,326.8,468.9L326.8,468.9"/>
	<path class="st0" d="M316.1,455.4l-0.1-0.2c-0.5-0.7-0.3-1.7,0.5-2.2c0.7-0.5,1.7-0.3,2.2,0.4l0.1,0.2c0.5,0.7,0.3,1.7-0.4,2.2
		C317.6,456.4,316.6,456.2,316.1,455.4L316.1,455.4"/>
	<path class="st0" d="M308.1,440.2L308,440c-0.3-0.7,0-1.6,0.8-1.9c0.7-0.3,1.6,0,1.9,0.8l0.1,0.2c0.3,0.7,0,1.6-0.7,1.9
		C309.3,441.3,308.4,441,308.1,440.2C308.1,440.3,308.1,440.2,308.1,440.2"/>
	<path class="st0" d="M302.9,423.9v-0.2c-0.2-0.7,0.3-1.4,1-1.6s1.4,0.3,1.6,1v0.2c0.2,0.7-0.3,1.4-1,1.6S303,424.6,302.9,423.9
		L302.9,423.9"/>
	<path class="st0" d="M300.7,406.9v-0.2c0-0.7,0.5-1.2,1.1-1.2c0.7,0,1.2,0.5,1.2,1.1v0.2c0,0.7-0.5,1.2-1.1,1.2
		C301.3,408.1,300.7,407.6,300.7,406.9L300.7,406.9"/>
	<path class="st0" d="M301.6,389.8v-0.2c0.1-0.6,0.6-1,1.2-0.9s1,0.6,0.9,1.2v0.2c-0.1,0.6-0.6,1-1.2,0.9S301.5,390.4,301.6,389.8
		L301.6,389.8"/>
	<path class="st0" d="M305.5,373.1l0.1-0.2c0.2-0.5,0.7-0.7,1.2-0.6c0.5,0.2,0.7,0.7,0.6,1.2l-0.1,0.2c-0.2,0.5-0.7,0.8-1.2,0.6
		C305.6,374.2,305.3,373.6,305.5,373.1C305.5,373.2,305.5,373.1,305.5,373.1"/>
	<path class="st0" d="M312.3,357.5l0.1-0.2c0.2-0.4,0.7-0.5,1.1-0.3s0.5,0.7,0.3,1.1l-0.1,0.2c-0.2,0.4-0.7,0.5-1.1,0.3
		C312.2,358.4,312.1,357.9,312.3,357.5L312.3,357.5"/>
	<path class="st0" d="M321.8,343.3l0.1-0.1c0.2-0.3,0.6-0.3,0.9-0.1c0.3,0.2,0.3,0.6,0.1,0.9l-0.1,0.1c-0.2,0.3-0.6,0.3-0.9,0.1
		C321.6,344.1,321.5,343.6,321.8,343.3L321.8,343.3"/>
	<path class="st0" d="M333.6,331.1l0.1-0.1c0.2-0.2,0.6-0.2,0.7,0.1c0.2,0.2,0.2,0.5-0.1,0.7l-0.1,0.1c-0.2,0.2-0.6,0.2-0.7,0
		S333.4,331.3,333.6,331.1L333.6,331.1"/>
	<path class="st0" d="M347.4,321.2l0.2-0.1c0.2-0.1,0.4-0.1,0.5,0.1s0.1,0.4-0.1,0.5l-0.2,0.1c-0.2,0.1-0.4,0.1-0.5-0.1
		C347.1,321.6,347.2,321.3,347.4,321.2L347.4,321.2z"/>
	<path class="st0" d="M362.7,313.9l0.2-0.1c0.1,0,0.3,0,0.3,0.2c0.1,0.1,0,0.3-0.2,0.3l-0.2,0.1c-0.1,0.1-0.3,0-0.3-0.2
		C362.5,314.1,362.6,314,362.7,313.9L362.7,313.9z"/>
	<path class="st0" d="M379.1,309.5h0.2c0.1,0,0.1,0,0.2,0.1c0,0.1,0,0.1-0.1,0.2h-0.2c-0.1,0-0.1,0-0.2-0.1S379,309.5,379.1,309.5
		L379.1,309.5z"/>
	<path class="st0" d="M383,317.4h0.2c2.2-0.3,4.2,1.2,4.6,3.4c0.3,2.2-1.2,4.2-3.3,4.6h-0.2c-2.2,0.4-4.3-1.1-4.6-3.3
		C379.3,319.8,380.7,317.8,383,317.4L383,317.4"/>
	<path class="st0" d="M398.4,316.5h0.2c2.2,0.1,3.9,1.9,3.8,4s-1.8,3.8-4,3.8h-0.2c-2.2,0-3.9-1.8-3.8-4
		C394.4,318.1,396.2,316.4,398.4,316.5L398.4,316.5"/>
	<path class="st0" d="M413.7,318.3h0.2c2,0.4,3.4,2.5,2.9,4.5c-0.4,2-2.4,3.3-4.4,2.9l-1.7-0.4c-0.1-0.1-0.2-0.2-0.4-0.2
		C407.4,321.2,410.5,317.6,413.7,318.3L413.7,318.3"/>
	<path class="st0" d="M428.4,322.8l0.1,0.1c1.9,0.8,2.8,2.9,2,4.8s-2.9,2.8-4.7,2l-0.1-0.1c-1.9-0.7-2.8-2.9-2.1-4.8
		C424.3,323,426.5,322.1,428.4,322.8L428.4,322.8"/>
	<path class="st0" d="M442,329.9l0.1,0.1c1.7,1.1,2.1,3.3,1.1,4.9c-1.1,1.6-3.2,2.1-4.9,1.1l-0.1-0.1c-1.7-1-2.2-3.2-1.2-4.9
		C438.1,329.4,440.3,328.9,442,329.9L442,329.9"/>
	<path class="st0" d="M454.2,339.3l0.1,0.1c1.4,1.3,1.5,3.5,0.2,4.9s-3.4,1.5-4.8,0.2l-0.1-0.1c-1.4-1.3-1.5-3.5-0.3-4.9
		C450.5,338.1,452.7,338,454.2,339.3C454.1,339.3,454.2,339.3,454.2,339.3"/>
	<path class="st0" d="M464.4,350.7l0.1,0.1c1.1,1.5,0.8,3.6-0.7,4.7s-3.5,0.8-4.6-0.6l-0.1-0.1c-1.1-1.5-0.9-3.6,0.6-4.7
		C461.2,348.9,463.3,349.2,464.4,350.7C464.4,350.6,464.4,350.7,464.4,350.7"/>
	<path class="st0" d="M472.5,363.7l0.1,0.1c0.8,1.6,0.1,3.5-1.4,4.3c-1.6,0.8-3.5,0.2-4.3-1.4l-0.1-0.1c-0.8-1.6-0.2-3.5,1.4-4.3
		C469.7,361.4,471.6,362.1,472.5,363.7C472.5,363.6,472.5,363.7,472.5,363.7"/>
	<path class="st0" d="M478.1,377.9v0.2c0.5,1.6-0.5,3.4-2.1,3.8c-1.6,0.5-3.3-0.5-3.8-2.1v-0.2c-0.5-1.6,0.4-3.4,2.1-3.9
		C475.8,375.3,477.5,376.2,478.1,377.9C478,377.9,478.1,377.9,478.1,377.9"/>
	<path class="st0" d="M481,392.9v0.2c0.2,1.6-1,3.1-2.7,3.3c-1.6,0.2-3.1-1-3.3-2.6v-0.2c-0.2-1.6,1-3.1,2.6-3.3
		C479.3,390,480.8,391.2,481,392.9C481,392.8,481,392.9,481,392.9"/>
	<path class="st0" d="M481.2,408.1v0.2c-0.1,1.6-1.5,2.8-3.1,2.6c-1.6-0.1-2.7-1.5-2.7-3v-0.2c0.1-1.6,1.5-2.8,3-2.7
		C480.1,405.1,481.3,406.5,481.2,408.1C481.3,408.1,481.2,408.1,481.2,408.1"/>
	<path class="st0" d="M478.8,423.2v0.2c-0.4,1.5-1.9,2.4-3.4,2s-2.3-1.9-2-3.3v-0.2c0.4-1.5,1.9-2.4,3.3-2
		C478.2,420.1,479.1,421.6,478.8,423.2C478.8,423.1,478.8,423.1,478.8,423.2"/>
	<path class="st0" d="M473.6,437.5l-0.1,0.1c-0.6,1.3-2.2,1.9-3.5,1.3s-1.9-2.2-1.3-3.5l0.1-0.1c0.6-1.3,2.2-1.9,3.5-1.3
		C473.6,434.5,474.2,436.1,473.6,437.5C473.6,437.4,473.6,437.5,473.6,437.5"/>
	<path class="st0" d="M466,450.6l-0.1,0.1c-0.8,1.1-2.4,1.4-3.5,0.6s-1.4-2.4-0.6-3.5l0.1-0.1c0.8-1.2,2.4-1.5,3.5-0.7
		S466.8,449.4,466,450.6C466.1,450.6,466,450.6,466,450.6"/>
	<path class="st0" d="M456.2,462.2l-0.1,0.1c-0.9,0.9-2.5,0.9-3.4,0s-0.9-2.4,0-3.4l0.1-0.1c0.9-0.9,2.5-1,3.4,0
		C457.2,459.6,457.2,461.2,456.2,462.2C456.3,462.1,456.3,462.1,456.2,462.2"/>
	<path class="st0" d="M444.6,471.8l-0.1,0.1c-1,0.7-2.5,0.4-3.2-0.6s-0.4-2.5,0.6-3.2l0.1-0.1c1-0.7,2.5-0.5,3.2,0.6
		C445.9,469.6,445.6,471,444.6,471.8L444.6,471.8"/>
	<path class="st0" d="M431.4,479.1l-0.1,0.1c-1.1,0.5-2.4,0-2.9-1.1s0-2.4,1.1-2.9l0.1-0.1c1.1-0.5,2.4,0,2.9,1.1
		C433,477.3,432.5,478.6,431.4,479.1L431.4,479.1"/>
	<path class="st0" d="M417.1,484h-0.2c-1.1,0.3-2.2-0.4-2.5-1.5s0.4-2.2,1.5-2.5h0.2c1.1-0.3,2.2,0.4,2.5,1.5S418.2,483.7,417.1,484
		L417.1,484"/>
	<path class="st0" d="M402.2,486.3H402c-1.1,0.1-2-0.8-2.1-1.8c-0.1-1.1,0.7-2,1.8-2.1h0.2c1.1-0.1,2,0.7,2.1,1.8
		C404.1,485.3,403.3,486.2,402.2,486.3L402.2,486.3z"/>
	<path class="st0" d="M387.1,485.9h-0.2c-1-0.1-1.7-1-1.6-2s1-1.7,2-1.6h0.2c1,0.1,1.7,1,1.6,2C389.1,485.2,388.2,486,387.1,485.9
		C387.2,485.9,387.1,485.9,387.1,485.9"/>
	<path class="st0" d="M372.4,482.7h-0.2c-0.9-0.3-1.4-1.2-1.1-2.2c0.3-0.9,1.2-1.4,2.1-1.1h0.2c0.9,0.3,1.4,1.2,1.2,2.1
		C374.3,482.5,373.4,483,372.4,482.7L372.4,482.7"/>
	<path class="st0" d="M358.5,477l-0.1-0.1c-0.8-0.4-1.1-1.4-0.7-2.2c0.4-0.8,1.4-1.1,2.1-0.7l0.1,0.1c0.8,0.4,1.1,1.4,0.7,2.2
		C360.3,477.1,359.3,477.4,358.5,477C358.6,477,358.5,477,358.5,477"/>
	<path class="st0" d="M345.9,469l-0.1-0.1c-0.7-0.5-0.8-1.4-0.3-2.1c0.5-0.6,1.4-0.8,2.1-0.3l0.1,0.1c0.7,0.5,0.8,1.4,0.3,2.1
		C347.5,469.3,346.6,469.5,345.9,469L345.9,469"/>
	<path class="st0" d="M334.9,458.8l-0.1-0.1c-0.5-0.6-0.5-1.4,0.1-2c0.6-0.5,1.4-0.5,1.9,0.1l0.1,0.1c0.5,0.6,0.5,1.4-0.1,2
		C336.3,459.4,335.5,459.4,334.9,458.8L334.9,458.8"/>
	<path class="st0" d="M325.9,446.9l-0.1-0.1c-0.4-0.6-0.2-1.4,0.4-1.7c0.6-0.4,1.4-0.2,1.7,0.4l0.1,0.1c0.4,0.6,0.2,1.4-0.4,1.7
		C327.1,447.7,326.3,447.5,325.9,446.9L325.9,446.9"/>
	<path class="st0" d="M319.2,433.5l-0.1-0.1c-0.2-0.6,0.1-1.3,0.7-1.5s1.2,0.1,1.5,0.6l0.1,0.1c0.2,0.6,0,1.3-0.6,1.5
		C320.2,434.4,319.5,434.1,319.2,433.5C319.3,433.5,319.2,433.5,319.2,433.5"/>
	<path class="st0" d="M315.1,419.2V419c-0.1-0.6,0.3-1.1,0.8-1.2c0.6-0.1,1.1,0.2,1.2,0.8v0.2c0.1,0.6-0.2,1.1-0.8,1.2
		C315.7,420.2,315.2,419.8,315.1,419.2L315.1,419.2"/>
	<path class="st0" d="M313.5,404.4v-0.2c0-0.5,0.4-0.9,0.9-0.9s0.9,0.4,0.9,0.9v0.2c0,0.5-0.4,0.9-0.9,0.9S313.5,404.9,313.5,404.4
		L313.5,404.4z"/>
	<path class="st0" d="M314.6,389.6v-0.2c0.1-0.4,0.5-0.7,0.9-0.7c0.4,0.1,0.7,0.5,0.7,0.9v0.2c-0.1,0.4-0.5,0.7-0.9,0.7
		C314.8,390.4,314.5,390,314.6,389.6L314.6,389.6"/>
	<path class="st0" d="M318.3,375.2l0.1-0.2c0.1-0.4,0.5-0.5,0.9-0.4s0.5,0.5,0.4,0.9l-0.1,0.2c-0.1,0.4-0.5,0.6-0.9,0.4
		C318.4,376,318.2,375.6,318.3,375.2L318.3,375.2"/>
	<path class="st0" d="M324.5,361.7l0.1-0.1c0.2-0.3,0.5-0.4,0.8-0.2c0.3,0.2,0.4,0.5,0.2,0.8l-0.1,0.1c-0.2,0.3-0.5,0.4-0.8,0.2
		C324.5,362.4,324.4,362,324.5,361.7C324.5,361.8,324.5,361.7,324.5,361.7"/>
	<path class="st0" d="M333,349.6l0.1-0.1c0.2-0.2,0.5-0.2,0.6-0.1c0.2,0.2,0.2,0.4,0.1,0.6l-0.1,0.1c-0.2,0.2-0.4,0.2-0.6,0.1
		S332.9,349.8,333,349.6L333,349.6"/>
	<path class="st0" d="M343.5,339.2l0.1-0.1c0.1-0.1,0.4-0.1,0.5,0s0.1,0.4,0,0.5l-0.1,0.1c-0.1,0.1-0.4,0.1-0.5,0
		S343.4,339.4,343.5,339.2L343.5,339.2"/>
	<path class="st0" d="M355.7,330.9l0.1-0.1c0.1-0.1,0.3,0,0.3,0.1c0.1,0.1,0,0.2-0.1,0.3l-0.1,0.1c-0.1,0.1-0.3,0-0.3-0.1
		C355.6,331.1,355.6,331,355.7,330.9L355.7,330.9"/>
	<path class="st0" d="M369.2,324.9l0.2-0.1c0.1,0,0.1,0,0.1,0.1s0,0.1-0.1,0.1l-0.2,0.1c-0.1,0-0.1,0-0.1-0.1
		C369.1,325,369.1,324.9,369.2,324.9L369.2,324.9"/>
	<path class="st0" d="M373.6,331.2h0.1c1.8-0.6,3.8,0.4,4.4,2.3c0.6,1.8-0.4,3.8-2.2,4.4h-0.1c-1.8,0.6-3.8-0.4-4.4-2.2
		C370.7,333.8,371.7,331.8,373.6,331.2L373.6,331.2"/>
	<path class="st0" d="M386.7,328.3h0.1c1.9-0.2,3.6,1.1,3.8,2.9c0.2,1.8-1.1,3.5-2.9,3.8h-0.1c-1.9,0.3-3.6-1-3.8-2.9
		C383.5,330.3,384.8,328.5,386.7,328.3L386.7,328.3"/>
	<path class="st0" d="M400.1,327.8h0.1c1.8,0.1,3.2,1.7,3.1,3.5s-1.6,3.2-3.4,3.1h-0.1c-1.8-0.1-3.2-1.6-3.2-3.4
		C396.7,329.1,398.2,327.7,400.1,327.8L400.1,327.8"/>
	<path class="st0" d="M413.4,329.7h0.1c1.7,0.4,2.8,2.1,2.4,3.9c-0.4,1.7-2.1,2.8-3.8,2.4H412c-1.7-0.4-2.8-2.1-2.4-3.8
		C409.9,330.4,411.6,329.3,413.4,329.7C413.3,329.7,413.4,329.7,413.4,329.7"/>
	<path class="st0" d="M426,333.9l0.1,0.1c1.6,0.7,2.3,2.5,1.6,4.1c-0.7,1.6-2.5,2.3-4,1.6l-0.1-0.1c-1.6-0.7-2.3-2.5-1.7-4.1
		C422.6,334,424.4,333.2,426,333.9L426,333.9"/>
	<path class="st0" d="M437.7,340.3l0.1,0.1c1.4,0.9,1.7,2.8,0.8,4.2c-0.9,1.4-2.7,1.7-4.1,0.8l-0.1-0.1c-1.4-0.9-1.8-2.8-0.9-4.2
		C434.4,339.8,436.3,339.4,437.7,340.3L437.7,340.3"/>
	<path class="st0" d="M448.1,348.7L448.1,348.7c1.2,1.2,1.3,3,0.2,4.2c-1.1,1.1-2.9,1.2-4.1,0.1l-0.1-0.1c-1.2-1.1-1.2-2.9-0.1-4.1
		S446.9,347.5,448.1,348.7L448.1,348.7"/>
	<path class="st0" d="M456.8,358.8l0.1,0.1c0.9,1.3,0.6,3-0.7,3.9c-1.2,0.9-3,0.6-3.9-0.6l-0.1-0.1c-0.9-1.2-0.7-3,0.6-3.9
		C454.1,357.2,455.8,357.5,456.8,358.8C456.8,358.7,456.8,358.8,456.8,358.8"/>
	<path class="st0" d="M463.5,370.2l0.1,0.1c0.6,1.4,0.1,3-1.3,3.6c-1.3,0.6-2.9,0.1-3.6-1.3l-0.1-0.1c-0.7-1.3-0.1-3,1.2-3.6
		C461.2,368.3,462.8,368.8,463.5,370.2L463.5,370.2"/>
	<path class="st0" d="M468.1,382.7v0.1c0.4,1.4-0.5,2.8-1.8,3.2c-1.4,0.4-2.8-0.4-3.2-1.8v-0.1c-0.4-1.4,0.4-2.8,1.8-3.2
		C466.2,380.5,467.7,381.3,468.1,382.7L468.1,382.7"/>
	<path class="st0" d="M470.4,395.8v0.1c0.1,1.4-0.9,2.6-2.3,2.7s-2.6-0.9-2.7-2.2v-0.1c-0.1-1.4,0.9-2.6,2.2-2.7
		C469,393.3,470.2,394.3,470.4,395.8C470.4,395.7,470.4,395.8,470.4,395.8"/>
	<path class="st0" d="M470.3,409v0.1c-0.1,1.3-1.3,2.3-2.6,2.2c-1.3-0.1-2.3-1.3-2.2-2.6v-0.1c0.1-1.3,1.3-2.3,2.6-2.2
		C469.4,406.5,470.4,407.6,470.3,409L470.3,409"/>
	<path class="st0" d="M467.8,422v0.1c-0.3,1.2-1.6,1.9-2.8,1.6c-1.2-0.3-1.9-1.6-1.6-2.8v-0.1c0.3-1.2,1.6-2,2.8-1.6
		C467.4,419.5,468.1,420.7,467.8,422L467.8,422"/>
	<path class="st0" d="M463.1,434.3l-0.1,0.1c-0.5,1.1-1.9,1.5-2.9,1c-1.1-0.5-1.5-1.8-1-2.9l0.1-0.1c0.5-1.1,1.8-1.6,2.9-1
		C463.1,431.9,463.6,433.2,463.1,434.3L463.1,434.3"/>
	<path class="st0" d="M456.2,445.6l-0.1,0.1c-0.7,0.9-2,1.1-2.9,0.4s-1.1-2-0.5-2.9l0.1-0.1c0.7-0.9,2-1.2,2.9-0.5
		C456.7,443.3,456.9,444.6,456.2,445.6C456.3,445.6,456.2,445.6,456.2,445.6"/>
	<path class="st0" d="M447.5,455.4L447.5,455.4c-0.9,0.9-2.2,0.8-2.9,0c-0.7-0.8-0.7-2,0.1-2.8l0.1-0.1c0.8-0.8,2.1-0.8,2.8,0
		C448.4,453.4,448.3,454.6,447.5,455.4L447.5,455.4"/>
	<path class="st0" d="M437.2,463.6l-0.1,0.1c-0.9,0.6-2.1,0.3-2.6-0.6c-0.6-0.9-0.3-2,0.5-2.6l0.1-0.1c0.9-0.6,2-0.4,2.6,0.5
		C438.3,461.8,438.1,463,437.2,463.6L437.2,463.6"/>
	<path class="st0" d="M425.6,469.7l-0.1,0.1c-0.9,0.4-2-0.1-2.4-1s0-2,0.9-2.3l0.1-0.1c0.9-0.4,2,0,2.4,0.9S426.5,469.3,425.6,469.7
		L425.6,469.7"/>
	<path class="st0" d="M413.1,473.7H413c-0.9,0.2-1.8-0.4-2-1.3s0.4-1.8,1.3-2h0.1c0.9-0.2,1.8,0.3,2,1.3
		C414.6,472.5,414,473.5,413.1,473.7L413.1,473.7"/>
	<path class="st0" d="M400.1,475.4H400c-0.9,0-1.6-0.7-1.7-1.5c0-0.9,0.6-1.6,1.5-1.7h0.1c0.9,0,1.6,0.6,1.7,1.5
		C401.7,474.6,401,475.3,400.1,475.4L400.1,475.4z"/>
	<path class="st0" d="M387,474.7h-0.1c-0.8-0.1-1.4-0.9-1.3-1.7c0.1-0.8,0.9-1.4,1.7-1.3h0.1c0.8,0.1,1.4,0.9,1.3,1.7
		C388.6,474.2,387.8,474.8,387,474.7L387,474.7"/>
	<path class="st0" d="M374.3,471.7h-0.1c-0.7-0.2-1.1-1-0.9-1.8c0.2-0.7,1-1.1,1.7-0.9h0.1c0.7,0.2,1.1,1,0.9,1.8
		C375.8,471.5,375,471.9,374.3,471.7L374.3,471.7"/>
	<path class="st0" d="M362.3,466.5l-0.1-0.1c-0.6-0.3-0.9-1.1-0.5-1.8c0.3-0.6,1.1-0.9,1.7-0.5l0.1,0.1c0.6,0.3,0.9,1.1,0.5,1.8
		C363.8,466.6,363,466.8,362.3,466.5C362.4,466.5,362.3,466.5,362.3,466.5"/>
	<path class="st0" d="M351.5,459.2l-0.1-0.1c-0.5-0.4-0.6-1.2-0.2-1.7s1.2-0.6,1.7-0.2l0.1,0.1c0.5,0.4,0.6,1.2,0.2,1.7
		C352.8,459.6,352.1,459.6,351.5,459.2L351.5,459.2"/>
	<path class="st0" d="M342.2,450.2l-0.1-0.1c-0.4-0.5-0.3-1.2,0.1-1.6c0.5-0.4,1.1-0.3,1.5,0.1l0.1,0.1c0.4,0.5,0.4,1.1-0.1,1.6
		C343.3,450.7,342.6,450.7,342.2,450.2L342.2,450.2"/>
	<path class="st0" d="M334.6,439.6l-0.1-0.1c-0.3-0.5-0.1-1.1,0.4-1.4s1.1-0.1,1.4,0.3l0.1,0.1c0.3,0.5,0.1,1.1-0.3,1.4
		C335.5,440.3,334.9,440.1,334.6,439.6L334.6,439.6"/>
	<path class="st0" d="M329.1,427.9v-0.1c-0.2-0.5,0.1-1,0.5-1.2c0.5-0.2,1,0.1,1.1,0.5l0.1,0.1c0.2,0.5-0.1,1-0.5,1.2
		C329.8,428.6,329.3,428.4,329.1,427.9L329.1,427.9"/>
	<path class="st0" d="M325.7,415.4v-0.1c-0.1-0.4,0.2-0.8,0.6-0.9s0.8,0.2,0.9,0.6v0.1c0.1,0.4-0.2,0.9-0.6,0.9
		C326.2,416.1,325.8,415.8,325.7,415.4L325.7,415.4"/>
	<path class="st0" d="M324.6,402.5v-0.1c0-0.4,0.3-0.7,0.7-0.7c0.4,0,0.7,0.3,0.7,0.7v0.1c0,0.4-0.3,0.7-0.7,0.7
		S324.6,402.9,324.6,402.5L324.6,402.5z"/>
	<path class="st0" d="M325.9,389.6v-0.1c0.1-0.3,0.4-0.5,0.7-0.5c0.3,0.1,0.5,0.4,0.5,0.7v0.1c-0.1,0.3-0.4,0.5-0.7,0.5
		C326,390.3,325.8,390,325.9,389.6L325.9,389.6"/>
	<path class="st0" d="M329.4,377.2l0.1-0.1c0.1-0.3,0.4-0.4,0.6-0.3c0.3,0.1,0.4,0.4,0.3,0.6v0.1c-0.1,0.3-0.4,0.4-0.6,0.3
		C329.4,377.8,329.3,377.5,329.4,377.2L329.4,377.2"/>
	<path class="st0" d="M335,365.7l0.1-0.1c0.1-0.2,0.4-0.2,0.5-0.1c0.2,0.1,0.2,0.4,0.1,0.5l-0.1,0.1c-0.1,0.2-0.4,0.3-0.5,0.1
		C335,366.1,334.9,365.9,335,365.7L335,365.7"/>
	<path class="st0" d="M342.7,355.3l0.1-0.1c0.1-0.1,0.3-0.1,0.4,0s0.1,0.3,0,0.4l-0.1,0.1c-0.1,0.1-0.3,0.1-0.4,0
		C342.6,355.6,342.5,355.4,342.7,355.3L342.7,355.3"/>
	<path class="st0" d="M352,346.5l0.1-0.1c0.1-0.1,0.2-0.1,0.3,0c0.1,0.1,0.1,0.2,0,0.3l-0.1,0.1c-0.1,0.1-0.2,0.1-0.3,0
		C351.9,346.7,351.9,346.6,352,346.5L352,346.5"/>
	<path class="st0" d="M362.7,339.5l0.1-0.1h0.1v0.1l-0.1,0.1h-0.1V339.5L362.7,339.5z"/>
	<path class="st0" d="M367.4,344.3l0.1-0.1c1.5-0.8,3.3-0.1,4.1,1.4c0.7,1.5,0.1,3.3-1.3,4.1l-0.1,0.1c-1.5,0.8-3.3,0.2-4.1-1.3
		S365.8,345.1,367.4,344.3C367.3,344.3,367.4,344.3,367.4,344.3"/>
	<path class="st0" d="M378.3,340h0.1c1.6-0.5,3.2,0.4,3.7,2s-0.4,3.2-2,3.7H380c-1.6,0.5-3.2-0.4-3.7-2
		C375.8,342.2,376.6,340.5,378.3,340C378.2,340.1,378.2,340,378.3,340"/>
	<path class="st0" d="M389.7,337.8h0.1c1.6-0.2,3,1,3.2,2.6s-1,3-2.5,3.1h-0.1c-1.6,0.2-3-0.9-3.2-2.5S388.1,338,389.7,337.8
		L389.7,337.8"/>
	<path class="st0" d="M401.3,337.6h0.1c1.5,0.1,2.7,1.5,2.6,3s-1.4,2.7-2.9,2.6H401c-1.5-0.1-2.7-1.4-2.6-2.9
		C398.4,338.7,399.8,337.5,401.3,337.6L401.3,337.6"/>
	<path class="st0" d="M412.8,339.5h0.1c1.4,0.4,2.3,1.9,1.9,3.3s-1.8,2.3-3.2,1.9h-0.1c-1.4-0.4-2.3-1.8-2-3.3
		C409.9,340.1,411.3,339.2,412.8,339.5L412.8,339.5"/>
	<path class="st0" d="M423.7,343.4l0.1,0.1c1.3,0.6,1.9,2.2,1.3,3.5s-2.1,1.9-3.4,1.3h-0.1c-1.3-0.6-1.9-2.1-1.3-3.4
		C420.8,343.4,422.4,342.8,423.7,343.4L423.7,343.4"/>
	<path class="st0" d="M433.8,349.2L433.8,349.2c1.2,0.9,1.5,2.4,0.7,3.6c-0.8,1.1-2.3,1.4-3.5,0.6l-0.1-0.1
		c-1.2-0.8-1.5-2.4-0.7-3.5C431,348.7,432.6,348.4,433.8,349.2C433.7,349.2,433.8,349.2,433.8,349.2"/>
	<path class="st0" d="M442.6,356.7L442.6,356.7c1,1,1,2.6,0.1,3.5s-2.5,0.9-3.4,0l-0.1-0.1c-1-0.9-1-2.5,0-3.4
		C440.1,355.8,441.6,355.7,442.6,356.7L442.6,356.7"/>
	<path class="st0" d="M450,365.6L450,365.6c0.8,1.2,0.5,2.6-0.6,3.4c-1.1,0.7-2.5,0.5-3.2-0.6l-0.1-0.1c-0.7-1.1-0.5-2.5,0.6-3.3
		C447.7,364.3,449.2,364.6,450,365.6C449.9,365.6,449.9,365.6,450,365.6"/>
	<path class="st0" d="M455.6,375.7l0.1,0.1c0.5,1.1,0,2.5-1.1,3s-2.5,0-3-1.1l-0.1-0.1c-0.5-1.1,0-2.5,1.1-3S455,374.6,455.6,375.7
		L455.6,375.7"/>
	<path class="st0" d="M459.3,386.7v0.1c0.3,1.2-0.4,2.3-1.6,2.6c-1.2,0.3-2.3-0.4-2.6-1.6v-0.1c-0.3-1.2,0.4-2.3,1.6-2.7
		C457.8,384.8,459,385.5,459.3,386.7C459.3,386.6,459.3,386.7,459.3,386.7"/>
	<path class="st0" d="M461,398.1v0.1c0.1,1.2-0.8,2.1-2,2.2c-1.1,0.1-2.1-0.8-2.2-1.9v-0.1c-0.1-1.2,0.8-2.2,1.9-2.2
		C460,396,461,396.9,461,398.1L461,398.1z"/>
	<path class="st0" d="M460.7,409.6v0.1c-0.1,1.1-1.1,1.9-2.2,1.7c-1.1-0.1-1.9-1.1-1.7-2.2v-0.1c0.1-1.1,1.1-1.9,2.2-1.8
		C460,407.4,460.8,408.4,460.7,409.6C460.7,409.5,460.7,409.5,460.7,409.6"/>
	<path class="st0" d="M458.3,420.8v0.1c-0.3,1-1.4,1.6-2.4,1.3c-1-0.3-1.6-1.4-1.3-2.4v-0.1c0.3-1,1.4-1.6,2.4-1.3
		S458.6,419.7,458.3,420.8L458.3,420.8"/>
	<path class="st0" d="M454,431.4l-0.1,0.1c-0.5,0.9-1.6,1.2-2.5,0.8c-0.9-0.5-1.2-1.5-0.8-2.4l0.1-0.1c0.5-0.9,1.5-1.3,2.5-0.8
		C454.1,429.4,454.4,430.5,454,431.4L454,431.4"/>
	<path class="st0" d="M447.8,441.1L447.8,441.1c-0.7,0.9-1.8,1-2.5,0.4c-0.8-0.6-0.9-1.7-0.3-2.4l0.1-0.1c0.6-0.8,1.7-0.9,2.4-0.4
		C448.3,439.2,448.4,440.3,447.8,441.1C447.8,441,447.8,441,447.8,441.1"/>
	<path class="st0" d="M440,449.4L440,449.4c-0.8,0.7-1.8,0.6-2.4,0c-0.6-0.7-0.6-1.7,0.1-2.3l0.1-0.1c0.7-0.6,1.7-0.6,2.3,0.1
		C440.8,447.8,440.7,448.8,440,449.4C440.1,449.4,440,449.4,440,449.4"/>
	<path class="st0" d="M430.9,456.3l-0.1,0.1c-0.7,0.4-1.7,0.2-2.2-0.5c-0.4-0.7-0.2-1.7,0.5-2.1l0.1-0.1c0.7-0.5,1.7-0.3,2.2,0.5
		C431.9,454.9,431.6,455.8,430.9,456.3L430.9,456.3"/>
	<path class="st0" d="M420.7,461.4h-0.1c-0.8,0.3-1.6-0.1-1.9-0.8c-0.3-0.8,0.1-1.6,0.8-1.9h0.1c0.8-0.3,1.6,0.1,1.9,0.8
		C421.8,460.2,421.5,461.1,420.7,461.4L420.7,461.4"/>
	<path class="st0" d="M409.7,464.6h-0.1c-0.8,0.1-1.5-0.3-1.6-1.1c-0.1-0.7,0.3-1.5,1.1-1.6h0.1c0.8-0.2,1.5,0.3,1.7,1.1
		C411,463.7,410.5,464.5,409.7,464.6C409.8,464.6,409.8,464.6,409.7,464.6"/>
	<path class="st0" d="M398.4,465.8h-0.1c-0.7,0-1.3-0.6-1.3-1.3c0-0.7,0.6-1.3,1.3-1.3h0.1c0.7,0,1.3,0.5,1.3,1.3
		C399.7,465.2,399.2,465.8,398.4,465.8L398.4,465.8z"/>
	<path class="st0" d="M387.1,465H387c-0.7-0.1-1.1-0.7-1-1.4c0.1-0.7,0.7-1.1,1.4-1h0.1c0.7,0.1,1.1,0.7,1,1.4
		C388.4,464.6,387.8,465.1,387.1,465L387.1,465z"/>
	<path class="st0" d="M376.1,462.1H376c-0.6-0.2-0.9-0.9-0.7-1.4c0.2-0.6,0.8-0.9,1.4-0.7h0.1c0.6,0.2,0.9,0.8,0.7,1.4
		C377.4,462,376.7,462.3,376.1,462.1L376.1,462.1"/>
	<path class="st0" d="M365.8,457.4l-0.1-0.1c-0.5-0.3-0.7-0.9-0.4-1.4c0.3-0.5,0.9-0.7,1.4-0.4l0.1,0.1c0.5,0.3,0.7,0.9,0.4,1.4
		C367,457.5,366.4,457.7,365.8,457.4L365.8,457.4"/>
	<path class="st0" d="M356.6,450.9L356.6,450.9c-0.5-0.4-0.5-1-0.2-1.4s0.9-0.5,1.3-0.1l0.1,0.1c0.4,0.3,0.5,0.9,0.1,1.3
		C357.6,451.2,357,451.2,356.6,450.9L356.6,450.9"/>
	<path class="st0" d="M348.6,442.8L348.6,442.8c-0.4-0.5-0.3-1,0-1.3c0.4-0.3,0.9-0.3,1.2,0.1l0.1,0.1c0.3,0.4,0.3,0.9-0.1,1.2
		C349.5,443.3,349,443.2,348.6,442.8L348.6,442.8"/>
	<path class="st0" d="M342.3,433.5l-0.1-0.1c-0.2-0.4-0.1-0.9,0.3-1.1s0.8-0.1,1.1,0.3l0.1,0.1c0.2,0.4,0.1,0.8-0.3,1.1
		C343,434,342.5,433.9,342.3,433.5L342.3,433.5"/>
	<path class="st0" d="M337.7,423.2v-0.1c-0.1-0.4,0.1-0.8,0.4-0.9c0.4-0.1,0.8,0.1,0.9,0.4v0.1c0.1,0.4-0.1,0.8-0.4,0.9
		C338.2,423.8,337.8,423.6,337.7,423.2L337.7,423.2"/>
	<path class="st0" d="M335,412.3v-0.1c0-0.3,0.2-0.6,0.5-0.7s0.6,0.2,0.7,0.5v0.1c0.1,0.3-0.2,0.6-0.5,0.7
		C335.4,412.8,335,412.6,335,412.3L335,412.3"/>
	<path class="st0" d="M334.3,401.1V401c0-0.3,0.3-0.5,0.5-0.5c0.3,0,0.5,0.2,0.5,0.5v0.1c0,0.3-0.2,0.5-0.5,0.5
		S334.3,401.4,334.3,401.1L334.3,401.1z"/>
	<path class="st0" d="M335.7,389.9v-0.1c0-0.2,0.3-0.4,0.5-0.3c0.2,0,0.4,0.3,0.3,0.5v0.1c0,0.2-0.3,0.4-0.5,0.3
		C335.8,390.4,335.6,390.2,335.7,389.9L335.7,389.9"/>
	<path class="st0" d="M338.9,379.2v-0.1c0.1-0.2,0.3-0.3,0.5-0.2c0.2,0.1,0.3,0.3,0.2,0.4v0.1c-0.1,0.2-0.3,0.3-0.5,0.2
		C339,379.6,338.9,379.4,338.9,379.2L338.9,379.2"/>
	<path class="st0" d="M344.1,369.3L344.1,369.3c0.1-0.2,0.3-0.3,0.4-0.2c0.1,0.1,0.2,0.2,0.1,0.4l-0.1,0.1c-0.1,0.1-0.2,0.2-0.4,0.1
		C344,369.6,344,369.4,344.1,369.3L344.1,369.3z"/>
	<path class="st0" d="M350.9,360.4L350.9,360.4c0.1-0.2,0.3-0.2,0.3-0.1c0.1,0.1,0.1,0.2,0,0.2l-0.1,0.1c-0.1,0.1-0.2,0.1-0.2,0
		C350.8,360.6,350.8,360.5,350.9,360.4L350.9,360.4"/>
	<path class="st0" d="M359.2,353L359.2,353c0.1-0.1,0.2-0.1,0.2-0.1v0.1l-0.1,0.1h-0.1C359.1,353,359.1,353,359.2,353L359.2,353z"/>
	<path class="st0" d="M363.8,356.5L363.8,356.5c1.3-0.9,2.9-0.6,3.8,0.6c0.8,1.2,0.6,2.8-0.6,3.7l-0.1,0.1c-1.2,0.9-2.8,0.6-3.7-0.6
		C362.4,359.1,362.6,357.4,363.8,356.5L363.8,356.5"/>
	<path class="st0" d="M372.6,351.4L372.6,351.4c1.4-0.7,2.9-0.1,3.5,1.2c0.6,1.3,0.1,2.8-1.2,3.4h-0.1c-1.3,0.6-2.8,0.1-3.4-1.2
		C370.8,353.6,371.3,352,372.6,351.4L372.6,351.4"/>
	<path class="st0" d="M382.1,347.9h0.1c1.3-0.4,2.7,0.4,3.1,1.8c0.3,1.3-0.4,2.7-1.7,3h-0.1c-1.3,0.4-2.7-0.4-3.1-1.7
		C380,349.6,380.8,348.3,382.1,347.9L382.1,347.9"/>
	<path class="st0" d="M392.1,346.1h0.1c1.3-0.1,2.5,0.9,2.6,2.2c0.1,1.3-0.9,2.5-2.2,2.6h-0.1c-1.3,0.1-2.5-0.8-2.6-2.2
		C389.8,347.5,390.7,346.3,392.1,346.1L392.1,346.1"/>
	<path class="st0" d="M402.2,346.2h0.1c1.3,0.1,2.2,1.3,2.1,2.6c-0.1,1.3-1.3,2.2-2.5,2.1h-0.1c-1.3-0.1-2.3-1.2-2.1-2.5
		C399.8,347.1,400.9,346.1,402.2,346.2L402.2,346.2"/>
	<path class="st0" d="M412.1,348.1L412.1,348.1c1.3,0.4,2,1.6,1.7,2.8c-0.3,1.2-1.6,1.9-2.8,1.6h-0.1c-1.2-0.3-1.9-1.6-1.6-2.8
		C409.6,348.5,410.9,347.8,412.1,348.1L412.1,348.1"/>
	<path class="st0" d="M421.6,351.7L421.6,351.7c1.2,0.6,1.6,1.9,1.1,3s-1.8,1.5-2.9,1h-0.1c-1.1-0.5-1.6-1.8-1-2.9
		C419.1,351.6,420.4,351.2,421.6,351.7C421.5,351.7,421.5,351.7,421.6,351.7"/>
	<path class="st0" d="M430.2,356.9L430.2,356.9c1,0.8,1.2,2.1,0.5,3s-2,1.1-2.9,0.5l-0.1-0.1c-1-0.7-1.2-2-0.5-3
		C427.9,356.5,429.2,356.2,430.2,356.9C430.1,356.9,430.2,356.9,430.2,356.9"/>
	<path class="st0" d="M437.7,363.6L437.7,363.6c0.8,0.9,0.8,2.2,0,3s-2.1,0.7-2.9-0.1l-0.1-0.1c-0.8-0.8-0.8-2.1,0-2.9
		C435.6,362.8,436.9,362.8,437.7,363.6L437.7,363.6"/>
	<path class="st0" d="M443.9,371.5L443.9,371.5c0.7,1,0.4,2.2-0.5,2.8c-0.9,0.6-2.1,0.3-2.7-0.6l-0.1-0.1c-0.6-0.9-0.4-2.1,0.5-2.7
		C442,370.3,443.3,370.6,443.9,371.5L443.9,371.5"/>
	<path class="st0" d="M448.6,380.4L448.6,380.4c0.4,1.1,0,2.2-1,2.6s-2,0-2.5-1v-0.1c-0.4-1,0-2.1,1-2.5S448.2,379.4,448.6,380.4
		L448.6,380.4"/>
	<path class="st0" d="M451.6,389.9v0.1c0.2,1-0.4,2-1.4,2.2s-1.9-0.4-2.2-1.4v-0.1c-0.2-1,0.4-2,1.4-2.2S451.4,388.9,451.6,389.9
		L451.6,389.9"/>
	<path class="st0" d="M452.9,399.9v0.1c0,1-0.7,1.8-1.7,1.8c-0.9,0-1.7-0.7-1.8-1.7V400c-0.1-1,0.7-1.8,1.7-1.8
		C452,398.1,452.8,398.9,452.9,399.9L452.9,399.9"/>
	<path class="st0" d="M452.4,409.9v0.1c-0.1,0.9-1,1.5-1.9,1.4s-1.5-1-1.4-1.9v-0.1c0.1-0.9,1-1.6,1.9-1.4
		C451.8,408.1,452.5,408.9,452.4,409.9C452.4,409.8,452.4,409.8,452.4,409.9"/>
	<path class="st0" d="M450.1,419.6L450.1,419.6c-0.3,0.9-1.2,1.4-2,1.1s-1.3-1.2-1-2v-0.1c0.3-0.8,1.2-1.3,2-1
		C449.9,417.8,450.4,418.7,450.1,419.6C450.1,419.5,450.1,419.6,450.1,419.6"/>
	<path class="st0" d="M446.1,428.7L446.1,428.7c-0.5,0.8-1.4,1.1-2.1,0.7s-1-1.3-0.6-2l0.1-0.1c0.4-0.7,1.3-1,2-0.6
		C446.2,427,446.5,427.9,446.1,428.7L446.1,428.7"/>
	<path class="st0" d="M440.6,437L440.6,437c-0.6,0.7-1.5,0.8-2.1,0.3s-0.7-1.4-0.2-2l0.1-0.1c0.5-0.6,1.4-0.7,2-0.2
		C441,435.4,441.1,436.3,440.6,437C440.6,436.9,440.6,437,440.6,437"/>
	<path class="st0" d="M433.6,444.1L433.6,444.1c-0.7,0.6-1.5,0.5-2-0.1s-0.4-1.4,0.1-1.9l0.1-0.1c0.6-0.5,1.4-0.4,1.9,0.1
		C434.3,442.7,434.2,443.6,433.6,444.1C433.7,444.1,433.7,444.1,433.6,444.1"/>
	<path class="st0" d="M425.6,449.9L425.6,449.9c-0.7,0.4-1.5,0.2-1.9-0.4s-0.2-1.4,0.4-1.8l0.1-0.1c0.6-0.4,1.4-0.2,1.8,0.4
		C426.4,448.7,426.2,449.5,425.6,449.9L425.6,449.9"/>
	<path class="st0" d="M416.6,454.1L416.6,454.1c-0.7,0.3-1.4-0.1-1.7-0.7c-0.2-0.6,0.1-1.3,0.7-1.5h0.1c0.6-0.2,1.3,0.1,1.6,0.7
		C417.6,453.2,417.3,453.9,416.6,454.1L416.6,454.1"/>
	<path class="st0" d="M407,456.7h-0.1c-0.6,0.1-1.2-0.3-1.3-0.9c-0.1-0.6,0.3-1.2,0.9-1.3h0.1c0.6-0.1,1.2,0.3,1.3,0.9
		C408.1,456,407.7,456.6,407,456.7C407.1,456.7,407.1,456.7,407,456.7"/>
	<path class="st0" d="M397.2,457.5h-0.1c-0.6,0-1.1-0.5-1-1.1c0-0.6,0.5-1,1.1-1h0.1c0.6,0,1.1,0.5,1.1,1.1
		C398.3,457,397.8,457.5,397.2,457.5L397.2,457.5z"/>
	<path class="st0" d="M387.4,456.6h-0.1c-0.5-0.1-0.9-0.6-0.8-1.1s0.6-0.9,1.1-0.8h0.1c0.5,0.1,0.9,0.6,0.8,1.1
		C388.4,456.3,387.9,456.6,387.4,456.6L387.4,456.6"/>
	<path class="st0" d="M377.9,453.9L377.9,453.9c-0.6-0.2-0.8-0.7-0.6-1.2c0.2-0.5,0.7-0.7,1.2-0.5h0.1c0.5,0.2,0.7,0.7,0.5,1.2
		C378.9,453.8,378.4,454.1,377.9,453.9L377.9,453.9"/>
	<path class="st0" d="M369.1,449.6L369.1,449.6c-0.5-0.3-0.6-0.8-0.4-1.2c0.2-0.4,0.7-0.5,1.1-0.3l0.1,0.1c0.4,0.2,0.5,0.7,0.3,1.1
		S369.5,449.8,369.1,449.6L369.1,449.6"/>
	<path class="st0" d="M361.1,443.7L361.1,443.7c-0.4-0.3-0.4-0.8-0.1-1.1c0.3-0.3,0.7-0.3,1.1-0.1l0.1,0.1c0.3,0.3,0.4,0.8,0.1,1.1
		C361.9,444,361.5,444,361.1,443.7L361.1,443.7"/>
	<path class="st0" d="M354.4,436.6L354.4,436.6c-0.3-0.4-0.2-0.8,0.1-1c0.3-0.2,0.7-0.2,0.9,0.1l0.1,0.1c0.2,0.3,0.2,0.7-0.1,1
		C355.1,436.9,354.6,436.9,354.4,436.6L354.4,436.6"/>
	<path class="st0" d="M349,428.4L349,428.4c-0.2-0.4-0.1-0.8,0.2-0.9c0.3-0.2,0.7,0,0.8,0.2l0.1,0.1c0.2,0.3,0.1,0.7-0.2,0.8
		C349.6,428.8,349.2,428.7,349,428.4L349,428.4"/>
	<path class="st0" d="M345.3,419.3v-0.1c-0.1-0.3,0.1-0.6,0.3-0.7c0.3-0.1,0.6,0.1,0.7,0.3v0.1c0.1,0.3-0.1,0.6-0.3,0.7
		C345.6,419.8,345.3,419.6,345.3,419.3L345.3,419.3z"/>
	<path class="st0" d="M343.1,409.8v-0.1c0-0.3,0.1-0.5,0.4-0.5c0.2,0,0.5,0.1,0.5,0.4v0.1c0,0.3-0.1,0.5-0.4,0.5
		C343.4,410.2,343.2,410,343.1,409.8L343.1,409.8z"/>
	<path class="st0" d="M342.8,400v-0.1c0-0.2,0.2-0.4,0.4-0.4c0.2,0,0.4,0.2,0.4,0.4v0.1c0,0.2-0.2,0.4-0.4,0.4
		C342.9,400.4,342.8,400.2,342.8,400L342.8,400"/>
	<path class="st0" d="M344.1,390.4L344.1,390.4c0.1-0.3,0.2-0.4,0.4-0.3c0.2,0,0.3,0.2,0.2,0.4v0.1c0,0.2-0.2,0.3-0.4,0.2
		C344.2,390.7,344.1,390.5,344.1,390.4L344.1,390.4z"/>
	<path class="st0" d="M347.2,381.1L347.2,381.1c0.1-0.2,0.2-0.3,0.3-0.2c0.1,0,0.2,0.2,0.1,0.3v0.1c0,0.1-0.2,0.2-0.3,0.1
		C347.2,381.4,347.2,381.3,347.2,381.1L347.2,381.1z"/>
	<path class="st0" d="M351.9,372.6L351.9,372.6c0.1-0.2,0.2-0.2,0.3-0.1c0.1,0,0.1,0.1,0,0.2l-0.1,0.1c0,0.1-0.1,0.1-0.2,0
		C351.8,372.8,351.8,372.7,351.9,372.6L351.9,372.6"/>
	<path class="st0" d="M358,365.1L358,365.1c0.1-0.1,0.1-0.1,0.2-0.1v0.1l-0.1,0.1H358C357.9,365.1,357.9,365.1,358,365.1L358,365.1z
		"/>
	<path class="st0" d="M362.5,367.5L362.5,367.5c1-1,2.4-0.9,3.3,0s0.9,2.3,0,3.2l-0.1,0.1c-0.9,0.9-2.4,0.9-3.3,0
		C361.5,369.9,361.5,368.5,362.5,367.5C362.4,367.5,362.4,367.5,362.5,367.5"/>
	<path class="st0" d="M369.3,361.9L369.3,361.9c1.1-0.7,2.5-0.5,3.2,0.5s0.4,2.4-0.6,3.1l-0.1,0.1c-1,0.7-2.4,0.5-3.1-0.5
		C368,364,368.2,362.6,369.3,361.9L369.3,361.9"/>
	<path class="st0" d="M377,357.6L377,357.6c1.2-0.5,2.5,0,3,1.1s0,2.4-1.1,2.9h-0.1c-1.1,0.5-2.4,0-2.9-1.1S375.9,358.1,377,357.6
		L377,357.6"/>
	<path class="st0" d="M385.3,354.8L385.3,354.8c1.2-0.3,2.4,0.4,2.6,1.5c0.3,1.1-0.4,2.2-1.5,2.5h-0.1c-1.1,0.3-2.3-0.4-2.6-1.5
		C383.5,356.2,384.2,355.1,385.3,354.8L385.3,354.8"/>
	<path class="st0" d="M394,353.5L394,353.5c1.2-0.1,2.2,0.8,2.2,1.9c0.1,1.1-0.8,2.1-1.9,2.2h-0.1c-1.1,0.1-2.1-0.8-2.2-1.9
		C392,354.5,392.9,353.5,394,353.5L394,353.5"/>
	<path class="st0" d="M402.8,353.7L402.8,353.7c1.2,0.1,1.9,1.1,1.8,2.2s-1.1,1.8-2.2,1.7h-0.1c-1.1-0.1-1.9-1.1-1.8-2.2
		C400.7,354.4,401.7,353.6,402.8,353.7L402.8,353.7"/>
	<path class="st0" d="M411.4,355.5L411.4,355.5c1.1,0.3,1.7,1.4,1.3,2.4c-0.3,1-1.4,1.6-2.4,1.3h-0.1c-1-0.3-1.6-1.4-1.3-2.4
		C409.3,355.8,410.4,355.2,411.4,355.5L411.4,355.5"/>
	<path class="st0" d="M419.5,358.8L419.5,358.8c1,0.5,1.3,1.6,0.9,2.5c-0.5,0.9-1.6,1.2-2.5,0.8h-0.1c-0.9-0.5-1.3-1.6-0.8-2.5
		C417.5,358.7,418.6,358.4,419.5,358.8L419.5,358.8"/>
	<path class="st0" d="M426.9,363.6L426.9,363.6c0.8,0.7,1,1.8,0.4,2.6c-0.6,0.8-1.7,0.9-2.5,0.3l-0.1-0.1c-0.8-0.6-0.9-1.7-0.3-2.5
		S426.1,363,426.9,363.6L426.9,363.6"/>
	<path class="st0" d="M433.3,369.5L433.3,369.5c0.7,0.8,0.6,1.9-0.1,2.5s-1.8,0.6-2.4-0.1l-0.1-0.1c-0.6-0.7-0.6-1.8,0.1-2.4
		C431.6,368.8,432.6,368.8,433.3,369.5L433.3,369.5"/>
	<path class="st0" d="M438.5,376.5L438.5,376.5c0.5,0.9,0.3,1.9-0.5,2.3c-0.8,0.5-1.8,0.2-2.3-0.5v-0.1c-0.5-0.8-0.3-1.8,0.5-2.3
		C437,375.5,438,375.7,438.5,376.5L438.5,376.5"/>
	<path class="st0" d="M442.4,384.3L442.4,384.3c0.3,0.9-0.1,1.8-0.9,2.1c-0.8,0.3-1.7-0.1-2-0.9v-0.1c-0.3-0.8,0.1-1.7,0.9-2.1
		C441.2,383.1,442.1,383.5,442.4,384.3L442.4,384.3"/>
	<path class="st0" d="M444.9,392.7L444.9,392.7c0.2,0.9-0.4,1.7-1.2,1.9c-0.8,0.2-1.6-0.4-1.8-1.2v-0.1c-0.2-0.8,0.4-1.6,1.2-1.8
		C443.9,391.3,444.7,391.8,444.9,392.7C444.9,392.6,444.9,392.7,444.9,392.7"/>
	<path class="st0" d="M445.8,401.3L445.8,401.3c0,0.9-0.6,1.5-1.4,1.6c-0.8,0-1.4-0.6-1.5-1.4v-0.1c0-0.8,0.6-1.5,1.4-1.5
		C445.1,399.9,445.8,400.5,445.8,401.3L445.8,401.3z"/>
	<path class="st0" d="M445.1,410L445.1,410c-0.1,0.8-0.9,1.4-1.6,1.2c-0.7-0.1-1.3-0.8-1.1-1.6v-0.1c0.1-0.8,0.8-1.3,1.6-1.2
		C444.7,408.5,445.3,409.2,445.1,410C445.1,409.9,445.1,410,445.1,410"/>
	<path class="st0" d="M443,418.4L443,418.4c-0.3,0.8-1,1.1-1.7,0.9s-1-1-0.8-1.7v-0.1c0.2-0.7,1-1.1,1.7-0.8
		C442.8,416.9,443.2,417.6,443,418.4C443,418.3,443,418.3,443,418.4"/>
	<path class="st0" d="M439.3,426.2L439.3,426.2c-0.4,0.7-1.2,0.9-1.8,0.5c-0.6-0.3-0.8-1.1-0.5-1.7v-0.1c0.3-0.6,1.1-0.8,1.7-0.5
		C439.5,424.8,439.7,425.6,439.3,426.2L439.3,426.2"/>
	<path class="st0" d="M434.4,433.3L434.4,433.3c-0.5,0.6-1.2,0.6-1.7,0.2s-0.6-1.2-0.1-1.7l0.1-0.1c0.4-0.5,1.2-0.6,1.7-0.2
		C434.7,432,434.8,432.8,434.4,433.3L434.4,433.3"/>
	<path class="st0" d="M428.2,439.3L428.2,439.3c-0.6,0.5-1.3,0.4-1.6-0.1c-0.4-0.5-0.3-1.2,0.1-1.6l0.1-0.1c0.5-0.4,1.2-0.3,1.6,0.1
		C428.7,438.2,428.7,438.9,428.2,439.3L428.2,439.3"/>
	<path class="st0" d="M421.1,444.2L421.1,444.2c-0.6,0.3-1.2,0.1-1.5-0.4s-0.1-1.1,0.4-1.4h0.1c0.5-0.3,1.1-0.1,1.4,0.4
		C421.8,443.3,421.6,443.9,421.1,444.2L421.1,444.2"/>
	<path class="st0" d="M413.2,447.7L413.2,447.7c-0.6,0.2-1.2-0.1-1.3-0.6c-0.2-0.5,0.1-1.1,0.6-1.2h0.1c0.5-0.2,1.1,0.1,1.3,0.6
		C414,447,413.7,447.5,413.2,447.7L413.2,447.7"/>
	<path class="st0" d="M404.8,449.8L404.8,449.8c-0.6,0.1-1.1-0.3-1.1-0.8c-0.1-0.5,0.3-1,0.8-1h0.1c0.5-0.1,1,0.3,1.1,0.8
		C405.7,449.2,405.4,449.7,404.8,449.8L404.8,449.8"/>
	<path class="st0" d="M396.3,450.3L396.3,450.3c-0.6,0-0.9-0.4-0.9-0.9s0.4-0.8,0.9-0.8h0.1c0.5,0,0.9,0.4,0.8,0.9
		C397.1,449.9,396.8,450.3,396.3,450.3L396.3,450.3z"/>
	<path class="st0" d="M387.8,449.3L387.8,449.3c-0.5-0.1-0.8-0.5-0.7-1c0.1-0.4,0.5-0.7,0.9-0.6h0.1c0.4,0.1,0.7,0.5,0.6,0.9
		C388.6,449.1,388.2,449.3,387.8,449.3L387.8,449.3"/>
	<path class="st0" d="M379.6,446.7L379.6,446.7c-0.5-0.2-0.6-0.6-0.5-1s0.6-0.5,0.9-0.4h0.1c0.4,0.1,0.6,0.6,0.4,0.9
		C380.4,446.7,380,446.9,379.6,446.7L379.6,446.7"/>
	<path class="st0" d="M372,442.8L372,442.8c-0.4-0.2-0.5-0.7-0.3-1s0.6-0.4,0.9-0.2h0.1c0.3,0.2,0.4,0.6,0.2,0.9
		C372.7,442.9,372.3,443,372,442.8L372,442.8"/>
	<path class="st0" d="M365.2,437.6L365.2,437.6c-0.3-0.3-0.3-0.7-0.1-0.9c0.2-0.2,0.6-0.3,0.8,0l0.1,0.1c0.2,0.2,0.3,0.6,0,0.8
		C365.9,437.8,365.5,437.8,365.2,437.6L365.2,437.6"/>
	<path class="st0" d="M359.5,431.2L359.5,431.2c-0.2-0.3-0.2-0.6,0-0.8c0.2-0.2,0.6-0.1,0.7,0.1l0.1,0.1c0.2,0.2,0.1,0.6-0.1,0.7
		C360,431.5,359.7,431.5,359.5,431.2L359.5,431.2"/>
	<path class="st0" d="M355,424L355,424c-0.2-0.3-0.1-0.6,0.2-0.7c0.2-0.1,0.5,0,0.6,0.2v0.1c0.1,0.2,0,0.5-0.2,0.6
		C355.4,424.3,355.1,424.2,355,424L355,424"/>
	<path class="st0" d="M351.9,416.1L351.9,416.1c-0.1-0.3,0-0.5,0.2-0.6s0.4,0.1,0.5,0.3v0.1c0.1,0.2-0.1,0.4-0.3,0.5
		C352.2,416.4,352,416.3,351.9,416.1L351.9,416.1"/>
	<path class="st0" d="M350.3,407.8L350.3,407.8c0-0.3,0.1-0.4,0.3-0.5c0.2,0,0.3,0.1,0.4,0.3v0.1c0,0.2-0.1,0.3-0.3,0.4
		C350.5,408.1,350.3,407.9,350.3,407.8L350.3,407.8z"/>
	<path class="st0" d="M350.1,399.3L350.1,399.3c0-0.2,0.1-0.3,0.3-0.3c0.1,0,0.3,0.1,0.2,0.3v0.1c0,0.1-0.1,0.3-0.3,0.2
		C350.2,399.6,350.1,399.4,350.1,399.3L350.1,399.3"/>
	<path class="st0" d="M351.5,390.9L351.5,390.9c0-0.2,0.2-0.3,0.3-0.2c0.1,0,0.2,0.1,0.1,0.2v0.1c0,0.1-0.1,0.2-0.2,0.1
		C351.6,391.1,351.5,391,351.5,390.9L351.5,390.9"/>
	<path class="st0" d="M354.4,383L354.4,383c0.1-0.1,0.1-0.2,0.2-0.1c0.1,0,0.1,0.1,0.1,0.2v0.1c0,0.1-0.1,0.1-0.2,0.1
		C354.4,383.1,354.3,383,354.4,383L354.4,383"/>
	<path class="st0" d="M358.6,375.6L358.6,375.6c0.1-0.1,0.1-0.1,0.1-0.1v0.1v0.1C358.7,375.8,358.6,375.8,358.6,375.6
		C358.6,375.7,358.6,375.7,358.6,375.6z"/>
	<path class="st0" d="M362.8,377.2L362.8,377.2c0.7-1,2-1.1,2.9-0.5c0.9,0.7,1.1,1.9,0.4,2.8v0.1c-0.6,0.9-1.9,1.1-2.8,0.5
		C362.3,379.4,362.1,378.1,362.8,377.2L362.8,377.2"/>
	<path class="st0" d="M367.9,371.4L367.9,371.4c0.8-0.8,2.1-0.8,2.8,0c0.7,0.8,0.7,2-0.1,2.7l-0.1,0.1c-0.8,0.8-2,0.7-2.8,0
		C367.1,373.4,367.1,372.2,367.9,371.4L367.9,371.4"/>
	<path class="st0" d="M373.9,366.7L373.9,366.7c0.9-0.6,2.1-0.4,2.7,0.5s0.3,2-0.5,2.6H376c-0.9,0.6-2,0.3-2.6-0.5
		C372.8,368.5,373,367.3,373.9,366.7L373.9,366.7"/>
	<path class="st0" d="M380.7,363.1L380.7,363.1c1-0.4,2.1,0,2.5,1c0.4,0.9,0,2-1,2.4h-0.1c-0.9,0.4-2,0-2.4-1
		C379.3,364.6,379.7,363.5,380.7,363.1L380.7,363.1"/>
	<path class="st0" d="M388,360.8L388,360.8c1-0.2,2,0.4,2.2,1.3s-0.4,1.9-1.3,2.1h-0.1c-1,0.2-1.9-0.4-2.1-1.3
		C386.4,362,387,361,388,360.8L388,360.8"/>
	<path class="st0" d="M395.6,359.8L395.6,359.8c1,0,1.8,0.7,1.9,1.7c0,0.9-0.7,1.7-1.6,1.8h-0.1c-0.9,0-1.8-0.7-1.8-1.6
		C393.9,360.7,394.6,359.9,395.6,359.8L395.6,359.8"/>
	<path class="st0" d="M403.2,360.2L403.2,360.2c1,0.1,1.6,1,1.5,1.9s-1,1.5-1.9,1.4h-0.1c-0.9-0.1-1.6-0.9-1.4-1.9
		C401.4,360.7,402.3,360.1,403.2,360.2L403.2,360.2"/>
	<path class="st0" d="M410.6,362L410.6,362c0.9,0.3,1.4,1.2,1.1,2.1c-0.3,0.8-1.2,1.3-2,1h-0.1c-0.8-0.3-1.3-1.2-1-2
		C408.9,362.2,409.8,361.7,410.6,362L410.6,362"/>
	<path class="st0" d="M417.6,365L417.6,365c0.8,0.4,1.1,1.4,0.7,2.1s-1.3,1-2.1,0.6h-0.1c-0.8-0.4-1-1.3-0.6-2.1
		C415.9,364.9,416.8,364.6,417.6,365L417.6,365"/>
	<path class="st0" d="M423.9,369.3L423.9,369.3c0.7,0.6,0.8,1.5,0.3,2.1s-1.4,0.7-2.1,0.2l-0.1-0.1c-0.6-0.5-0.8-1.4-0.3-2.1
		C422.3,368.9,423.3,368.7,423.9,369.3C423.9,369.2,423.9,369.3,423.9,369.3"/>
	<path class="st0" d="M429.4,374.5L429.4,374.5c0.6,0.7,0.5,1.6-0.1,2.1s-1.5,0.4-2-0.1l-0.1-0.1c-0.5-0.6-0.5-1.5,0.1-2
		S428.8,373.9,429.4,374.5L429.4,374.5"/>
	<path class="st0" d="M433.8,380.7L433.8,380.7c0.4,0.7,0.2,1.6-0.5,2c-0.6,0.4-1.5,0.2-1.9-0.5v-0.1c-0.4-0.7-0.2-1.5,0.5-1.9
		C432.5,379.8,433.4,380.1,433.8,380.7L433.8,380.7"/>
	<path class="st0" d="M437,387.6L437,387.6c0.3,0.8-0.1,1.5-0.8,1.8c-0.7,0.3-1.4-0.1-1.7-0.8v-0.1c-0.3-0.7,0.1-1.4,0.8-1.7
		C436,386.5,436.8,386.9,437,387.6L437,387.6"/>
	<path class="st0" d="M439,394.9L439,394.9c0.1,0.8-0.3,1.4-1,1.5s-1.3-0.3-1.5-1v-0.1c-0.1-0.7,0.3-1.3,1-1.5
		C438.2,393.7,438.9,394.2,439,394.9L439,394.9"/>
	<path class="st0" d="M439.6,402.4L439.6,402.4c0,0.7-0.5,1.3-1.2,1.3s-1.2-0.5-1.2-1.2v-0.1c0-0.7,0.5-1.2,1.2-1.2
		C439.1,401.2,439.6,401.7,439.6,402.4L439.6,402.4z"/>
	<path class="st0" d="M438.9,409.9L438.9,409.9c-0.1,0.7-0.7,1.1-1.4,1c-0.6-0.1-1-0.7-0.9-1.3v-0.1c0.1-0.6,0.7-1,1.3-0.9
		C438.6,408.7,439,409.3,438.9,409.9L438.9,409.9"/>
	<path class="st0" d="M436.8,417.2L436.8,417.2c-0.2,0.6-0.9,0.9-1.4,0.7c-0.6-0.2-0.8-0.8-0.6-1.4v-0.1c0.2-0.6,0.8-0.9,1.4-0.6
		C436.8,415.9,437,416.6,436.8,417.2C436.8,417.1,436.8,417.1,436.8,417.2"/>
	<path class="st0" d="M433.5,423.9L433.5,423.9c-0.3,0.6-1,0.7-1.5,0.4c-0.5-0.3-0.6-0.9-0.3-1.4v-0.1c0.3-0.5,0.9-0.7,1.4-0.4
		C433.6,422.8,433.8,423.4,433.5,423.9L433.5,423.9"/>
	<path class="st0" d="M429.1,430L429.1,430c-0.4,0.5-1,0.5-1.4,0.1s-0.4-1-0.1-1.4l0.1-0.1c0.3-0.4,1-0.5,1.4-0.1
		C429.4,428.9,429.4,429.5,429.1,430C429.1,429.9,429.1,430,429.1,430"/>
	<path class="st0" d="M423.6,435.1L423.6,435.1c-0.5,0.4-1,0.3-1.4-0.1c-0.3-0.4-0.2-1,0.1-1.3h0.1c0.4-0.3,1-0.3,1.3,0.1
		C424.1,434.2,424,434.8,423.6,435.1L423.6,435.1"/>
	<path class="st0" d="M417.3,439.2L417.3,439.2c-0.5,0.3-1,0.1-1.2-0.3s-0.1-0.9,0.3-1.2h0.1c0.4-0.2,0.9-0.1,1.2,0.3
		C417.9,438.4,417.7,439,417.3,439.2L417.3,439.2"/>
	<path class="st0" d="M410.4,442.1L410.4,442.1c-0.5,0.2-0.9-0.1-1.1-0.5c-0.1-0.4,0.1-0.9,0.5-1h0.1c0.4-0.1,0.9,0.1,1,0.5
		C411.1,441.5,410.8,441.9,410.4,442.1L410.4,442.1"/>
	<path class="st0" d="M403.1,443.7L403.1,443.7c-0.5,0.1-0.9-0.2-0.9-0.6c-0.1-0.4,0.2-0.8,0.6-0.8h0.1c0.4-0.1,0.8,0.2,0.8,0.6
		C403.8,443.3,403.5,443.6,403.1,443.7L403.1,443.7z"/>
	<path class="st0" d="M395.7,444L395.7,444c-0.5,0-0.7-0.3-0.7-0.7c0-0.4,0.3-0.7,0.7-0.7h0.1c0.4,0,0.7,0.3,0.7,0.7
		C396.4,443.7,396.1,444,395.7,444L395.7,444z"/>
	<path class="st0" d="M388.3,442.9L388.3,442.9c-0.4-0.1-0.6-0.4-0.5-0.8c0.1-0.3,0.4-0.5,0.8-0.5h0.1c0.3,0.1,0.6,0.4,0.5,0.8
		C389,442.8,388.6,443,388.3,442.9L388.3,442.9"/>
	<path class="st0" d="M381.2,440.6L381.2,440.6c-0.4-0.2-0.5-0.5-0.4-0.8s0.5-0.4,0.7-0.3h0.1c0.3,0.1,0.4,0.5,0.3,0.7
		C381.9,440.6,381.5,440.7,381.2,440.6L381.2,440.6"/>
	<path class="st0" d="M374.7,437L374.7,437c-0.3-0.2-0.4-0.5-0.2-0.8c0.2-0.2,0.5-0.3,0.7-0.1h0.1c0.2,0.2,0.3,0.5,0.2,0.7
		C375.3,437.1,375,437.2,374.7,437L374.7,437"/>
	<path class="st0" d="M368.9,432.3L368.9,432.3c-0.2-0.2-0.2-0.5-0.1-0.7c0.2-0.2,0.5-0.2,0.6,0l0.1,0.1c0.2,0.2,0.2,0.5,0,0.6
		C369.4,432.5,369.1,432.5,368.9,432.3C368.9,432.4,368.9,432.4,368.9,432.3"/>
	<path class="st0" d="M364.1,426.7L364.1,426.7c-0.2-0.2-0.1-0.5,0-0.6c0.2-0.1,0.4-0.1,0.6,0.1v0.1c0.1,0.2,0.1,0.4-0.1,0.6
		C364.5,427,364.2,426.9,364.1,426.7L364.1,426.7"/>
	<path class="st0" d="M360.3,420.4L360.3,420.4c-0.1-0.2,0-0.4,0.1-0.5c0.2-0.1,0.4,0,0.5,0.2v0.1c0.1,0.2,0,0.4-0.2,0.5
		C360.6,420.6,360.4,420.5,360.3,420.4L360.3,420.4z"/>
	<path class="st0" d="M357.8,413.4L357.8,413.4c-0.1-0.2,0-0.4,0.2-0.4s0.3,0,0.3,0.2v0.1c0,0.2,0,0.3-0.2,0.4
		C358,413.7,357.8,413.6,357.8,413.4L357.8,413.4"/>
	<path class="st0" d="M356.5,406.2L356.5,406.2c0-0.2,0.1-0.3,0.2-0.3s0.2,0.1,0.2,0.2v0.1c0,0.1-0.1,0.2-0.2,0.3
		C356.7,406.4,356.5,406.3,356.5,406.2L356.5,406.2z"/>
	<path class="st0" d="M356.6,398.8L356.6,398.8c0-0.2,0.1-0.2,0.2-0.2s0.2,0.1,0.2,0.2v0.1c0,0.1-0.1,0.2-0.2,0.2
		C356.6,399,356.6,398.9,356.6,398.8L356.6,398.8z"/>
	<path class="st0" d="M357.9,391.6L357.9,391.6c0-0.1,0.1-0.2,0.2-0.2s0.1,0.1,0.1,0.1v0.1c0,0.1-0.1,0.1-0.1,0.1
		C357.9,391.7,357.9,391.6,357.9,391.6z"/>
	<path class="st0" d="M360.5,384.7L360.5,384.7c0-0.1,0.1-0.1,0.1-0.1s0,0,0,0.1v0.1C360.6,384.8,360.6,384.8,360.5,384.7
		C360.5,384.8,360.5,384.7,360.5,384.7L360.5,384.7z"/>
</g>
<g id="Layer_2">
</g>
<g id="Layer_3">
</g>
</svg>
