<?xml version="1.0" encoding="utf-8"?>
<!-- Generator: Adobe Illustrator 26.2.1, SVG Export Plug-In . SVG Version: 6.00 Build 0)  -->
<svg version="1.1" xmlns="http://www.w3.org/2000/svg" xmlns:xlink="http://www.w3.org/1999/xlink" x="0px" y="0px" width="800px"
	 height="800px" viewBox="0 0 800 800" style="enable-background:new 0 0 800 800;" xml:space="preserve">
<style type="text/css">
	.st0{fill:#E8DC8D;}
</style>
<g id="Layer_1_00000074417458930984025030000010742283932141665959_">
</g>
<g id="Layer_2">
	<g>
		<path class="st0" d="M497.3,261.1l0.3,0.2c3.6,2.6,4.3,7.7,1.7,11.3c-2.6,3.5-7.6,4.3-11.2,1.8l-0.3-0.2
			c-3.6-2.6-4.5-7.6-1.9-11.3c2.6-3.6,7.6-4.5,11.3-1.9C497.3,261,497.3,261,497.3,261.1"/>
		<path class="st0" d="M520.5,281.6l0.2,0.2c3,3.2,2.8,8.1-0.3,11.1c-3.1,2.9-8,2.8-11-0.2l-0.2-0.2c-3-3.1-2.9-8.1,0.2-11.1
			C512.4,278.3,517.4,278.4,520.5,281.6C520.4,281.5,520.5,281.5,520.5,281.6"/>
		<path class="st0" d="M539.6,305.9l0.2,0.3c2.3,3.5,1.3,8.2-2.3,10.5c-3.5,2.3-8.1,1.3-10.5-2.2l-0.2-0.3
			c-2.3-3.5-1.4-8.2,2.1-10.6C532.5,301.4,537.2,302.3,539.6,305.9C539.6,305.8,539.6,305.9,539.6,305.9"/>
		<path class="st0" d="M554,333.2l0.1,0.3c1.6,3.8-0.2,8.1-4,9.6c-3.7,1.5-8-0.2-9.6-3.9l-0.1-0.3c-1.6-3.7,0.1-8.1,3.8-9.7
			s8.1,0.1,9.7,3.8C554,333.1,554,333.2,554,333.2"/>
		<path class="st0" d="M563.3,362.6l0.1,0.3c0.8,3.9-1.6,7.7-5.5,8.5c-3.8,0.8-7.6-1.6-8.5-5.3l-0.1-0.3c-0.9-3.8,1.5-7.7,5.3-8.6
			s7.7,1.5,8.6,5.3C563.3,362.5,563.3,362.5,563.3,362.6"/>
		<path class="st0" d="M567.2,393.1v0.3c0.1,3.8-2.8,7-6.7,7.2c-3.8,0.1-7-2.8-7.2-6.5v-0.3c-0.2-3.8,2.7-7.1,6.5-7.3
			c3.8-0.2,7.1,2.7,7.3,6.5C567.2,393,567.2,393.1,567.2,393.1"/>
		<path class="st0" d="M565.6,423.8v0.3c-0.5,3.7-3.9,6.2-7.6,5.7c-3.6-0.5-6.1-3.8-5.7-7.5V422c0.5-3.7,3.8-6.3,7.5-5.8
			S566.1,420,565.6,423.8C565.7,423.7,565.6,423.7,565.6,423.8"/>
		<path class="st0" d="M558.6,453.6l-0.1,0.3c-1.1,3.4-4.8,5.2-8.2,4.1c-3.3-1.1-5.2-4.7-4.1-8.1l0.1-0.3c1.1-3.4,4.7-5.3,8.1-4.2
			C557.8,446.5,559.7,450.1,558.6,453.6L558.6,453.6"/>
		<path class="st0" d="M546.3,481.7l-0.2,0.3c-1.7,3-5.4,4.1-8.5,2.5c-3-1.6-4.1-5.4-2.5-8.4l0.1-0.3c1.6-3,5.4-4.2,8.4-2.6
			C546.8,474.8,548,478.6,546.3,481.7C546.4,481.7,546.4,481.7,546.3,481.7"/>
		<path class="st0" d="M529.3,507.1l-0.2,0.3c-2.1,2.6-5.9,3-8.4,0.9c-2.6-2.1-3-5.8-0.9-8.4l0.2-0.3c2-2.6,5.8-3.1,8.4-1
			C530.9,500.7,531.4,504.5,529.3,507.1L529.3,507.1"/>
		<path class="st0" d="M508,529.1l-0.3,0.2c-2.4,2.1-6.1,1.8-8.1-0.6c-2.1-2.4-1.8-6,0.5-8.1l0.2-0.2c2.4-2.1,6-1.9,8.1,0.5
			C510.7,523.3,510.5,527,508,529.1C508.1,529.1,508,529.1,508,529.1"/>
		<path class="st0" d="M483.2,546.9l-0.3,0.2c-2.6,1.5-6,0.7-7.6-2c-1.5-2.6-0.7-6,1.9-7.5l0.3-0.2c2.6-1.6,6-0.8,7.6,1.9
			C486.7,541.9,485.9,545.3,483.2,546.9L483.2,546.9"/>
		<path class="st0" d="M455.6,559.9l-0.3,0.1c-2.8,1-5.8-0.4-6.8-3.2c-1-2.7,0.4-5.7,3.1-6.8l0.3-0.1c2.7-1,5.8,0.3,6.9,3.1
			C459.8,555.8,458.4,558.9,455.6,559.9C455.7,559.9,455.6,559.9,455.6,559.9"/>
		<path class="st0" d="M426.2,567.8l-0.3,0.1c-2.8,0.5-5.4-1.4-5.9-4.1c-0.5-2.7,1.3-5.3,4.1-5.9l0.3-0.1c2.8-0.5,5.4,1.3,5.9,4
			C430.8,564.6,429,567.3,426.2,567.8C426.3,567.8,426.2,567.8,426.2,567.8"/>
		<path class="st0" d="M395.9,570.3h-0.3c-2.7,0-4.8-2.2-4.8-4.9c0-2.6,2.2-4.8,4.8-4.8h0.3c2.7,0,4.9,2.1,4.9,4.8
			S398.6,570.3,395.9,570.3L395.9,570.3z"/>
		<path class="st0" d="M365.7,567.4l-0.3-0.1c-2.5-0.5-4.1-2.9-3.7-5.4c0.5-2.5,2.8-4.1,5.3-3.7l0.3,0.1c2.5,0.4,4.2,2.8,3.8,5.3
			C370.6,566.2,368.2,567.9,365.7,567.4L365.7,567.4"/>
		<path class="st0" d="M336.5,559.2l-0.3-0.1c-2.3-0.9-3.4-3.4-2.5-5.7c0.9-2.2,3.4-3.4,5.6-2.5l0.3,0.1c2.3,0.8,3.4,3.4,2.6,5.6
			C341.4,558.9,338.8,560,336.5,559.2L336.5,559.2"/>
		<path class="st0" d="M309.3,545.8l-0.3-0.2c-2-1.2-2.6-3.7-1.4-5.7c1.2-1.9,3.7-2.6,5.6-1.4l0.3,0.2c2,1.2,2.6,3.7,1.5,5.7
			C313.9,546.4,311.4,547,309.3,545.8C309.4,545.9,309.3,545.8,309.3,545.8"/>
		<path class="st0" d="M285,527.9l-0.3-0.2c-1.6-1.4-1.8-3.9-0.3-5.5c1.4-1.6,3.9-1.8,5.5-0.4l0.3,0.2c1.6,1.4,1.8,3.9,0.4,5.5
			C289.1,529.1,286.7,529.3,285,527.9L285,527.9"/>
		<path class="st0" d="M264.2,505.9l-0.2-0.3c-1.3-1.6-1-3.9,0.6-5.2c1.6-1.2,3.9-1,5.1,0.6l0.2,0.3c1.3,1.6,1,3.9-0.5,5.2
			C267.8,507.8,265.5,507.5,264.2,505.9L264.2,505.9"/>
		<path class="st0" d="M247.8,480.6l-0.2-0.3c-0.9-1.7-0.2-3.8,1.4-4.7c1.7-0.9,3.7-0.3,4.6,1.4l0.2,0.3c0.9,1.7,0.3,3.8-1.4,4.7
			C250.8,483,248.7,482.3,247.8,480.6C247.8,480.7,247.8,480.6,247.8,480.6"/>
		<path class="st0" d="M236.1,452.8l-0.1-0.3c-0.5-1.7,0.4-3.5,2.1-4c1.7-0.5,3.5,0.4,4,2.1l0.1,0.3c0.6,1.7-0.4,3.5-2,4.1
			C238.5,455.5,236.7,454.6,236.1,452.8C236.1,452.9,236.1,452.8,236.1,452.8"/>
		<path class="st0" d="M229.7,423.5v-0.3c-0.2-1.6,1-3.1,2.6-3.4c1.6-0.2,3.1,0.9,3.3,2.5v0.3c0.2,1.6-0.9,3.2-2.5,3.4
			C231.4,426.3,229.9,425.2,229.7,423.5L229.7,423.5"/>
		<path class="st0" d="M228.5,393.5v-0.3c0.1-1.5,1.4-2.7,2.9-2.6s2.7,1.4,2.6,2.9v0.3c-0.1,1.5-1.3,2.7-2.9,2.7
			C229.6,396.3,228.4,395,228.5,393.5L228.5,393.5"/>
		<path class="st0" d="M232.7,363.8l0.1-0.3c0.3-1.4,1.7-2.2,3-1.9c1.4,0.3,2.2,1.7,1.9,3l-0.1,0.3c-0.3,1.4-1.7,2.2-3,1.9
			C233.2,366.5,232.4,365.2,232.7,363.8L232.7,363.8"/>
		<path class="st0" d="M242.1,335.3l0.1-0.3c0.5-1.2,1.9-1.7,3-1.2c1.2,0.5,1.7,1.8,1.2,3l-0.1,0.3c-0.5,1.2-1.8,1.7-3,1.2
			C242.2,337.9,241.6,336.6,242.1,335.3C242.1,335.4,242.1,335.4,242.1,335.3"/>
		<path class="st0" d="M256.5,309.1l0.2-0.3c0.6-0.9,1.9-1.2,2.9-0.6c0.9,0.6,1.2,1.9,0.6,2.9l-0.2,0.3c-0.6,1-1.9,1.2-2.9,0.6
			S255.9,310.1,256.5,309.1L256.5,309.1"/>
		<path class="st0" d="M275.3,285.9l0.2-0.2c0.7-0.7,1.9-0.8,2.6,0c0.7,0.7,0.7,1.9,0.1,2.6l-0.2,0.2c-0.7,0.7-1.9,0.8-2.6,0.1
			C274.6,287.8,274.5,286.6,275.3,285.9L275.3,285.9"/>
		<path class="st0" d="M297.9,266.4l0.3-0.2c0.7-0.5,1.7-0.3,2.2,0.4c0.5,0.7,0.4,1.7-0.4,2.2l-0.3,0.2c-0.7,0.5-1.7,0.4-2.3-0.3
			C297,267.9,297.1,266.9,297.9,266.4C297.8,266.4,297.9,266.4,297.9,266.4"/>
		<path class="st0" d="M323.5,251.2l0.3-0.1c0.7-0.3,1.5,0,1.8,0.7s0,1.5-0.6,1.8l-0.3,0.1c-0.7,0.3-1.5,0.1-1.9-0.6
			C322.6,252.4,322.8,251.6,323.5,251.2C323.5,251.3,323.5,251.3,323.5,251.2"/>
		<path class="st0" d="M351.5,241l0.3-0.1c0.6-0.2,1.2,0.2,1.4,0.8c0.2,0.6-0.2,1.2-0.8,1.4l-0.3,0.1c-0.6,0.2-1.3-0.2-1.4-0.8
			C350.5,241.8,350.8,241.2,351.5,241L351.5,241"/>
		<path class="st0" d="M380.7,235.9h0.3c0.5,0,0.9,0.3,1,0.8c0,0.5-0.3,0.9-0.8,1h-0.3c-0.5,0.1-1-0.3-1-0.8
			C379.8,236.4,380.2,235.9,380.7,235.9L380.7,235.9"/>
		<path class="st0" d="M410.4,236.1h0.3c0.4,0,0.7,0.4,0.6,0.8c0,0.4-0.4,0.7-0.7,0.6h-0.3c-0.4,0-0.7-0.4-0.6-0.7
			C409.6,236.3,410,236,410.4,236.1L410.4,236.1z"/>
		<path class="st0" d="M439.5,241.5l0.3,0.1c0.2,0.1,0.4,0.3,0.3,0.6c-0.1,0.2-0.3,0.4-0.6,0.3l-0.3-0.1c-0.2-0.1-0.4-0.3-0.3-0.6
			C439,241.6,439.2,241.4,439.5,241.5L439.5,241.5"/>
		<path class="st0" d="M467.1,252.1l0.3,0.1c0.1,0.1,0.2,0.2,0.1,0.3s-0.2,0.2-0.3,0.1l-0.3-0.1c-0.1-0.1-0.2-0.2-0.1-0.3
			C466.8,252.1,467,252,467.1,252.1L467.1,252.1z"/>
		<path class="st0" d="M464,267.5l0.3,0.1c3.4,1.8,4.8,6,3,9.5c-1.8,3.4-6,4.8-9.4,3l-0.3-0.1c-3.5-1.7-4.9-6-3.1-9.4
			C456.2,267.1,460.5,265.7,464,267.5C463.9,267.5,464,267.5,464,267.5"/>
		<path class="st0" d="M486.7,282l0.2,0.2c3,2.3,3.5,6.6,1.2,9.6s-6.5,3.5-9.5,1.3l-0.2-0.2c-3-2.3-3.6-6.5-1.4-9.5
			C479.4,280.3,483.6,279.7,486.7,282C486.7,281.9,486.7,282,486.7,282"/>
		<path class="st0" d="M506.5,300.3l0.2,0.2c2.4,2.7,2.2,6.9-0.5,9.4c-2.7,2.4-6.8,2.2-9.3-0.4l-0.2-0.2c-2.5-2.7-2.3-6.9,0.4-9.4
			C499.7,297.4,503.9,297.5,506.5,300.3C506.4,300.2,506.5,300.3,506.5,300.3"/>
		<path class="st0" d="M522.6,321.8l0.1,0.2c1.9,3,0.9,7-2.1,8.8s-6.9,0.9-8.8-2l-0.2-0.2c-1.9-3-1-7,2-8.9S520.6,318.7,522.6,321.8
			C522.5,321.7,522.5,321.8,522.6,321.8"/>
		<path class="st0" d="M534.5,345.8l0.1,0.3c1.3,3.2-0.3,6.8-3.5,8.1c-3.2,1.2-6.7-0.3-8-3.4l-0.1-0.3c-1.3-3.2,0.2-6.8,3.4-8.1
			C529.6,341,533.2,342.5,534.5,345.8C534.5,345.7,534.5,345.8,534.5,345.8"/>
		<path class="st0" d="M542,371.5l0.1,0.3c0.6,3.3-1.5,6.4-4.7,7.1c-3.2,0.6-6.4-1.4-7-4.7l-0.1-0.3c-0.7-3.3,1.4-6.5,4.6-7.1
			C538.1,366,541.3,368.1,542,371.5C542,371.4,542,371.4,542,371.5"/>
		<path class="st0" d="M544.9,398v0.3c0,3.2-2.5,5.9-5.7,5.9s-5.8-2.5-5.9-5.6v-0.3c-0.1-3.2,2.4-5.9,5.6-6
			C542.1,392.2,544.8,394.7,544.9,398C544.8,398,544.9,398,544.9,398"/>
		<path class="st0" d="M542.9,424.7v0.3c-0.5,3.1-3.4,5.1-6.5,4.6c-3-0.5-5.1-3.4-4.6-6.4v-0.3c0.5-3.1,3.3-5.2,6.4-4.7
			C541.2,418.6,543.4,421.5,542.9,424.7C542.9,424.6,542.9,424.6,542.9,424.7"/>
		<path class="st0" d="M536.2,450.5l-0.1,0.3c-1,2.8-4.1,4.3-6.9,3.3c-2.8-1-4.2-4.1-3.3-6.9l0.1-0.3c1-2.8,4.1-4.3,6.9-3.4
			C535.6,444.5,537.2,447.6,536.2,450.5C536.2,450.4,536.2,450.5,536.2,450.5"/>
		<path class="st0" d="M525,474.6l-0.1,0.3c-1.4,2.5-4.6,3.4-7.1,1.9c-2.5-1.4-3.3-4.6-1.9-7.1l0.1-0.3c1.4-2.5,4.6-3.4,7.1-2
			C525.5,468.9,526.4,472,525,474.6L525,474.6"/>
		<path class="st0" d="M509.7,496.4l-0.2,0.2c-1.8,2.1-5,2.4-7.1,0.6s-2.4-4.9-0.6-7l0.2-0.2c1.8-2.1,4.9-2.5,7.1-0.7
			C511.2,491.1,511.5,494.2,509.7,496.4L509.7,496.4"/>
		<path class="st0" d="M490.7,515.1l-0.2,0.2c-2.1,1.7-5.1,1.4-6.8-0.7c-1.7-2-1.4-5,0.6-6.7l0.2-0.2c2-1.7,5.1-1.5,6.8,0.6
			C493.1,510.3,492.8,513.3,490.7,515.1C490.8,515.1,490.7,515.1,490.7,515.1"/>
		<path class="st0" d="M468.8,530l-0.2,0.1c-2.2,1.2-5,0.4-6.3-1.8c-1.2-2.2-0.4-5,1.7-6.2l0.2-0.1c2.2-1.3,5-0.5,6.3,1.7
			S471.1,528.7,468.8,530C468.9,530,468.8,530,468.8,530"/>
		<path class="st0" d="M444.6,540.8l-0.3,0.1c-2.3,0.8-4.8-0.4-5.6-2.8c-0.8-2.3,0.4-4.8,2.7-5.6l0.3-0.1c2.3-0.8,4.8,0.4,5.6,2.7
			C448.2,537.4,447,539.9,444.6,540.8C444.7,540.8,444.6,540.8,444.6,540.8"/>
		<path class="st0" d="M418.9,547.1h-0.3c-2.3,0.3-4.4-1.2-4.8-3.5c-0.3-2.3,1.2-4.4,3.5-4.8h0.3c2.3-0.4,4.5,1.2,4.9,3.5
			C422.8,544.5,421.3,546.7,418.9,547.1C419,547.1,418.9,547.1,418.9,547.1"/>
		<path class="st0" d="M392.6,548.7h-0.3c-2.2-0.1-4-1.9-3.9-4.1c0.1-2.2,1.9-3.9,4.1-3.9h0.3c2.2,0,4,1.9,4,4.1
			C396.7,547,394.9,548.7,392.6,548.7L392.6,548.7"/>
		<path class="st0" d="M366.4,545.6l-0.3-0.1c-2.1-0.4-3.4-2.5-2.9-4.5c0.4-2,2.4-3.3,4.5-2.9l0.3,0.1c2.1,0.4,3.4,2.4,3,4.5
			C370.5,544.6,368.5,546,366.4,545.6L366.4,545.6"/>
		<path class="st0" d="M341.2,537.8l-0.3-0.1c-1.8-0.8-2.7-2.9-2-4.7c0.8-1.8,2.8-2.7,4.7-2l0.3,0.1c1.9,0.7,2.8,2.8,2,4.7
			C345.2,537.6,343.1,538.5,341.2,537.8C341.3,537.8,341.2,537.8,341.2,537.8"/>
		<path class="st0" d="M317.9,525.7l-0.2-0.2c-1.6-1-2.1-3.1-1-4.7c1-1.6,3.1-2,4.7-1.1l0.3,0.2c1.6,1,2.1,3.1,1.1,4.7
			C321.6,526.2,319.5,526.7,317.9,525.7L317.9,525.7"/>
		<path class="st0" d="M297,509.6l-0.2-0.2c-1.3-1.2-1.4-3.2-0.2-4.5c1.2-1.3,3.2-1.4,4.5-0.2l0.2,0.2c1.3,1.2,1.4,3.2,0.2,4.5
			C300.4,510.8,298.4,510.9,297,509.6C297,509.7,297,509.7,297,509.6"/>
		<path class="st0" d="M279.4,490.1l-0.2-0.2c-1-1.3-0.7-3.2,0.6-4.2c1.3-1,3.2-0.7,4.2,0.6l0.2,0.2c1,1.3,0.8,3.2-0.5,4.2
			C282.4,491.7,280.5,491.5,279.4,490.1C279.5,490.2,279.4,490.2,279.4,490.1"/>
		<path class="st0" d="M265.7,467.9l-0.1-0.2c-0.7-1.4-0.1-3.1,1.3-3.8c1.4-0.7,3-0.1,3.7,1.2l0.1,0.2c0.7,1.4,0.2,3.1-1.2,3.8
			C268.1,469.8,266.4,469.3,265.7,467.9L265.7,467.9"/>
		<path class="st0" d="M256.1,443.5l-0.1-0.3c-0.4-1.4,0.4-2.8,1.8-3.2c1.4-0.4,2.8,0.4,3.2,1.7l0.1,0.3c0.4,1.4-0.3,2.8-1.7,3.3
			C258,445.7,256.5,444.9,256.1,443.5L256.1,443.5"/>
		<path class="st0" d="M251,417.9v-0.3c-0.1-1.3,0.8-2.5,2.1-2.6s2.5,0.8,2.6,2.1v0.3c0.2,1.3-0.8,2.5-2.1,2.7
			C252.4,420.2,251.2,419.3,251,417.9L251,417.9"/>
		<path class="st0" d="M250.6,391.8v-0.3c0.1-1.2,1.2-2.1,2.4-2s2.1,1.1,2,2.3v0.3c-0.1,1.2-1.1,2.1-2.3,2.1
			C251.4,394.1,250.5,393.1,250.6,391.8C250.6,391.9,250.6,391.8,250.6,391.8"/>
		<path class="st0" d="M254.8,366.1l0.1-0.3c0.3-1.1,1.4-1.7,2.4-1.4c1.1,0.3,1.7,1.4,1.4,2.4l-0.1,0.3c-0.3,1.1-1.3,1.7-2.4,1.5
			C255.2,368.3,254.5,367.2,254.8,366.1L254.8,366.1"/>
		<path class="st0" d="M263.6,341.6l0.1-0.3c0.4-0.9,1.5-1.3,2.4-0.9s1.3,1.5,0.9,2.4l-0.1,0.3c-0.4,0.9-1.5,1.3-2.4,0.9
			S263.2,342.6,263.6,341.6L263.6,341.6"/>
		<path class="st0" d="M276.5,319.1l0.2-0.2c0.5-0.7,1.5-0.9,2.2-0.4s0.9,1.5,0.4,2.2l-0.2,0.2c-0.5,0.7-1.5,0.9-2.2,0.4
			C276.2,320.8,276,319.8,276.5,319.1L276.5,319.1"/>
		<path class="st0" d="M293.3,299.2l0.2-0.2c0.6-0.5,1.4-0.5,2,0c0.5,0.5,0.5,1.4,0,2l-0.2,0.2c-0.5,0.6-1.4,0.6-2,0
			C292.7,300.7,292.7,299.8,293.3,299.2L293.3,299.2"/>
		<path class="st0" d="M313.3,282.8l0.2-0.2c0.5-0.4,1.3-0.2,1.7,0.3c0.4,0.5,0.2,1.3-0.3,1.7l-0.2,0.2c-0.5,0.4-1.3,0.3-1.7-0.3
			C312.6,283.9,312.7,283.1,313.3,282.8L313.3,282.8"/>
		<path class="st0" d="M335.9,270.1l0.3-0.1c0.5-0.2,1.1,0,1.3,0.5c0.2,0.5,0,1.1-0.5,1.3l-0.3,0.1c-0.5,0.2-1.1,0-1.3-0.5
			C335.2,271,335.4,270.4,335.9,270.1L335.9,270.1"/>
		<path class="st0" d="M360.3,261.8l0.3-0.1c0.4-0.1,0.9,0.2,1,0.6s-0.2,0.9-0.6,1l-0.3,0.1c-0.4,0.1-0.9-0.1-1-0.6
			C359.6,262.3,359.9,261.9,360.3,261.8L360.3,261.8"/>
		<path class="st0" d="M385.8,257.9h0.3c0.3,0,0.6,0.2,0.6,0.6c0,0.3-0.2,0.6-0.6,0.6h-0.3c-0.3,0-0.6-0.2-0.6-0.6
			C385.2,258.2,385.5,257.9,385.8,257.9L385.8,257.9z"/>
		<path class="st0" d="M411.6,258.6h0.3c0.2,0,0.4,0.2,0.3,0.4c0,0.2-0.2,0.4-0.4,0.4h-0.3c-0.2,0-0.4-0.2-0.4-0.4
			C411.1,258.7,411.3,258.5,411.6,258.6L411.6,258.6z"/>
		<path class="st0" d="M436.7,263.9l0.3,0.1c0.1,0,0.2,0.1,0.1,0.3c0,0.1-0.1,0.2-0.2,0.1l-0.3-0.1c-0.1,0-0.2-0.1-0.1-0.3
			C436.5,263.9,436.6,263.9,436.7,263.9L436.7,263.9"/>
		<path class="st0" d="M436.2,277.6l0.2,0.1c3.2,1.1,4.9,4.5,3.9,7.7c-1.1,3.2-4.5,4.9-7.6,3.9l-0.3-0.1c-3.2-1-5-4.5-4-7.7
			C429.5,278.3,432.9,276.5,436.2,277.6C436.1,277.6,436.2,277.6,436.2,277.6"/>
		<path class="st0" d="M457.7,286.9l0.2,0.1c2.9,1.6,3.9,5.2,2.4,8.1c-1.6,2.8-5.1,3.9-8,2.4l-0.2-0.1c-2.9-1.5-4-5.1-2.5-8
			S454.7,285.4,457.7,286.9C457.6,286.9,457.7,286.9,457.7,286.9"/>
		<path class="st0" d="M477.2,300l0.2,0.2c2.5,2,2.8,5.6,0.8,8.1c-2,2.4-5.6,2.8-8,0.9L470,309c-2.5-2-2.9-5.6-1-8.1
			C471,298.4,474.6,298,477.2,300C477.1,299.9,477.1,300,477.2,300"/>
		<path class="st0" d="M493.9,316.3l0.2,0.2c2,2.3,1.7,5.9-0.6,7.9c-2.3,2-5.8,1.7-7.8-0.5l-0.2-0.2c-2-2.3-1.8-5.8,0.5-7.9
			C488.3,313.7,491.8,313.9,493.9,316.3C493.9,316.2,493.9,316.3,493.9,316.3"/>
		<path class="st0" d="M507.5,335.3l0.1,0.2c1.5,2.6,0.6,5.9-1.9,7.4c-2.6,1.5-5.8,0.7-7.4-1.9l-0.1-0.2c-1.5-2.6-0.7-5.9,1.8-7.4
			C502.5,331.8,505.9,332.6,507.5,335.3C507.4,335.2,507.4,335.2,507.5,335.3"/>
		<path class="st0" d="M517.4,356.3l0.1,0.2c1,2.7-0.4,5.7-3.1,6.7c-2.7,1-5.7-0.4-6.7-3l-0.1-0.2c-1-2.7,0.3-5.7,3-6.8
			C513.3,352.2,516.3,353.5,517.4,356.3C517.4,356.2,517.4,356.3,517.4,356.3"/>
		<path class="st0" d="M523.4,378.8v0.2c0.5,2.8-1.4,5.4-4.1,5.9c-2.7,0.5-5.3-1.3-5.8-4v-0.2c-0.5-2.7,1.3-5.4,4-5.9
			C520.2,374.1,522.9,375.9,523.4,378.8C523.4,378.7,523.4,378.7,523.4,378.8"/>
		<path class="st0" d="M525.4,401.9v0.2c0,2.7-2.2,4.9-4.9,4.8c-2.7,0-4.8-2.2-4.8-4.9v-0.2c0-2.7,2.2-4.9,4.9-4.9
			C523.1,397,525.3,399.1,525.4,401.9L525.4,401.9z"/>
		<path class="st0" d="M523.1,425v0.2c-0.5,2.6-3,4.2-5.5,3.7s-4.2-2.9-3.8-5.4v-0.2c0.5-2.6,2.9-4.3,5.5-3.8
			C521.8,419.9,523.6,422.4,523.1,425C523.1,424.9,523.1,425,523.1,425"/>
		<path class="st0" d="M516.8,447.3l-0.1,0.2c-0.9,2.3-3.5,3.5-5.9,2.6c-2.3-0.9-3.5-3.5-2.6-5.8l0.1-0.2c0.9-2.4,3.5-3.6,5.8-2.7
			C516.4,442.3,517.6,444.9,516.8,447.3C516.8,447.2,516.8,447.3,516.8,447.3"/>
		<path class="st0" d="M506.6,468.1l-0.1,0.2c-1.3,2.1-3.9,2.7-6,1.5c-2-1.2-2.7-3.9-1.5-5.9l0.1-0.2c1.2-2.1,3.9-2.8,6-1.6
			C507.1,463.3,507.8,465.9,506.6,468.1C506.6,468,506.6,468.1,506.6,468.1"/>
		<path class="st0" d="M492.9,486.7l-0.2,0.2c-1.5,1.7-4.2,1.9-5.9,0.3c-1.7-1.5-1.9-4.1-0.4-5.9l0.2-0.2c1.5-1.8,4.2-2,5.9-0.4
			C494.2,482.2,494.4,484.9,492.9,486.7L492.9,486.7"/>
		<path class="st0" d="M476,502.5l-0.2,0.1c-1.7,1.4-4.3,1.1-5.6-0.7c-1.4-1.7-1.1-4.2,0.6-5.6l0.2-0.2c1.7-1.4,4.3-1.1,5.6,0.6
			C478.1,498.6,477.8,501.1,476,502.5C476.1,502.5,476.1,502.5,476,502.5"/>
		<path class="st0" d="M456.7,515.1l-0.2,0.1c-1.9,1-4.2,0.3-5.2-1.6c-1-1.9-0.3-4.2,1.6-5.2l0.2-0.1c1.9-1,4.2-0.3,5.2,1.5
			C459.3,511.7,458.6,514,456.7,515.1C456.8,515,456.7,515,456.7,515.1"/>
		<path class="st0" d="M435.5,524l-0.2,0.1c-1.9,0.6-4-0.5-4.6-2.4s0.4-3.9,2.3-4.6l0.2-0.1c1.9-0.6,4,0.4,4.6,2.3
			C438.5,521.2,437.5,523.3,435.5,524C435.6,523.9,435.5,523.9,435.5,524"/>
		<path class="st0" d="M413.1,528.9h-0.2c-1.9,0.2-3.7-1.1-3.9-3c-0.2-1.9,1.1-3.6,3-3.9h0.2c1.9-0.3,3.7,1,4,3
			C416.4,526.9,415.1,528.6,413.1,528.9L413.1,528.9"/>
		<path class="st0" d="M390.2,529.8H390c-1.8-0.1-3.2-1.7-3.1-3.5s1.6-3.2,3.4-3.1h0.2c1.8,0.1,3.3,1.6,3.2,3.4
			C393.6,528.4,392,529.9,390.2,529.8L390.2,529.8"/>
		<path class="st0" d="M367.5,526.6l-0.2-0.1c-1.7-0.4-2.7-2.1-2.3-3.8c0.4-1.7,2.1-2.7,3.7-2.3l0.2,0.1c1.7,0.4,2.8,2,2.4,3.7
			C370.9,525.9,369.2,526.9,367.5,526.6L367.5,526.6"/>
		<path class="st0" d="M345.7,519.3l-0.2-0.1c-1.5-0.7-2.2-2.4-1.5-3.9c0.6-1.5,2.4-2.2,3.9-1.6l0.2,0.1c1.5,0.6,2.2,2.4,1.6,3.9
			C349,519.3,347.3,520,345.7,519.3C345.8,519.3,345.8,519.3,345.7,519.3"/>
		<path class="st0" d="M325.7,508.4l-0.2-0.1c-1.3-0.9-1.6-2.6-0.8-3.9c0.9-1.3,2.6-1.6,3.8-0.8l0.2,0.1c1.3,0.8,1.7,2.6,0.8,3.9
			C328.7,508.9,327,509.2,325.7,508.4L325.7,508.4"/>
		<path class="st0" d="M307.9,494l-0.2-0.2c-1-1-1.1-2.7-0.1-3.7s2.6-1.1,3.7-0.1l0.2,0.2c1.1,1,1.1,2.6,0.1,3.7S309,495,307.9,494
			L307.9,494"/>
		<path class="st0" d="M293,476.7l-0.1-0.2c-0.8-1.1-0.5-2.6,0.6-3.4s2.6-0.5,3.4,0.5l0.1,0.2c0.8,1.1,0.6,2.6-0.5,3.4
			C295.4,478.1,293.9,477.9,293,476.7C293.1,476.8,293,476.7,293,476.7"/>
		<path class="st0" d="M281.5,457.1l-0.1-0.2c-0.5-1.1-0.1-2.5,1.1-3c1.1-0.5,2.5-0.1,3,1l0.1,0.2c0.6,1.1,0.1,2.5-1,3
			C283.4,458.7,282.1,458.3,281.5,457.1L281.5,457.1"/>
		<path class="st0" d="M273.6,435.8l-0.1-0.2c-0.3-1.1,0.4-2.3,1.5-2.6c1.1-0.3,2.2,0.3,2.6,1.4l0.1,0.2c0.3,1.1-0.3,2.3-1.4,2.6
			C275.1,437.6,274,436.9,273.6,435.8C273.7,435.8,273.6,435.8,273.6,435.8"/>
		<path class="st0" d="M269.7,413.5v-0.2c-0.1-1.1,0.7-2,1.8-2.1c1-0.1,2,0.7,2.1,1.7v0.2c0.1,1.1-0.7,2-1.7,2.1
			C270.8,415.3,269.8,414.5,269.7,413.5L269.7,413.5"/>
		<path class="st0" d="M269.9,390.8v-0.2c0.1-1,0.9-1.7,1.9-1.6c0.9,0.1,1.6,0.9,1.6,1.9v0.2c-0.1,1-0.9,1.7-1.9,1.6
			C270.5,392.6,269.8,391.8,269.9,390.8L269.9,390.8"/>
		<path class="st0" d="M274.1,368.5l0.1-0.2c0.2-0.8,1.1-1.3,1.9-1.1c0.8,0.2,1.3,1.1,1.1,1.9l-0.1,0.2c-0.2,0.8-1.1,1.3-1.9,1.1
			C274.3,370.3,273.8,369.4,274.1,368.5C274.1,368.6,274.1,368.5,274.1,368.5"/>
		<path class="st0" d="M282.1,347.4l0.1-0.2c0.3-0.7,1.2-1,1.9-0.6c0.7,0.3,1,1.2,0.7,1.8l-0.1,0.2c-0.3,0.7-1.2,1-1.9,0.7
			C282.1,349,281.8,348.1,282.1,347.4L282.1,347.4"/>
		<path class="st0" d="M293.8,328.1l0.1-0.2c0.4-0.5,1.2-0.7,1.7-0.3c0.5,0.4,0.7,1.2,0.3,1.7l-0.1,0.2c-0.4,0.6-1.2,0.7-1.7,0.3
			C293.6,329.4,293.4,328.6,293.8,328.1L293.8,328.1"/>
		<path class="st0" d="M308.8,311.2l0.2-0.2c0.4-0.4,1.1-0.4,1.5,0s0.4,1.1,0,1.5l-0.2,0.2c-0.4,0.4-1.1,0.4-1.5,0
			C308.3,312.3,308.4,311.6,308.8,311.2L308.8,311.2"/>
		<path class="st0" d="M326.5,297.3l0.2-0.1c0.4-0.3,0.9-0.1,1.2,0.3c0.3,0.4,0.2,0.9-0.2,1.2l-0.2,0.1c-0.4,0.3-0.9,0.2-1.2-0.2
			C326,298.1,326.1,297.6,326.5,297.3L326.5,297.3"/>
		<path class="st0" d="M346.3,286.8l0.2-0.1c0.4-0.1,0.8,0,0.9,0.4s0,0.8-0.4,0.9l-0.2,0.1c-0.3,0.2-0.8,0-0.9-0.4
			S346,286.9,346.3,286.8L346.3,286.8"/>
		<path class="st0" d="M367.7,279.9l0.2-0.1c0.3-0.1,0.6,0.1,0.6,0.4c0.1,0.3-0.1,0.6-0.4,0.6L368,281c-0.3,0.1-0.6-0.1-0.6-0.4
			C367.3,280.3,367.4,280,367.7,279.9L367.7,279.9"/>
		<path class="st0" d="M389.9,277h0.2c0.2,0,0.4,0.1,0.4,0.3c0,0.2-0.1,0.3-0.3,0.4H390c-0.2,0-0.4-0.1-0.4-0.3
			S389.7,277.1,389.9,277L389.9,277z"/>
		<path class="st0" d="M412.3,278.2h0.2c0.1,0,0.2,0.1,0.1,0.2c0,0.1-0.1,0.2-0.2,0.1h-0.2c-0.1,0-0.2-0.1-0.2-0.2
			C412.1,278.2,412.2,278.2,412.3,278.2L412.3,278.2z"/>
	</g>
	<g>
		<path class="st0" d="M595.2,247l0.3,0.4c0.1,0.2,0.1,0.4-0.1,0.5c-0.2,0.1-0.4,0.1-0.5-0.1l-0.3-0.4c-0.1-0.2-0.1-0.4,0.1-0.5
			C594.9,246.8,595.1,246.8,595.2,247L595.2,247z"/>
		<path class="st0" d="M580.5,265.3l0.3,0.3c3.4,4.8,2.3,11.5-2.5,14.9c-4.7,3.4-11.3,2.3-14.8-2.4l-0.3-0.3
			c-3.5-4.7-2.5-11.4,2.3-14.9c4.7-3.5,11.4-2.5,14.9,2.3C580.5,265.2,580.5,265.3,580.5,265.3"/>
		<path class="st0" d="M601.3,300.5l0.2,0.4c2.4,5.2,0.2,11.3-4.9,13.8c-5.1,2.4-11.2,0.3-13.7-4.8l-0.2-0.4
			c-2.5-5.1-0.4-11.3,4.7-13.9c5.1-2.5,11.3-0.4,13.9,4.7C601.2,300.4,601.3,300.5,601.3,300.5"/>
		<path class="st0" d="M615.4,338.9l0.1,0.4c1.4,5.4-1.8,10.9-7.1,12.3s-10.8-1.7-12.3-7l-0.1-0.4c-1.5-5.3,1.6-10.9,6.9-12.4
			c5.3-1.5,10.9,1.6,12.4,6.9C615.3,338.8,615.4,338.9,615.4,338.9"/>
		<path class="st0" d="M622.3,379.1v0.4c0.4,5.4-3.6,10.1-8.9,10.5c-5.3,0.4-10-3.5-10.5-8.8v-0.4c-0.5-5.4,3.4-10.1,8.8-10.6
			c5.4-0.5,10.1,3.4,10.6,8.8C622.3,379,622.3,379.1,622.3,379.1"/>
		<path class="st0" d="M622,419.8v0.4c-0.5,5.2-5.1,9-10.3,8.5c-5.1-0.5-8.9-5.1-8.5-10.2v-0.4c0.4-5.2,5-9.1,10.2-8.6
			c5.2,0.4,9.1,5,8.6,10.2C622,419.7,622,419.8,622,419.8"/>
		<path class="st0" d="M614.4,459.8l-0.1,0.4c-1.4,4.9-6.4,7.7-11.3,6.3c-4.8-1.4-7.6-6.3-6.3-11.2l0.1-0.4
			c1.3-4.9,6.3-7.8,11.2-6.5s7.8,6.3,6.5,11.2C614.5,459.7,614.4,459.7,614.4,459.8"/>
		<path class="st0" d="M599.9,497.7l-0.2,0.4c-2.2,4.4-7.4,6.2-11.8,4c-4.3-2.1-6.1-7.3-4.1-11.7l0.2-0.4c2.1-4.4,7.3-6.3,11.8-4.2
			c4.4,2.1,6.3,7.4,4.2,11.8C599.9,497.6,599.9,497.7,599.9,497.7"/>
		<path class="st0" d="M578.8,532.4l-0.3,0.3c-2.8,3.8-8.1,4.6-11.9,1.8c-3.7-2.8-4.6-8-1.9-11.8l0.2-0.3c2.7-3.8,8.1-4.7,11.9-2
			C580.6,523.1,581.5,528.5,578.8,532.4C578.9,532.3,578.9,532.4,578.8,532.4"/>
		<path class="st0" d="M551.9,562.7l-0.3,0.3c-3.3,3.1-8.5,2.9-11.6-0.4c-3.1-3.3-2.9-8.4,0.3-11.5l0.3-0.3
			c3.3-3.2,8.5-3.1,11.6,0.2C555.4,554.2,555.3,559.4,551.9,562.7C552,562.6,552,562.7,551.9,562.7"/>
		<path class="st0" d="M520.1,587.6l-0.4,0.2c-3.7,2.4-8.6,1.3-11-2.3s-1.3-8.5,2.2-10.9l0.4-0.2c3.6-2.4,8.6-1.5,11,2.2
			C524.7,580.2,523.8,585.2,520.1,587.6C520.2,587.6,520.1,587.6,520.1,587.6"/>
		<path class="st0" d="M484.4,606.6l-0.4,0.2c-3.9,1.6-8.3-0.2-10-4.1c-1.6-3.8,0.2-8.3,4-9.9l0.4-0.2c3.9-1.7,8.3,0.1,10,3.9
			c1.7,3.9-0.1,8.3-3.9,10C484.5,606.5,484.4,606.5,484.4,606.6"/>
		<path class="st0" d="M445.9,618.7l-0.4,0.1c-3.9,0.9-7.8-1.6-8.7-5.6c-0.8-3.9,1.6-7.8,5.5-8.7l0.4-0.1c3.9-0.9,7.9,1.5,8.8,5.4
			s-1.5,7.9-5.4,8.8C446,618.7,445.9,618.7,445.9,618.7"/>
		<path class="st0" d="M405.9,623.8h-0.4c-3.9,0.1-7.1-2.9-7.2-6.8c-0.1-3.8,2.8-7,6.6-7.2h0.4c3.9-0.2,7.2,2.8,7.4,6.6
			c0.2,3.9-2.8,7.2-6.6,7.4C406,623.8,405.9,623.8,405.9,623.8"/>
		<path class="st0" d="M365.8,621.7l-0.4-0.1c-3.7-0.5-6.2-3.9-5.7-7.6c0.5-3.6,3.9-6.1,7.5-5.7l0.4,0.1c3.7,0.5,6.3,3.8,5.8,7.5
			S369.6,622.2,365.8,621.7C365.8,621.7,365.8,621.7,365.8,621.7"/>
		<path class="st0" d="M326.6,612.5l-0.4-0.1c-3.4-1.1-5.2-4.7-4-8.1c1.1-3.3,4.7-5.1,8-4.1l0.4,0.1c3.4,1.1,5.2,4.7,4.2,8
			C333.7,611.7,330.1,613.6,326.6,612.5C326.7,612.5,326.7,612.5,326.6,612.5"/>
		<path class="st0" d="M289.9,596.4l-0.4-0.2c-2.9-1.6-4-5.3-2.4-8.3c1.6-2.9,5.3-4,8.2-2.5l0.4,0.2c3,1.6,4.1,5.3,2.5,8.2
			C296.6,596.9,292.9,598.1,289.9,596.4C289.9,596.5,289.9,596.4,289.9,596.4"/>
		<path class="st0" d="M256.6,574.1l-0.3-0.3c-2.5-2-2.9-5.7-0.8-8.1c2-2.5,5.6-2.8,8.1-0.9l0.3,0.3c2.5,2,2.9,5.6,1,8.1
			C262.8,575.7,259.2,576.2,256.6,574.1C256.6,574.2,256.6,574.1,256.6,574.1"/>
		<path class="st0" d="M227.9,546.2l-0.3-0.3c-2-2.3-1.7-5.8,0.6-7.7c2.3-2,5.7-1.7,7.7,0.5l0.3,0.3c2,2.3,1.8,5.7-0.5,7.7
			C233.4,548.8,230,548.6,227.9,546.2C227.9,546.3,227.9,546.2,227.9,546.2"/>
		<path class="st0" d="M204.7,513.7l-0.2-0.4c-1.4-2.5-0.6-5.6,1.8-7.1c2.4-1.4,5.6-0.6,7,1.8l0.2,0.4c1.5,2.4,0.7,5.6-1.7,7.1
			C209.4,517,206.2,516.2,204.7,513.7C204.7,513.8,204.7,513.7,204.7,513.7"/>
		<path class="st0" d="M187.6,477.6l-0.1-0.4c-0.9-2.5,0.4-5.3,2.9-6.2c2.5-0.9,5.3,0.3,6.2,2.8l0.2,0.4c1,2.5-0.3,5.3-2.8,6.3
			C191.4,481.5,188.6,480.2,187.6,477.6C187.6,477.7,187.6,477.6,187.6,477.6"/>
		<path class="st0" d="M177.3,439.1l-0.1-0.4c-0.4-2.5,1.2-4.8,3.7-5.3c2.5-0.4,4.8,1.2,5.3,3.7l0.1,0.4c0.5,2.5-1.2,4.9-3.7,5.3
			C180.1,443.3,177.7,441.6,177.3,439.1C177.3,439.2,177.3,439.1,177.3,439.1"/>
		<path class="st0" d="M174,399.4V399c0-2.4,2-4.2,4.3-4.2s4.2,1.9,4.2,4.2v0.4c0,2.4-1.9,4.3-4.2,4.3
			C176,403.8,174,401.9,174,399.4L174,399.4z"/>
		<path class="st0" d="M177.9,359.9l0.1-0.4c0.4-2.1,2.5-3.6,4.6-3.1c2.1,0.4,3.5,2.4,3.2,4.6l-0.1,0.4c-0.4,2.2-2.4,3.6-4.6,3.2
			C179,364.1,177.5,362.1,177.9,359.9L177.9,359.9"/>
		<path class="st0" d="M188.7,321.7l0.2-0.4c0.7-1.9,2.8-2.8,4.7-2.1c1.9,0.7,2.8,2.8,2.1,4.7l-0.1,0.4c-0.7,1.9-2.8,2.9-4.7,2.2
			C189,325.7,188,323.6,188.7,321.7L188.7,321.7"/>
		<path class="st0" d="M206.2,286.1l0.2-0.4c1-1.6,3-2.1,4.6-1.1s2.1,3,1.1,4.6l-0.2,0.4c-0.9,1.6-3,2.1-4.6,1.2
			C205.7,289.8,205.2,287.7,206.2,286.1L206.2,286.1"/>
		<path class="st0" d="M229.7,254.3l0.3-0.3c1.1-1.3,3-1.4,4.3-0.2c1.2,1.1,1.4,3,0.3,4.3l-0.3,0.3c-1.1,1.3-3,1.4-4.3,0.3
			C228.7,257.5,228.6,255.6,229.7,254.3L229.7,254.3"/>
		<path class="st0" d="M258.5,227.2l0.3-0.3c1.2-0.9,2.9-0.7,3.8,0.5s0.7,2.9-0.4,3.8l-0.3,0.3c-1.2,1-2.9,0.8-3.9-0.4
			C257.1,229.9,257.3,228.2,258.5,227.2L258.5,227.2"/>
		<path class="st0" d="M291.6,205.7l0.4-0.2c1.2-0.6,2.7-0.2,3.3,1c0.6,1.2,0.2,2.6-1,3.3l-0.4,0.2c-1.2,0.6-2.7,0.2-3.3-1
			C289.9,207.8,290.4,206.4,291.6,205.7L291.6,205.7"/>
		<path class="st0" d="M328,190.4l0.4-0.1c1.1-0.4,2.3,0.3,2.7,1.4c0.3,1.1-0.3,2.3-1.4,2.7l-0.4,0.1c-1.1,0.4-2.3-0.2-2.7-1.4
			C326.2,192,326.8,190.8,328,190.4C327.9,190.4,328,190.4,328,190.4"/>
		<path class="st0" d="M366.4,182l0.4-0.1c1-0.1,1.9,0.6,2,1.6s-0.6,1.9-1.6,2l-0.4,0.1c-1,0.1-1.9-0.6-2.1-1.6
			C364.7,183.1,365.4,182.1,366.4,182L366.4,182"/>
		<path class="st0" d="M405.7,180.6h0.4c0.8,0,1.5,0.8,1.4,1.6c0,0.8-0.7,1.5-1.6,1.4h-0.4c-0.8,0-1.5-0.7-1.5-1.6
			C404.1,181.2,404.8,180.5,405.7,180.6L405.7,180.6"/>
		<path class="st0" d="M444.6,186.1l0.4,0.1c0.7,0.2,1.1,0.8,0.9,1.5c-0.2,0.6-0.8,1-1.4,0.9l-0.4-0.1c-0.7-0.1-1.1-0.8-0.9-1.5
			C443.2,186.4,443.9,186,444.6,186.1L444.6,186.1"/>
		<path class="st0" d="M481.8,198.5l0.4,0.2c0.5,0.2,0.7,0.7,0.5,1.2s-0.7,0.7-1.2,0.5l-0.4-0.2c-0.5-0.2-0.7-0.7-0.5-1.2
			C480.7,198.5,481.3,198.3,481.8,198.5L481.8,198.5"/>
		<path class="st0" d="M516.1,217.3l0.3,0.2c0.3,0.2,0.4,0.6,0.2,0.8c-0.2,0.3-0.6,0.3-0.8,0.2l-0.3-0.2c-0.3-0.2-0.4-0.6-0.2-0.8
			C515.4,217.2,515.8,217.1,516.1,217.3L516.1,217.3"/>
		<path class="st0" d="M546.5,241.9l0.3,0.3c0.1,0.1,0.1,0.3,0,0.4c-0.1,0.1-0.3,0.1-0.4,0l-0.3-0.3c-0.1-0.1-0.1-0.3,0-0.4
			C546.1,241.8,546.3,241.8,546.5,241.9L546.5,241.9z"/>
		<path class="st0" d="M536.2,259.7l0.3,0.3c3.6,3.7,3.5,9.5-0.1,13.1s-9.4,3.5-13,0l-0.3-0.3c-3.6-3.6-3.7-9.5-0.1-13.1
			c3.6-3.6,9.5-3.7,13.1-0.1C536.2,259.7,536.2,259.7,536.2,259.7"/>
		<path class="st0" d="M558.9,287.2l0.2,0.3c2.8,4.1,1.7,9.7-2.4,12.5c-4.1,2.8-9.6,1.8-12.4-2.3l-0.2-0.3
			c-2.9-4.1-1.9-9.7,2.2-12.6c4.1-2.9,9.7-1.9,12.6,2.2C558.8,287.1,558.8,287.2,558.9,287.2"/>
		<path class="st0" d="M576.2,318.2l0.2,0.3c2,4.4,0,9.6-4.5,11.5c-4.4,1.9-9.5,0-11.5-4.3l-0.2-0.3c-2-4.4-0.1-9.6,4.3-11.6
			c4.4-2,9.6-0.1,11.6,4.3L576.2,318.2"/>
		<path class="st0" d="M587.6,351.8l0.1,0.4c1.1,4.6-1.7,9.1-6.3,10.2c-4.5,1.1-9-1.6-10.2-6.1l-0.1-0.4c-1.2-4.5,1.6-9.2,6.1-10.3
			c4.5-1.2,9.2,1.6,10.3,6.1C587.6,351.7,587.6,351.8,587.6,351.8"/>
		<path class="st0" d="M592.9,386.9v0.4c0.3,4.5-3.2,8.4-7.7,8.7c-4.5,0.3-8.3-3.1-8.7-7.6V388c-0.3-4.5,3.1-8.5,7.6-8.8
			S592.6,382.3,592.9,386.9C592.9,386.8,592.9,386.8,592.9,386.9"/>
		<path class="st0" d="M591.8,422.2v0.4c-0.5,4.4-4.5,7.5-8.8,6.9c-4.3-0.5-7.4-4.4-7-8.7v-0.4c0.5-4.4,4.4-7.5,8.7-7.1
			s7.5,4.4,7.1,8.7C591.8,422.1,591.8,422.2,591.8,422.2"/>
		<path class="st0" d="M584.5,456.8l-0.1,0.3c-1.3,4.1-5.6,6.3-9.6,5.1c-4-1.2-6.3-5.5-5.1-9.5l0.1-0.3c1.2-4.1,5.5-6.4,9.5-5.2
			c4.1,1.2,6.4,5.5,5.2,9.5C584.6,456.7,584.5,456.8,584.5,456.8"/>
		<path class="st0" d="M571.2,489.4l-0.2,0.3c-1.9,3.6-6.4,5-10,3.2c-3.6-1.9-5-6.3-3.2-9.9l0.2-0.3c1.8-3.7,6.3-5.2,10-3.3
			C571.7,481.2,573.2,485.7,571.2,489.4C571.2,489.4,571.2,489.4,571.2,489.4"/>
		<path class="st0" d="M552.2,519.1l-0.2,0.3c-2.4,3.1-6.9,3.7-10,1.3s-3.7-6.8-1.3-9.9l0.2-0.3c2.4-3.2,6.9-3.8,10-1.4
			C554,511.4,554.6,515.9,552.2,519.1L552.2,519.1"/>
		<path class="st0" d="M528.2,544.9l-0.3,0.3c-2.8,2.5-7.2,2.3-9.7-0.5s-2.3-7.1,0.4-9.7l0.3-0.3c2.8-2.6,7.1-2.4,9.7,0.4
			C531.3,537.9,531.1,542.2,528.2,544.9C528.3,544.8,528.3,544.9,528.2,544.9"/>
		<path class="st0" d="M500.1,566l-0.3,0.2c-3.1,1.9-7.2,1-9.1-2.2c-1.9-3.1-1-7.1,2.1-9.1l0.3-0.2c3.1-2,7.2-1.1,9.2,2
			C504.2,559.9,503.3,564,500.1,566C500.2,566,500.1,566,500.1,566"/>
		<path class="st0" d="M468.7,581.8l-0.3,0.1c-3.3,1.3-7-0.3-8.2-3.6c-1.3-3.2,0.3-6.9,3.5-8.2l0.3-0.1c3.3-1.3,7,0.2,8.3,3.5
			C473.6,576.7,472.1,580.4,468.7,581.8C468.8,581.7,468.7,581.7,468.7,581.8"/>
		<path class="st0" d="M435.1,591.6l-0.4,0.1c-3.3,0.6-6.5-1.5-7.2-4.8c-0.6-3.3,1.5-6.4,4.7-7.1l0.4-0.1c3.3-0.7,6.5,1.4,7.2,4.7
			C440.6,587.6,438.5,590.9,435.1,591.6L435.1,591.6"/>
		<path class="st0" d="M400.3,595.2h-0.4c-3.2,0-5.9-2.5-5.9-5.7s2.5-5.8,5.7-5.9h0.4c3.2-0.1,5.9,2.4,6,5.7
			C406.1,592.4,403.6,595.1,400.3,595.2L400.3,595.2z"/>
		<path class="st0" d="M365.4,592.6l-0.4-0.1c-3-0.5-5.1-3.4-4.6-6.4s3.3-5,6.3-4.6l0.4,0.1c3,0.5,5.1,3.3,4.7,6.3
			C371.4,591,368.6,593.1,365.4,592.6C365.5,592.6,365.4,592.6,365.4,592.6"/>
		<path class="st0" d="M331.6,583.9l-0.3-0.1c-2.8-1-4.2-4-3.2-6.8c1-2.7,4-4.2,6.7-3.2l0.3,0.1c2.8,0.9,4.3,4,3.3,6.7
			C337.5,583.4,334.5,584.9,331.6,583.9C331.7,583.9,331.6,583.9,331.6,583.9"/>
		<path class="st0" d="M300,569.2l-0.3-0.2c-2.4-1.4-3.2-4.5-1.8-6.9c1.4-2.4,4.4-3.2,6.8-1.9l0.3,0.2c2.4,1.4,3.3,4.4,1.9,6.9
			C305.6,569.8,302.5,570.6,300,569.2C300.1,569.3,300,569.3,300,569.2"/>
		<path class="st0" d="M271.5,549.2l-0.3-0.2c-2-1.7-2.2-4.7-0.5-6.7s4.7-2.2,6.7-0.6l0.3,0.2c2,1.7,2.3,4.7,0.6,6.7
			C276.6,550.6,273.6,550.9,271.5,549.2C271.6,549.2,271.6,549.2,271.5,549.2"/>
		<path class="st0" d="M247.1,524.4l-0.2-0.3c-1.6-1.9-1.3-4.8,0.6-6.3c1.9-1.6,4.7-1.3,6.3,0.6l0.3,0.3c1.6,1.9,1.4,4.7-0.5,6.4
			C251.6,526.6,248.8,526.4,247.1,524.4C247.2,524.5,247.1,524.5,247.1,524.4"/>
		<path class="st0" d="M227.5,495.8l-0.2-0.3c-1.1-2-0.4-4.6,1.6-5.8c2-1.1,4.6-0.4,5.7,1.6l0.2,0.3c1.2,2,0.5,4.6-1.6,5.8
			C231.3,498.5,228.7,497.8,227.5,495.8L227.5,495.8"/>
		<path class="st0" d="M213.4,464.1l-0.1-0.4c-0.7-2.1,0.4-4.3,2.5-5s4.3,0.4,5,2.4l0.1,0.4c0.7,2.1-0.3,4.3-2.4,5.1
			C216.4,467.3,214.2,466.2,213.4,464.1L213.4,464.1"/>
		<path class="st0" d="M205.2,430.4l-0.1-0.4c-0.3-2,1.1-3.9,3.1-4.2c2-0.3,3.9,1.1,4.2,3.1l0.1,0.4c0.3,2-1,3.9-3.1,4.3
			C207.5,433.9,205.6,432.5,205.2,430.4C205.2,430.5,205.2,430.4,205.2,430.4"/>
		<path class="st0" d="M203.1,395.9v-0.4c0.1-1.9,1.6-3.4,3.5-3.3s3.4,1.6,3.3,3.5v0.4c0,1.9-1.6,3.4-3.5,3.4
			C204.6,399.5,203.1,397.9,203.1,395.9C203.1,396,203.1,396,203.1,395.9"/>
		<path class="st0" d="M207.2,361.7l0.1-0.4c0.4-1.7,2.1-2.8,3.8-2.4s2.8,2,2.5,3.7l-0.1,0.4c-0.3,1.7-2,2.8-3.7,2.5
			C208,365.1,206.9,363.4,207.2,361.7L207.2,361.7"/>
		<path class="st0" d="M217.3,328.7l0.1-0.3c0.6-1.5,2.3-2.2,3.8-1.6s2.2,2.3,1.6,3.8l-0.1,0.3c-0.6,1.5-2.3,2.2-3.8,1.7
			C217.5,331.9,216.7,330.2,217.3,328.7L217.3,328.7"/>
		<path class="st0" d="M233.2,298.1l0.2-0.3c0.8-1.2,2.4-1.6,3.7-0.8c1.2,0.8,1.6,2.4,0.8,3.6l-0.2,0.3c-0.8,1.2-2.4,1.6-3.7,0.9
			C232.8,301.1,232.4,299.4,233.2,298.1C233.2,298.2,233.2,298.1,233.2,298.1"/>
		<path class="st0" d="M254.2,271l0.3-0.3c0.9-1,2.4-1,3.4-0.1s1,2.4,0.1,3.3l-0.3,0.3c-0.9,1-2.4,1.1-3.4,0.2
			C253.4,273.5,253.3,272,254.2,271L254.2,271"/>
		<path class="st0" d="M279.7,247.9l0.3-0.2c0.9-0.7,2.3-0.5,3,0.4s0.5,2.2-0.4,2.9l-0.3,0.2c-0.9,0.7-2.3,0.5-3-0.4
			C278.6,250,278.8,248.7,279.7,247.9C279.7,248,279.7,247.9,279.7,247.9"/>
		<path class="st0" d="M308.9,229.9l0.3-0.2c0.9-0.5,2-0.1,2.5,0.8c0.5,0.9,0.1,2-0.8,2.5l-0.3,0.2c-0.9,0.5-2,0.1-2.5-0.8
			C307.6,231.5,308,230.3,308.9,229.9L308.9,229.9"/>
		<path class="st0" d="M340.8,217.3l0.4-0.1c0.8-0.2,1.7,0.2,2,1.1c0.2,0.8-0.2,1.7-1.1,2l-0.4,0.1c-0.8,0.3-1.7-0.2-2-1.1
			C339.4,218.5,339.9,217.6,340.8,217.3L340.8,217.3"/>
		<path class="st0" d="M374.3,210.7h0.4c0.7-0.1,1.4,0.5,1.4,1.2c0.1,0.7-0.4,1.4-1.2,1.4h-0.4c-0.7,0.1-1.4-0.4-1.5-1.2
			C373.1,211.5,373.6,210.8,374.3,210.7L374.3,210.7"/>
		<path class="st0" d="M408.5,210.2h0.4c0.6,0,1,0.6,1,1.1c0,0.6-0.5,1-1.1,1h-0.4c-0.6,0-1-0.5-1-1.1
			C407.4,210.6,407.9,210.2,408.5,210.2L408.5,210.2"/>
		<path class="st0" d="M442.1,215.8l0.3,0.1c0.4,0.1,0.7,0.5,0.6,1c-0.1,0.4-0.5,0.7-1,0.6l-0.4-0.1c-0.4-0.1-0.7-0.5-0.6-1
			C441.2,215.9,441.7,215.6,442.1,215.8L442.1,215.8"/>
		<path class="st0" d="M474.2,227.2l0.3,0.2c0.3,0.1,0.4,0.4,0.3,0.7s-0.4,0.4-0.7,0.3l-0.3-0.1c-0.3-0.1-0.4-0.4-0.3-0.7
			C473.6,227.2,473.9,227.1,474.2,227.2L474.2,227.2z"/>
	</g>
</g>
<g id="Layer_3">
</g>
</svg>
