<?xml version="1.0" encoding="utf-8"?>
<!-- Generator: Adobe Illustrator 26.2.1, SVG Export Plug-In . SVG Version: 6.00 Build 0)  -->
<svg version="1.1" xmlns="http://www.w3.org/2000/svg" xmlns:xlink="http://www.w3.org/1999/xlink" x="0px" y="0px" width="800px"
	 height="800px" viewBox="0 0 800 800" style="enable-background:new 0 0 800 800;" xml:space="preserve">
<style type="text/css">
	.st0{fill:#95CACA;}
	.st1{fill:#CBCBCB;}
</style>
<g id="Layer_1_00000074417458930984025030000010742283932141665959_">
</g>
<g id="Layer_2">
</g>
<g id="Layer_3">
	<path class="st0" d="M794,395.3v0.8c-0.1,10.3-8.5,18.5-18.8,18.4c-10.2-0.1-18.4-8.3-18.4-18.5v-0.8c-0.1-10.3,8.2-18.7,18.5-18.7
		c10.3-0.1,18.7,8.2,18.7,18.5V395.3z"/>
	<path class="st0" d="M787.1,466.4l-0.1,0.7c-1.9,9.8-11.3,16.3-21.1,14.4c-9.7-1.8-16.1-11.1-14.4-20.9l0.1-0.7
		c1.7-9.8,11.1-16.4,20.9-14.7c9.8,1.7,16.4,11.1,14.7,20.9C787.2,466.2,787.1,466.3,787.1,466.4"/>
	<path class="st0" d="M767.7,535l-0.3,0.7c-3.5,9-13.6,13.5-22.7,10.1c-8.9-3.5-13.5-13.5-10.2-22.4l0.3-0.7
		c3.3-9.1,13.4-13.8,22.5-10.4c9.1,3.3,13.8,13.4,10.4,22.5C767.7,534.8,767.7,534.9,767.7,535"/>
	<path class="st0" d="M736.3,598.9l-0.4,0.6c-4.9,8-15.4,10.5-23.4,5.6c-7.9-4.9-10.5-15.2-5.8-23.2l0.4-0.6
		c4.8-8.1,15.2-10.8,23.3-6s10.8,15.2,6,23.3C736.4,598.7,736.3,598.8,736.3,598.9"/>
	<path class="st0" d="M694,656.1l-0.5,0.5c-6.1,6.8-16.5,7.4-23.3,1.4c-6.7-6-7.4-16.3-1.5-23.1l0.5-0.6c5.9-6.9,16.4-7.7,23.3-1.7
		c6.9,5.9,7.7,16.4,1.7,23.3C694.1,655.9,694,656,694,656.1"/>
	<path class="st0" d="M642.4,704.7l-0.6,0.5c-6.9,5.4-17,4.2-22.4-2.7s-4.2-16.8,2.5-22.2l0.6-0.5c6.8-5.5,16.9-4.5,22.4,2.4
		C650.4,689,649.4,699.1,642.4,704.7C642.5,704.6,642.4,704.7,642.4,704.7"/>
	<path class="st0" d="M582.9,743.4l-0.7,0.3c-7.5,4-16.9,1.1-20.8-6.4c-3.9-7.5-1.1-16.7,6.2-20.7l0.7-0.4
		c7.5-4.1,16.8-1.4,20.9,6.1c4.1,7.5,1.4,16.8-6.1,20.9C583.1,743.3,583,743.4,582.9,743.4"/>
	<path class="st0" d="M517.6,770.8l-0.7,0.2c-7.8,2.5-16.2-1.9-18.7-9.7c-2.4-7.8,1.8-16,9.5-18.6l0.7-0.2
		c7.8-2.6,16.2,1.6,18.8,9.4c2.6,7.8-1.6,16.2-9.4,18.8C517.8,770.7,517.7,770.8,517.6,770.8"/>
	<path class="st0" d="M448.5,785.9l-0.7,0.1c-7.9,1-15-4.6-16-12.5c-1-7.8,4.5-14.9,12.2-16l0.7-0.1c7.9-1.1,15.1,4.4,16.2,12.2
		c1.1,7.9-4.4,15.1-12.2,16.2C448.7,785.9,448.6,785.9,448.5,785.9"/>
	<path class="st0" d="M378,788.5h-0.7c-7.6-0.4-13.5-6.9-13.1-14.5c0.4-7.5,6.8-13.4,14.3-13.1h0.7c7.6,0.3,13.6,6.7,13.3,14.3
		c-0.3,7.6-6.7,13.6-14.3,13.3C378.1,788.5,378,788.5,378,788.5"/>
	<path class="st0" d="M308.1,778.6l-0.7-0.2c-7.1-1.7-11.6-8.9-9.9-16s8.7-11.5,15.8-9.9l0.7,0.2c7.2,1.6,11.7,8.7,10.1,15.8
		c-1.6,7.2-8.7,11.7-15.8,10.1C308.3,778.7,308.2,778.6,308.1,778.6"/>
	<path class="st0" d="M241.3,756.4l-0.7-0.3c-6.5-2.8-9.4-10.4-6.6-16.8c2.8-6.4,10.2-9.3,16.6-6.6l0.7,0.3
		c6.5,2.7,9.6,10.2,6.8,16.7c-2.7,6.5-10.2,9.6-16.7,6.8C241.4,756.4,241.3,756.4,241.3,756.4"/>
	<path class="st0" d="M179.6,722.5l-0.6-0.4c-5.6-3.8-7.1-11.4-3.3-17c3.7-5.5,11.2-7,16.8-3.4l0.6,0.4c5.7,3.7,7.3,11.3,3.6,16.9
		c-3.7,5.7-11.3,7.3-16.9,3.6C179.8,722.6,179.7,722.5,179.6,722.5"/>
	<path class="st0" d="M125.1,678.3l-0.5-0.5c-4.6-4.5-4.7-11.9-0.2-16.5c4.5-4.6,11.8-4.7,16.4-0.4l0.5,0.5
		c4.7,4.4,4.9,11.8,0.5,16.5s-11.8,4.9-16.5,0.5C125.2,678.4,125.1,678.3,125.1,678.3"/>
	<path class="st0" d="M79.3,625.2l-0.4-0.6c-3.6-5-2.4-12,2.6-15.6c5-3.5,11.9-2.4,15.5,2.5l0.4,0.6c3.7,5,2.6,12-2.4,15.6
		c-5,3.7-12,2.6-15.6-2.3C79.4,625.3,79.3,625.2,79.3,625.2"/>
	<path class="st0" d="M43.8,564.8l-0.3-0.7c-2.5-5.3-0.2-11.6,5.1-14.2c5.3-2.5,11.5-0.3,14.1,4.9l0.3,0.7
		c2.6,5.3,0.4,11.7-4.9,14.2C52.8,572.3,46.5,570.1,43.8,564.8C43.8,564.9,43.8,564.8,43.8,564.8"/>
	<path class="st0" d="M19.7,499.1l-0.2-0.7c-1.4-5.4,1.8-10.9,7.2-12.4c5.3-1.4,10.8,1.7,12.3,7l0.2,0.7c1.5,5.4-1.6,11-7,12.5
		s-11-1.6-12.5-7V499.1"/>
	<path class="st0" d="M7.8,430.3l-0.1-0.7c-0.4-5.3,3.5-9.9,8.8-10.3c5.2-0.4,9.8,3.4,10.3,8.6l0.1,0.7c0.5,5.3-3.4,9.9-8.6,10.4
		c-5.3,0.5-9.9-3.4-10.4-8.6C7.8,430.4,7.8,430.3,7.8,430.3"/>
	<path class="st0" d="M8.3,360.5l0.1-0.7c0.5-5,4.9-8.6,9.9-8.1c4.9,0.5,8.5,4.8,8.1,9.7l-0.1,0.7c-0.4,5-4.8,8.7-9.7,8.3
		c-5-0.4-8.7-4.8-8.3-9.7C8.3,360.6,8.3,360.5,8.3,360.5"/>
	<path class="st0" d="M21.2,292l0.2-0.7c1.3-4.5,6-7.1,10.5-5.9c4.5,1.3,7.1,5.9,5.9,10.4l-0.2,0.7c-1.2,4.5-5.9,7.2-10.4,6
		s-7.2-5.9-6-10.4C21.2,292.1,21.2,292.1,21.2,292"/>
	<path class="st0" d="M46.1,227.1l0.3-0.7c1.9-3.9,6.7-5.6,10.7-3.6c3.9,1.9,5.5,6.6,3.7,10.6l-0.3,0.7c-1.9,4-6.6,5.7-10.6,3.8
		s-5.7-6.6-3.8-10.6C46.1,227.2,46.1,227.1,46.1,227.1"/>
	<path class="st0" d="M82.3,167.8l0.4-0.6c2.4-3.3,7.1-4,10.4-1.5c3.3,2.4,4,7,1.6,10.3l-0.4,0.6c-2.4,3.3-7,4.1-10.4,1.7
		C80.6,175.8,79.8,171.2,82.3,167.8C82.2,167.8,82.3,167.8,82.3,167.8"/>
	<path class="st0" d="M128.3,115.9l0.5-0.5c2.8-2.6,7.2-2.5,9.8,0.3s2.5,7.1-0.2,9.7l-0.5,0.5c-2.7,2.7-7.1,2.6-9.8-0.2
		C125.4,123,125.5,118.6,128.3,115.9L128.3,115.9"/>
	<path class="st0" d="M182.8,73.1l0.6-0.4c3-1.9,6.9-1.1,8.8,1.9c1.9,2.9,1.1,6.8-1.8,8.8l-0.6,0.4c-2.9,2-6.9,1.2-8.9-1.7
		C179,79,179.8,75.1,182.8,73.1C182.7,73.1,182.8,73.1,182.8,73.1"/>
	<path class="st0" d="M243.9,40.7l0.7-0.3c3-1.2,6.4,0.2,7.7,3.1c1.2,2.9-0.1,6.3-3.1,7.6l-0.7,0.3c-3,1.3-6.4-0.1-7.7-3
		C239.5,45.4,240.9,42,243.9,40.7L243.9,40.7"/>
	<path class="st0" d="M309.8,19.8l0.7-0.2c2.9-0.6,5.7,1.2,6.3,4.1c0.6,2.8-1.2,5.6-4,6.3l-0.7,0.2c-2.9,0.7-5.7-1.1-6.4-4
		C305.1,23.4,306.9,20.5,309.8,19.8C309.7,19.8,309.8,19.8,309.8,19.8"/>
	<path class="st0" d="M378.2,11.1h0.7c2.6-0.1,4.9,2,4.9,4.6c0.1,2.6-1.9,4.8-4.5,4.9h-0.7c-2.6,0.1-4.9-1.9-5-4.5
		S375.5,11.3,378.2,11.1L378.2,11.1"/>
	<path class="st0" d="M447.1,14.7l0.7,0.1c2.3,0.3,3.9,2.5,3.6,4.8s-2.4,3.9-4.7,3.6l-0.7-0.1c-2.3-0.3-4-2.4-3.7-4.8
		C442.5,16.1,444.7,14.4,447.1,14.7C447,14.7,447,14.7,447.1,14.7"/>
	<path class="st0" d="M514.1,30.5l0.7,0.2c1.9,0.6,3,2.8,2.3,4.7c-0.6,1.9-2.7,3-4.7,2.4l-0.7-0.2c-2-0.6-3-2.7-2.4-4.7
		C509.9,30.9,512,29.8,514.1,30.5C514,30.5,514,30.5,514.1,30.5"/>
	<path class="st0" d="M577,58l0.7,0.4c1.5,0.9,2.1,2.8,1.3,4.3c-0.8,1.5-2.7,2.1-4.3,1.3l-0.7-0.3c-1.6-0.8-2.2-2.8-1.3-4.3
		C573.5,57.7,575.4,57.1,577,58L577,58"/>
	<path class="st0" d="M634,96.3l0.6,0.5c1.1,0.9,1.3,2.6,0.4,3.7c-0.9,1.1-2.6,1.3-3.7,0.4l-0.6-0.5c-1.2-0.9-1.4-2.6-0.4-3.7
		C631.1,95.5,632.8,95.3,634,96.3C633.9,96.2,634,96.2,634,96.3"/>
	<path class="st0" d="M683.1,144l0.5,0.6c0.8,0.9,0.7,2.2-0.2,3s-2.2,0.7-3-0.2l-0.5-0.6c-0.8-0.9-0.7-2.2,0.2-3
		S682.3,143.1,683.1,144L683.1,144"/>
	<path class="st0" d="M723,199.6l0.4,0.6c0.4,0.8,0.2,1.7-0.6,2.2c-0.7,0.4-1.7,0.2-2.2-0.5l-0.4-0.6c-0.5-0.8-0.2-1.7,0.5-2.2
		C721.5,198.6,722.5,198.8,723,199.6L723,199.6"/>
	<path class="st0" d="M738.1,342.5l0.1,0.6c1.3,8.8-4.8,17.1-13.6,18.4s-16.9-4.7-18.4-13.4l-0.1-0.6c-1.5-8.8,4.5-17.2,13.3-18.6
		c8.8-1.5,17.2,4.5,18.6,13.3C738,342.3,738,342.4,738.1,342.5"/>
	<path class="st0" d="M741.8,404.4v0.7c-0.3,8.7-7.5,15.5-16.2,15.3c-8.6-0.3-15.4-7.4-15.3-16v-0.7c0.1-8.7,7.3-15.6,16-15.5
		s15.6,7.3,15.5,16C741.8,404.3,741.8,404.4,741.8,404.4"/>
	<path class="st0" d="M734.4,466.1l-0.1,0.6c-1.8,8.2-9.9,13.5-18.1,11.7c-8.2-1.7-13.4-9.7-11.8-17.9l0.1-0.6
		c1.6-8.3,9.7-13.7,17.9-12c8.3,1.6,13.7,9.7,12,17.9C734.5,465.9,734.5,466,734.4,466.1"/>
	<path class="st0" d="M716.1,525.2l-0.2,0.6c-3.1,7.6-11.8,11.2-19.3,8c-7.5-3.1-11.1-11.6-8.1-19.1l0.2-0.6
		c3-7.6,11.6-11.3,19.2-8.3c7.6,3,11.3,11.6,8.3,19.2C716.2,525.1,716.2,525.2,716.1,525.2"/>
	<path class="st0" d="M687.6,580.1l-0.3,0.5c-4.3,6.7-13.1,8.6-19.8,4.3c-6.6-4.2-8.6-13-4.4-19.6l0.3-0.5c4.2-6.7,13-8.8,19.7-4.6
		s8.8,13,4.6,19.7C687.7,580,687.6,580.1,687.6,580.1"/>
	<path class="st0" d="M649.8,629l-0.4,0.5c-5.2,5.6-14,5.9-19.6,0.7s-5.9-13.8-0.9-19.5l0.4-0.5c5.1-5.7,13.9-6.2,19.6-1
		c5.7,5.1,6.2,13.9,1,19.6C650,628.8,649.9,628.9,649.8,629"/>
	<path class="st0" d="M604,670.3l-0.5,0.4c-5.9,4.4-14.3,3.2-18.8-2.7c-4.4-5.9-3.2-14.2,2.5-18.6l0.5-0.4
		c5.9-4.5,14.3-3.5,18.8,2.4S610,665.7,604,670.3C604.2,670.2,604.1,670.2,604,670.3"/>
	<path class="st0" d="M551.6,702.7L551,703c-6.4,3.2-14.2,0.6-17.4-5.8c-3.2-6.3-0.6-14,5.6-17.3l0.6-0.3c6.4-3.3,14.2-0.8,17.5,5.5
		c3.3,6.4,0.8,14.2-5.5,17.5C551.8,702.6,551.7,702.7,551.6,702.7"/>
	<path class="st0" d="M494.3,725.1l-0.6,0.2c-6.6,1.9-13.6-1.9-15.5-8.5s1.8-13.4,8.3-15.4l0.6-0.2c6.6-2,13.6,1.7,15.6,8.3
		s-1.7,13.6-8.3,15.6C494.5,725.1,494.4,725.1,494.3,725.1"/>
	<path class="st0" d="M434.1,737l-0.6,0.1c-6.6,0.7-12.5-4.1-13.2-10.7c-0.7-6.5,4-12.4,10.5-13.2l0.6-0.1
		c6.6-0.8,12.6,3.9,13.4,10.5s-3.9,12.6-10.5,13.4C434.2,736.9,434.1,737,434.1,737"/>
	<path class="st0" d="M372.7,737.9l-0.7-0.1c-6.4-0.5-11.1-6-10.7-12.4c0.5-6.3,5.9-11,12.2-10.7h0.7c6.4,0.4,11.2,5.9,10.9,12.2
		c-0.4,6.4-5.9,11.2-12.2,10.9C372.9,738,372.8,737.9,372.7,737.9"/>
	<path class="st0" d="M312.3,727.9l-0.6-0.2c-5.9-1.6-9.5-7.6-7.9-13.5c1.5-5.9,7.5-9.4,13.4-8l0.6,0.2c6,1.5,9.6,7.5,8.1,13.4
		c-1.5,6-7.5,9.6-13.4,8.1C312.4,727.9,312.3,727.9,312.3,727.9"/>
	<path class="st0" d="M254.7,707.2l-0.6-0.3c-5.3-2.5-7.6-8.8-5.1-14.1s8.7-7.6,14-5.2l0.6,0.3c5.4,2.4,7.8,8.7,5.4,14.1
		c-2.4,5.4-8.7,7.8-14.1,5.4C254.8,707.3,254.7,707.2,254.7,707.2"/>
	<path class="st0" d="M201.8,676.6l-0.5-0.4c-4.6-3.2-5.7-9.6-2.4-14.2c3.2-4.5,9.5-5.7,14-2.5l0.5,0.4c4.6,3.2,5.8,9.5,2.7,14.1
		c-3.2,4.6-9.5,5.8-14.1,2.7C201.9,676.7,201.8,676.7,201.8,676.6"/>
	<path class="st0" d="M155.2,637.2l-0.5-0.5c-3.8-3.8-3.7-10,0.1-13.7s9.9-3.7,13.6,0l0.5,0.5c3.8,3.8,3.9,9.9,0.1,13.7
		c-3.8,3.8-9.9,3.9-13.7,0.1C155.3,637.3,155.3,637.2,155.2,637.2"/>
	<path class="st0" d="M116.5,590.2l-0.4-0.5c-2.9-4.2-1.8-10,2.4-12.9c4.2-2.8,9.9-1.8,12.8,2.3l0.4,0.5c2.9,4.2,1.9,10-2.2,12.9
		C125.3,595.4,119.5,594.4,116.5,590.2C116.5,590.3,116.5,590.2,116.5,590.2"/>
	<path class="st0" d="M86.8,537l-0.3-0.6c-2-4.4,0-9.6,4.5-11.6c4.4-1.9,9.5,0,11.5,4.3l0.3,0.6c2,4.4,0.1,9.6-4.3,11.7
		c-4.4,2-9.6,0.1-11.7-4.3C86.9,537.1,86.8,537.1,86.8,537"/>
	<path class="st0" d="M67.2,479.5l-0.2-0.6c-1.1-4.5,1.7-9,6.1-10c4.4-1.1,8.9,1.6,10,6l0.2,0.6c1.2,4.5-1.5,9-6,10.1
		c-4.5,1.2-9-1.5-10.1-6C67.3,479.6,67.3,479.5,67.2,479.5"/>
	<path class="st0" d="M58.2,419.5v-0.7c-0.3-4.3,3-8.1,7.4-8.3c4.3-0.3,8,3,8.3,7.3l0.1,0.7c0.3,4.3-2.9,8.1-7.3,8.4
		c-4.3,0.3-8.1-2.9-8.4-7.2C58.2,419.6,58.2,419.5,58.2,419.5"/>
	<path class="st0" d="M59.9,358.9l0.1-0.7c0.5-4.1,4.2-7,8.2-6.5s6.9,4.1,6.5,8.1l-0.1,0.7c-0.4,4.1-4.1,7-8.1,6.6
		c-4.1-0.4-7-4.1-6.6-8.1V358.9"/>
	<path class="st0" d="M72.5,299.7l0.2-0.6c1.1-3.7,5-5.7,8.7-4.6c3.6,1.1,5.7,5,4.6,8.6l-0.2,0.6c-1.1,3.7-4.9,5.8-8.6,4.7
		c-3.7-1.1-5.8-4.9-4.7-8.6C72.5,299.8,72.5,299.7,72.5,299.7"/>
	<path class="st0" d="M95.5,243.8l0.3-0.6c1.7-3.2,5.6-4.4,8.7-2.7c3.1,1.6,4.4,5.5,2.8,8.6l-0.3,0.6c-1.6,3.2-5.5,4.5-8.7,2.9
		C95.1,251,93.9,247.1,95.5,243.8C95.5,243.9,95.5,243.8,95.5,243.8"/>
	<path class="st0" d="M128,192.9l0.4-0.5c2-2.6,5.8-3.1,8.4-1.1c2.6,2,3.1,5.7,1.1,8.4l-0.4,0.5c-2,2.7-5.8,3.2-8.4,1.2
		C126.5,199.4,126,195.7,128,192.9C128,193,128,193,128,192.9"/>
	<path class="st0" d="M169,148.7l0.5-0.4c2.3-2,5.8-1.9,7.8,0.4c2,2.3,1.9,5.7-0.3,7.8l-0.5,0.4c-2.2,2.1-5.8,2-7.8-0.3
		C166.5,154.4,166.7,150.9,169,148.7C168.9,148.8,169,148.7,169,148.7"/>
	<path class="st0" d="M217.1,112.6l0.6-0.3c2.4-1.5,5.5-0.7,7,1.7c1.5,2.4,0.7,5.5-1.6,7l-0.5,0.3c-2.4,1.5-5.5,0.8-7-1.5
		C214,117.3,214.7,114.1,217.1,112.6L217.1,112.6"/>
	<path class="st0" d="M270.9,85.7l0.6-0.2c2.4-0.9,5.1,0.2,6,2.6s-0.2,5-2.6,6l-0.6,0.2c-2.4,1-5.1-0.2-6-2.5
		C267.3,89.4,268.4,86.7,270.9,85.7C270.8,85.7,270.9,85.7,270.9,85.7"/>
	<path class="st0" d="M328.5,68.9l0.6-0.1c2.3-0.4,4.4,1,4.9,3.3c0.4,2.2-1,4.4-3.2,4.9l-0.6,0.1c-2.3,0.5-4.5-1-4.9-3.2
		C324.7,71.6,326.2,69.4,328.5,68.9L328.5,68.9"/>
	<path class="st0" d="M388.1,62.6h0.7c2,0,3.7,1.6,3.8,3.6c0,2-1.6,3.7-3.6,3.7h-0.7c-2,0.1-3.8-1.5-3.8-3.6
		C384.4,64.4,386,62.7,388.1,62.6L388.1,62.6"/>
	<path class="st0" d="M447.8,67l0.6,0.1c1.8,0.3,3,2,2.7,3.7s-1.9,2.9-3.7,2.7l-0.6-0.1c-1.8-0.3-3-1.9-2.7-3.7
		C444.4,68,446,66.8,447.8,67L447.8,67"/>
	<path class="st0" d="M505.7,82.1l0.6,0.2c1.4,0.5,2.2,2.1,1.7,3.5s-2.1,2.2-3.5,1.7l-0.6-0.2c-1.4-0.5-2.2-2.1-1.7-3.5
		C502.6,82.4,504.2,81.6,505.7,82.1L505.7,82.1"/>
	<path class="st0" d="M559.8,107.2l0.6,0.3c1.1,0.6,1.5,2.1,0.8,3.2c-0.6,1.1-2,1.5-3.1,0.9l-0.6-0.3c-1.1-0.6-1.5-2-0.9-3.2
		C557.3,107,558.7,106.6,559.8,107.2L559.8,107.2"/>
	<path class="st0" d="M608.6,141.5l0.5,0.4c0.8,0.7,0.9,1.8,0.2,2.6s-1.8,0.9-2.6,0.2l-0.5-0.4c-0.8-0.7-0.9-1.8-0.3-2.6
		C606.6,141,607.7,140.9,608.6,141.5C608.5,141.5,608.5,141.5,608.6,141.5"/>
	<path class="st0" d="M650.4,183.9l0.4,0.5c0.5,0.6,0.4,1.5-0.2,1.9c-0.6,0.5-1.4,0.4-1.9-0.2l-0.4-0.5c-0.5-0.6-0.4-1.5,0.2-2
		C649,183.2,649.9,183.3,650.4,183.9L650.4,183.9"/>
	<path class="st0" d="M683.9,233l0.3,0.6c0.2,0.4,0.1,1-0.4,1.3c-0.4,0.2-1,0.1-1.2-0.3l-0.3-0.6c-0.3-0.4-0.1-1,0.3-1.3
		C683.1,232.4,683.6,232.5,683.9,233L683.9,233"/>
	<path class="st0" d="M708,287.2l0.2,0.6c0.1,0.2,0,0.5-0.3,0.6c-0.2,0.1-0.5,0-0.6-0.3l-0.2-0.6c-0.1-0.2,0-0.5,0.3-0.6
		C707.7,286.8,707.9,287,708,287.2L708,287.2z"/>
	<path class="st0" d="M682.6,304.6l0.2,0.5c2.3,7.4-1.8,15.3-9.2,17.7c-7.3,2.3-15.2-1.7-17.6-9l-0.2-0.5
		c-2.5-7.4,1.5-15.4,8.9-17.8c7.4-2.5,15.4,1.5,17.8,8.9C682.6,304.4,682.6,304.5,682.6,304.6"/>
	<path class="st0" d="M694.3,357.3l0.1,0.6c1,7.5-4.3,14.4-11.8,15.3c-7.4,0.9-14.2-4.3-15.3-11.6l-0.1-0.6
		c-1.1-7.5,4.1-14.4,11.6-15.5s14.4,4.1,15.5,11.6C694.3,357.2,694.3,357.3,694.3,357.3"/>
	<path class="st0" d="M696.3,411.3v0.6c-0.4,7.3-6.7,12.9-14,12.5s-12.8-6.5-12.6-13.8V410c0.3-7.3,6.5-13,13.8-12.8
		c7.3,0.3,13,6.5,12.8,13.8C696.3,411.1,696.3,411.2,696.3,411.3"/>
	<path class="st0" d="M688.7,464.6l-0.1,0.5c-1.7,6.9-8.6,11.2-15.5,9.5c-6.8-1.6-11.1-8.5-9.6-15.3l0.1-0.5
		c1.5-6.9,8.4-11.3,15.4-9.8c6.9,1.5,11.3,8.4,9.8,15.4C688.7,464.5,688.7,464.6,688.7,464.6"/>
	<path class="st0" d="M671.6,515.7l-0.2,0.5c-2.8,6.3-10.1,9.2-16.4,6.4c-6.2-2.7-9.1-10-6.5-16.3l0.2-0.5c2.7-6.4,10-9.3,16.3-6.7
		c6.4,2.7,9.3,10,6.7,16.3C671.7,515.5,671.6,515.6,671.6,515.7"/>
	<path class="st0" d="M645.8,562.8l-0.3,0.5c-3.7,5.5-11.2,7-16.8,3.3c-5.5-3.7-7-11.1-3.4-16.6l0.3-0.5c3.6-5.6,11.1-7.2,16.7-3.6
		c5.6,3.6,7.2,11.1,3.6,16.7C645.9,562.6,645.8,562.7,645.8,562.8"/>
	<path class="st0" d="M612.1,604.5l-0.4,0.4c-4.5,4.6-11.9,4.7-16.5,0.2c-4.6-4.4-4.7-11.7-0.4-16.4l0.4-0.4
		c4.4-4.7,11.8-4.9,16.5-0.5s4.9,11.8,0.5,16.5C612.2,604.4,612.1,604.5,612.1,604.5"/>
	<path class="st0" d="M571.5,639.5l-0.5,0.3c-5.1,3.6-12.1,2.4-15.7-2.6c-3.6-5-2.5-12,2.5-15.6l0.4-0.3c5-3.7,12.1-2.6,15.8,2.4
		S576.6,635.8,571.5,639.5C571.6,639.4,571.5,639.4,571.5,639.5"/>
	<path class="st0" d="M525.3,666.6l-0.5,0.2c-5.4,2.6-11.9,0.2-14.5-5.2c-2.5-5.4-0.3-11.8,5.1-14.4l0.5-0.2
		c5.4-2.6,11.9-0.4,14.5,5s0.4,11.9-5,14.5C525.4,666.5,525.4,666.5,525.3,666.6"/>
	<path class="st0" d="M475.2,684.9l-0.5,0.1c-5.6,1.5-11.3-1.8-12.8-7.4c-1.5-5.5,1.8-11.2,7.2-12.8l0.5-0.2
		c5.6-1.6,11.3,1.6,12.9,7.2c1.6,5.6-1.6,11.4-7.2,12.9C475.3,684.9,475.2,684.9,475.2,684.9"/>
	<path class="st0" d="M422.6,694.1H422c-5.5,0.5-10.4-3.7-10.9-9.2c-0.4-5.5,3.6-10.3,9-10.8l0.6-0.1c5.5-0.5,10.5,3.5,11,9
		s-3.5,10.5-9,11C422.7,694.1,422.6,694.1,422.6,694.1"/>
	<path class="st0" d="M369.2,693.8l-0.6-0.1c-5.3-0.5-9.2-5.3-8.7-10.6s5.2-9.1,10.4-8.7h0.6c5.3,0.4,9.3,5.1,8.8,10.4
		c-0.4,5.3-5.1,9.3-10.4,8.8C369.4,693.8,369.3,693.8,369.2,693.8"/>
	<path class="st0" d="M316.9,683.8l-0.5-0.2c-4.9-1.4-7.8-6.5-6.3-11.4c1.4-4.9,6.4-7.7,11.3-6.4l0.5,0.1c4.9,1.3,7.9,6.4,6.5,11.3
		c-1.3,4.9-6.4,7.9-11.3,6.5C317,683.9,317,683.8,316.9,683.8"/>
	<path class="st0" d="M267.3,664.8l-0.5-0.2c-4.4-2.2-6.2-7.5-4-11.9c2.1-4.3,7.4-6.2,11.7-4.1l0.5,0.2c4.4,2.1,6.3,7.4,4.2,11.8
		c-2.1,4.4-7.4,6.3-11.8,4.2C267.4,664.8,267.4,664.8,267.3,664.8"/>
	<path class="st0" d="M222,637.2l-0.4-0.3c-3.8-2.8-4.6-8.1-1.8-11.8c2.7-3.7,8-4.5,11.7-1.9l0.4,0.3c3.8,2.7,4.7,8,2,11.8
		S225.9,640,222,637.2C222,637.3,222,637.2,222,637.2"/>
	<path class="st0" d="M182.3,602.1l-0.4-0.4c-3-3.2-2.9-8.3,0.3-11.4c3.2-3,8.2-2.9,11.3,0.3l0.4,0.4c3.1,3.2,3,8.3-0.2,11.4
		C190.6,605.5,185.5,605.4,182.3,602.1C182.3,602.2,182.3,602.1,182.3,602.1"/>
	<path class="st0" d="M149.6,560.5l-0.3-0.5c-2.3-3.5-1.3-8.3,2.3-10.6c3.5-2.3,8.2-1.3,10.5,2.2l0.3,0.5c2.4,3.5,1.4,8.3-2.1,10.6
		C156.7,565,152,564.1,149.6,560.5C149.6,560.6,149.6,560.5,149.6,560.5"/>
	<path class="st0" d="M124.9,513.7l-0.2-0.5c-1.5-3.7,0.2-7.9,3.9-9.5c3.7-1.5,7.8,0.2,9.4,3.8l0.2,0.5c1.6,3.7-0.1,7.9-3.8,9.5
		S126.5,517.4,124.9,513.7C124.9,513.8,124.9,513.7,124.9,513.7"/>
	<path class="st0" d="M108.9,463.4l-0.1-0.6c-0.8-3.7,1.5-7.3,5.2-8.2c3.7-0.8,7.3,1.5,8.1,5.1l0.1,0.6c0.9,3.7-1.4,7.4-5.1,8.2
		C113.4,469.4,109.7,467.1,108.9,463.4C108.9,463.5,108.9,463.4,108.9,463.4"/>
	<path class="st0" d="M102.2,411.1v-0.6c-0.1-3.6,2.6-6.5,6.2-6.7c3.5-0.1,6.5,2.6,6.7,6.1v0.6c0.2,3.6-2.5,6.6-6.1,6.8
		C105.4,417.5,102.4,414.7,102.2,411.1C102.2,411.2,102.2,411.1,102.2,411.1"/>
	<path class="st0" d="M104.9,358.5l0.1-0.6c0.5-3.3,3.5-5.6,6.8-5.1s5.5,3.5,5.1,6.7l-0.1,0.6c-0.4,3.3-3.5,5.6-6.8,5.2
		C106.8,364.9,104.5,361.9,104.9,358.5C104.9,358.6,104.9,358.5,104.9,358.5"/>
	<path class="st0" d="M117,307.3l0.2-0.5c1-3,4.2-4.5,7.1-3.6c2.9,1,4.5,4.1,3.6,7l-0.2,0.5c-0.9,3-4.1,4.6-7.1,3.7
		C117.7,313.5,116.1,310.4,117,307.3C117,307.4,117,307.3,117,307.3"/>
	<path class="st0" d="M138,259.2l0.3-0.5c1.4-2.5,4.6-3.5,7.1-2.1s3.4,4.5,2.1,7l-0.3,0.5c-1.4,2.6-4.5,3.5-7.1,2.2
		C137.6,265,136.6,261.8,138,259.2C138,259.3,138,259.2,138,259.2"/>
	<path class="st0" d="M167.2,215.6l0.3-0.4c1.7-2.1,4.7-2.4,6.8-0.7c2,1.7,2.4,4.7,0.8,6.7l-0.3,0.4c-1.6,2.1-4.7,2.5-6.8,0.8
		C165.9,220.8,165.5,217.8,167.2,215.6C167.1,215.7,167.2,215.7,167.2,215.6"/>
	<path class="st0" d="M203.6,178l0.4-0.4c1.9-1.6,4.6-1.4,6.2,0.5c1.6,1.8,1.4,4.6-0.4,6.2l-0.4,0.4c-1.8,1.6-4.6,1.5-6.3-0.4
		C201.6,182.5,201.7,179.7,203.6,178C203.6,178.1,203.6,178,203.6,178"/>
	<path class="st0" d="M246.1,147.6l0.5-0.3c1.9-1.1,4.4-0.5,5.5,1.4s0.5,4.3-1.4,5.5l-0.5,0.3c-1.9,1.2-4.4,0.5-5.5-1.4
		C243.6,151.3,244.2,148.8,246.1,147.6L246.1,147.6"/>
	<path class="st0" d="M293.3,125.3l0.5-0.2c1.9-0.7,4,0.3,4.6,2.2c0.7,1.9-0.3,3.9-2.1,4.6l-0.5,0.2c-1.9,0.7-4-0.2-4.7-2.1
		C290.5,128.2,291.4,126.1,293.3,125.3L293.3,125.3"/>
	<path class="st0" d="M343.7,111.8l0.6-0.1c1.8-0.3,3.4,0.9,3.7,2.6c0.3,1.7-0.8,3.4-2.6,3.7l-0.6,0.1c-1.7,0.3-3.4-0.8-3.8-2.6
		C340.8,113.8,341.9,112.1,343.7,111.8L343.7,111.8"/>
	<path class="st0" d="M395.6,107.4h0.6c1.6,0,2.8,1.3,2.8,2.8s-1.3,2.8-2.8,2.8h-0.6c-1.6,0-2.8-1.2-2.8-2.8
		C392.8,108.7,394,107.4,395.6,107.4L395.6,107.4z"/>
	<path class="st0" d="M447.4,112.5l0.6,0.1c1.3,0.2,2.2,1.5,1.9,2.8c-0.3,1.3-1.5,2.1-2.8,1.9l-0.6-0.1c-1.3-0.2-2.2-1.5-2-2.8
		C444.8,113.1,446,112.2,447.4,112.5L447.4,112.5"/>
	<path class="st0" d="M497.3,126.7l0.5,0.2c1,0.4,1.6,1.6,1.2,2.6s-1.5,1.5-2.6,1.2l-0.5-0.2c-1-0.4-1.6-1.5-1.2-2.6
		C495.1,126.8,496.3,126.3,497.3,126.7L497.3,126.7"/>
	<path class="st0" d="M543.9,149.5l0.5,0.3c0.8,0.5,1,1.4,0.5,2.2s-1.4,1-2.2,0.6l-0.5-0.3c-0.8-0.4-1-1.4-0.6-2.2
		C542.1,149.3,543.1,149,543.9,149.5L543.9,149.5"/>
	<path class="st0" d="M585.6,180.2l0.4,0.4c0.5,0.4,0.5,1.2,0.1,1.7s-1.2,0.5-1.7,0.1L584,182c-0.5-0.4-0.6-1.2-0.1-1.7
		C584.3,179.8,585.1,179.7,585.6,180.2L585.6,180.2"/>
	<path class="st0" d="M621.1,217.8l0.3,0.4c0.3,0.3,0.2,0.8-0.1,1.1s-0.8,0.2-1.1-0.1l-0.3-0.4c-0.3-0.3-0.2-0.9,0.1-1.1
		C620.3,217.4,620.8,217.4,621.1,217.8L621.1,217.8"/>
	<path class="st0" d="M649.2,261.1l0.3,0.5c0.1,0.2,0,0.4-0.2,0.5s-0.4,0-0.5-0.2l-0.3-0.5c-0.1-0.2,0-0.4,0.2-0.5
		S649.1,260.9,649.2,261.1L649.2,261.1"/>
	<path class="st0" d="M629.6,279.6l0.2,0.4c3,6.1,0.6,13.4-5.5,16.4c-6,3-13.3,0.6-16.3-5.3l-0.2-0.4c-3.1-6-0.8-13.4,5.2-16.5
		s13.4-0.8,16.5,5.2C629.6,279.4,629.6,279.5,629.6,279.6"/>
	<path class="st0" d="M646.9,323.3l0.1,0.5c1.8,6.3-1.8,12.9-8.1,14.8c-6.2,1.8-12.8-1.7-14.7-7.9l-0.1-0.5
		c-1.9-6.3,1.6-12.9,7.9-14.9c6.3-1.9,12.9,1.6,14.9,7.9C646.8,323.2,646.8,323.3,646.9,323.3"/>
	<path class="st0" d="M656,369.4l0.1,0.5c0.7,6.3-4,12-10.3,12.7s-11.9-3.9-12.7-10.1L633,372c-0.8-6.3,3.8-12.1,10.1-12.8
		c6.3-0.8,12.1,3.8,12.8,10.1C655.9,369.3,656,369.4,656,369.4"/>
	<path class="st0" d="M656.6,416.3v0.5c-0.5,6.2-5.9,10.8-12,10.3s-10.7-5.8-10.3-11.9v-0.5c0.4-6.2,5.7-10.9,11.9-10.5
		s10.9,5.7,10.5,11.9C656.6,416.2,656.6,416.3,656.6,416.3"/>
	<path class="st0" d="M648.9,462.5l-0.1,0.5c-1.5,5.8-7.5,9.3-13.3,7.7c-5.7-1.5-9.2-7.3-7.8-13.1l0.1-0.5c1.4-5.8,7.3-9.4,13.1-8
		s9.4,7.3,8,13.1C648.9,462.3,648.9,462.4,648.9,462.5"/>
	<path class="st0" d="M633.1,506.5l-0.2,0.4c-2.4,5.3-8.7,7.5-14,5.1c-5.2-2.4-7.5-8.6-5.2-13.8l0.2-0.4c2.4-5.3,8.6-7.7,13.9-5.3
		C633.1,494.9,635.5,501.1,633.1,506.5C633.2,506.4,633.2,506.4,633.1,506.5"/>
	<path class="st0" d="M609.8,546.9l-0.3,0.4c-3.2,4.6-9.6,5.7-14.1,2.5s-5.7-9.4-2.5-14l0.3-0.4c3.2-4.6,9.5-5.8,14.1-2.7
		c4.6,3.2,5.8,9.5,2.7,14.1C609.9,546.8,609.8,546.9,609.8,546.9"/>
	<path class="st0" d="M579.7,582.5l-0.3,0.3c-3.9,3.8-10.1,3.7-13.9-0.1c-3.8-3.8-3.7-10,0-13.8l0.3-0.3c3.8-3.9,10-3.9,13.9-0.1
		C583.6,572.3,583.6,578.5,579.7,582.5C579.8,582.4,579.7,582.5,579.7,582.5"/>
	<path class="st0" d="M543.7,612l-0.4,0.3c-4.3,2.9-10.2,1.8-13.1-2.5c-2.9-4.3-1.8-10.1,2.4-13l0.4-0.3c4.3-3,10.2-2,13.2,2.3
		s2,10.2-2.3,13.2C543.8,612,543.7,612,543.7,612"/>
	<path class="st0" d="M503.1,634.7l-0.5,0.2c-4.6,2-10,0-12-4.6c-2-4.5,0-9.9,4.5-12l0.4-0.2c4.6-2.1,10-0.1,12.1,4.4
		c2.1,4.6,0.1,10-4.4,12.1C503.2,634.6,503.1,634.6,503.1,634.7"/>
	<path class="st0" d="M459.1,649.7l-0.5,0.1c-4.7,1.1-9.4-1.7-10.6-6.4c-1.1-4.7,1.7-9.3,6.3-10.5l0.5-0.1c4.7-1.2,9.5,1.6,10.7,6.3
		s-1.6,9.5-6.3,10.7C459.2,649.7,459.1,649.7,459.1,649.7"/>
	<path class="st0" d="M413.2,656.6h-0.5c-4.6,0.3-8.6-3.3-8.9-7.9c-0.3-4.6,3.2-8.5,7.8-8.9h0.5c4.6-0.3,8.7,3.1,9,7.8
		c0.3,4.6-3.1,8.7-7.8,9C413.3,656.6,413.2,656.6,413.2,656.6"/>
	<path class="st0" d="M366.9,655.2l-0.5-0.1c-4.4-0.5-7.6-4.6-7-9c0.5-4.4,4.5-7.5,8.8-7l0.5,0.1c4.4,0.5,7.6,4.4,7.2,8.9
		c-0.5,4.4-4.4,7.6-8.9,7.2C367,655.2,366.9,655.2,366.9,655.2"/>
	<path class="st0" d="M321.7,645.5l-0.5-0.1c-4.1-1.3-6.3-5.6-5.1-9.6c1.3-4,5.5-6.3,9.5-5.1l0.5,0.1c4.1,1.2,6.4,5.5,5.2,9.6
		c-1.2,4.1-5.5,6.4-9.6,5.2C321.8,645.6,321.7,645.5,321.7,645.5"/>
	<path class="st0" d="M278.9,628l-0.4-0.2c-3.6-1.9-5-6.3-3.1-9.9c1.9-3.6,6.2-5,9.8-3.2l0.4,0.2c3.6,1.8,5.1,6.2,3.3,9.9
		C287.1,628.4,282.7,629.9,278.9,628C279,628.1,279,628,278.9,628"/>
	<path class="st0" d="M240.1,603.2l-0.4-0.3c-3.1-2.4-3.6-6.8-1.2-9.8c2.3-3,6.7-3.6,9.7-1.3l0.4,0.3c3.1,2.3,3.7,6.7,1.4,9.8
		C247.6,605,243.2,605.6,240.1,603.2C240.1,603.3,240.1,603.2,240.1,603.2"/>
	<path class="st0" d="M206.3,571.9l-0.3-0.4c-2.5-2.7-2.2-6.9,0.5-9.4c2.7-2.4,6.9-2.2,9.3,0.4l0.3,0.4c2.5,2.7,2.3,6.9-0.4,9.4
		C213.1,574.8,208.9,574.6,206.3,571.9C206.4,571.9,206.3,571.9,206.3,571.9"/>
	<path class="st0" d="M178.8,535l-0.3-0.4c-1.8-3-0.9-6.8,2.1-8.7c2.9-1.8,6.8-0.9,8.6,2l0.3,0.4c1.9,2.9,1,6.8-1.9,8.7
		C184.6,538.9,180.7,538,178.8,535C178.8,535.1,178.8,535,178.8,535"/>
	<path class="st0" d="M158.2,493.9l-0.2-0.5c-1.2-3.1,0.3-6.5,3.4-7.7c3-1.2,6.4,0.3,7.7,3.3l0.2,0.5c1.2,3-0.2,6.5-3.2,7.8
		C163,498.5,159.5,497.1,158.2,493.9C158.3,494,158.2,493.9,158.2,493.9"/>
	<path class="st0" d="M145.3,449.9l-0.1-0.5c-0.6-3,1.4-6,4.4-6.6s5.9,1.4,6.6,4.3l0.1,0.5c0.6,3-1.3,6-4.3,6.6
		C149,454.9,146,453,145.3,449.9L145.3,449.9"/>
	<path class="st0" d="M140.6,404.3v-0.5c0-2.9,2.3-5.3,5.2-5.3s5.2,2.2,5.3,5.1v0.5c0.1,2.9-2.2,5.3-5.1,5.4
		C143.1,409.6,140.6,407.3,140.6,404.3L140.6,404.3"/>
	<path class="st0" d="M144,358.7l0.1-0.5c0.4-2.7,3-4.5,5.6-4c2.6,0.4,4.4,2.9,4,5.6l-0.1,0.5c-0.4,2.7-2.9,4.5-5.6,4.1
		C145.5,363.9,143.6,361.4,144,358.7L144,358.7"/>
	<path class="st0" d="M155.6,314.5l0.2-0.5c0.9-2.4,3.5-3.6,5.8-2.7c2.3,0.8,3.6,3.4,2.8,5.8l-0.2,0.5c-0.8,2.4-3.4,3.6-5.8,2.8
		C156,319.5,154.7,316.9,155.6,314.5L155.6,314.5"/>
	<path class="st0" d="M174.8,273.1l0.2-0.4c1.2-2,3.7-2.7,5.7-1.5c2,1.1,2.7,3.7,1.6,5.7l-0.2,0.4c-1.1,2-3.7,2.8-5.7,1.6
		C174.3,277.7,173.6,275.1,174.8,273.1C174.7,273.1,174.8,273.1,174.8,273.1"/>
	<path class="st0" d="M201,235.8l0.3-0.4c1.4-1.6,3.8-1.8,5.4-0.4c1.6,1.4,1.8,3.8,0.5,5.4l-0.3,0.4c-1.4,1.6-3.8,1.9-5.4,0.5
		C199.8,239.9,199.6,237.5,201,235.8C200.9,235.8,201,235.8,201,235.8"/>
	<path class="st0" d="M233.4,203.9l0.4-0.3c1.5-1.2,3.7-1,4.9,0.5s1,3.7-0.4,4.9l-0.4,0.3c-1.5,1.2-3.7,1.1-4.9-0.4
		C231.7,207.4,231.9,205.2,233.4,203.9L233.4,203.9"/>
	<path class="st0" d="M271,178.4l0.4-0.2c1.5-0.8,3.4-0.3,4.3,1.2c0.8,1.5,0.3,3.4-1.2,4.3l-0.4,0.2c-1.5,0.9-3.4,0.3-4.3-1.2
		S269.4,179.3,271,178.4C270.9,178.4,271,178.4,271,178.4"/>
	<path class="st0" d="M312.4,159.9l0.5-0.2c1.5-0.5,3.1,0.3,3.6,1.7s-0.3,3-1.7,3.5l-0.5,0.2c-1.5,0.5-3.1-0.2-3.6-1.7
		C310.2,162.1,310.9,160.4,312.4,159.9L312.4,159.9"/>
	<path class="st0" d="M356.5,149.2l0.5-0.1c1.3-0.2,2.6,0.7,2.8,2.1c0.2,1.3-0.7,2.6-2,2.8l-0.5,0.1c-1.3,0.2-2.6-0.7-2.8-2
		C354.2,150.6,355.1,149.4,356.5,149.2L356.5,149.2"/>
	<path class="st0" d="M401.7,146.5h0.5c1.2,0,2.1,1,2,2.2c0,1.1-1,2-2.1,2h-0.5c-1.2,0-2.1-1-2.1-2.1
		C399.5,147.4,400.5,146.5,401.7,146.5C401.6,146.5,401.7,146.5,401.7,146.5"/>
	<path class="st0" d="M446.5,152l0.5,0.1c0.9,0.2,1.5,1.1,1.3,2.1c-0.2,0.9-1.1,1.5-2,1.3l-0.5-0.1c-0.9-0.2-1.6-1.1-1.4-2.1
		C444.6,152.4,445.5,151.8,446.5,152L446.5,152"/>
	<path class="st0" d="M489.6,165.3l0.4,0.2c0.7,0.3,1.1,1.1,0.8,1.8c-0.3,0.7-1.1,1-1.8,0.8l-0.4-0.2c-0.7-0.3-1.1-1.1-0.8-1.8
		C488.1,165.4,488.9,165,489.6,165.3L489.6,165.3"/>
	<path class="st0" d="M529.6,186l0.4,0.3c0.5,0.3,0.6,1,0.3,1.4c-0.3,0.5-0.9,0.6-1.4,0.3l-0.4-0.3c-0.5-0.3-0.6-1-0.3-1.4
		C528.5,185.9,529.1,185.7,529.6,186L529.6,186"/>
	<path class="st0" d="M565.2,213.6l0.3,0.3c0.3,0.3,0.3,0.7,0,1s-0.7,0.3-1,0l-0.4-0.3c-0.3-0.3-0.3-0.7-0.1-1
		C564.5,213.3,564.9,213.3,565.2,213.6L565.2,213.6"/>
	<path class="st1" d="M503.6,244.2l0.3,0.2c0.1,0.1,0.1,0.2,0.1,0.4c-0.1,0.1-0.2,0.1-0.4,0.1l-0.3-0.2c-0.1-0.1-0.2-0.2-0.1-0.4
		C503.3,244.1,503.5,244.1,503.6,244.2L503.6,244.2"/>
</g>
</svg>
