<svg xmlns="http://www.w3.org/2000/svg" xmlns:xlink="http://www.w3.org/1999/xlink" width="851" height="659" viewBox="0 0 851 659"><defs><clipPath id="a"><rect width="851" height="659" transform="translate(0 -6.127)" fill="#f8f8f8" stroke="#707070" stroke-width="1"/></clipPath></defs><g transform="translate(0 6.127)" opacity="0.689" clip-path="url(#a)"><g transform="translate(-2352.981 -1501.16)"><g transform="translate(0 0)" opacity="0.495"><g transform="translate(0 76.434)" opacity="0.5"><g transform="translate(0 0)" opacity="0.7"><path d="M109.874,0,0,.062Z" transform="translate(3776.209 2620.51) rotate(135)" fill="#fff" fill-rule="evenodd"/><path d="M0,3397.368l109.874-.062L111.788,0,1.914.062Z" transform="translate(3309.37 2475.849) rotate(135)" fill="#fff" fill-rule="evenodd"/><path d="M0,3590.746l109.874-.062L111.9,0,2.023.062Z" transform="translate(2618.164 2652.205) rotate(135)" fill="#fff" fill-rule="evenodd"/><path d="M0,3821.481l109.874-.061L112.027,0,2.153.062Z" transform="translate(3310.567 2731.76) rotate(135)" fill="#fff" fill-rule="evenodd"/><path d="M0,3447.876l50.542-.029L52.484,0,1.942.028Z" transform="translate(3497.084 2546.304) rotate(135)" fill="#fff" fill-rule="evenodd"/><path d="M0,3590.713l50.542-.028L52.565,0,2.022.028Z" transform="translate(3001.849 2628.661) rotate(135)" fill="#fff" fill-rule="evenodd"/><path d="M0,3529.183l50.542-.029L52.53,0,1.988.028Z" transform="translate(2861.551 2604.786) rotate(135)" fill="#fff" fill-rule="evenodd"/><path d="M0,3625.872l50.542-.029L52.584,0,2.042.028Z" transform="translate(2676.031 2563.879) rotate(135)" fill="#fff" fill-rule="evenodd"/></g></g><g transform="translate(1098.52 0)"><path d="M0,0,109.874.062l1.913,3397.306-109.874-.062Z" transform="translate(2403.5 43.981) rotate(45)" fill="#fff" fill-rule="evenodd"/><path d="M0,0,109.874.062l1.913,3397.306-109.874-.062Z" transform="translate(3320.696 926.267) rotate(45)" fill="#fff" fill-rule="evenodd" opacity="0.66"/><path d="M0,0,109.874.062l2.152,3821.419L2.152,3821.42Z" transform="translate(2702.196 0) rotate(45)" fill="#fff" fill-rule="evenodd"/><path d="M0,0,109.874.062l2.152,3821.419L2.152,3821.42Z" transform="translate(3619.392 882.285) rotate(45)" fill="#fff" fill-rule="evenodd" opacity="0.66"/><path d="M0,0,50.542.029l2.022,3590.684-50.542-.028Z" transform="translate(2847.736 60.078) rotate(45)" fill="#fff" fill-rule="evenodd"/><path d="M0,0,50.542.029l2.022,3590.684-50.542-.028Z" transform="translate(3764.933 942.364) rotate(45)" fill="#fff" fill-rule="evenodd" opacity="0.66"/></g></g></g></g></svg>