<svg xmlns="http://www.w3.org/2000/svg" xmlns:xlink="http://www.w3.org/1999/xlink" width="1420" height="1112" viewBox="0 0 1420 1112">
  <defs>
    <clipPath id="clip-path">
      <rect id="Rectangle_475" data-name="Rectangle 475" width="1420" height="1112" fill="#f8f8f8" stroke="#707070" stroke-width="1"/>
    </clipPath>
  </defs>
  <g id="Mask_Group_48" data-name="Mask Group 48" clip-path="url(#clip-path)">
    <g id="assets" transform="translate(-1023.059 -1892.05)">
      <g id="pattern-style1" transform="translate(0 0)">
        <g id="diagonal-45-style1" transform="translate(261.167 96.335)" opacity="0.5">
          <g id="Rectangle" opacity="0.7">
            <path id="Path_16673" data-name="Path 16673" d="M138.481.078,0,0Z" transform="translate(0.055 3302.738) rotate(45)" fill="#f8f8f8" fill-rule="evenodd"/>
            <path id="Path_16674" data-name="Path 16674" d="M0,0,138.481.078l2.412,4281.838-138.481-.078Z" transform="translate(3616.158 92.696) rotate(45)" fill="#f8f8f8" fill-rule="evenodd"/>
            <path id="Path_16675" data-name="Path 16675" d="M0,0,138.481.078l2.549,4525.565-138.481-.078Z" transform="translate(4659.668 142.627) rotate(45)" fill="#f8f8f8" fill-rule="evenodd"/>
            <path id="Path_16676" data-name="Path 16676" d="M0,0,138.481.077l2.713,4816.375-138.481-.078Z" transform="translate(3992.623 37.263) rotate(45)" fill="#f8f8f8" fill-rule="evenodd"/>
            <path id="Path_16677" data-name="Path 16677" d="M0,0,63.7.036l2.448,4345.539-63.7-.036Z" transform="translate(3424.583 136.482) rotate(45)" fill="#f8f8f8" fill-rule="evenodd"/>
            <path id="Path_16678" data-name="Path 16678" d="M0,0,63.7.036,66.25,4525.6l-63.7-.036Z" transform="translate(4176.057 112.983) rotate(45)" fill="#f8f8f8" fill-rule="evenodd"/>
            <path id="Path_16679" data-name="Path 16679" d="M0,0,63.7.037l2.505,4448.014-63.7-.036Z" transform="translate(4298.048 137.728) rotate(45)" fill="#f8f8f8" fill-rule="evenodd"/>
            <path id="Path_16680" data-name="Path 16680" d="M0,0,63.7.036l2.574,4569.878-63.7-.036Z" transform="translate(4618.039 0) rotate(45)" fill="#f8f8f8" fill-rule="evenodd"/>
          </g>
        </g>
        <g id="diagonal-45-style1-2" data-name="diagonal-45-style1" transform="translate(0)">
          <g id="Rectangle-2" data-name="Rectangle">
            <path id="Path_16681" data-name="Path 16681" d="M0,4281.916l138.481-.078L140.893,0,2.412.078Z" transform="translate(3634.517 3083.205) rotate(135)" fill="#f8f8f8" fill-rule="evenodd"/>
            <path id="Path_16682" data-name="Path 16682" d="M0,4816.453l138.481-.078L141.194,0,2.713.078Z" transform="translate(3636.026 3405.746) rotate(135)" fill="#f8f8f8" fill-rule="evenodd"/>
            <path id="Path_16683" data-name="Path 16683" d="M0,4525.6l63.7-.036L66.25,0,2.549.036Z" transform="translate(3246.929 3275.803) rotate(135)" fill="#f8f8f8" fill-rule="evenodd"/>
          </g>
        </g>
      </g>
    </g>
  </g>
</svg>
