<?xml version="1.0" encoding="utf-8"?>
<!-- Generator: Adobe Illustrator 26.2.1, SVG Export Plug-In . SVG Version: 6.00 Build 0)  -->
<svg version="1.1" id="Layer_1" xmlns="http://www.w3.org/2000/svg" xmlns:xlink="http://www.w3.org/1999/xlink" x="0px" y="0px"
	 width="200px" height="200px" viewBox="0 0 200 200" style="enable-background:new 0 0 200 200;" xml:space="preserve">
<style type="text/css">
	.st0{fill:#2B333D;}
	.st1{fill:none;stroke:#2B333D;stroke-miterlimit:10;}
	.st2{fill:none;stroke:#2B333D;stroke-miterlimit:10;stroke-dasharray:8,8,8,8,8,8;}
</style>
<g>
	<circle class="st0" cx="89.8" cy="107.2" r="4.1"/>
	<path class="st1" d="M88.2,92.8L184.6,35c6.6-4,12-0.9,12,6.8v116.3"/>
	<g>
		<line class="st2" x1="181.3" y1="163" x2="91.7" y2="109.3"/>
	</g>
	<path class="st1" d="M116.6,158.1c0,7.7-5.4,10.8-12,6.8L8.3,107.2c-6.6-4-6.6-10.5,0-14.4L104.6,35c6.6-4,12-0.9,12,6.8V158.1z"/>
	<path class="st1" d="M196.7,158.1c0,7.7-5.4,10.8-12,6.8"/>
	<path class="st1" d="M88.2,107.2c-6.6-4-6.6-10.5,0-14.4"/>
</g>
</svg>
