<?xml version="1.0" encoding="utf-8"?>
<!-- Generator: Adobe Illustrator 26.2.1, SVG Export Plug-In . SVG Version: 6.00 Build 0)  -->
<svg version="1.1" id="Layer_1" xmlns="http://www.w3.org/2000/svg" xmlns:xlink="http://www.w3.org/1999/xlink" x="0px" y="0px"
	 width="200px" height="200px" viewBox="0 0 200 200" style="enable-background:new 0 0 200 200;" xml:space="preserve">
<style type="text/css">
	.st0{fill:#2B333D;}
	.st1{fill:none;stroke:#2B333D;stroke-miterlimit:10;}
	.st2{fill:none;stroke:#2B333D;stroke-miterlimit:10;stroke-dasharray:8,8,8,8,8,8;}
</style>
<g>
	<circle class="st0" cx="100" cy="100" r="6.4"/>
	<g>
		<path class="st1" d="M25.3,49.1c-3.7,2.1-6.7,7.4-6.7,11.6v78.5c0,4.3,3,9.5,6.7,11.6l68,39.3c3.7,2.1,9.7,2.1,13.4,0l68-39.3
			c3.7-2.1,6.7-7.4,6.7-11.6V60.7c0-4.3-3-9.5-6.7-11.6l-68-39.3c-3.7-2.1-9.7-2.1-13.4,0L25.3,49.1z"/>
	</g>
	<polyline class="st1" points="20.1,54.5 100,100 100,8.2 	"/>
	<polyline class="st1" points="19.1,143 100,100 181.4,143.6 	"/>
	<line class="st1" x1="100" y1="100" x2="179.6" y2="54.2"/>
	<line class="st2" x1="100" y1="191.6" x2="100" y2="100"/>
</g>
</svg>
