<?xml version="1.0" encoding="utf-8"?>
<!-- Generator: Adobe Illustrator 26.2.1, SVG Export Plug-In . SVG Version: 6.00 Build 0)  -->
<svg version="1.1" id="ModernIcon" xmlns="http://www.w3.org/2000/svg" xmlns:xlink="http://www.w3.org/1999/xlink" x="0px" y="0px"
	 width="222.8px" height="64px" viewBox="0 0 222.8 64" style="enable-background:new 0 0 222.8 64;" xml:space="preserve">
<style type="text/css">
	.st0{fill:#FFFFFF;}
</style>
<g id="Group_9185" transform="translate(467.463 -480.95)">
	<g id="Group_9184" transform="translate(-467.463 480.95)">
		<path id="Path_395" class="st0" d="M34.5,29.6C34.5,13.2,47.7,0,64,0v29.6H34.5z"/>
		<path id="Path_396" class="st0" d="M0,0c16.3,0,29.6,13.2,29.6,29.6L0,29.6V0z"/>
		<ellipse id="Ellipse_18" class="st0" cx="49.3" cy="48.4" rx="15.6" ry="15.6"/>
		<rect id="Rectangle_20" y="33.6" class="st0" width="29.6" height="29.6"/>
	</g>
	<path id="Path_24394" class="st0" d="M-368.9,511.7l8.4-20.3v20.3h3.3v-26.6h-3.8l-9.1,21.9l-9.1-21.9h-3.9v26.6h3.3v-20.3
		l8.5,20.3H-368.9z M-334.5,502.1c0-5.9-3.6-10-9-10c-5.4,0-9,4.1-9,10c0,5.9,3.6,10,9,10C-338.2,512.1-334.5,508-334.5,502.1z
		 M-337.9,502.1c0,4.2-2.1,7.2-5.6,7.2s-5.6-2.9-5.6-7.2s2.1-7.2,5.6-7.2S-337.9,497.9-337.9,502.1z M-317.1,511.7h3.3v-28.2h-3.3
		v11.2c-1.3-1.7-3.4-2.7-5.5-2.6c-5.7,0-8.8,4.6-8.8,10c0,5.5,3.1,10,8.8,10c2.1,0,4.2-1,5.5-2.6V511.7z M-317.1,506
		c-0.9,1.9-2.9,3.1-5,3.2c-3.7,0-5.9-3-5.9-7.1c0-4.1,2.2-7.1,5.9-7.1c2.1,0,4.1,1.2,5,3.2V506z M-295.6,506
		c-0.5,2.2-2.3,3.4-4.8,3.4c-3.3,0-5.6-2.5-5.7-6.6h13.8v-1.2c0-5.6-2.9-9.5-8.2-9.5c-5.3,0-8.9,4.3-8.9,10.1c0,5.9,3.6,10,9,10
		c4.4,0,7.2-2.5,7.9-6.2L-295.6,506z M-300.4,494.9c3.3,0,4.8,2.5,4.8,5.4h-10.4C-305.4,496.9-303.3,494.9-300.4,494.9L-300.4,494.9
		z M-277.8,492.4c-0.6-0.2-1.2-0.3-1.9-0.3c-2,0-3.9,1.1-4.8,2.9v-2.5h-3.3v19.2h3.3v-12.9c0.5-2.1,2.4-3.6,4.5-3.6
		c0.8,0,1.5,0.1,2.2,0.5L-277.8,492.4z M-273.7,511.7h3.3v-13.1c0.7-2.1,2.7-3.6,5-3.6c2.9,0,4.3,1.9,4.3,4.6v12.1h3.3v-12.6
		c0-4.2-2.4-7-6.9-7c-2.3,0-4.4,1-5.8,2.8v-2.4h-3.3L-273.7,511.7z M-379.7,540.5v-20.5h5.1c6.1,0,9.7,4,9.7,10.3
		c0,6.2-3.6,10.2-9.7,10.2L-379.7,540.5z M-383.1,543.5h8.7c7.9,0,13.1-5.2,13.1-13.3s-5.2-13.3-13.1-13.3h-8.7V543.5z
		 M-342.7,543.5v-12.8c0-4.2-2.8-6.8-7.4-6.8c-3.7,0-6.6,2.2-7.3,5.5h3.3c0.5-1.7,2.2-2.8,4-2.6c2.8,0,4.3,1.7,4.3,4.1v2.4
		c-1.4-1-3.2-1.6-4.9-1.6c-4.2,0-7.5,2.4-7.5,6c0,3.8,3.3,6.2,7.3,6.2c1.9,0,3.7-0.6,5.1-1.8v1.4L-342.7,543.5z M-345.9,538.8
		c-0.6,1.4-2.5,2.4-4.6,2.4c-2.4,0-4.7-1.1-4.7-3.4c0-2.3,2.3-3.3,4.7-3.3c2,0,4,1,4.6,2.4V538.8z M-336.3,538.7
		c0,3.6,2.2,5.2,5.4,5.2c1.1,0,2.1-0.2,3.1-0.7v-3c-0.8,0.5-1.6,0.8-2.5,0.8c-1.7,0-2.6-0.8-2.6-2.7v-11.3h4.7v-2.8h-4.7v-5.1h-3.3
		v5.1h-3.2v2.8h3.2L-336.3,538.7z M-309.5,543.5v-12.8c0-4.2-2.8-6.8-7.4-6.8c-3.7,0-6.6,2.2-7.3,5.5h3.3c0.5-1.7,2.2-2.8,4-2.6
		c2.8,0,4.3,1.7,4.3,4.1v2.4c-1.4-1-3.2-1.6-4.9-1.6c-4.2,0-7.5,2.4-7.5,6c0,3.8,3.3,6.2,7.3,6.2c1.9,0,3.7-0.6,5.1-1.8v1.4
		L-309.5,543.5z M-312.6,538.8c-0.6,1.4-2.5,2.4-4.6,2.4c-2.4,0-4.7-1.1-4.7-3.4c0-2.3,2.3-3.3,4.7-3.3c2,0,4,1,4.6,2.4V538.8z
		 M-280.7,530.2c0-8.1-5.1-13.7-12.2-13.7c-7.1,0-12.2,5.6-12.2,13.7c0,8,5.1,13.7,12.2,13.7C-285.8,543.9-280.8,538.2-280.7,530.2
		L-280.7,530.2z M-284.2,530.2c0,6.2-3.5,10.6-8.7,10.6c-5.2,0-8.7-4.4-8.7-10.6s3.5-10.6,8.7-10.6
		C-287.7,519.6-284.2,524-284.2,530.2L-284.2,530.2z M-278.1,536.6c1,4.7,5,7.3,10.4,7.3s9.3-2.9,9.3-7.7c0-3.8-2.4-6.1-6.7-7.2
		l-4.6-1.2c-2.8-0.7-4.3-1.8-4.3-4.1c0-2.7,2.4-4.4,5.6-4.4c3.6,0,5.6,1.7,6.4,4.1h3.5c-1-4.2-4.3-7-9.9-7c-5.1,0-8.9,3-8.9,7.5
		c0,4,2.7,5.9,6.5,6.9l4.8,1.3c3.1,0.8,4.3,2.1,4.3,4.2c0,2.9-2.5,4.6-6,4.6c-3.3,0-5.8-1.5-6.9-4.4L-278.1,536.6z M-246.8,518
		c0-2.6-2.1-4.6-4.6-4.7c-2.6,0-4.6,2.1-4.7,4.6s2.1,4.6,4.6,4.7c0,0,0,0,0,0c2.5,0,4.6-2,4.6-4.5C-246.8,518-246.8,518-246.8,518z
		 M-247.6,518c0,2.1-1.7,3.9-3.9,3.9c-2.1,0-3.9-1.7-3.9-3.9c0-2.1,1.7-3.9,3.9-3.9C-249.3,514.1-247.6,515.8-247.6,518z
		 M-251.6,518.6l1.2,1.7h1.2l-1.3-1.8c0.7-0.2,1.1-0.8,1.1-1.4c0-0.8-0.6-1.6-1.5-1.6c-0.1,0-0.2,0-0.3,0h-2.2v4.9h1.1v-1.7H-251.6z
		 M-250.4,517.1c0,0.4-0.3,0.7-0.7,0.7c0,0,0,0-0.1,0h-1v-1.3h1C-250.8,516.3-250.5,516.6-250.4,517.1
		C-250.4,517-250.4,517-250.4,517.1L-250.4,517.1z"/>
</g>
</svg>
