<svg xmlns="http://www.w3.org/2000/svg" xmlns:xlink="http://www.w3.org/1999/xlink" width="122.292" height="22.432" viewBox="0 0 122.292 22.432">
  <defs>
    <clipPath id="clip-path">
      <path id="Path_20951" data-name="Path 20951" d="M190.737,203.381a11.3,11.3,0,0,1-4.453-.87,10.845,10.845,0,0,1-5.908-5.953,11.71,11.71,0,0,1,0-8.787,10.846,10.846,0,0,1,5.908-5.953,11.835,11.835,0,0,1,8.906,0,10.846,10.846,0,0,1,5.908,5.953,11.719,11.719,0,0,1,0,8.787,10.846,10.846,0,0,1-5.908,5.953A11.306,11.306,0,0,1,190.737,203.381Z" transform="translate(-179.521 -180.949)"/>
    </clipPath>
  </defs>
  <g id="Group_15565" data-name="Group 15565" transform="translate(-10698.237 -1910.16)">
    <path id="Path_1587" data-name="Path 1587" d="M23.392-27.222h-4.8L12.9-17.9,7.2-27.222H2.4V-6.23H7.2V-18.436l5.428,8.906h.54l5.428-8.906V-6.23h4.8Zm36.406,0H51.4V-6.23h8.4a10.164,10.164,0,0,0,10.2-10.5A10.164,10.164,0,0,0,59.8-27.222Zm0,16.374H56.2V-22.6h3.6c3.3,0,5.578,2.279,5.578,5.878S63.1-10.849,59.8-10.849Zm18.083,0v-3.719h7.5v-4.558h-7.5V-22.6h8.247v-4.618H73.082V-6.23H86.277v-4.618ZM100.4-6.23h5.158l-4.468-7.707a6.918,6.918,0,0,0,3.868-6.088,7.18,7.18,0,0,0-7.2-7.2h-8.4V-6.23h4.8v-6.9h2.279ZM94.164-22.724h3.6a2.542,2.542,0,0,1,2.4,2.7,2.542,2.542,0,0,1-2.4,2.7h-3.6Zm25.73-4.5v11.4l-8.1-11.4h-3.6V-6.23H113v-11.4l8.1,11.4h3.6V-27.222Z" transform="translate(10695.837 1938.102)"/>
    <g id="Mask_Group_338" data-name="Mask Group 338" transform="translate(10721.869 1910.16)" clip-path="url(#clip-path)">
      <g id="assets" transform="translate(-134.588 -61.023)">
        <g id="pattern-style1" transform="translate(0 0)">
          <rect id="Mask" width="266.035" height="111.232" transform="translate(107.777 40.207)" fill="#414a6b"/>
          <g id="diagonal-45-style1" transform="translate(51.022 8.458)" opacity="0.5">
            <g id="Rectangle" transform="translate(228.35 169.917) rotate(180)" opacity="0.7">
              <path id="Path_20887" data-name="Path 20887" d="M0,217.983l6.642,0L6.764,0,.123,0Z" transform="translate(0 11.6) rotate(-45)" fill="#ff5850" fill-rule="evenodd"/>
              <path id="Path_20888" data-name="Path 20888" d="M0,205.363l6.642,0L6.757,0,.116,0Z" transform="translate(28.306 20.258) rotate(-45)" fill="#b49a85" fill-rule="evenodd"/>
              <path id="Path_20889" data-name="Path 20889" d="M0,217.053l6.642,0L6.764,0,.122,0Z" transform="translate(70.088 9.597) rotate(-45)" fill="#b49a85" fill-rule="evenodd"/>
              <path id="Path_20890" data-name="Path 20890" d="M0,231l6.642,0L6.772,0,.13,0Z" transform="translate(28.234 4.788) rotate(-45)" fill="#50b6ff" fill-rule="evenodd"/>
              <path id="Path_20891" data-name="Path 20891" d="M0,208.417l3.055,0L3.173,0,.117,0Z" transform="translate(16.959 15.999) rotate(-45)" fill="#f3c130" fill-rule="evenodd"/>
              <path id="Path_20892" data-name="Path 20892" d="M0,217.051l3.055,0L3.177,0,.122,0Z" transform="translate(46.895 11.02) rotate(-45)" fill="#ff5850" fill-rule="evenodd"/>
              <path id="Path_20893" data-name="Path 20893" d="M0,213.331l3.055,0L3.175,0,.12,0Z" transform="translate(55.376 12.464) rotate(-45)" fill="#f3c02f" fill-rule="evenodd"/>
              <path id="Path_20894" data-name="Path 20894" d="M0,219.176l3.055,0L3.179,0,.123,0Z" transform="translate(66.59 14.936) rotate(-45)" fill="#23db95" fill-rule="evenodd"/>
            </g>
          </g>
          <g id="diagonal-45-style1-2" data-name="diagonal-45-style1" transform="translate(140.725 0)" opacity="0.5">
            <g id="Rectangle-2" data-name="Rectangle" transform="translate(228.35 169.917) rotate(180)" opacity="0.7">
              <path id="Path_20895" data-name="Path 20895" d="M0,217.983l6.642,0L6.764,0,.123,0Z" transform="translate(0 11.6) rotate(-45)" fill="#ff5850" fill-rule="evenodd"/>
              <path id="Path_20896" data-name="Path 20896" d="M0,205.363l6.642,0L6.757,0,.116,0Z" transform="translate(28.306 20.258) rotate(-45)" fill="#b49a85" fill-rule="evenodd"/>
              <path id="Path_20897" data-name="Path 20897" d="M0,217.053l6.642,0L6.764,0,.122,0Z" transform="translate(70.088 9.597) rotate(-45)" fill="#b49a85" fill-rule="evenodd"/>
              <path id="Path_20898" data-name="Path 20898" d="M0,231l6.642,0L6.772,0,.13,0Z" transform="translate(28.234 4.788) rotate(-45)" fill="#50b6ff" fill-rule="evenodd"/>
              <path id="Path_20899" data-name="Path 20899" d="M0,208.417l3.055,0L3.173,0,.117,0Z" transform="translate(16.959 15.999) rotate(-45)" fill="#f3c130" fill-rule="evenodd"/>
              <path id="Path_20900" data-name="Path 20900" d="M0,217.051l3.055,0L3.177,0,.122,0Z" transform="translate(46.895 11.02) rotate(-45)" fill="#ff5850" fill-rule="evenodd"/>
              <path id="Path_20901" data-name="Path 20901" d="M0,213.331l3.055,0L3.175,0,.12,0Z" transform="translate(55.376 12.464) rotate(-45)" fill="#f3c02f" fill-rule="evenodd"/>
              <path id="Path_20902" data-name="Path 20902" d="M0,219.176l3.055,0L3.179,0,.123,0Z" transform="translate(66.59 14.936) rotate(-45)" fill="#23db95" fill-rule="evenodd"/>
            </g>
          </g>
          <g id="diagonal-45-style1-3" data-name="diagonal-45-style1" transform="translate(237.605 0)" opacity="0.5">
            <g id="Rectangle-3" data-name="Rectangle" transform="translate(228.35 169.917) rotate(180)" opacity="0.7">
              <path id="Path_20903" data-name="Path 20903" d="M0,217.983l6.642,0L6.764,0,.123,0Z" transform="translate(0 11.6) rotate(-45)" fill="#ff5850" fill-rule="evenodd"/>
              <path id="Path_20904" data-name="Path 20904" d="M0,205.363l6.642,0L6.757,0,.116,0Z" transform="translate(28.306 20.258) rotate(-45)" fill="#b49a85" fill-rule="evenodd"/>
              <path id="Path_20905" data-name="Path 20905" d="M0,217.053l6.642,0L6.764,0,.122,0Z" transform="translate(70.088 9.597) rotate(-45)" fill="#b49a85" fill-rule="evenodd"/>
              <path id="Path_20906" data-name="Path 20906" d="M0,231l6.642,0L6.772,0,.13,0Z" transform="translate(28.234 4.788) rotate(-45)" fill="#50b6ff" fill-rule="evenodd"/>
              <path id="Path_20907" data-name="Path 20907" d="M0,208.417l3.055,0L3.173,0,.117,0Z" transform="translate(16.959 15.999) rotate(-45)" fill="#f3c130" fill-rule="evenodd"/>
              <path id="Path_20908" data-name="Path 20908" d="M0,217.051l3.055,0L3.177,0,.122,0Z" transform="translate(46.895 11.02) rotate(-45)" fill="#ff5850" fill-rule="evenodd"/>
              <path id="Path_20909" data-name="Path 20909" d="M0,213.331l3.055,0L3.175,0,.12,0Z" transform="translate(55.376 12.464) rotate(-45)" fill="#f3c02f" fill-rule="evenodd"/>
              <path id="Path_20910" data-name="Path 20910" d="M0,219.176l3.055,0L3.179,0,.123,0Z" transform="translate(66.59 14.936) rotate(-45)" fill="#23db95" fill-rule="evenodd"/>
            </g>
          </g>
          <g id="diagonal-45-style1-4" data-name="diagonal-45-style1" transform="translate(330.384 0)" opacity="0.5">
            <g id="Rectangle-4" data-name="Rectangle" transform="translate(228.35 169.917) rotate(180)" opacity="0.7">
              <path id="Path_20911" data-name="Path 20911" d="M0,217.983l6.642,0L6.764,0,.123,0Z" transform="translate(0 11.6) rotate(-45)" fill="#ff5850" fill-rule="evenodd"/>
              <path id="Path_20912" data-name="Path 20912" d="M0,205.363l6.642,0L6.757,0,.116,0Z" transform="translate(28.306 20.258) rotate(-45)" fill="#b49a85" fill-rule="evenodd"/>
              <path id="Path_20913" data-name="Path 20913" d="M0,217.053l6.642,0L6.764,0,.122,0Z" transform="translate(70.088 9.597) rotate(-45)" fill="#b49a85" fill-rule="evenodd"/>
              <path id="Path_20914" data-name="Path 20914" d="M0,231l6.642,0L6.772,0,.13,0Z" transform="translate(28.234 4.788) rotate(-45)" fill="#50b6ff" fill-rule="evenodd"/>
              <path id="Path_20915" data-name="Path 20915" d="M0,208.417l3.055,0L3.173,0,.117,0Z" transform="translate(16.959 15.999) rotate(-45)" fill="#f3c130" fill-rule="evenodd"/>
              <path id="Path_20916" data-name="Path 20916" d="M0,217.051l3.055,0L3.177,0,.122,0Z" transform="translate(46.895 11.02) rotate(-45)" fill="#ff5850" fill-rule="evenodd"/>
              <path id="Path_20917" data-name="Path 20917" d="M0,213.331l3.055,0L3.175,0,.12,0Z" transform="translate(55.376 12.464) rotate(-45)" fill="#f3c02f" fill-rule="evenodd"/>
              <path id="Path_20918" data-name="Path 20918" d="M0,219.176l3.055,0L3.179,0,.123,0Z" transform="translate(66.59 14.936) rotate(-45)" fill="#23db95" fill-rule="evenodd"/>
            </g>
          </g>
          <g id="diagonal-45-style1-5" data-name="diagonal-45-style1" transform="translate(0 2.05)" opacity="0.7">
            <g id="Rectangle-5" data-name="Rectangle" transform="translate(0 0)">
              <path id="Path_20919" data-name="Path 20919" d="M0,0,6.642,0l.123,217.978-6.642,0Z" transform="translate(154.137 4.18) rotate(45)" fill="#ff5850" fill-rule="evenodd"/>
              <path id="Path_20920" data-name="Path 20920" d="M0,0,6.642,0l.116,205.359-6.642,0Z" transform="translate(173.52 4.446) rotate(45)" fill="#b49a85" fill-rule="evenodd"/>
              <path id="Path_20921" data-name="Path 20921" d="M0,0,6.642,0l.122,217.048-6.642,0Z" transform="translate(223.568 6.841) rotate(45)" fill="#b49a85" fill-rule="evenodd"/>
              <path id="Path_20922" data-name="Path 20922" d="M0,0,6.642,0l.13,231L.13,231Z" transform="translate(191.576 1.787) rotate(45)" fill="#50b6ff" fill-rule="evenodd"/>
              <path id="Path_20923" data-name="Path 20923" d="M0,0,3.055,0l.117,208.414-3.055,0Z" transform="translate(164.332 6.546) rotate(45)" fill="#f3c130" fill-rule="evenodd"/>
              <path id="Path_20924" data-name="Path 20924" d="M0,0,3.055,0,3.177,217.05l-3.055,0Z" transform="translate(200.373 5.419) rotate(45)" fill="#ff5850" fill-rule="evenodd"/>
              <path id="Path_20925" data-name="Path 20925" d="M0,0,3.055,0l.12,213.329-3.055,0Z" transform="translate(206.224 6.606) rotate(45)" fill="#f3c02f" fill-rule="evenodd"/>
              <path id="Path_20926" data-name="Path 20926" d="M0,0,3.055,0l.123,219.173-3.055,0Z" transform="translate(221.571 0) rotate(45)" fill="#23db95" fill-rule="evenodd"/>
            </g>
          </g>
          <g id="diagonal-45-style1-6" data-name="diagonal-45-style1" transform="translate(89.191 2.05)" opacity="0.7">
            <g id="Rectangle-6" data-name="Rectangle" transform="translate(0 0)">
              <path id="Path_20927" data-name="Path 20927" d="M0,0,6.642,0l.123,217.978-6.642,0Z" transform="translate(154.137 4.18) rotate(45)" fill="#ff5850" fill-rule="evenodd"/>
              <path id="Path_20928" data-name="Path 20928" d="M0,0,6.642,0l.116,205.359-6.642,0Z" transform="translate(173.52 4.446) rotate(45)" fill="#b49a85" fill-rule="evenodd"/>
              <path id="Path_20929" data-name="Path 20929" d="M0,0,6.642,0l.122,217.048-6.642,0Z" transform="translate(223.568 6.841) rotate(45)" fill="#b49a85" fill-rule="evenodd"/>
              <path id="Path_20930" data-name="Path 20930" d="M0,0,6.642,0l.13,231L.13,231Z" transform="translate(191.576 1.787) rotate(45)" fill="#50b6ff" fill-rule="evenodd"/>
              <path id="Path_20931" data-name="Path 20931" d="M0,0,3.055,0l.117,208.414-3.055,0Z" transform="translate(164.332 6.546) rotate(45)" fill="#f3c130" fill-rule="evenodd"/>
              <path id="Path_20932" data-name="Path 20932" d="M0,0,3.055,0,3.177,217.05l-3.055,0Z" transform="translate(200.373 5.419) rotate(45)" fill="#ff5850" fill-rule="evenodd"/>
              <path id="Path_20933" data-name="Path 20933" d="M0,0,3.055,0l.12,213.329-3.055,0Z" transform="translate(206.224 6.606) rotate(45)" fill="#f3c02f" fill-rule="evenodd"/>
              <path id="Path_20934" data-name="Path 20934" d="M0,0,3.055,0l.123,219.173-3.055,0Z" transform="translate(221.571 0) rotate(45)" fill="#23db95" fill-rule="evenodd"/>
            </g>
          </g>
          <g id="diagonal-45-style1-7" data-name="diagonal-45-style1" transform="translate(171.462 6.664)" opacity="0.7">
            <g id="Rectangle-7" data-name="Rectangle" transform="translate(0 0)">
              <path id="Path_20935" data-name="Path 20935" d="M0,0,6.642,0l.123,217.978-6.642,0Z" transform="translate(154.137 4.18) rotate(45)" fill="#ff5850" fill-rule="evenodd"/>
              <path id="Path_20936" data-name="Path 20936" d="M0,0,6.642,0l.116,205.359-6.642,0Z" transform="translate(173.52 4.446) rotate(45)" fill="#b49a85" fill-rule="evenodd"/>
              <path id="Path_20937" data-name="Path 20937" d="M0,0,6.642,0l.122,217.048-6.642,0Z" transform="translate(223.568 6.841) rotate(45)" fill="#b49a85" fill-rule="evenodd"/>
              <path id="Path_20938" data-name="Path 20938" d="M0,0,6.642,0l.13,231L.13,231Z" transform="translate(191.576 1.787) rotate(45)" fill="#50b6ff" fill-rule="evenodd"/>
              <path id="Path_20939" data-name="Path 20939" d="M0,0,3.055,0l.117,208.414-3.055,0Z" transform="translate(164.332 6.546) rotate(45)" fill="#f3c130" fill-rule="evenodd"/>
              <path id="Path_20940" data-name="Path 20940" d="M0,0,3.055,0,3.177,217.05l-3.055,0Z" transform="translate(200.373 5.419) rotate(45)" fill="#ff5850" fill-rule="evenodd"/>
              <path id="Path_20941" data-name="Path 20941" d="M0,0,3.055,0l.12,213.329-3.055,0Z" transform="translate(206.224 6.606) rotate(45)" fill="#f3c02f" fill-rule="evenodd"/>
              <path id="Path_20942" data-name="Path 20942" d="M0,0,3.055,0l.123,219.173-3.055,0Z" transform="translate(221.571 0) rotate(45)" fill="#23db95" fill-rule="evenodd"/>
            </g>
          </g>
          <g id="diagonal-45-style1-8" data-name="diagonal-45-style1" transform="translate(260.909 8.458)" opacity="0.7">
            <g id="Rectangle-8" data-name="Rectangle" transform="translate(0 0)">
              <path id="Path_20943" data-name="Path 20943" d="M0,0,6.642,0l.123,217.978-6.642,0Z" transform="translate(154.137 4.18) rotate(45)" fill="#ff5850" fill-rule="evenodd"/>
              <path id="Path_20944" data-name="Path 20944" d="M0,0,6.642,0l.116,205.359-6.642,0Z" transform="translate(173.52 4.446) rotate(45)" fill="#b49a85" fill-rule="evenodd"/>
              <path id="Path_20945" data-name="Path 20945" d="M0,0,6.642,0l.122,217.048-6.642,0Z" transform="translate(223.568 6.841) rotate(45)" fill="#b49a85" fill-rule="evenodd"/>
              <path id="Path_20946" data-name="Path 20946" d="M0,0,6.642,0l.13,231L.13,231Z" transform="translate(191.576 1.787) rotate(45)" fill="#50b6ff" fill-rule="evenodd"/>
              <path id="Path_20947" data-name="Path 20947" d="M0,0,3.055,0l.117,208.414-3.055,0Z" transform="translate(164.332 6.546) rotate(45)" fill="#f3c130" fill-rule="evenodd"/>
              <path id="Path_20948" data-name="Path 20948" d="M0,0,3.055,0,3.177,217.05l-3.055,0Z" transform="translate(200.373 5.419) rotate(45)" fill="#ff5850" fill-rule="evenodd"/>
              <path id="Path_20949" data-name="Path 20949" d="M0,0,3.055,0l.12,213.329-3.055,0Z" transform="translate(206.224 6.606) rotate(45)" fill="#f3c02f" fill-rule="evenodd"/>
              <path id="Path_20950" data-name="Path 20950" d="M0,0,3.055,0l.123,219.173-3.055,0Z" transform="translate(221.571 0) rotate(45)" fill="#23db95" fill-rule="evenodd"/>
            </g>
          </g>
        </g>
      </g>
    </g>
  </g>
</svg>
