<svg xmlns="http://www.w3.org/2000/svg" width="40" height="40" viewBox="0 0 40 40">
  <g id="_68-qr_code" data-name="68-qr code" transform="translate(1 1)">
    <g id="Rectangle_2276" data-name="Rectangle 2276" transform="translate(20 1)" fill="none" stroke="#fc4545" stroke-linecap="round" stroke-linejoin="round" stroke-width="2">
      <rect width="17" height="17" stroke="none"/>
      <rect x="-1" y="-1" width="19" height="19" fill="none"/>
    </g>
    <g id="Rectangle_2277" data-name="Rectangle 2277" transform="translate(26 7)" fill="none" stroke="#fc4545" stroke-linecap="round" stroke-linejoin="round" stroke-width="2">
      <rect width="5" height="5" stroke="none"/>
      <rect x="-1" y="-1" width="7" height="7" fill="none"/>
    </g>
    <g id="Rectangle_2278" data-name="Rectangle 2278" transform="translate(20 20)" fill="none" stroke="#fc4545" stroke-linecap="round" stroke-linejoin="round" stroke-width="2">
      <rect width="17" height="17" stroke="none"/>
      <rect x="-1" y="-1" width="19" height="19" fill="none"/>
    </g>
    <g id="Rectangle_2279" data-name="Rectangle 2279" transform="translate(26 26)" fill="none" stroke="#fc4545" stroke-linecap="round" stroke-linejoin="round" stroke-width="2">
      <rect width="5" height="5" stroke="none"/>
      <rect x="-1" y="-1" width="7" height="7" fill="none"/>
    </g>
    <g id="Rectangle_2280" data-name="Rectangle 2280" transform="translate(1 1)" fill="none" stroke="#fc4545" stroke-linecap="round" stroke-linejoin="round" stroke-width="2">
      <rect width="17" height="17" stroke="none"/>
      <rect x="-1" y="-1" width="19" height="19" fill="none"/>
    </g>
    <g id="Rectangle_2281" data-name="Rectangle 2281" transform="translate(7 7)" fill="none" stroke="#fc4545" stroke-linecap="round" stroke-linejoin="round" stroke-width="2">
      <rect width="5" height="5" stroke="none"/>
      <rect x="-1" y="-1" width="7" height="7" fill="none"/>
    </g>
    <g id="Rectangle_2282" data-name="Rectangle 2282" transform="translate(1 20)" fill="none" stroke="#fc4545" stroke-linecap="round" stroke-linejoin="round" stroke-width="2">
      <rect width="17" height="17" stroke="none"/>
      <rect x="-1" y="-1" width="19" height="19" fill="none"/>
    </g>
    <g id="Rectangle_2283" data-name="Rectangle 2283" transform="translate(7 26)" fill="none" stroke="#fc4545" stroke-linecap="round" stroke-linejoin="round" stroke-width="2">
      <rect width="5" height="5" stroke="none"/>
      <rect x="-1" y="-1" width="7" height="7" fill="none"/>
    </g>
  </g>
</svg>
