<svg xmlns="http://www.w3.org/2000/svg" width="29.764" height="41.443" viewBox="0 0 29.764 41.443">
  <g id="_6934302_location_map_place_pointer_icon_2_" data-name="6934302_location_map_place_pointer_icon (2)" transform="translate(-57.03 -40.23)">
    <path id="Path_23545" data-name="Path 23545" d="M71.912,80.873l-.474-.593c-.569-.708-13.908-17.447-13.908-25.168a14.382,14.382,0,1,1,28.764,0c0,7.728-13.339,24.46-13.908,25.168Zm0-38.923A13.177,13.177,0,0,0,58.749,55.112c0,6.515,10.748,20.7,13.163,23.8,2.414-3.1,13.163-17.271,13.163-23.8A13.177,13.177,0,0,0,71.912,41.949Z" transform="translate(0 0)" fill="#fc4545" stroke="#fc4545" stroke-width="1"/>
    <path id="Path_23546" data-name="Path 23546" d="M83.916,75.345a8.232,8.232,0,1,1,8.229-8.23A8.232,8.232,0,0,1,83.916,75.345Zm0-15.239a7.013,7.013,0,1,0,7.01,7.011,7.013,7.013,0,0,0-7.01-7.011Z" transform="translate(-12.004 -12.004)" fill="#fc4545" stroke="#fc4545" stroke-width="1"/>
  </g>
</svg>
