<?xml version="1.0" encoding="UTF-8"?>
<svg width="101px" height="13px" viewBox="0 0 101 13" version="1.1" xmlns="http://www.w3.org/2000/svg" xmlns:xlink="http://www.w3.org/1999/xlink">
    <!-- Generator: Sketch 59 (86127) - https://sketch.com -->
    <title>Group</title>
    <desc>Created with Sketch.</desc>
    <g id="Page-1" stroke="none" stroke-width="1" fill="none" fill-rule="evenodd">
        <g id="Group" fill-rule="nonzero">
            <g id="rubik_logo" transform="translate(43.000000, 0.000000)" fill="#231F20">
                <path d="M3.85248672,6.42260019 L3.85248672,9.15293702 L5.86749073,9.15293702 C6.15867994,9.12449091 6.45067805,9.19867809 6.69138976,9.36226284 C6.87248143,9.54986662 6.96147941,9.80571108 6.93516513,10.0630493 C6.96225797,10.324129 6.87339845,10.5839987 6.69138976,10.7759706 C6.45286531,10.9447603 6.15999457,11.0224044 5.86749073,10.9943975 L1.09072778,10.9943975 C0.792683635,11.0202474 0.495043764,10.9406379 0.251399926,10.7699032 C0.0682732639,10.57845 -0.0217329302,10.3185171 0.00453879194,10.0569819 C-0.0217754903,9.79964366 0.0672224879,9.5437992 0.248314162,9.35619543 C0.498363186,9.19275487 0.797985627,9.11884513 1.09689931,9.1468696 L1.74799555,9.1468696 L1.74799555,5.06046549 L1.37770385,5.06046549 C1.08421733,5.08790122 0.790290445,5.012705 0.547633287,4.84810596 C0.369820921,4.6553234 0.284457646,4.39692828 0.31311521,4.13821838 C0.285364556,3.88052123 0.370667053,3.62341354 0.547633287,3.43136452 C0.791533433,3.26713501 1.08664835,3.19298905 1.38078961,3.22203869 L3.20447624,3.22203869 C3.33104105,3.2140779 3.45677248,3.2471117 3.56242489,3.31608363 C3.64716505,3.37909638 3.69549388,3.47864853 3.69202698,3.58304989 L3.69202698,4.82687 C4.18973062,4.26785789 4.77773161,3.79329811 5.43239798,3.42226339 C5.96740253,3.1437072 6.56429516,2.99986779 7.16968321,3.00361175 C7.64330247,2.97642565 8.11285223,3.10329353 8.5058191,3.36462295 C8.82637323,3.60075477 9.01044531,3.97512983 8.99954136,4.36878016 C9.00852684,4.67876873 8.8788226,4.97704563 8.64467848,5.1848475 C8.40312126,5.39507526 8.0874447,5.50397039 7.76523569,5.48821826 C7.43803911,5.4712747 7.1201129,5.3754221 6.83950644,5.20911716 C6.61707941,5.06971101 6.36834965,4.97581832 6.10818033,4.93304977 C5.75748598,4.9589845 5.42197697,5.08439035 5.14233614,5.29406097 C4.67532929,5.62719141 4.24324537,6.00523837 3.85248672,6.42260019 Z" id="Path"></path>
                <path d="M15.8862021,4.85135175 L15.7538854,4.85135175 C15.5050636,4.87177466 15.2590069,4.78688982 15.0742589,4.61689357 C14.9103418,4.42642951 14.8280987,4.17770157 14.8457119,3.92569867 C14.8194755,3.66659986 14.9037196,3.40848244 15.0772661,3.2162343 C15.3143525,3.05257821 15.6005892,2.97823611 15.8862021,3.0061354 L17.4619734,3.0061354 C17.5853601,2.99768741 17.708033,3.03088185 17.8108083,3.10052766 C17.8933909,3.16377312 17.9404892,3.26369293 17.9371106,3.36847987 L17.9371106,8.9528475 L18.0694272,8.9528475 C18.3211361,8.93536287 18.5692401,9.02092974 18.7580754,9.19035059 C18.9250033,9.37343523 19.0108217,9.61762018 18.995644,9.86632094 C19.0213446,10.1303025 18.9324478,10.392559 18.752061,10.58492 C18.5150298,10.7540963 18.2256167,10.8308713 17.9371106,10.8011088 L16.5357567,10.8011088 C16.4077869,10.809113 16.2808261,10.7737609 16.174893,10.7006267 C16.0888386,10.6345258 16.0404698,10.5297413 16.0455835,10.4204948 L16.0455835,9.78106341 C15.8024452,10.1663816 15.4646342,10.4811493 15.0652373,10.6945369 C14.6423992,10.9068006 14.1747727,11.011324 13.702977,10.999028 C12.8108418,10.999028 12.1472536,10.7260009 11.7122125,10.1799468 C11.2771713,9.63389269 11.0606531,8.79755701 11.0626579,7.67093977 L11.0626579,4.85135175 L10.9213196,4.85135175 C10.6708722,4.87022579 10.4235442,4.7856508 10.2356787,4.61689357 C10.0706768,4.42690592 9.98733383,4.17812497 10.0041245,3.92569867 C9.97949735,3.66569584 10.0659707,3.40745555 10.2416931,3.2162343 C10.4828031,3.0514646 10.7731836,2.97715127 11.0626579,3.0061354 L12.6294076,3.0061354 C12.7499776,2.99762262 12.869819,3.03091179 12.9692209,3.10052766 C13.047255,3.16658324 13.0905832,3.26557567 13.0865016,3.36847987 L13.0865016,7.29032584 C13.0865016,7.98456565 13.1797247,8.46870657 13.3691781,8.75188334 C13.5881894,9.04627616 13.9418832,9.20518896 14.3044164,9.17208112 C14.7410739,9.182159 15.1588475,8.99191503 15.4411369,8.65444617 C15.7509295,8.27108022 15.9094861,7.785106 15.8862021,7.29032584 L15.8862021,4.85135175 Z" id="Path"></path>
                <path d="M24.0696989,3.91546154 C24.3436925,3.67652405 24.660009,3.49190579 25.0020083,3.37131874 C25.3634494,3.24014026 25.7448802,3.17372236 26.1290406,3.17507052 C27.1745886,3.13885889 28.1864737,3.55045663 28.9141676,4.30795798 C29.6485232,5.09105719 30.0388353,6.13932809 29.9969448,7.21599981 C30.0217254,8.23221527 29.6212639,9.21207472 28.8935152,9.91589959 C28.1496863,10.6394062 27.1475676,11.0296701 26.1142889,10.9982383 C25.6407128,11.0094879 25.1704341,10.9161163 24.7364771,10.7246801 C24.3488111,10.5422905 24.0189317,10.2551161 23.7835153,9.89508539 L23.7835153,10.4392282 C23.7883597,10.5417459 23.7404034,10.6395339 23.6566504,10.697919 C23.5508183,10.7673114 23.4256918,10.8006619 23.2996585,10.7930697 L22.0428109,10.7930697 C21.7627024,10.8199471 21.4822825,10.7450748 21.2521181,10.5819542 C21.0792903,10.3918849 20.9945807,10.136846 21.0190407,9.8802181 C21.0028401,9.63697119 21.0835408,9.39725341 21.243267,9.21416353 C21.427075,9.05283828 21.6668653,8.97156916 21.9100453,8.98818073 L22.0428109,8.98818073 L22.0428109,1.834041 L21.9100453,1.834041 C21.6634051,1.85155452 21.4203815,1.76668935 21.2373663,1.59913783 C21.0709549,1.4135961 20.9867859,1.16770118 21.004289,0.918215967 C20.9791702,0.661874892 21.0652265,0.407104277 21.2403167,0.219453359 C21.4740542,0.0542083514 21.7585653,-0.0216933779 22.0428109,0.00536438998 L23.5710903,0.00536438998 C23.7101223,-0.0076026593 23.8481792,0.0387767922 23.951685,0.13322308 C24.0415231,0.252111643 24.0836557,0.400730617 24.0696989,0.549507187 L24.0696989,3.91546154 Z M25.8753109,4.92941068 C25.3666646,4.91695743 24.8793286,5.13524788 24.547655,5.52410226 C24.1801102,5.95446839 23.9872884,6.50879335 24.0077416,7.07624729 C23.9826994,7.6445148 24.1701007,8.2015731 24.5329032,8.63731269 C24.8689472,9.02133556 25.3525084,9.24133291 25.8605591,9.24133291 C26.3686098,9.24133291 26.8521711,9.02133556 27.188215,8.63731269 C27.551378,8.20277677 27.7398021,7.64686804 27.716327,7.07922075 C27.7357391,6.51977661 27.546237,5.97334271 27.1852647,5.54788993 C26.8606856,5.15759049 26.3806042,4.93310515 25.8753109,4.9353576 L25.8753109,4.92941068 Z" id="Shape"></path>
                <path d="M36.0479096,9.2463005 L37.9057273,9.2463005 C38.2017058,9.22047963 38.4981709,9.29072471 38.7448416,9.44512206 C38.9299031,9.62167839 39.0216984,9.86529671 38.995647,10.1107421 C39.0203676,10.3600224 38.9277485,10.6070338 38.7417453,10.787888 C38.4980011,10.946463 38.2019541,11.01993 37.9057273,10.9953539 L32.0938542,10.9953539 C31.7976274,11.01993 31.5015804,10.946463 31.2578362,10.787888 C31.071833,10.6070338 30.9792139,10.3600224 31.0039345,10.1107421 C30.9803872,9.86663087 31.0692987,9.62469216 31.2485471,9.44512206 C31.4972325,9.29008525 31.7958756,9.21984251 32.0938542,9.2463005 L33.9516719,9.2463005 L33.9516719,5.36495788 L32.9825103,5.36495788 C32.6909765,5.39044213 32.3991686,5.31898 32.1588778,5.16325485 C31.9759747,4.98209713 31.8857241,4.73643473 31.9111688,4.48899043 C31.8841545,4.24379909 31.9708965,3.99953646 32.1495887,3.81760748 C32.393705,3.66273585 32.6884288,3.59238416 32.9825103,3.61878592 L35.564877,3.61878592 C35.6949012,3.6101633 35.8243667,3.64154897 35.9333441,3.70811155 C36.0183754,3.76796223 36.0668702,3.86251871 36.0633914,3.96168108 L36.0479096,9.2463005 Z M34.8124608,0.00830165591 C35.1115856,-0.0275746195 35.4132796,0.0538342043 35.6453824,0.233056463 C35.7816224,0.380011528 35.8497423,0.737314042 35.8497423,1.30208253 C35.8497423,1.86685102 35.7878151,2.18093145 35.6670569,2.31059769 C35.5462988,2.44026392 35.2521443,2.50653778 34.7938826,2.50653778 C34.3356209,2.50653778 34.0600446,2.44602687 33.9330937,2.32500505 C33.7747471,2.1100832 33.7054463,1.84904722 33.7380229,1.59022972 C33.7380229,0.907320882 33.8061429,0.4751001 33.9361901,0.287804428 C34.0662373,0.100508756 34.3603918,0.00830165591 34.8124608,0.00830165591 Z" id="Shape"></path>
                <path d="M44.0724733,6.43611072 L45.8412491,4.84276533 C45.7010887,4.80731173 45.5760124,4.72766621 45.4844704,4.6155773 C45.410284,4.47950718 45.3766995,4.32494115 45.3877169,4.17028876 C45.3606557,3.90890887 45.4427352,3.64795885 45.614483,3.44934541 C45.8495211,3.28670482 46.1344338,3.21266139 46.4187469,3.24033242 L48.272182,3.24033242 C48.5573563,3.21376223 48.8428503,3.28767886 49.0794695,3.44934541 C49.2561473,3.63957833 49.3430908,3.89648389 49.3183298,4.15514289 C49.3346261,4.34454798 49.2855288,4.53381741 49.1792466,4.69130664 C49.0233185,4.83484269 48.8246947,4.92316592 48.613843,4.94272806 C48.3686089,4.98672022 48.1325039,5.07171229 47.9154033,5.19414948 C47.6546728,5.35783924 47.416762,5.55544851 47.207893,5.78180919 L46.6031833,6.38764394 L48.8133972,9.14116288 L49.0250456,9.14116288 C49.2879309,9.12135161 49.54848,9.20258621 49.7537208,9.36835091 C49.925016,9.55221542 50.0125919,9.79898104 49.9956046,10.049915 C50.0213467,10.3110593 49.9331552,10.5706038 49.7537208,10.7617708 C49.5141839,10.9301122 49.2226136,11.0074361 48.9313156,10.9798713 L46.8783262,10.9798713 C46.6033671,11.0032181 46.3281079,10.9385179 46.0922036,10.7950917 C45.9190614,10.6514839 45.8274879,10.4317516 45.8472962,10.207432 C45.8387307,10.0349153 45.890008,9.86474314 45.9924265,9.72579341 C46.1183054,9.58407766 46.280313,9.47936216 46.4610765,9.42287603 L45.0944327,7.75077213 L44.0634027,8.69890351 L44.0634027,10.4406784 C44.0796904,10.5943955 44.0411296,10.7489258 43.9545549,10.8768794 C43.8450663,10.9682548 43.7031065,11.010922 43.5614936,10.9950172 L42.0497194,10.9950172 C41.767981,11.0211876 41.4863734,10.9436553 41.2575497,10.7769167 C41.0815835,10.5838239 40.9948826,10.3254364 41.0186894,10.0650609 C41.0012598,9.81767712 41.082857,9.57352027 41.2454555,9.38652595 C41.4287209,9.22166948 41.6710223,9.13856514 41.9166833,9.15630874 L42.0497194,9.15630874 L42.0497194,1.86811671 L41.9166833,1.86811671 C41.6657749,1.8843253 41.4194074,1.79546799 41.2363849,1.62275364 C41.071364,1.43324052 40.9876948,1.18612029 41.0035717,0.935131196 C40.9806845,0.675237516 41.068546,0.417764584 41.2454555,0.226304539 C41.4777063,0.056902848 41.7636955,-0.021728932 42.0497194,0.00517485581 L43.5614936,0.00517485581 C43.7025649,-0.0101806826 43.8439483,0.0312236684 43.9545549,0.120283458 C44.0415869,0.249170406 44.080157,0.404811141 44.0634027,0.559513651 L44.0724733,6.43611072 Z" id="Path"></path>
                <path d="M57.9996743,10.0016929 C58.0017886,10.2654728 57.9108148,10.5192605 57.7470114,10.7065411 C57.5867701,10.8972907 57.3636071,11.0035424 57.131327,10.9996789 L52.8680032,10.9996789 C52.6335093,11.0066439 52.4074935,10.9000396 52.2465105,10.7065411 C51.9178298,10.306761 51.9178298,9.68674371 52.2465105,9.28696368 C52.4089325,9.09658793 52.6345279,8.99257309 52.8680032,9.00041326 L57.131327,9.00041326 C57.362604,8.99562751 57.5853692,9.09930641 57.7470114,9.28696368 C57.9147262,9.47535331 58.0061891,9.73408216 57.9996743,10.0016929 L57.9996743,10.0016929 Z" id="Path"></path>
            </g>
            <path d="M2.187,6.266 L3.429,6.266 L3.429,7.346 L2.223,7.346 L2.223,11 L0.819,11 L0.819,7.346 L0.072,7.346 L0.072,6.266 L0.819,6.266 L0.819,6.05 C0.819,5.49799724 0.982498365,5.06000162 1.3095,4.736 C1.63650164,4.41199838 2.09699703,4.25 2.691,4.25 C2.90100105,4.25 3.10049906,4.27249977 3.2895,4.3175 C3.47850095,4.36250022 3.63599937,4.42699958 3.762,4.511 L3.393,5.528 C3.23099919,5.41399943 3.04200108,5.357 2.826,5.357 C2.39999787,5.357 2.187,5.59099766 2.187,6.059 L2.187,6.266 Z M6.435,11.072 C5.92499745,11.072 5.46750202,10.9655011 5.0625,10.7525 C4.65749798,10.5394989 4.34100114,10.2440019 4.113,9.866 C3.88499886,9.48799811 3.771,9.0590024 3.771,8.579 C3.771,8.0989976 3.88499886,7.67000189 4.113,7.292 C4.34100114,6.91399811 4.65749798,6.61850107 5.0625,6.4055 C5.46750202,6.19249893 5.92499745,6.086 6.435,6.086 C6.94500255,6.086 7.40099799,6.19249893 7.803,6.4055 C8.20500201,6.61850107 8.51999886,6.91399811 8.748,7.292 C8.97600114,7.67000189 9.09,8.0989976 9.09,8.579 C9.09,9.0590024 8.97600114,9.48799811 8.748,9.866 C8.51999886,10.2440019 8.20500201,10.5394989 7.803,10.7525 C7.40099799,10.9655011 6.94500255,11.072 6.435,11.072 Z M6.435,9.92 C6.7950018,9.92 7.09049884,9.79850121 7.3215,9.5555 C7.55250115,9.31249878 7.668,8.98700204 7.668,8.579 C7.668,8.17099796 7.55250115,7.84550121 7.3215,7.6025 C7.09049884,7.35949878 6.7950018,7.238 6.435,7.238 C6.0749982,7.238 5.77800117,7.35949878 5.544,7.6025 C5.30999883,7.84550121 5.193,8.17099796 5.193,8.579 C5.193,8.98700204 5.30999883,9.31249878 5.544,9.5555 C5.77800117,9.79850121 6.0749982,9.92 6.435,9.92 Z M11.367,6.797 C11.5350008,6.56299883 11.7614986,6.3860006 12.0465,6.266 C12.3315014,6.1459994 12.6599981,6.086 13.032,6.086 L13.032,7.382 L12.8362498,7.36849998 C12.7837499,7.36549998 12.7440001,7.364 12.717,7.364 C12.314998,7.364 12.0000011,7.47649887 11.772,7.7015 C11.5439989,7.92650112 11.43,8.26399775 11.43,8.714 L11.43,11 L10.026,11 L10.026,6.158 L11.367,6.158 L11.367,6.797 Z M20.106,6.086 C20.712003,6.086 21.1934982,6.26449821 21.5505,6.6215 C21.9075018,6.97850178 22.086,7.51399643 22.086,8.228 L22.086,11 L20.682,11 L20.682,8.444 C20.682,8.05999808 20.6025008,7.77350094 20.4435,7.5845 C20.2844992,7.39549906 20.0580015,7.301 19.764,7.301 C19.4339983,7.301 19.173001,7.40749893 18.981,7.6205 C18.788999,7.83350106 18.693,8.1499979 18.693,8.57 L18.693,11 L17.289,11 L17.289,8.444 C17.289,7.68199619 16.9830031,7.301 16.371,7.301 C16.0469984,7.301 15.789001,7.40749893 15.597,7.6205 C15.405,7.83350106 15.309,8.1499979 15.309,8.57 L15.309,11 L13.905,11 L13.905,6.158 L15.246,6.158 L15.246,6.716 C15.4260009,6.51199898 15.6464987,6.35600054 15.9075,6.248 C16.1685013,6.13999946 16.4549984,6.086 16.767,6.086 C17.1090017,6.086 17.4179986,6.15349932 17.694,6.2885 C17.9700014,6.42350067 18.1919992,6.61999871 18.36,6.878 C18.558001,6.62599874 18.8084985,6.43100069 19.1115,6.293 C19.4145015,6.15499931 19.7459982,6.086 20.106,6.086 Z M28.089,8.597 L28.062,8.975 L28.062,8.975 L24.399,8.975 C24.4650003,9.2750015 24.6209988,9.51199913 24.867,9.686 C25.1130012,9.86000087 25.4189982,9.947 25.785,9.947 C26.0370013,9.947 26.260499,9.90950038 26.4555,9.8345 C26.650501,9.75949963 26.8319992,9.64100081 27,9.479 L27.747,10.289 C27.2909977,10.8110026 26.6250044,11.072 25.749,11.072 C25.2029973,11.072 24.7200021,10.9655011 24.3,10.7525 C23.8799979,10.5394989 23.5560011,10.2440019 23.328,9.866 C23.0999989,9.48799811 22.986,9.0590024 22.986,8.579 C22.986,8.10499763 23.0984989,7.6775019 23.3235,7.2965 C23.5485011,6.9154981 23.857498,6.61850107 24.2505,6.4055 C24.643502,6.19249893 25.0829976,6.086 25.569,6.086 C26.0430024,6.086 26.4719981,6.18799898 26.856,6.392 C27.2400019,6.59600102 27.5414989,6.88849809 27.7605,7.2695 C27.9795011,7.6505019 28.089,8.09299748 28.089,8.597 Z M25.578,7.148 C25.2599984,7.148 24.9930011,7.2379991 24.777,7.418 C24.5609989,7.5980009 24.4290002,7.84399844 24.381,8.156 L26.766,8.156 C26.7179998,7.84999847 26.5860011,7.60550091 26.37,7.4225 C26.1539989,7.23949909 25.8900016,7.148 25.578,7.148 Z M30.366,6.797 C30.5340008,6.56299883 30.7604986,6.3860006 31.0455,6.266 C31.3305014,6.1459994 31.6589981,6.086 32.031,6.086 L32.031,7.382 L31.8352498,7.36849998 C31.7827499,7.36549998 31.7430001,7.364 31.716,7.364 C31.313998,7.364 30.9990011,7.47649887 30.771,7.7015 C30.5429989,7.92650112 30.429,8.26399775 30.429,8.714 L30.429,11 L29.025,11 L29.025,6.158 L30.366,6.158 L30.366,6.797 Z M32.904,4.322 L34.308,4.322 L34.308,11 L32.904,11 L32.904,4.322 Z M39.069,6.158 L40.419,6.158 L38.232,11.297 C38.0099989,11.8550028 37.7355016,12.2479989 37.4085,12.476 C37.0814984,12.7040011 36.6870023,12.818 36.225,12.818 C35.9729987,12.818 35.7240012,12.7790004 35.478,12.701 C35.2319988,12.6229996 35.0310008,12.5150007 34.875,12.377 L35.388,11.378 C35.4960005,11.4740005 35.6204993,11.5489997 35.7615,11.603 C35.9025007,11.6570003 36.0419993,11.684 36.18,11.684 C36.372001,11.684 36.5279994,11.6375005 36.648,11.5445 C36.7680006,11.4514995 36.8759995,11.2970011 36.972,11.081 L36.99,11.036 L34.893,6.158 L36.342,6.158 L37.701,9.443 L39.069,6.158 Z" id="formerly" fill="#000000"></path>
        </g>
    </g>
</svg>