<svg xmlns="http://www.w3.org/2000/svg" width="168.527" height="65" viewBox="0 0 168.527 65">
  <g id="Group_8277" data-name="Group 8277" transform="translate(-540.859 -373.815)">
    <g id="layer1" transform="translate(540.859 373.814)">
      <path id="path2071" d="M39.211,20.031C51.9,36.676,64.4,53.777,74.76,72.01c1.69,3.025.876,1.58,2.441,4.336l-5.3,3.037c-1.436-2.827-.681-1.35-2.265-4.427C59.724,56.6,48.414,38.435,33.691,23.566Z" transform="translate(-29.27 -17.762)" fill="#fc4545"/>
      <path id="path2073" d="M57.714,10.011a53.978,53.978,0,0,1,5.4-2.885c1.882-.745-2.674,3.038-4.019,4.55-2.636,2.962-5.178,6-7.726,9.042-7.35,8.766-14.626,17.575-21.755,26.522-5.72,7.2-11.82,14.1-17.369,21.436L6.569,71.11c5.861-7.33,12.076-14.366,17.943-21.691,12-14.845,23.295-32.084,38.571-43.309Z" transform="translate(-6.569 -6.109)" fill="#fc4545"/>
    </g>
    <g id="layer1-2" data-name="layer1" transform="translate(596.626 373.814)">
      <path id="path2071-2" data-name="path2071" d="M39.211,20.031C51.9,36.676,64.4,53.777,74.76,72.01c1.69,3.025.876,1.58,2.441,4.336l-5.3,3.037c-1.436-2.827-.681-1.35-2.265-4.427C59.724,56.6,48.414,38.435,33.691,23.566Z" transform="translate(-29.27 -17.762)" fill="#fc4545"/>
      <path id="path2073-2" data-name="path2073" d="M57.714,10.011a53.978,53.978,0,0,1,5.4-2.885c1.882-.745-2.674,3.038-4.019,4.55-2.636,2.962-5.178,6-7.726,9.042-7.35,8.766-14.626,17.575-21.755,26.522-5.72,7.2-11.82,14.1-17.369,21.436L6.569,71.11c5.861-7.33,12.076-14.366,17.943-21.691,12-14.845,23.295-32.084,38.571-43.309Z" transform="translate(-6.569 -6.109)" fill="#fc4545"/>
    </g>
    <g id="layer1-3" data-name="layer1" transform="translate(652.392 373.814)">
      <path id="path2071-3" data-name="path2071" d="M39.211,20.031C51.9,36.676,64.4,53.777,74.76,72.01c1.69,3.025.876,1.58,2.441,4.336l-5.3,3.037c-1.436-2.827-.681-1.35-2.265-4.427C59.724,56.6,48.414,38.435,33.691,23.566Z" transform="translate(-29.27 -17.762)" fill="#fc4545"/>
      <path id="path2073-3" data-name="path2073" d="M57.714,10.011a53.978,53.978,0,0,1,5.4-2.885c1.882-.745-2.674,3.038-4.019,4.55-2.636,2.962-5.178,6-7.726,9.042-7.35,8.766-14.626,17.575-21.755,26.522-5.72,7.2-11.82,14.1-17.369,21.436L6.569,71.11c5.861-7.33,12.076-14.366,17.943-21.691,12-14.845,23.295-32.084,38.571-43.309Z" transform="translate(-6.569 -6.109)" fill="#fc4545"/>
    </g>
  </g>
</svg>
