<svg xmlns="http://www.w3.org/2000/svg" xmlns:xlink="http://www.w3.org/1999/xlink" width="1407" height="248" viewBox="0 0 1407 248">
  <defs>
    <clipPath id="clip-path">
      <rect id="Rectangle_2035" data-name="Rectangle 2035" width="1407" height="248" transform="translate(10 506)" fill="#fabe2b"/>
    </clipPath>
  </defs>
  <g id="Mask_Group_361" data-name="Mask Group 361" transform="translate(-10 -506)" clip-path="url(#clip-path)">
    <g id="Group_16923" data-name="Group 16923" transform="translate(-27 368.97)">
      <g id="Group_16917" data-name="Group 16917" transform="matrix(-0.799, -0.602, 0.602, -0.799, 763.647, 499.174)">
        <path id="Path_17166" data-name="Path 17166" d="M2.537,78.952C.945,90.857-.574,102.862.215,114.847s4.041,24.079,11.18,33.738c8.339,11.282,21.29,18.353,34.618,22.735a120.982,120.982,0,0,0,55.225,4.729c30.767-4.547,55.575-15.433,71.024-38.237s24.675-57.423,4.847-97.678C167.719,18.178,146.759,4.983,116.055,0" transform="translate(28.453 13.157)" fill="none" stroke="#030504" stroke-linecap="round" stroke-linejoin="round" stroke-miterlimit="10" stroke-width="3"/>
        <path id="Path_17167" data-name="Path 17167" d="M0,30.693l10.489,13.12a1.632,1.632,0,0,0,1.1.768,1.625,1.625,0,0,0,.88-.34A715.074,715.074,0,0,0,74.281,0" transform="translate(63.823 62.409)" fill="none" stroke="#030504" stroke-linecap="round" stroke-linejoin="round" stroke-miterlimit="10" stroke-width="3"/>
        <path id="Path_17168" data-name="Path 17168" d="M0,48.871Q30.3,24.277,61.59.941A3.235,3.235,0,0,1,63.962.028,3.187,3.187,0,0,1,65.715,1.4c4.163,5.347,6.907,11.046,10.068,17.04" transform="translate(63.563 43.519)" fill="none" stroke="#030504" stroke-linecap="round" stroke-linejoin="round" stroke-miterlimit="10" stroke-width="3"/>
        <path id="Path_17169" data-name="Path 17169" d="M0,44.864Q29.31,21.033,60.754,0" transform="translate(70.737 53.735)" fill="none" stroke="#030504" stroke-linecap="round" stroke-miterlimit="10" stroke-width="3"/>
        <path id="Path_17170" data-name="Path 17170" d="M12.38,0A17.349,17.349,0,0,0,1.519,9.343,17.35,17.35,0,0,0,1.578,23.67a23.507,23.507,0,0,0,6.056,7.619c2.927,2.547,6.388,4.679,10.237,5.176" transform="translate(14.794 121.603)" fill="none" stroke="#030504" stroke-linecap="round" stroke-linejoin="round" stroke-miterlimit="10" stroke-width="3"/>
        <path id="Path_17171" data-name="Path 17171" d="M12.5.246c1.455,2.1-.527,5.463-3.078,5.366S5.109,2.277,6.264,0A4.772,4.772,0,0,0,4.09,1.85,4.048,4.048,0,0,1,1.832,3.564C.878,3.73-.256,2.856.051,1.939" transform="translate(0 143.109)" fill="none" stroke="#030504" stroke-linecap="round" stroke-linejoin="round" stroke-miterlimit="10" stroke-width="3"/>
        <path id="Path_17172" data-name="Path 17172" d="M.2,2.918C-.669,1.392,1.486-.433,3.161.092s2.591,2.314,3.085,4" transform="translate(10.608 121.718)" fill="none" stroke="#030504" stroke-linecap="round" stroke-linejoin="round" stroke-miterlimit="10" stroke-width="3"/>
        <path id="Path_17173" data-name="Path 17173" d="M0,7.024A9.173,9.173,0,0,1,5.477,1.371,22.308,22.308,0,0,1,13.463.024C17.681-.1,22.146.178,25.669,2.5c3.779,2.49,5.854,7.047,6.166,11.563s-.943,9.007-2.676,13.188" transform="translate(167.444 11.729)" fill="none" stroke="#030504" stroke-linecap="round" stroke-linejoin="round" stroke-miterlimit="10" stroke-width="3"/>
        <path id="Path_17174" data-name="Path 17174" d="M1.479,0A2.591,2.591,0,0,0,.138,3.148,2.59,2.59,0,0,0,3.2,4.681" transform="translate(171.555 4.149)" fill="none" stroke="#030504" stroke-linecap="round" stroke-linejoin="round" stroke-miterlimit="10" stroke-width="3"/>
        <path id="Path_17175" data-name="Path 17175" d="M2.058.009C3.625-.161,4.528,2.056,3.8,3.453S1.472,5.523,0,6.091C1.527,7.616,4.767,7.758,4.854,9.914c.068,1.678-2,2.485-3.65,2.8" transform="translate(195.669 0)" fill="none" stroke="#030504" stroke-linecap="round" stroke-linejoin="round" stroke-miterlimit="10" stroke-width="3"/>
        <path id="Path_17176" data-name="Path 17176" d="M0,123.173c7.887-9.2,18-16.161,27.835-23.244,27-19.442,52.734-40.564,78.451-61.669l19.42-15.939c4.964-4.073,22.3-16,27.766-22.322" transform="translate(43.104 38.546)" fill="none" stroke="#030504" stroke-linecap="round" stroke-linejoin="round" stroke-miterlimit="10" stroke-width="3"/>
        <path id="Path_17177" data-name="Path 17177" d="M0,116.242q21.588-14.706,42.6-30.235C79.537,58.711,115.061,29.56,150.209,0" transform="translate(52.743 52.868)" fill="none" stroke="#030504" stroke-linecap="round" stroke-linejoin="round" stroke-miterlimit="10" stroke-width="3"/>
        <path id="Path_17178" data-name="Path 17178" d="M0,0C3.434,5.575,7.59,10.865,13.076,14.441S25.552,19.69,31.8,17.732" transform="translate(125.124 118.217)" fill="none" stroke="#030504" stroke-linecap="round" stroke-linejoin="round" stroke-miterlimit="10" stroke-width="3"/>
        <path id="Path_17179" data-name="Path 17179" d="M0,0A41.119,41.119,0,0,1,6.06,32.639" transform="translate(140.033 109.09)" fill="none" stroke="#030504" stroke-linecap="round" stroke-miterlimit="10" stroke-width="3"/>
        <path id="Path_17180" data-name="Path 17180" d="M17.261,0a21.125,21.125,0,0,0-14.3,9.157A18.473,18.473,0,0,0,1.279,25.892,16.43,16.43,0,0,0,14.569,35.9a22.968,22.968,0,0,0,5.841-.339c3.893-.642,7.9-1.891,10.6-4.765a15.044,15.044,0,0,0,2.881-4.711A19.912,19.912,0,0,0,32.811,8.528C29.645,3.334,23.38.015,17.364.916" transform="translate(119.437 141.286)" fill="none" stroke="#030504" stroke-linecap="round" stroke-linejoin="round" stroke-miterlimit="10" stroke-width="3"/>
        <path id="Path_17181" data-name="Path 17181" d="M18.4.723C11.818-1.366,4.1,2.5,1.291,8.8S.439,23.026,5.454,27.768C11.041,33.051,20.6,34.092,26.5,29.161a21.028,21.028,0,0,0,4.338-5.343A18.2,18.2,0,0,0,33.4,17.683C34.234,13,32.007,8.108,28.413,5a22.79,22.79,0,0,0-13.1-5" transform="translate(158.154 111.54)" fill="none" stroke="#030504" stroke-linecap="round" stroke-linejoin="round" stroke-miterlimit="10" stroke-width="3"/>
        <path id="Path_17182" data-name="Path 17182" d="M3.824,0A3.942,3.942,0,0,0,.3,5.341a3.941,3.941,0,0,0,6.362.671A3.942,3.942,0,0,0,4.328.055" transform="translate(171.011 120.769)" fill="none" stroke="#030504" stroke-linecap="round" stroke-linejoin="round" stroke-miterlimit="10" stroke-width="3"/>
        <path id="Path_17295" data-name="Path 17295" d="M3.824,0A3.942,3.942,0,0,0,.3,5.341a3.941,3.941,0,0,0,6.362.671A3.942,3.942,0,0,0,4.328.055" transform="translate(130.975 151.472)" fill="none" stroke="#030504" stroke-linecap="round" stroke-linejoin="round" stroke-miterlimit="10" stroke-width="3"/>
      </g>
      <g id="Group_16919" data-name="Group 16919" transform="matrix(-0.914, 0.407, -0.407, -0.914, 303.008, 371.811)">
        <path id="Path_17196" data-name="Path 17196" d="M0,9.566C4.541,11.425,11.269,9.4,14.427,0" transform="translate(116.957 202.483)" fill="none" stroke="#030504" stroke-linecap="round" stroke-linejoin="round" stroke-miterlimit="10" stroke-width="3"/>
        <g id="Group_16918" data-name="Group 16918" transform="translate(0 0)">
          <path id="Path_17184" data-name="Path 17184" d="M20.057,0C13.839.166,6.821,1.152,3.172,6.19A17.237,17.237,0,0,0,.477,13.415a23.192,23.192,0,0,0,.071,9.693A12.639,12.639,0,0,0,6,30.911" transform="translate(28.215 101.706)" fill="none" stroke="#030504" stroke-linecap="round" stroke-linejoin="round" stroke-miterlimit="10" stroke-width="3"/>
          <path id="Path_17185" data-name="Path 17185" d="M11.731,1.129C7.472-.7,3.413-.557,1.006,3.4A7.815,7.815,0,0,0,3.4,13.66a7.815,7.815,0,0,0,10.3-2.183A7.816,7.816,0,0,0,11.731,1.129" transform="translate(0 172.077)" fill="none" stroke="#030504" stroke-linecap="round" stroke-linejoin="round" stroke-miterlimit="10" stroke-width="3"/>
          <path id="Path_17186" data-name="Path 17186" d="M19.04,0,0,42.811" transform="translate(10.705 128.299)" fill="none" stroke="#030504" stroke-linecap="round" stroke-miterlimit="10" stroke-width="3"/>
          <path id="Path_17187" data-name="Path 17187" d="M9.719.346A7.816,7.816,0,0,0,.574,4.181a4.236,4.236,0,0,0-.212,3.8,5.814,5.814,0,0,0,3.12,2.244L49.614,29.543a15.57,15.57,0,0,0,5.553,1.55,5.291,5.291,0,0,0,4.89-2.517c.962-1.889.188-4.289-1.269-5.828a15.875,15.875,0,0,0-5.408-3.262C38.587,13.047,9.719.346,9.719.346" transform="translate(80.039 92.78)" fill="none" stroke="#030504" stroke-linecap="round" stroke-linejoin="round" stroke-miterlimit="10" stroke-width="3"/>
          <path id="Path_17188" data-name="Path 17188" d="M8.286,0A9.3,9.3,0,0,0,2.063,1.836,5.305,5.305,0,0,0,.343,7.773a11.389,11.389,0,0,0,1.721,3.2,6.919,6.919,0,0,0,7.1,1.48,5.438,5.438,0,0,0,2.115-1.48,6.73,6.73,0,0,0,1.625-6.108C12.349,2.74,11.618.923,8.286,0" transform="translate(92.13 127.351)" fill="none" stroke="#030504" stroke-linecap="round" stroke-linejoin="round" stroke-miterlimit="10" stroke-width="3"/>
          <path id="Path_17189" data-name="Path 17189" d="M12.47,0C8.069.856,3.795,3.236,1.522,7.1S-.556,16.389,2.638,19.536a12.287,12.287,0,0,0,4.3,2.591c5.243,2,11.911,1.522,15.541-2.759a11.359,11.359,0,0,0,.854-12.746A14.043,14.043,0,0,0,12.043.032" transform="translate(54.775 132.036)" fill="none" stroke="#030504" stroke-linecap="round" stroke-linejoin="round" stroke-miterlimit="10" stroke-width="3"/>
          <path id="Path_17190" data-name="Path 17190" d="M19,.373A17.365,17.365,0,0,0,7.236,2.056C2.378,4.679-1.162,10.434.355,15.742a11.1,11.1,0,0,0,1.8,3.551,13.408,13.408,0,0,0,13.9,4.848,13.024,13.024,0,0,0,9.358-11.29A12.666,12.666,0,0,0,17.67.466" transform="translate(99.562 151.637)" fill="none" stroke="#030504" stroke-linecap="round" stroke-linejoin="round" stroke-miterlimit="10" stroke-width="3"/>
          <path id="Path_17191" data-name="Path 17191" d="M0,34.313C8.14,35.9,16.819,30.391,19.576,22.569S19.44,5.494,13.226,0" transform="translate(144.49 146.846)" fill="none" stroke="#030504" stroke-linecap="round" stroke-linejoin="round" stroke-miterlimit="10" stroke-width="3"/>
          <path id="Path_17192" data-name="Path 17192" d="M0,41.277C3.794,26.83,16.855,0,16.855,0" transform="translate(135.451 182.104)" fill="none" stroke="#030504" stroke-linecap="round" stroke-miterlimit="10" stroke-width="3"/>
          <path id="Path_17193" data-name="Path 17193" d="M12.15,1.316a8.01,8.01,0,0,0-9.432.463A8.012,8.012,0,0,0,.679,11,10.568,10.568,0,0,0,3.012,14.12c2.246,2.154,5.582,3.679,8.457,2.487a9.613,9.613,0,0,0,3.614-3.117,7.389,7.389,0,0,0,1.855-6.412c-.512-2.724-2.113-5.033-4.789-5.762" transform="translate(123.478 223.034)" fill="none" stroke="#030504" stroke-linecap="round" stroke-linejoin="round" stroke-miterlimit="10" stroke-width="3"/>
          <path id="Path_17194" data-name="Path 17194" d="M38.356,0C29.261,30.384,8.554,56.476.868,87.246A19.9,19.9,0,0,0,.058,94a11.188,11.188,0,0,0,7.98,9.428" transform="translate(23.969 74.033)" fill="none" stroke="#030504" stroke-linecap="round" stroke-linejoin="round" stroke-miterlimit="10" stroke-width="3"/>
          <path id="Path_17195" data-name="Path 17195" d="M0,0C14.426,6.822,26.976,12.894,38.318,17.123,54.877,23.3,68.538,28.532,85.1,34.706" transform="translate(31.744 177.28)" fill="none" stroke="#030504" stroke-linecap="round" stroke-linejoin="round" stroke-miterlimit="10" stroke-width="3"/>
          <path id="Path_17197" data-name="Path 17197" d="M37.761,0,0,86.12" transform="translate(131.76 115.308)" fill="none" stroke="#030504" stroke-linecap="round" stroke-miterlimit="10" stroke-width="3"/>
          <path id="Path_17198" data-name="Path 17198" d="M0,6.327C1.7,2.566,3.4.6,6.191.115s5.585.645,8.2,1.75L97.434,37.028c3.986,1.688,12.394,4.965,9.638,10.636" transform="translate(62.501 67.631)" fill="none" stroke="#030504" stroke-linecap="round" stroke-linejoin="round" stroke-miterlimit="10" stroke-width="3"/>
          <path id="Path_17199" data-name="Path 17199" d="M4.449.266C2.771-.6.56.756.112,2.588a5.342,5.342,0,0,0,1.91,5.033,15.711,15.711,0,0,0,4.971,2.632L48.607,27.946a5.836,5.836,0,0,0,6.961-2.623c1.3-2.521-4.888-4.965-4.888-4.965L4.449.266" transform="translate(96.629 61.76)" fill="none" stroke="#030504" stroke-linecap="round" stroke-linejoin="round" stroke-miterlimit="10" stroke-width="3"/>
          <path id="Path_17200" data-name="Path 17200" d="M1.767,0c1.066.232,1.4,3.039,1.28,4.126S1.092,8.061,0,8.06" transform="translate(145.991 90.202)" fill="none" stroke="#030504" stroke-linecap="round" stroke-linejoin="round" stroke-miterlimit="10" stroke-width="3"/>
          <path id="Path_17201" data-name="Path 17201" d="M.332,7.275C-.979,5.631,1.828.321,4.645,0" transform="translate(91.927 68.451)" fill="none" stroke="#030504" stroke-linecap="round" stroke-miterlimit="10" stroke-width="3"/>
          <path id="Path_17202" data-name="Path 17202" d="M12.473,0A308.822,308.822,0,0,0,.926,33.94C0,37.3-.769,41.265,1.412,43.99a11.291,11.291,0,0,0,4.225,2.838Q54.57,69.8,105.083,89.176c5.133,1.969,10.466,3.941,15.955,3.629" transform="translate(64.671 2.693)" fill="none" stroke="#030504" stroke-linecap="round" stroke-linejoin="round" stroke-miterlimit="10" stroke-width="3"/>
          <path id="Path_17203" data-name="Path 17203" d="M0,23.712C2.473,23.6,5.642,21.394,7.236,19.5a27,27,0,0,0,3.65-6.441L16.777,0" transform="translate(185.662 71.894)" fill="none" stroke="#030504" stroke-linecap="round" stroke-linejoin="round" stroke-miterlimit="10" stroke-width="3"/>
          <path id="Path_17204" data-name="Path 17204" d="M0,19.4c1.384,3.4,5.634,3.1,7.559,2.152s2.836-3.147,3.506-5.185c.828-2.52,6.71-13.777,7.286-16.366" transform="translate(195.311 70.571)" fill="none" stroke="#030504" stroke-linecap="round" stroke-linejoin="round" stroke-miterlimit="10" stroke-width="3"/>
          <path id="Path_17205" data-name="Path 17205" d="M0,15.653c.994,2.411,1.874,3.6,3.3,4.514a4.452,4.452,0,0,0,5.446-1.683c.959-1.173,9.1-17,9.4-18.484" transform="translate(204.856 76.082)" fill="none" stroke="#030504" stroke-linecap="round" stroke-linejoin="round" stroke-miterlimit="10" stroke-width="3"/>
          <path id="Path_17206" data-name="Path 17206" d="M1.27,15.684C1.381,16.845-3.2,21.5,4.4,21.942S19.588.962,20.247,0" transform="translate(213.274 77.749)" fill="none" stroke="#030504" stroke-linecap="round" stroke-linejoin="round" stroke-miterlimit="10" stroke-width="3"/>
          <path id="Path_17207" data-name="Path 17207" d="M8.663,30.768C5.153,33.3,2.786,32,1.392,30.768A5.178,5.178,0,0,1,.22,25.595,20.881,20.881,0,0,1,2.7,20.611C6.365,14.306,8.094,7.095,9.777,0" transform="translate(57.536 3.151)" fill="none" stroke="#030504" stroke-linecap="round" stroke-linejoin="round" stroke-miterlimit="10" stroke-width="3"/>
          <path id="Path_17208" data-name="Path 17208" d="M6.481,24.076c-.647,1.376-3.347.8-4.637,0A4.464,4.464,0,0,1,0,20.13a11.513,11.513,0,0,1,1.262-4.35A48.2,48.2,0,0,1,12.421,0" transform="translate(51.37 3.306)" fill="none" stroke="#030504" stroke-linecap="round" stroke-linejoin="round" stroke-miterlimit="10" stroke-width="3"/>
          <path id="Path_17209" data-name="Path 17209" d="M6.15,21.675c-2.308-.153-5.09-.637-5.923-2.794a5.2,5.2,0,0,1,.094-3.265C2.248,8.857,8.2,4.147,13.878,0" transform="translate(44.768 0)" fill="none" stroke="#030504" stroke-linecap="round" stroke-linejoin="round" stroke-miterlimit="10" stroke-width="3"/>
          <path id="Path_17210" data-name="Path 17210" d="M.635,11.066A24.124,24.124,0,0,1,.652,0" transform="translate(45.166 0.206)" fill="none" stroke="#030504" stroke-linecap="round" stroke-miterlimit="10" stroke-width="3"/>
          <path id="Path_17302" data-name="Path 17302" d="M2.554.028A2.964,2.964,0,0,0,.028,2.794a3.8,3.8,0,0,0,.82,2.9,2.9,2.9,0,0,0,2.783.97,3.476,3.476,0,0,0,.739-.281A4.2,4.2,0,0,0,6.2,4.7a2.87,2.87,0,0,0,.2-2.431A3.554,3.554,0,0,0,2.554.028" transform="translate(64.06 140.557)" fill="none" stroke="#030504" stroke-linecap="round" stroke-linejoin="round" stroke-miterlimit="10" stroke-width="3"/>
          <path id="Path_17303" data-name="Path 17303" d="M2.554.028A2.964,2.964,0,0,0,.028,2.794a3.8,3.8,0,0,0,.82,2.9,2.9,2.9,0,0,0,2.783.97,3.476,3.476,0,0,0,.739-.281A4.2,4.2,0,0,0,6.2,4.7a2.87,2.87,0,0,0,.2-2.431A3.554,3.554,0,0,0,2.554.028" transform="translate(108.992 160.774)" fill="none" stroke="#030504" stroke-linecap="round" stroke-linejoin="round" stroke-miterlimit="10" stroke-width="3"/>
        </g>
      </g>
      <g id="Group_16920" data-name="Group 16920" transform="matrix(0.174, 0.985, -0.985, 0.174, 1389.666, 159.901)">
        <path id="Path_17211" data-name="Path 17211" d="M7.632.231a6.107,6.107,0,0,0-6.2,1.819,6.1,6.1,0,0,0-.9,6.4,6.149,6.149,0,0,0,4.811,3.023c3.439.193,4.523-1.8,5.373-3.878,1.332-3.261.324-6.453-3.08-7.365" transform="translate(0 54.448)" fill="none" stroke="#030504" stroke-linecap="round" stroke-linejoin="round" stroke-miterlimit="10" stroke-width="3"/>
        <path id="Path_17212" data-name="Path 17212" d="M0,0,17.868,2.017" transform="translate(12.709 61.418)" fill="none" stroke="#030504" stroke-linecap="round" stroke-miterlimit="10" stroke-width="3"/>
        <path id="Path_17213" data-name="Path 17213" d="M21.2,1.082C15.6.064,9.582-.905,4.433,1.505a8.752,8.752,0,0,0-2.32,1.512A7.811,7.811,0,0,0,.658,11.578a12.38,12.38,0,0,0,6.57,6.183,31.309,31.309,0,0,0,8.964,2.1" transform="translate(31.828 56.851)" fill="none" stroke="#030504" stroke-linecap="round" stroke-linejoin="round" stroke-miterlimit="10" stroke-width="3"/>
        <path id="Path_17214" data-name="Path 17214" d="M2.977,0A16.561,16.561,0,0,1,0,16.787" transform="translate(50.6 59.167)" fill="none" stroke="#030504" stroke-linecap="round" stroke-miterlimit="10" stroke-width="3"/>
        <path id="Path_17215" data-name="Path 17215" d="M124.254,11.507C105.11,7.614,86.371,3.6,66.972,1.3,57.47.167,47.8-.767,38.379.928A52.9,52.9,0,0,0,0,31.192" transform="translate(54.946 24.787)" fill="none" stroke="#030504" stroke-linecap="round" stroke-linejoin="round" stroke-miterlimit="10" stroke-width="3"/>
        <path id="Path_17216" data-name="Path 17216" d="M.171,0c-.752,13.608.766,28.113,8.9,39.05,9.709,13.059,26.572,18.265,42.408,22,17.7,4.177,38.2,7.99,56.214,10.44" transform="translate(49.756 79.276)" fill="none" stroke="#030504" stroke-linecap="round" stroke-linejoin="round" stroke-miterlimit="10" stroke-width="3"/>
        <path id="Path_17217" data-name="Path 17217" d="M21.034,0A172.844,172.844,0,0,1,0,112.764" transform="translate(158.182 38.013)" fill="none" stroke="#030504" stroke-linecap="round" stroke-miterlimit="10" stroke-width="3"/>
        <path id="Path_17218" data-name="Path 17218" d="M10.106,7.336c.326-1.369,3.782-5.971,4.811-6.93S17.7.336,18.45,1.53c.2.324,3.64,6.882-1.245,39.907-5.149,23.012-5.16,22.592-9.416,28.049S-.442,68.678.04,67.247" transform="translate(171.613 55.797)" fill="none" stroke="#030504" stroke-linecap="round" stroke-linejoin="round" stroke-miterlimit="10" stroke-width="3"/>
        <path id="Path_17219" data-name="Path 17219" d="M0,0,8.1.954" transform="translate(179.819 96.965)" fill="none" stroke="#030504" stroke-linecap="round" stroke-miterlimit="10" stroke-width="3"/>
        <path id="Path_17220" data-name="Path 17220" d="M0,0,7.108.98" transform="translate(182.429 87.114)" fill="none" stroke="#030504" stroke-linecap="round" stroke-miterlimit="10" stroke-width="3"/>
        <path id="Path_17221" data-name="Path 17221" d="M0,1.216,18.154.032a3.453,3.453,0,0,1,2.239.349,3.4,3.4,0,0,1,1.093,2.37C25.8,29.368,17.262,56.2,8.829,81.817" transform="translate(188.679 54.551)" fill="none" stroke="#030504" stroke-linecap="round" stroke-linejoin="round" stroke-miterlimit="10" stroke-width="3"/>
        <path id="Path_17222" data-name="Path 17222" d="M0,0C6.934,3.925,12.212,5.768,19.592,9.649" transform="translate(175.097 127.116)" fill="none" stroke="#030504" stroke-linecap="round" stroke-linejoin="round" stroke-miterlimit="10" stroke-width="3"/>
        <path id="Path_17223" data-name="Path 17223" d="M29.478,55.672C28.664,49.5-.9,39.468.021,16.746a28.567,28.567,0,0,1,1.664-9.34A11.791,11.791,0,0,1,8.023.647C11.77-.793,15.985.41,19.7,1.927" transform="translate(192.067 137.564)" fill="none" stroke="#030504" stroke-linecap="round" stroke-linejoin="round" stroke-miterlimit="10" stroke-width="3"/>
        <path id="Path_17224" data-name="Path 17224" d="M33.16,0C25.37,4.287,17.984,9.477,12.048,16.1S1.672,30.854.306,39.64c-.629,4.043-.467,8.58,2.206,11.68,2.253,2.612,5.83,3.651,9.254,4.074,6.644.82,15.3-1.31,21.395-4.074" transform="translate(204.758 0)" fill="none" stroke="#030504" stroke-linecap="round" stroke-linejoin="round" stroke-miterlimit="10" stroke-width="3"/>
        <path id="Path_17225" data-name="Path 17225" d="M1.7,0C-.856,2.018-.322,6.313,1.93,8.66s5.587,3.238,8.754,3.984q8.951,2.108,18.008,3.727a3.951,3.951,0,0,0,1.623.061,3.428,3.428,0,0,0,1.654-1.172A12.233,12.233,0,0,0,35,6.956" transform="translate(97.048 142.143)" fill="none" stroke="#030504" stroke-linecap="round" stroke-linejoin="round" stroke-miterlimit="10" stroke-width="3"/>
        <path id="Path_17226" data-name="Path 17226" d="M.81,0A5.174,5.174,0,0,0,2.733,7.317,5.175,5.175,0,0,0,9.627,4.2" transform="translate(108.574 155.899)" fill="none" stroke="#030504" stroke-linecap="round" stroke-linejoin="round" stroke-miterlimit="10" stroke-width="3"/>
        <path id="Path_17227" data-name="Path 17227" d="M0,7.795C1.321,4.518,3.154.8,6.621.112A10.719,10.719,0,0,1,10.77.388L21.854,2.6c2.657.531,5.423,1.11,7.553,2.786s3.381,4.8,2.072,7.177" transform="translate(122.137 16.141)" fill="none" stroke="#030504" stroke-linecap="round" stroke-linejoin="round" stroke-miterlimit="10" stroke-width="3"/>
        <path id="Path_17228" data-name="Path 17228" d="M0,7.189A10.572,10.572,0,0,1,3.993,1.011c2.095-1.377,5.18-1.434,6.924.367,2.359,2.435,1.21,6.442-.09,9.573" transform="translate(135.375 6.508)" fill="none" stroke="#030504" stroke-linecap="round" stroke-linejoin="round" stroke-miterlimit="10" stroke-width="3"/>
        <path id="Path_17229" data-name="Path 17229" d="M10.092.524A8.254,8.254,0,0,0,3.365,3.309,13.58,13.58,0,0,0,.235,10.07a9.773,9.773,0,0,0-.1,3.708A8.77,8.77,0,0,0,4.11,19.121a12.693,12.693,0,0,0,13.842.053A11.232,11.232,0,0,0,22.064,6.209C20.242,1.664,14.7-1.115,10.05.43" transform="translate(93.896 47.633)" fill="none" stroke="#030504" stroke-linecap="round" stroke-linejoin="round" stroke-miterlimit="10" stroke-width="3"/>
        <path id="Path_17230" data-name="Path 17230" d="M13.416.382S11.329-.9,6.326,1.238C1.762,4.014,1.716,5.651.842,8.05a12.441,12.441,0,0,0-.085,8.758,11.007,11.007,0,0,0,12.465,6.308,11.765,11.765,0,0,0,8.62-11.2C21.824,6.837,20.729,1.791,13.416.382" transform="translate(84.625 88.68)" fill="none" stroke="#030504" stroke-linecap="round" stroke-linejoin="round" stroke-miterlimit="10" stroke-width="3"/>
        <path id="Path_17231" data-name="Path 17231" d="M15.2,0c.947,27.555-7.3,54.488-14.977,80.969A2.618,2.618,0,0,0,.2,83a2.38,2.38,0,0,0,1.876.9c4.678.532,9.37-1.688,12.692-5.025s5.44-7.682,7.068-12.1c5.6-15.221,8.476-27.078,6.366-47.2-.241-3.816-2.022-8.571-3.579-12.065S20.046.958,16.269.355" transform="translate(118.825 44.964)" fill="none" stroke="#030504" stroke-linecap="round" stroke-linejoin="round" stroke-miterlimit="10" stroke-width="3"/>
        <path id="Path_17232" data-name="Path 17232" d="M0,0A56.379,56.379,0,0,1,11.88,2.527" transform="translate(126.472 107.673)" fill="none" stroke="#030504" stroke-linecap="round" stroke-miterlimit="10" stroke-width="3"/>
        <path id="Path_17233" data-name="Path 17233" d="M0,0,12.362,2.582" transform="translate(130.144 98.12)" fill="none" stroke="#030504" stroke-linecap="round" stroke-miterlimit="10" stroke-width="3"/>
        <path id="Path_17234" data-name="Path 17234" d="M0,0,14.706,2.3" transform="translate(130.11 86.38)" fill="none" stroke="#030504" stroke-linecap="round" stroke-miterlimit="10" stroke-width="3"/>
        <path id="Path_17235" data-name="Path 17235" d="M0,0,10.121,1.1" transform="translate(134.696 74.042)" fill="none" stroke="#030504" stroke-linecap="round" stroke-miterlimit="10" stroke-width="3"/>
        <path id="Path_17236" data-name="Path 17236" d="M0,0,10.658.957" transform="translate(135.188 61.814)" fill="none" stroke="#030504" stroke-linecap="round" stroke-miterlimit="10" stroke-width="3"/>
        <path id="Path_17237" data-name="Path 17237" d="M0,0,10.331,2.865" transform="translate(123.281 119.64)" fill="none" stroke="#030504" stroke-linecap="round" stroke-miterlimit="10" stroke-width="3"/>
        <path id="Path_17304" data-name="Path 17304" d="M1.285.014A1.491,1.491,0,0,0,.014,1.405,1.911,1.911,0,0,0,.426,2.863a1.457,1.457,0,0,0,1.4.488A1.737,1.737,0,0,0,2.2,3.21a2.112,2.112,0,0,0,.921-.844,1.444,1.444,0,0,0,.1-1.223A1.788,1.788,0,0,0,1.285.014" transform="translate(102.771 57.069)" fill="none" stroke="#030504" stroke-linecap="round" stroke-linejoin="round" stroke-miterlimit="10" stroke-width="3"/>
        <path id="Path_17305" data-name="Path 17305" d="M1.285.014A1.491,1.491,0,0,0,.014,1.405,1.911,1.911,0,0,0,.426,2.863a1.457,1.457,0,0,0,1.4.488A1.737,1.737,0,0,0,2.2,3.21a2.112,2.112,0,0,0,.921-.844,1.444,1.444,0,0,0,.1-1.223A1.788,1.788,0,0,0,1.285.014" transform="translate(93.892 99.146)" fill="none" stroke="#030504" stroke-linecap="round" stroke-linejoin="round" stroke-miterlimit="10" stroke-width="3"/>
      </g>
      <g id="Group_16921" data-name="Group 16921" transform="translate(951.101 216.526)">
        <path id="Path_17238" data-name="Path 17238" d="M292.869,542.841c-12.992-1.047-19.258,10.477-17.328,18.635s6.6,12.064,17.328,13.206,15.651-9.318,15.411-15.862S305.861,543.888,292.869,542.841Z" transform="translate(-177.321 -512.244)" fill="none" stroke="#030504" stroke-linecap="round" stroke-linejoin="round" stroke-miterlimit="10" stroke-width="3"/>
        <path id="Path_17239" data-name="Path 17239" d="M285.5,560.032s.36,4.6,6.633,4.3c3.5.078,6.406-3.746,5.655-7.165a6.907,6.907,0,0,0-8.08-4.888c-3.411.786-4.554,4.985-4.208,7.758" transform="translate(-176.967 -511.921)" fill="none" stroke="#030504" stroke-linecap="round" stroke-linejoin="round" stroke-miterlimit="10" stroke-width="3"/>
        <path id="Path_17240" data-name="Path 17240" d="M280.619,513.312c-7.324-.58-14.258,4.046-18.564,10s-6.51,13.124-8.861,20.086q-5.517,16.348-12.574,32.122c-2.24,5.005-4.623,10.059-5.324,15.5s.572,11.451,4.658,15.107" transform="translate(-174.567 -513.263)" fill="none" stroke="#030504" stroke-linecap="round" stroke-linejoin="round" stroke-miterlimit="10" stroke-width="3"/>
        <path id="Path_17241" data-name="Path 17241" d="M241.283,603.8c7.918,5.095,17.915,5.287,27.33,5.316l108.572.339" transform="translate(-174.354 -510.137)" fill="none" stroke="#030504" stroke-linecap="round" stroke-linejoin="round" stroke-miterlimit="10" stroke-width="3"/>
        <path id="Path_17242" data-name="Path 17242" d="M251.99,608.63a147.1,147.1,0,0,0-32,5.327,13.338,13.338,0,0,0-5.08,2.286c-2.243,1.886-3.076,5.036-2.91,7.962a35.029,35.029,0,0,0,2.07,8.518c4.438,13.96,8.484,46.09,9.811,60.678" transform="translate(-175.365 -509.971)" fill="none" stroke="#030504" stroke-linecap="round" stroke-linejoin="round" stroke-miterlimit="10" stroke-width="3"/>
        <path id="Path_17243" data-name="Path 17243" d="M212.056,625.106A21.382,21.382,0,0,0,200.124,653.3a19.372,19.372,0,0,0,3.766,5.841c3.859,4.063,9.371,6.031,14.666,7.863" transform="translate(-175.831 -509.402)" fill="none" stroke="#030504" stroke-linecap="round" stroke-linejoin="round" stroke-miterlimit="10" stroke-width="3"/>
        <path id="Path_17244" data-name="Path 17244" d="M206.806,647.743c-2.655-.292-6.577,1.952-7.866,4.885s-17.214,40.777-14.981,42.24" transform="translate(-183.745 -508.621)" fill="none" stroke="#030504" stroke-linecap="round" stroke-linejoin="round" stroke-miterlimit="10" stroke-width="3"/>
        <path id="Path_17245" data-name="Path 17245" d="M373.108,609.318a123.228,123.228,0,0,1,17.39.357c4.1.375,8.262.979,11.971,2.765s6.954,4.932,7.97,8.923c.949,3.725-.112,7.635-1.167,11.332-3.809,13.341-5.737,45.3-9.546,58.645" transform="translate(-169.803 -509.952)" fill="none" stroke="#030504" stroke-linecap="round" stroke-linejoin="round" stroke-miterlimit="10" stroke-width="3"/>
        <path id="Path_17246" data-name="Path 17246" d="M411.69,626.945c5.714,3.428,8.325,10.579,8.132,17.238s-2.172,42.027-4.656,48.209" transform="translate(-168.471 -509.338)" fill="none" stroke="#030504" stroke-linecap="round" stroke-linejoin="round" stroke-miterlimit="10" stroke-width="3"/>
        <path id="Path_17247" data-name="Path 17247" d="M419.346,651.335c3.212-.257,13.035,4.948,14.9,15.963.275,1.608-3.725,22.846-3.782,23.284" transform="translate(-168.207 -508.494)" fill="none" stroke="#030504" stroke-linecap="round" stroke-miterlimit="10" stroke-width="3"/>
        <path id="Path_17248" data-name="Path 17248" d="M267.316,688.233q.6-24.861.871-49.73,40.121,3.2,80.414,3.039a3.2,3.2,0,0,1,1.88.381c.853.6.91,1.819.881,2.86q-.569,20.8-1.14,41.595" transform="translate(-173.455 -508.939)" fill="none" stroke="#030504" stroke-linecap="round" stroke-linejoin="round" stroke-miterlimit="10" stroke-width="3"/>
        <path id="Path_17296" data-name="Path 17296" d="M292.869,542.841c-12.992-1.047-19.258,10.477-17.328,18.635s6.6,12.064,17.328,13.206,15.651-9.318,15.411-15.862S305.861,543.888,292.869,542.841Z" transform="translate(-129.068 -512.244)" fill="none" stroke="#030504" stroke-linecap="round" stroke-linejoin="round" stroke-miterlimit="10" stroke-width="3"/>
        <path id="Path_17297" data-name="Path 17297" d="M285.5,560.032s.36,4.6,6.633,4.3c3.5.078,6.406-3.746,5.655-7.165a6.907,6.907,0,0,0-8.08-4.888c-3.411.786-4.554,4.985-4.208,7.758" transform="translate(-128.715 -511.921)" fill="none" stroke="#030504" stroke-linecap="round" stroke-linejoin="round" stroke-miterlimit="10" stroke-width="3"/>
        <path id="Path_17298" data-name="Path 17298" d="M275.391,611.266c8.933-4.653,7.865-14.81,7.164-20.249s-3.084-10.492-5.324-15.5q-7.047-15.749-12.574-32.122c-2.35-6.962-4.555-14.133-8.861-20.086s-11.24-10.581-18.565-10-63.475,0-63.475,0" transform="translate(-68.337 -513.263)" fill="none" stroke="#030504" stroke-linecap="round" stroke-linejoin="round" stroke-miterlimit="10" stroke-width="3"/>
        <g id="Group_8371" data-name="Group 8371" transform="translate(102.225 140.563)">
          <path id="Path_17257" data-name="Path 17257" d="M298.061,643.186l2.066,4.947" transform="translate(-289.853 -643.186)" fill="none" stroke="#030504" stroke-linecap="round" stroke-miterlimit="10" stroke-width="3"/>
          <path id="Path_17307" data-name="Path 17307" d="M298.061,643.186l2.066,4.947" transform="translate(-279.593 -619.392)" fill="none" stroke="#030504" stroke-linecap="round" stroke-miterlimit="10" stroke-width="3"/>
          <path id="Path_17306" data-name="Path 17306" d="M288.94,367.216c-4.422-1.894-8.636-1.75-11.135,2.36a7.813,7.813,0,1,0,11.135-2.36" transform="translate(-270.224 -359.652)" fill="none" stroke="#030504" stroke-linecap="round" stroke-linejoin="round" stroke-miterlimit="10" stroke-width="3"/>
          <path id="Path_17308" data-name="Path 17308" d="M300.127,643.186l-2.066,4.947" transform="translate(-279.593 -643.186)" fill="none" stroke="#030504" stroke-linecap="round" stroke-miterlimit="10" stroke-width="3"/>
          <path id="Path_17309" data-name="Path 17309" d="M300.127,643.186l-2.066,4.947" transform="translate(-289.854 -619.392)" fill="none" stroke="#030504" stroke-linecap="round" stroke-miterlimit="10" stroke-width="3"/>
          <path id="Path_17310" data-name="Path 17310" d="M0,0,2.066,4.947" transform="translate(0 20.534) rotate(-90)" fill="none" stroke="#030504" stroke-linecap="round" stroke-miterlimit="10" stroke-width="3"/>
          <path id="Path_17311" data-name="Path 17311" d="M0,0,2.066,4.947" transform="translate(23.794 10.274) rotate(-90)" fill="none" stroke="#030504" stroke-linecap="round" stroke-miterlimit="10" stroke-width="3"/>
          <path id="Path_17312" data-name="Path 17312" d="M2.066,0,0,4.947" transform="translate(0 10.274) rotate(-90)" fill="none" stroke="#030504" stroke-linecap="round" stroke-miterlimit="10" stroke-width="3"/>
          <path id="Path_17313" data-name="Path 17313" d="M2.066,0,0,4.947" transform="translate(23.794 20.534) rotate(-90)" fill="none" stroke="#030504" stroke-linecap="round" stroke-miterlimit="10" stroke-width="3"/>
        </g>
        <g id="Group_8372" data-name="Group 8372" transform="matrix(0.883, 0.469, -0.469, 0.883, 160.262, 138.261)">
          <path id="Path_17257-2" data-name="Path 17257" d="M0,0,.939,2.248" transform="translate(3.73 0)" fill="none" stroke="#030504" stroke-linecap="round" stroke-miterlimit="10" stroke-width="3"/>
          <path id="Path_17307-2" data-name="Path 17307" d="M0,0,.939,2.248" transform="translate(8.393 10.813)" fill="none" stroke="#030504" stroke-linecap="round" stroke-miterlimit="10" stroke-width="3"/>
          <path id="Path_17306-2" data-name="Path 17306" d="M5.535.533C3.525-.328,1.61-.263.475,1.6A3.687,3.687,0,0,0,1.6,6.445a3.687,3.687,0,0,0,4.862-1.03A3.687,3.687,0,0,0,5.535.533" transform="translate(2.971 2.905)" fill="none" stroke="#030504" stroke-linecap="round" stroke-linejoin="round" stroke-miterlimit="10" stroke-width="3"/>
          <path id="Path_17308-2" data-name="Path 17308" d="M.939,0,0,2.248" transform="translate(8.393 0)" fill="none" stroke="#030504" stroke-linecap="round" stroke-miterlimit="10" stroke-width="3"/>
          <path id="Path_17309-2" data-name="Path 17309" d="M.939,0,0,2.248" transform="translate(3.73 10.813)" fill="none" stroke="#030504" stroke-linecap="round" stroke-miterlimit="10" stroke-width="3"/>
          <path id="Path_17310-2" data-name="Path 17310" d="M0,0,.939,2.248" transform="translate(0 9.332) rotate(-90)" fill="none" stroke="#030504" stroke-linecap="round" stroke-miterlimit="10" stroke-width="3"/>
          <path id="Path_17311-2" data-name="Path 17311" d="M0,0,.939,2.248" transform="translate(10.813 4.669) rotate(-90)" fill="none" stroke="#030504" stroke-linecap="round" stroke-miterlimit="10" stroke-width="3"/>
          <path id="Path_17312-2" data-name="Path 17312" d="M.939,0,0,2.248" transform="translate(0 4.669) rotate(-90)" fill="none" stroke="#030504" stroke-linecap="round" stroke-miterlimit="10" stroke-width="3"/>
          <path id="Path_17313-2" data-name="Path 17313" d="M.939,0,0,2.248" transform="translate(10.813 9.332) rotate(-90)" fill="none" stroke="#030504" stroke-linecap="round" stroke-miterlimit="10" stroke-width="3"/>
        </g>
        <g id="Group_8373" data-name="Group 8373" transform="matrix(0.914, 0.407, -0.407, 0.914, 141.939, 152.035)">
          <path id="Path_17257-3" data-name="Path 17257" d="M0,0,1.425,3.412" transform="translate(5.66 0)" fill="none" stroke="#030504" stroke-linecap="round" stroke-miterlimit="10" stroke-width="3"/>
          <path id="Path_17307-3" data-name="Path 17307" d="M0,0,1.425,3.412" transform="translate(12.736 16.408)" fill="none" stroke="#030504" stroke-linecap="round" stroke-miterlimit="10" stroke-width="3"/>
          <path id="Path_17306-3" data-name="Path 17306" d="M8.4.808C5.35-.5,2.443-.4.72,2.436A5.6,5.6,0,0,0,2.434,9.779,5.6,5.6,0,0,0,9.811,8.216,5.6,5.6,0,0,0,8.4.808" transform="translate(4.508 4.408)" fill="none" stroke="#030504" stroke-linecap="round" stroke-linejoin="round" stroke-miterlimit="10" stroke-width="3"/>
          <path id="Path_17308-3" data-name="Path 17308" d="M1.425,0,0,3.412" transform="translate(12.736 0)" fill="none" stroke="#030504" stroke-linecap="round" stroke-miterlimit="10" stroke-width="3"/>
          <path id="Path_17309-3" data-name="Path 17309" d="M1.425,0,0,3.412" transform="translate(5.66 16.408)" fill="none" stroke="#030504" stroke-linecap="round" stroke-miterlimit="10" stroke-width="3"/>
          <path id="Path_17310-3" data-name="Path 17310" d="M0,0,1.425,3.412" transform="translate(0 14.16) rotate(-90)" fill="none" stroke="#030504" stroke-linecap="round" stroke-miterlimit="10" stroke-width="3"/>
          <path id="Path_17311-3" data-name="Path 17311" d="M0,0,1.425,3.412" transform="translate(16.408 7.085) rotate(-90)" fill="none" stroke="#030504" stroke-linecap="round" stroke-miterlimit="10" stroke-width="3"/>
          <path id="Path_17312-3" data-name="Path 17312" d="M1.425,0,0,3.412" transform="translate(0 7.085) rotate(-90)" fill="none" stroke="#030504" stroke-linecap="round" stroke-miterlimit="10" stroke-width="3"/>
          <path id="Path_17313-3" data-name="Path 17313" d="M1.425,0,0,3.412" transform="translate(16.408 14.16) rotate(-90)" fill="none" stroke="#030504" stroke-linecap="round" stroke-miterlimit="10" stroke-width="3"/>
        </g>
      </g>
      <g id="Group_16922" data-name="Group 16922" transform="translate(284.431 365.802) rotate(-60)">
        <path id="Path_17269" data-name="Path 17269" d="M4.089,0C1.424.667-.1,3.682,0,6.429s1.427,5.277,2.723,7.7q5.228,9.78,10.457,19.56c2.71,5.07,5.421,10.141,8.235,15.155a574.295,574.295,0,0,0,34.346,53.225" transform="translate(45.821 45.398)" fill="none" stroke="#030504" stroke-linecap="round" stroke-linejoin="round" stroke-miterlimit="10" stroke-width="3"/>
        <path id="Path_17270" data-name="Path 17270" d="M0,57.981C.822,60.363,3.339,62.33,7.416,62.2s4.364-1.436,8.067-4.215C41.073,39.163,65.965,18.817,91.555,0" transform="translate(100.019 87.235)" fill="none" stroke="#030504" stroke-linecap="round" stroke-linejoin="round" stroke-miterlimit="10" stroke-width="3"/>
        <path id="Path_17271" data-name="Path 17271" d="M0,45.28c24.552-10.362,49.889-23.059,73.3-35.8C79.826,5.927,88.306,1.775,95.525,0" transform="translate(49.149 0.33)" fill="none" stroke="#030504" stroke-linecap="round" stroke-linejoin="round" stroke-miterlimit="10" stroke-width="3"/>
        <path id="Path_17272" data-name="Path 17272" d="M0,.551C3.3-.771,7.183.426,9.951,2.656S14.6,8,16.432,11.055Q34.108,40.573,51.785,70.091a14.566,14.566,0,0,1,2.147,4.837c.837,4.788-3.083,8.963-6.675,12.24" transform="translate(144.086 0)" fill="none" stroke="#030504" stroke-linecap="round" stroke-linejoin="round" stroke-miterlimit="10" stroke-width="3"/>
        <path id="Path_17273" data-name="Path 17273" d="M0,.052A21.925,21.925,0,0,1,19.69,9.63c4.139,6.444,4.088,15.45-.485,21.593" transform="translate(168.523 20.937)" fill="none" stroke="#030504" stroke-linecap="round" stroke-linejoin="round" stroke-miterlimit="10" stroke-width="3"/>
        <path id="Path_17274" data-name="Path 17274" d="M0,11.856,21.941,0" transform="translate(191.068 18.043)" fill="none" stroke="#030504" stroke-linecap="round" stroke-miterlimit="10" stroke-width="3"/>
        <path id="Path_17275" data-name="Path 17275" d="M8.016.89C4.5.416,1.133,3.338.266,6.783a9.111,9.111,0,0,0,2.083,8.3,8.428,8.428,0,0,0,8.153,2.39,8.23,8.23,0,0,0,5.75-9.088,9.466,9.466,0,0,0-1.809-3.968A11.7,11.7,0,0,0,7.234,0" transform="translate(212.736 3.18)" fill="none" stroke="#030504" stroke-linecap="round" stroke-linejoin="round" stroke-miterlimit="10" stroke-width="3"/>
        <path id="Path_17276" data-name="Path 17276" d="M5.416,0C3.61.171.919,2.494.3,4.2c-.956,2.651.522,5.5,1.952,7.932Q13.63,31.45,25.005,50.77c1.1,1.867,2.31,3.839,4.268,4.77s6.856.108,7.35-2" transform="translate(51.342 75.341)" fill="none" stroke="#030504" stroke-linecap="round" stroke-linejoin="round" stroke-miterlimit="10" stroke-width="3"/>
        <path id="Path_17301" data-name="Path 17301" d="M5.416,0C3.61.171.919,2.494.3,4.2c-.956,2.651.522,5.5,1.952,7.932Q13.63,31.45,25.005,50.77c1.1,1.867,2.31,3.839,4.268,4.77s6.856.108,7.35-2" transform="translate(44.855 79.117)" fill="none" stroke="#030504" stroke-linecap="round" stroke-linejoin="round" stroke-miterlimit="10" stroke-width="3"/>
        <path id="Path_17277" data-name="Path 17277" d="M0,7.917A51.986,51.986,0,0,1,12.641.951,10.2,10.2,0,0,1,17.465.046c2.562.321,4.556,2.32,6.233,4.282C31.184,13.084,36.652,23.346,42.087,33.5c12.882,24.077,25.932,48.1,40.757,71.03,3.648,5.643,7.472,12.931,3.9,18.619" transform="translate(1.875 51.573)" fill="none" stroke="#030504" stroke-linecap="round" stroke-linejoin="round" stroke-miterlimit="10" stroke-width="3"/>
        <path id="Path_17278" data-name="Path 17278" d="M0,16.585A112.7,112.7,0,0,0,23.969,0" transform="translate(65.074 175.426)" fill="none" stroke="#030504" stroke-linecap="round" stroke-miterlimit="10" stroke-width="3"/>
        <path id="Path_17279" data-name="Path 17279" d="M0,17.554l11.961-3.806A25.617,25.617,0,0,0,19.5,10.413,7.977,7.977,0,0,0,22.983,5c.208-2.2-1.206-4.614-3.384-5" transform="translate(68.94 178.856)" fill="none" stroke="#030504" stroke-linecap="round" stroke-linejoin="round" stroke-miterlimit="10" stroke-width="3"/>
        <path id="Path_17280" data-name="Path 17280" d="M0,13.275l17.378-3.55a6.179,6.179,0,0,0,3.036-1.217,4.135,4.135,0,0,0,.419-4.978,10.458,10.458,0,0,0-4-3.53" transform="translate(73.383 188.811)" fill="none" stroke="#030504" stroke-linecap="round" stroke-linejoin="round" stroke-miterlimit="10" stroke-width="3"/>
        <path id="Path_17281" data-name="Path 17281" d="M0,12.128c3.926.02,6.753-3.613,8.93-6.88C9.987,3.661,11.039,1.5,9.867,0" transform="translate(84.042 199.496)" fill="none" stroke="#030504" stroke-linecap="round" stroke-linejoin="round" stroke-miterlimit="10" stroke-width="3"/>
        <path id="Path_17282" data-name="Path 17282" d="M0,3.75C1.924,2.214,3.946.631,6.356.13s5.318.456,6.206,2.753" transform="translate(1.599 47.36)" fill="none" stroke="#030504" stroke-linecap="round" stroke-linejoin="round" stroke-miterlimit="10" stroke-width="3"/>
        <path id="Path_17283" data-name="Path 17283" d="M0,1.357C.574-.28,3.071-.387,4.359.774s1.669,3,1.981,4.7" transform="translate(0 39.813)" fill="none" stroke="#030504" stroke-linecap="round" stroke-linejoin="round" stroke-miterlimit="10" stroke-width="3"/>
        <path id="Path_17284" data-name="Path 17284" d="M0,0A461.054,461.054,0,0,0,37.5,60.524" transform="translate(95.909 44.82)" fill="none" stroke="#030504" stroke-linecap="round" stroke-miterlimit="10" stroke-width="3"/>
        <path id="Path_17285" data-name="Path 17285" d="M6.985,0C1.09,3.623-.313,11.582.054,18.49a61.56,61.56,0,0,0,12.71,34.171c3.8,4.9,8.525,9.334,14.374,11.39s12.956,1.31,17.389-3.024" transform="translate(87.803 44.894)" fill="none" stroke="#030504" stroke-linecap="round" stroke-linejoin="round" stroke-miterlimit="10" stroke-width="3"/>
        <path id="Path_17286" data-name="Path 17286" d="M0,10.691,17.43,0" transform="translate(101.658 85.73)" fill="none" stroke="#030504" stroke-linecap="round" stroke-miterlimit="10" stroke-width="3"/>
        <path id="Path_17287" data-name="Path 17287" d="M0,8.71A64.145,64.145,0,0,0,18.092,0" transform="translate(93.537 77.387)" fill="none" stroke="#030504" stroke-linecap="round" stroke-miterlimit="10" stroke-width="3"/>
        <path id="Path_17288" data-name="Path 17288" d="M0,8.953A78.063,78.063,0,0,0,14.423,0" transform="translate(91.411 65.816)" fill="none" stroke="#030504" stroke-linecap="round" stroke-miterlimit="10" stroke-width="3"/>
        <path id="Path_17289" data-name="Path 17289" d="M0,6.9,12.08,0" transform="translate(89.245 57.102)" fill="none" stroke="#030504" stroke-linecap="round" stroke-miterlimit="10" stroke-width="3"/>
        <path id="Path_17290" data-name="Path 17290" d="M0,8.626A132.473,132.473,0,0,0,11.487,0" transform="translate(113.986 97.75)" fill="none" stroke="#030504" stroke-linecap="round" stroke-miterlimit="10" stroke-width="3"/>
        <path id="Path_17291" data-name="Path 17291" d="M12.211.541c-2.6-.69-6.371.512-8.333,2.349A12.914,12.914,0,0,0,1.486,18.113a12.913,12.913,0,0,0,14.177,6.039,12.915,12.915,0,0,0,9.319-12.273,10.432,10.432,0,0,0-.622-3.513,13.62,13.62,0,0,0-3.2-4.639A11.981,11.981,0,0,0,9.1.541" transform="translate(117.621 26.314)" fill="none" stroke="#030504" stroke-linecap="round" stroke-linejoin="round" stroke-miterlimit="10" stroke-width="3"/>
        <path id="Path_17292" data-name="Path 17292" d="M9.345.1C4.362.245.673,5.272.1,10.224a13.9,13.9,0,0,0,3,10.605A10.6,10.6,0,0,0,13.284,24.38a12.682,12.682,0,0,0,2.706-1.027,15.369,15.369,0,0,0,6.7-6.138,10.5,10.5,0,0,0,.718-8.9C19.789-1.535,9.345.1,9.345.1" transform="translate(143.204 66.805)" fill="none" stroke="#030504" stroke-linecap="round" stroke-linejoin="round" stroke-miterlimit="10" stroke-width="3"/>
        <path id="Path_17299" data-name="Path 17299" d="M2.372.026A2.754,2.754,0,0,0,.026,2.6,3.529,3.529,0,0,0,.787,5.287a2.692,2.692,0,0,0,2.585.9,3.222,3.222,0,0,0,.687-.261,3.9,3.9,0,0,0,1.7-1.558,2.666,2.666,0,0,0,.182-2.258A3.3,3.3,0,0,0,2.372.026" transform="translate(152.19 75.992)" fill="none" stroke="#030504" stroke-linecap="round" stroke-linejoin="round" stroke-miterlimit="10" stroke-width="3"/>
        <path id="Path_17300" data-name="Path 17300" d="M2.372.026A2.754,2.754,0,0,0,.026,2.6,3.529,3.529,0,0,0,.787,5.287a2.692,2.692,0,0,0,2.585.9,3.222,3.222,0,0,0,.687-.261,3.9,3.9,0,0,0,1.7-1.558,2.666,2.666,0,0,0,.182-2.258A3.3,3.3,0,0,0,2.372.026" transform="translate(127.055 35.456)" fill="none" stroke="#030504" stroke-linecap="round" stroke-linejoin="round" stroke-miterlimit="10" stroke-width="3"/>
      </g>
    </g>
  </g>
</svg>
