<svg xmlns="http://www.w3.org/2000/svg" xmlns:xlink="http://www.w3.org/1999/xlink" width="1131" height="580" viewBox="0 0 1131 580">
  <defs>
    <clipPath id="clip-Artboard_2">
      <rect width="1131" height="580"/>
    </clipPath>
  </defs>
  <g id="Artboard_2" data-name="Artboard – 2" clip-path="url(#clip-Artboard_2)">
    <g id="Group_17095" data-name="Group 17095" transform="translate(-384 -798)">
      <path id="Path_22723" data-name="Path 22723" d="M-23.409,493.68c16.332-17.688,44.579-26.144,71.993-30.52,42.088-6.717,85.463-6,128.3-8.586s86.816-8.946,122.27-27.835c60.2-32.072,88.025-95.85,155.316-117.777,43.284-14.1,92.817-7.2,139.042-13.481,39.457-5.362,76.566-20.718,104.346-43.176" transform="translate(525.408 796.327)" fill="none" stroke="#fff" stroke-linecap="round" stroke-linejoin="round" stroke-miterlimit="10" stroke-width="3" stroke-dasharray="11" opacity="0.4"/>
      <g id="Group_17093" data-name="Group 17093" transform="translate(-2.334 -35.798)">
        <path id="Path_22724" data-name="Path 22724" d="M-18947.514,3131.114l-25.623,28.919h-42.73s22.236-14.473,24.4-15.37,29.715-13.55,29.715-13.55Z" transform="translate(20254.248 -2159.125)" fill="#febf00"/>
        <path id="Path_22725" data-name="Path 22725" d="M-18913.609,3167.875l-27.2,20.167-2.687,6.266,2.688,25.023-2.687,17.049s15.2-21.45,16.23-22.961,14.867-28.536,13.66-31.792S-18913.609,3167.875-18913.609,3167.875Z" transform="translate(20260.289 -2156.057)" fill="#febf00"/>
        <path id="Path_22726" data-name="Path 22726" d="M-18861.434,3086.55l-32.4,7.586-28.557,13.582-37.773,39.466-16.863,18.456-8.641,6.029,13.154,18.7,21.2,18.043h5.1s7.377-11.57,8.781-12.608,32.006-24.136,32.006-24.136l25.615-27.271s11.807-25.425,12.215-26.934,6.152-23.328,6.152-23.328Z" transform="translate(20256.766 -2162.844)" fill="#5bbafc"/>
        <path id="Path_22727" data-name="Path 22727" d="M-18977.814,3173.94l-12.283,5.938s-11.143,13.116-9.91,13.036,7.162-2.925,7.162-2.925l-14.795,14.792-2.227,4.064h4.832s-11.383,26.192-10.537,26.112,26.6-10.774,26.6-10.774l-1.129,4.333,17.574-15.181s-2.166,7.038-1.143,6.406,11.953-7.844,13.008-9.72,5.684-14.014,5.684-14.014l-4.6-3.092-6.123,7.515-5.162,4.352v-3.274l-6.955,7.339-3.877-1.958s-12.18,3.77-11.154,3.133,5.568-12.312,5.568-12.312l-1.691-1.7s5.121-5.176,4.727-6.017a7.287,7.287,0,0,1,0-2.981l10.576-8.7Z" transform="translate(20254.268 -2155.552)" fill="#febf00"/>
        <ellipse id="Ellipse_933" data-name="Ellipse 933" cx="14.055" cy="13.654" rx="14.055" ry="13.654" transform="translate(1339.802 952.456)" fill="#2c3349"/>
        <path id="Path_22728" data-name="Path 22728" d="M-18974.488,3177.605l-10.084,7.048-2.861,4.788-2.977,6.641-1.549,6.9-2.543,7.321,12.127-3.086h3.746l6.107-4.235,5.076-1.713,5.922-9.041Z" transform="translate(20256.029 -2155.246)" fill="#fc4545"/>
        <g id="noun_Rocket_2957862" transform="translate(1235.169 921.674)">
          <g id="Group_17032" data-name="Group 17032" transform="translate(0 0)">
            <path id="Path_22721" data-name="Path 22721" d="M172.465,12.388c.458,1.027.356.554.439,1.383-.665,5.877-.687,6.043-.709,6.219-3.385,26.386-16.859,54.808-37.962,73.881-.284.269-2.086,1.791-5.2,4.4-1.28,1.074-2.451,2.055-3.615,3.029l-.952.8c-.085.7-.175,1.432-.276,2.222-.288,2.257-.6,4.537-.922,6.7q-.085.571-.171,1.121c-.438,2.834-.861,5.18-1.26,6.907-2.62,11.336-12.9,29.363-22.951,46.843l-.027.046a34.711,34.711,0,0,1-4.556,6.219c-.989.961-1.8,1.445-2.939,1.19a2.253,2.253,0,0,1-1.723-1.793,4.046,4.046,0,0,1-.008-1.5c1.439-12.738,2.6-25.747,1.5-38.566a4.125,4.125,0,0,0-.308.545c-.017.034-.036.067-.055.1-3.551,5.964-8.091,8.238-13.741,3.781l-1.242-.985a27.654,27.654,0,0,1-7.357,12.1c-3.051,2.92-12.07,9.5-13.893,9.83a2.038,2.038,0,0,1-2.151-1.164,1.717,1.717,0,0,1-.1-.505,79.715,79.715,0,0,1-7.441,6.4,46.909,46.909,0,0,1-4.246,2.97,7.535,7.535,0,0,1-1.693.8,2.346,2.346,0,0,1-1.523-.014,2.087,2.087,0,0,1-1.393-2.151,3.352,3.352,0,0,1,.384-1.33c.049-.024-4.279,2.081-5.651,2.733-2.341,1.111-4.423,2.048-6.46,2.892a60.874,60.874,0,0,1-10.692,3.482,1.956,1.956,0,0,1-2.285-2.432,67.054,67.054,0,0,1,3.768-9.971c.926-2.026,1.948-4.1,3.141-6.411,3.191-6.066,3.019-5.734,3.318-6.312a8.763,8.763,0,0,1-2.072.535,2.1,2.1,0,0,1-2.164-1.421,2.349,2.349,0,0,1,.007-1.523,7.537,7.537,0,0,1,.824-1.682,47.034,47.034,0,0,1,3.028-4.2,81.709,81.709,0,0,1,6.472-7.317c-.244-.024-.057,0-.541-.171A1.962,1.962,0,0,1,26,127.92c.355-1.818,7.059-10.745,10.013-13.747a27.475,27.475,0,0,1,12.205-7.2l-.973-1.26c-1.422-2.011-3.679-4.657-2.686-7.337.742-2,4.872-5.092,6.592-6.128q.409-.354.818-.709a195.014,195.014,0,0,0-38.59,1.214,4.018,4.018,0,0,1-1.479-.031,2.254,2.254,0,0,1-1.768-1.748c-.24-1.144.256-1.946,1.23-2.922a34.726,34.726,0,0,1,6.281-4.469l.046-.027c17.618-9.81,35.944-19.676,47.315-22.138,1.733-.376,4.085-.766,6.924-1.164q.552-.078,1.123-.155c2.167-.294,4.451-.573,6.712-.829l2.225-.246.809-.941,3.079-3.573c2.651-3.072,4.2-4.853,4.441-5.1,19.4-20.87,47.843-34.11,74.273-37.129a59.992,59.992,0,0,1,6.346-.627c.683.068.29-.015,1.151.363ZM72.436,132.231c-1.306-1.17-.561-.5-2.236-2a17.488,17.488,0,0,1-3.181,4.32l-.043.043c-1.944,1.861-6.667,5.244-8.026,5.489l-.047.008-.047.006a2.551,2.551,0,0,1-1.385-.154c-.845.776-1.749,1.483-2.65,2.192a25.434,25.434,0,0,1-2.345,1.636,5.492,5.492,0,0,1-1.3.6,3.028,3.028,0,0,1-1.915-.044c-.717-.32-.385-.15-1.209-.813-.6.288-.347.168-.751.361-1.259.6-2.336,1.08-3.372,1.509a32.7,32.7,0,0,1-5.773,1.874,2.861,2.861,0,0,1-3.343-3.559,35.832,35.832,0,0,1,2.02-5.355c.471-1.03,1-2.1,1.643-3.354l.434-.825a2.555,2.555,0,0,1-1.016-1.364,3.028,3.028,0,0,1-.017-1.917,5.49,5.49,0,0,1,.614-1.29,25.433,25.433,0,0,1,1.663-2.315c1.263-1.564.527-.684,2.235-2.615a2.447,2.447,0,0,1-.12-1.492c.264-1.356,3.712-6.031,5.6-7.954a15.249,15.249,0,0,1,4.451-3.16c-1.125-1.282-.636-.721-1.47-1.681l-1.157.252a23.425,23.425,0,0,0-10.882,6.283,81.779,81.779,0,0,0-5.416,6.62l-.434.584c1.551-.733.653-.3,2.683-1.33a1.956,1.956,0,0,1,2.24,3.163L31.739,131.7l-.057.052a69.634,69.634,0,0,0-7.476,8.223c-.87,1.124-.588.733-.883,1.143a4.787,4.787,0,0,1,1.206-.259,2.084,2.084,0,0,1,2.262,2.52,5.76,5.76,0,0,1-.458,1.5c-3.759,7.339-4.213,8.2-4.661,9.073-1.167,2.26-2.162,4.28-3.059,6.243-1.632,3.708-.784,1.683-2.506,6.089a69.3,69.3,0,0,0,6.661-2.409c1.969-.816,3.994-1.727,6.28-2.812,7.182-3.472,8.3-3.979,9.168-4.293A5.311,5.311,0,0,1,39.8,156.4a2.145,2.145,0,0,1,2.378,2.239l0,.067.288-.216a69.618,69.618,0,0,0,8.326-7.361l.052-.057L56.679,145a1.956,1.956,0,0,1,3.19,2.165l-1.186,2.609.351-.253a81.575,81.575,0,0,0,6.7-5.332,23.407,23.407,0,0,0,6.422-10.775ZM67.283,127.6c-8.107-7.926-9.864-9.866-11.619-11.805l-.772-.784a12.354,12.354,0,0,0-4.368,2.831,38.96,38.96,0,0,0-2.871,3.521c-.392.533-.778,1.071-1.14,1.625l2.5.25-2.772,2.782a39.707,39.707,0,0,0-3.149,3.562c-.526.679-.3.378-.677.9l3.175-1.064-2.114,4.09c-.093.179-.118.227-.3.57l-1.389,2.64c-.614,1.188-1.115,2.209-1.559,3.181a34.565,34.565,0,0,0-1.337,3.315,32.217,32.217,0,0,0,3.611-1.277c.974-.4,2-.861,3.2-1.433.245-.116.7-.337,1.308-.63l.015-.007,1.064-.516.347-.169.1-.046.024-.012.007,0,.008,0,.14-.06.791,1.8c1.528.27,1.228.2,2.89-.988a28.047,28.047,0,0,0,3.758-3.782l2.453-2.459.47,2.295c.6-.373,1.18-.784,1.759-1.192a39.377,39.377,0,0,0,3.541-2.8,14.464,14.464,0,0,0,2.445-3.256C67.143,127.955,66.988,128.31,67.283,127.6Zm11.4-64.26c-2.921.345-1.219.137-5.1.639q-.561.076-1.1.152c-2.752.386-5.021.763-6.64,1.113C50.487,69.055,33.389,79.37,19.622,86.963c-1.36.823-.626.368-2.2,1.374a240.327,240.327,0,0,1,27.339-1.088A47.283,47.283,0,0,1,56.31,88.36a109.65,109.65,0,0,0,8.235-8.534c2.4-2.728,7.829-8.463,10.315-11.584Q76.8,65.81,78.685,63.339Zm41.452,41.822c-1.631,1.121-3.225,2.293-4.823,3.46-3.346,2.466-9.483,7.7-12.368,10.138a93.45,93.45,0,0,0-7.03,6.5c-.5.522-.98,1.064-1.47,1.6l.046.135c1.614,12.931.982,26.207-.406,39.139,1.052-1.591.58-.851,1.428-2.212,7.613-13.738,18.646-30.39,22.516-45.748.373-1.614.78-3.878,1.206-6.624q.083-.541.167-1.1c.564-3.939.324-2.179.734-5.279Zm40.961-59.2A70.093,70.093,0,0,1,143.511,30.3a54.288,54.288,0,0,1-5.116-7.27c-18.267,6.741-31.688,15.181-45.239,29.082-.183.187-1.865,2.124-4.313,4.961-1.09,1.263-2.086,2.419-3.075,3.568-2.106,2.608-2.563,3.219-3.075,3.9-1.46,1.931-3.067,4.008-4.772,6.148-2.524,3.167-7.993,8.95-10.438,11.73C63.22,87.047,58.789,92.3,53.3,95.526l-.009.006a20.319,20.319,0,0,0-5.052,4.2c-.069.408.456,1.439,2.114,3.6L53.185,107l.108.185.014-.008c1.32,2.164,19.538,20.59,22.467,22.741l-.005.006.063.038,3.629,2.882c2.145,1.693,3.169,2.231,3.578,2.168.907-.411,3.832-4,4.343-4.833,3-5.769,8.164-10.25,13.043-14.415,2.956-2.494,9.159-7.784,12.57-10.3,2.123-1.564,4.178-3.024,6.088-4.341,3.047-2.173,3.424-2.489,3.831-2.829l3.611-3.026c2.87-2.408,4.829-4.064,5.053-4.275C145.672,77.791,154.107,64.013,161.1,45.959Zm-20.583-1.175A16.147,16.147,0,0,1,139.8,66.7a15.922,15.922,0,1,1,.156-22.517Zm-2.923,2.6-.423-.451a12.01,12.01,0,1,0-.118,16.985C141.725,59.177,141.661,52.443,137.592,47.384Zm31.184-31.643c-1.931.263-2.847.369-3.768.433a124.084,124.084,0,0,0-22.824,5.47,66.282,66.282,0,0,0,16.992,18.308c1.095.8,2.245,1.517,3.367,2.276A105.729,105.729,0,0,0,168.315,19.5C168.545,17.693,168.669,16.718,168.776,15.741Z" transform="translate(-10.075 -11.656)" fill="#fff"/>
            <path id="Path_22722" data-name="Path 22722" d="M349.454,118.529l.54.566a8.555,8.555,0,0,1,1.86,5.18,8.144,8.144,0,1,1-8.144-8.144,8.26,8.26,0,0,1,5.18,1.86Zm-2.687,2.576a4.926,4.926,0,0,0-3.058-1.241,4.411,4.411,0,1,0,4.411,4.411,4.545,4.545,0,0,0-1.007-2.806Z" transform="translate(-225.115 -80.679)" fill="#fff"/>
          </g>
        </g>
      </g>
    </g>
  </g>
</svg>
