<svg xmlns="http://www.w3.org/2000/svg" xmlns:xlink="http://www.w3.org/1999/xlink" width="51" height="60" viewBox="0 0 51 60">
  <defs>
    <clipPath id="clip-Artboard_3">
      <rect width="51" height="60"/>
    </clipPath>
  </defs>
  <g id="Artboard_3" data-name="Artboard – 3" clip-path="url(#clip-Artboard_3)">
    <path id="Path_16411" data-name="Path 16411" d="M577.505,203.082H548.878a2.109,2.109,0,0,0-2.107,2.109v18.271a2.11,2.11,0,0,0,2.107,2.109h4.753v5.058a3.928,3.928,0,0,0-1.751-.524,4.056,4.056,0,0,0-4.27,3.831v.025l-.005,9.7a15.677,15.677,0,1,0,31.354.217v-9.3a4.058,4.058,0,0,0-3.676-4.122,3.93,3.93,0,0,0-1.829.287,4.089,4.089,0,0,0-3.537-3.19,3.979,3.979,0,0,0-3.34,1.326,3.974,3.974,0,0,0-4.828-.878V225.57h15.758a2.111,2.111,0,0,0,2.106-2.108V205.191A2.11,2.11,0,0,0,577.505,203.082Zm-13.918,26.467h.007a1.984,1.984,0,0,1,1.978,1.978v4.766a1.008,1.008,0,0,0,2.015,0v-4.766a1.982,1.982,0,0,1,1.977-1.978,1.2,1.2,0,0,1,.164.008,2.077,2.077,0,0,1,1.814,2.127v4.61a1.007,1.007,0,0,0,2.015,0V233.07a1.939,1.939,0,0,1,1.559-.609,2.05,2.05,0,0,1,1.836,2.106l-.006,9.083a13.662,13.662,0,0,1-27.324,0v-9.5a2.041,2.041,0,0,1,2.041-2.043v0h.1a2.1,2.1,0,0,1,1.869,1.616V243.1a1.007,1.007,0,1,0,2.015,0V217.8a2.043,2.043,0,0,1,4.086,0V236.29a1.007,1.007,0,1,0,2.015,0V230.86A1.94,1.94,0,0,1,563.587,229.549Zm13.922-6.087H561.748v-5.652a4.058,4.058,0,0,0-8.117,0v5.652h-4.753V205.191h28.631Z" transform="translate(-537.612 -200.322)" fill="#292929"/>
  </g>
</svg>
