<svg xmlns="http://www.w3.org/2000/svg" xmlns:xlink="http://www.w3.org/1999/xlink" width="51" height="60" viewBox="0 0 51 60">
  <defs>
    <clipPath id="clip-Artboard_3">
      <rect width="51" height="60"/>
    </clipPath>
  </defs>
  <g id="Artboard_3" data-name="Artboard – 3" clip-path="url(#clip-Artboard_3)">
    <g id="files-and-folders" transform="translate(5.129 9.581)" opacity="0.95">
      <path id="Path_16131" data-name="Path 16131" d="M41.348,29.459l-2.674-1.082q-.106-.286-.237-.569l1.132-2.645a.837.837,0,0,0-.178-.922l-.619-.618,3.072-11.967a.838.838,0,0,0-.811-1.045h-4.2V6.255A.837.837,0,0,0,36,5.417H14.445L11.754.505A.837.837,0,0,0,11.019.07H.838A.838.838,0,0,0,0,.908V31.065H.021a.819.819,0,0,0,.154.513.838.838,0,0,0,.662.325H20.349v.224a.838.838,0,0,0,.523.776l2.676,1.082q.106.282.235.558L22.651,37.2a.836.836,0,0,0,.178.921l1.342,1.343a.84.84,0,0,0,.921.179l2.649-1.131c.181.086.369.164.564.236l1.072,2.671a.838.838,0,0,0,.777.526h1.9a.838.838,0,0,0,.777-.526l1.071-2.67c.2-.073.391-.152.574-.236l2.649,1.131a.838.838,0,0,0,.921-.179l1.343-1.343a.837.837,0,0,0,.178-.922l-1.132-2.645c.087-.188.166-.378.237-.568L41.348,32.9a.838.838,0,0,0,.523-.776V30.235A.837.837,0,0,0,41.348,29.459ZM10.523,1.745l2.691,4.912a.838.838,0,0,0,.734.435H35.16v3.518H5.873a.837.837,0,0,0-.811.629L1.675,24.435V1.745Zm-4,10.541H39.954L37.285,22.68a.816.816,0,0,0-.158.041l-2.654,1.133c-.187-.087-.377-.166-.567-.237l-1.072-2.672a.838.838,0,0,0-.777-.525h-1.9a.837.837,0,0,0-.777.525l-1.072,2.671c-.2.072-.383.15-.564.236l-2.649-1.13a.839.839,0,0,0-.921.178l-1.342,1.342a.838.838,0,0,0-.178.921l1.13,2.649c-.085.182-.164.369-.236.566l-2.673,1.082a.837.837,0,0,0-.522.769H1.917ZM40.2,31.561l-2.505,1.013a.839.839,0,0,0-.486.53,6.088,6.088,0,0,1-.43,1.033.837.837,0,0,0-.029.72l1.061,2.478-.542.542-2.488-1.062a.832.832,0,0,0-.734.038,5.348,5.348,0,0,1-1.018.423.837.837,0,0,0-.531.488l-1,2.5h-.769l-1-2.5a.838.838,0,0,0-.53-.488,5.3,5.3,0,0,1-1.009-.423.842.842,0,0,0-.733-.037l-2.488,1.062-.542-.542,1.062-2.488a.836.836,0,0,0-.03-.719,6.31,6.31,0,0,1-.433-1.029.839.839,0,0,0-.484-.523l-2.5-1.013V30.8l2.5-1.014a.836.836,0,0,0,.486-.528,5.321,5.321,0,0,1,.423-1.009.837.837,0,0,0,.038-.734l-1.062-2.488.542-.542,2.488,1.062a.842.842,0,0,0,.734-.038,5.288,5.288,0,0,1,1.009-.423.838.838,0,0,0,.529-.488l1-2.5h.769l1,2.5a.838.838,0,0,0,.53.488,6.081,6.081,0,0,1,1.033.431.842.842,0,0,0,.72.03l2.488-1.062.542.541L36.745,27.5a.838.838,0,0,0,.029.719,6.116,6.116,0,0,1,.431,1.034.837.837,0,0,0,.486.529L40.2,30.8Zm0,0" transform="translate(0 -0.07)" fill="#292929"/>
      <path id="Path_16132" data-name="Path 16132" d="M300.657,296.887a3.924,3.924,0,1,0,3.926,3.921A3.929,3.929,0,0,0,300.657,296.887Zm0,6.172a2.249,2.249,0,1,1,2.252-2.252A2.254,2.254,0,0,1,300.657,303.059Zm0,0" transform="translate(-269.552 -269.701)" fill="#292929"/>
    </g>
  </g>
</svg>
