<svg xmlns="http://www.w3.org/2000/svg" xmlns:xlink="http://www.w3.org/1999/xlink" width="51" height="60" viewBox="0 0 51 60">
  <defs>
    <clipPath id="clip-Artboard_3">
      <rect width="51" height="60"/>
    </clipPath>
  </defs>
  <g id="Artboard_3" data-name="Artboard – 3" clip-path="url(#clip-Artboard_3)">
    <g id="Group_8019" data-name="Group 8019" transform="translate(1 7.209)">
      <path id="Path_16134" data-name="Path 16134" d="M1.983,13.534a7.932,7.932,0,0,1,0,15.58Zm10.835,24.5L8.132,34.386a.992.992,0,0,0-1.039-.111,13.547,13.547,0,0,1-1.609.665.991.991,0,0,0-.67.819l-.726,5.9h-2.1V31.132a9.917,9.917,0,0,0,0-19.616V1.985h2.1l.733,5.891a.992.992,0,0,0,.671.819,13.678,13.678,0,0,1,1.606.666.992.992,0,0,0,1.039-.111L12.825,5.6,17.2,9.989l-3.643,4.69a.991.991,0,0,0-.111,1.039,13.6,13.6,0,0,1,.668,1.608.991.991,0,0,0,.819.67l5.9.728v6.187l-5.892.733a.992.992,0,0,0-.819.671,13.641,13.641,0,0,1-.666,1.606.992.992,0,0,0,.111,1.039l3.65,4.692Zm4.975-2.159.817-.816a1.984,1.984,0,0,0,.163-2.618h0L15.5,28.224q.156-.352.286-.684l5.283-.658a1.983,1.983,0,0,0,1.744-1.966v-6.19a1.984,1.984,0,0,0-1.741-1.964L15.78,16.1q-.13-.331-.286-.684l3.273-4.2A2,2,0,0,0,18.6,8.576L17.424,7.4,15.9,5.869,14.23,4.2a1.985,1.985,0,0,0-2.621-.163L7.4,7.317q-.353-.156-.684-.286L6.05,1.748A1.984,1.984,0,0,0,4.088,0H0V43.639H4.088A1.984,1.984,0,0,0,6.051,41.9L6.71,36.61q.331-.129.684-.286L11.6,39.6a2,2,0,0,0,2.638-.163l2.044-2.044Z" transform="translate(22.809 44.801) rotate(180)" fill="#292929"/>
      <g id="Group_7865" data-name="Group 7865" transform="translate(21.862 0)">
        <path id="Path_16126" data-name="Path 16126" d="M601.965,282.878a2.789,2.789,0,1,0-3.56-3.559h-17.29v1.859h17.29A2.789,2.789,0,0,0,601.965,282.878Zm-.931-3.563a.927.927,0,1,1-.928.925A.929.929,0,0,1,601.034,279.316Z" transform="translate(-581.116 -248.687)" fill="#292929"/>
        <path id="Path_16127" data-name="Path 16127" d="M602.759,247.74a2.789,2.789,0,1,0-3.56-3.559l-16.539-.007v1.859l16.539.007A2.789,2.789,0,0,0,602.759,247.74Zm-.932-3.562a.928.928,0,1,1-.928.925A.929.929,0,0,1,601.827,244.179Z" transform="translate(-581.909 -230.648)" fill="#292929"/>
        <path id="Path_16128" data-name="Path 16128" d="M616.47,299.076a2.789,2.789,0,0,0-2.4.211l-2.938-2.466a.929.929,0,0,0-.6-.218h-7.349v1.859h7.01l2.68,2.249a2.79,2.79,0,1,0,3.591-1.635Zm-.982,3.536a.927.927,0,1,1,.93-.925A.928.928,0,0,1,615.488,302.612Z" transform="translate(-602.667 -258.515)" fill="#292929"/>
        <path id="Path_16129" data-name="Path 16129" d="M603.189,224.347v1.863h7.351a.932.932,0,0,0,.6-.217l2.937-2.47a2.788,2.788,0,1,0-1.195-1.425l-2.681,2.249Zm11.374-3.227a.93.93,0,1,1,.933.93.929.929,0,0,1-.933-.93Z" transform="translate(-602.667 -218.333)" fill="#292929"/>
        <path id="Path_16130" data-name="Path 16130" d="M605.579,265.309a2.789,2.789,0,1,0-3.56-3.559l-19.952-.008V263.6l19.952.008A2.789,2.789,0,0,0,605.579,265.309Zm-1.86-2.637a.928.928,0,1,1,.925.93A.928.928,0,0,1,603.719,262.672Z" transform="translate(-581.605 -239.668)" fill="#292929"/>
      </g>
    </g>
  </g>
</svg>
