<svg xmlns="http://www.w3.org/2000/svg" xmlns:xlink="http://www.w3.org/1999/xlink" width="40" height="40" viewBox="0 0 40 40">
  <defs>
    <clipPath id="clip-Artboard_1">
      <rect width="40" height="40"/>
    </clipPath>
  </defs>
  <g id="Artboard_1" data-name="Artboard – 1" clip-path="url(#clip-Artboard_1)">
    <g id="connection-chart" transform="translate(0.561 -1.259)">
      <path id="path32545" d="M18.929,2.5a4.569,4.569,0,0,0-.653,9.091v2.69a7.177,7.177,0,0,0-5.025,2.762L8.732,14.167a4.532,4.532,0,0,0,.406-1.876,4.582,4.582,0,1,0-1.109,2.976l4.52,2.876a7.151,7.151,0,0,0,.546,7.463L7.561,30.385a4.572,4.572,0,1,0,.854.987l5.534-4.779a7.158,7.158,0,0,0,9.7.241l5.924,5.655a4.584,4.584,0,1,0,.9-.944L24.548,25.89a7.142,7.142,0,0,0,1.561-4.461c0-.231-.012-.46-.034-.685l2.881-.479a4.564,4.564,0,1,0-.237-1.446c0,.054,0,.108,0,.162l-2.892.481a7.2,7.2,0,0,0-6.251-5.181V11.591A4.569,4.569,0,0,0,18.929,2.5Zm0,1.305a3.264,3.264,0,1,1-3.264,3.264A3.254,3.254,0,0,1,18.929,3.805ZM4.569,9.027a3.264,3.264,0,1,1-3.264,3.264A3.254,3.254,0,0,1,4.569,9.027Zm14.36,6.527a5.875,5.875,0,1,1-5.875,5.875A5.865,5.865,0,0,1,18.929,15.555Zm14.36,0a3.264,3.264,0,1,1-3.264,3.264A3.254,3.254,0,0,1,33.289,15.555ZM4.569,30.567a3.264,3.264,0,1,1-3.264,3.264A3.254,3.254,0,0,1,4.569,30.567Zm28.72,1.305a3.264,3.264,0,1,1-3.264,3.264A3.254,3.254,0,0,1,33.289,31.873Z" fill="#fff"/>
    </g>
  </g>
</svg>
