<svg xmlns="http://www.w3.org/2000/svg" xmlns:xlink="http://www.w3.org/1999/xlink" width="40" height="40" viewBox="0 0 40 40">
  <defs>
    <clipPath id="clip-Artboard_1">
      <rect width="40" height="40"/>
    </clipPath>
  </defs>
  <g id="Artboard_1" data-name="Artboard – 1" clip-path="url(#clip-Artboard_1)">
    <g id="website" transform="translate(-8 -45.032)">
      <path id="Path_16377" data-name="Path 16377" d="M45.742,48H10.258A2.261,2.261,0,0,0,8,50.258V79.29a2.261,2.261,0,0,0,2.258,2.258H45.742A2.261,2.261,0,0,0,48,79.29V50.258A2.261,2.261,0,0,0,45.742,48Zm.968,31.29a.969.969,0,0,1-.968.968H10.258a.969.969,0,0,1-.968-.968V53.161H46.71Zm0-27.419H9.29V50.258a.969.969,0,0,1,.968-.968H45.742a.969.969,0,0,1,.968.968Z" fill="#fff"/>
      <path id="Path_16378" data-name="Path 16378" d="M32.645,73.29h.645a.645.645,0,0,0,0-1.29h-.645a.645.645,0,1,0,0,1.29Z" transform="translate(-22.065 -22.065)" fill="#fff"/>
      <path id="Path_16379" data-name="Path 16379" d="M64.645,73.29h.645a.645.645,0,0,0,0-1.29h-.645a.645.645,0,0,0,0,1.29Z" transform="translate(-51.484 -22.065)" fill="#fff"/>
      <path id="Path_16380" data-name="Path 16380" d="M96.645,73.29h.645a.645.645,0,1,0,0-1.29h-.645a.645.645,0,1,0,0,1.29Z" transform="translate(-80.903 -22.065)" fill="#fff"/>
      <path id="Path_16381" data-name="Path 16381" d="M220.839,144h-3.226A1.615,1.615,0,0,0,216,145.613v3.226a1.615,1.615,0,0,0,1.613,1.613h3.226a1.615,1.615,0,0,0,1.613-1.613v-3.226A1.615,1.615,0,0,0,220.839,144Zm.323,4.839a.323.323,0,0,1-.323.323h-3.226a.323.323,0,0,1-.323-.323v-3.226a.323.323,0,0,1,.323-.323h3.226a.323.323,0,0,1,.323.323Z" transform="translate(-191.226 -88.258)" fill="#fff"/>
      <path id="Path_16382" data-name="Path 16382" d="M220.839,240h-3.226A1.615,1.615,0,0,0,216,241.613v3.226a1.615,1.615,0,0,0,1.613,1.613h3.226a1.615,1.615,0,0,0,1.613-1.613v-3.226A1.615,1.615,0,0,0,220.839,240Zm.323,4.839a.323.323,0,0,1-.323.323h-3.226a.323.323,0,0,1-.323-.323v-3.226a.323.323,0,0,1,.323-.323h3.226a.323.323,0,0,1,.323.323Z" transform="translate(-191.226 -176.516)" fill="#fff"/>
      <path id="Path_16383" data-name="Path 16383" d="M220.839,336h-3.226A1.615,1.615,0,0,0,216,337.613v3.226a1.615,1.615,0,0,0,1.613,1.613h3.226a1.615,1.615,0,0,0,1.613-1.613v-3.226A1.615,1.615,0,0,0,220.839,336Zm.323,4.839a.323.323,0,0,1-.323.323h-3.226a.323.323,0,0,1-.323-.323v-3.226a.323.323,0,0,1,.323-.323h3.226a.323.323,0,0,1,.323.323Z" transform="translate(-191.226 -264.774)" fill="#fff"/>
      <path id="Path_16384" data-name="Path 16384" d="M316.839,144h-3.226A1.615,1.615,0,0,0,312,145.613v3.226a1.615,1.615,0,0,0,1.613,1.613h3.226a1.615,1.615,0,0,0,1.613-1.613v-3.226A1.615,1.615,0,0,0,316.839,144Zm.323,4.839a.323.323,0,0,1-.323.323h-3.226a.323.323,0,0,1-.323-.323v-3.226a.323.323,0,0,1,.323-.323h3.226a.323.323,0,0,1,.323.323Z" transform="translate(-279.484 -88.258)" fill="#fff"/>
      <path id="Path_16385" data-name="Path 16385" d="M316.839,240h-3.226A1.615,1.615,0,0,0,312,241.613v3.226a1.615,1.615,0,0,0,1.613,1.613h3.226a1.615,1.615,0,0,0,1.613-1.613v-3.226A1.615,1.615,0,0,0,316.839,240Zm.323,4.839a.323.323,0,0,1-.323.323h-3.226a.323.323,0,0,1-.323-.323v-3.226a.323.323,0,0,1,.323-.323h3.226a.323.323,0,0,1,.323.323Z" transform="translate(-279.484 -176.516)" fill="#fff"/>
      <path id="Path_16386" data-name="Path 16386" d="M316.839,336h-3.226A1.615,1.615,0,0,0,312,337.613v3.226a1.615,1.615,0,0,0,1.613,1.613h3.226a1.615,1.615,0,0,0,1.613-1.613v-3.226A1.615,1.615,0,0,0,316.839,336Zm.323,4.839a.323.323,0,0,1-.323.323h-3.226a.323.323,0,0,1-.323-.323v-3.226a.323.323,0,0,1,.323-.323h3.226a.323.323,0,0,1,.323.323Z" transform="translate(-279.484 -264.774)" fill="#fff"/>
      <path id="Path_16387" data-name="Path 16387" d="M124.839,144h-3.226A1.615,1.615,0,0,0,120,145.613v3.226a1.615,1.615,0,0,0,1.613,1.613h3.226a1.615,1.615,0,0,0,1.613-1.613v-3.226A1.615,1.615,0,0,0,124.839,144Zm.323,4.839a.323.323,0,0,1-.323.323h-3.226a.323.323,0,0,1-.323-.323v-3.226a.323.323,0,0,1,.323-.323h3.226a.323.323,0,0,1,.323.323Z" transform="translate(-102.968 -88.258)" fill="#fff"/>
      <path id="Path_16388" data-name="Path 16388" d="M124.839,240h-3.226A1.615,1.615,0,0,0,120,241.613v3.226a1.615,1.615,0,0,0,1.613,1.613h3.226a1.615,1.615,0,0,0,1.613-1.613v-3.226A1.615,1.615,0,0,0,124.839,240Zm.323,4.839a.323.323,0,0,1-.323.323h-3.226a.323.323,0,0,1-.323-.323v-3.226a.323.323,0,0,1,.323-.323h3.226a.323.323,0,0,1,.323.323Z" transform="translate(-102.968 -176.516)" fill="#fff"/>
      <path id="Path_16389" data-name="Path 16389" d="M124.839,336h-3.226A1.615,1.615,0,0,0,120,337.613v3.226a1.615,1.615,0,0,0,1.613,1.613h3.226a1.615,1.615,0,0,0,1.613-1.613v-3.226A1.615,1.615,0,0,0,124.839,336Zm.323,4.839a.323.323,0,0,1-.323.323h-3.226a.323.323,0,0,1-.323-.323v-3.226a.323.323,0,0,1,.323-.323h3.226a.323.323,0,0,1,.323.323Z" transform="translate(-102.968 -264.774)" fill="#fff"/>
    </g>
  </g>
</svg>
