<svg xmlns="http://www.w3.org/2000/svg" xmlns:xlink="http://www.w3.org/1999/xlink" width="1920" height="1080" viewBox="0 0 1920 1080">
  <defs>
    <clipPath id="clip-path">
      <rect id="Rectangle_17" data-name="Rectangle 17" width="1920" height="1080" transform="translate(-7718 3468)" fill="#5a2f2f" stroke="#707070" stroke-width="1"/>
    </clipPath>
  </defs>
  <g id="Mask_Group_10" data-name="Mask Group 10" transform="translate(7718 -3468)" clip-path="url(#clip-path)">
    <g id="assets" transform="translate(-12719.89 1312.679)">
      <g id="pattern-style1" transform="translate(-420.519 -156.876)">
        <rect id="Mask" width="7500.093" height="3135.877" transform="translate(3038.468 1133.514)" fill="#414a6b"/>
        <g id="diagonal-45-style1" transform="translate(1438.409 238.443)" opacity="0.5">
          <g id="Rectangle" transform="translate(6437.682 4790.33) rotate(180)" opacity="0.7">
            <path id="Path_401" data-name="Path 401" d="M0,6145.392l187.242-.105L190.7,0,3.461.105Z" transform="translate(0 327.029) rotate(-45)" fill="#ff5850" fill-rule="evenodd"/>
            <path id="Path_402" data-name="Path 402" d="M0,5789.632l187.242-.1L190.5,0,3.261.105Z" transform="translate(798.012 571.107) rotate(-45)" fill="#b49a85" fill-rule="evenodd"/>
            <path id="Path_403" data-name="Path 403" d="M0,6119.179l187.242-.1L190.689,0,3.447.106Z" transform="translate(1975.932 270.569) rotate(-45)" fill="#b49a85" fill-rule="evenodd"/>
            <path id="Path_404" data-name="Path 404" d="M0,6512.386l187.242-.1L190.91,0,3.668.105Z" transform="translate(795.972 134.994) rotate(-45)" fill="#50b6ff" fill-rule="evenodd"/>
            <path id="Path_405" data-name="Path 405" d="M0,5875.707l86.131-.049L89.441,0,3.31.048Z" transform="translate(478.118 451.039) rotate(-45)" fill="#f3c130" fill-rule="evenodd"/>
            <path id="Path_406" data-name="Path 406" d="M0,6119.122l86.131-.048L89.578,0,3.447.048Z" transform="translate(1322.075 310.691) rotate(-45)" fill="#ff5850" fill-rule="evenodd"/>
            <path id="Path_407" data-name="Path 407" d="M0,6014.266l86.131-.049L89.519,0,3.388.048Z" transform="translate(1561.165 351.379) rotate(-45)" fill="#f3c02f" fill-rule="evenodd"/>
            <path id="Path_408" data-name="Path 408" d="M0,6179.039l86.131-.049L89.612,0,3.48.048Z" transform="translate(1877.317 421.09) rotate(-45)" fill="#23db95" fill-rule="evenodd"/>
          </g>
        </g>
        <g id="diagonal-45-style1-2" data-name="diagonal-45-style1" transform="translate(3967.342 0)" opacity="0.5">
          <g id="Rectangle-2" data-name="Rectangle" transform="translate(6437.682 4790.33) rotate(180)" opacity="0.7">
            <path id="Path_409" data-name="Path 409" d="M0,6145.392l187.242-.105L190.7,0,3.461.105Z" transform="translate(0 327.029) rotate(-45)" fill="#ff5850" fill-rule="evenodd"/>
            <path id="Path_410" data-name="Path 410" d="M0,5789.632l187.242-.1L190.5,0,3.261.105Z" transform="translate(798.012 571.107) rotate(-45)" fill="#b49a85" fill-rule="evenodd"/>
            <path id="Path_411" data-name="Path 411" d="M0,6119.179l187.242-.1L190.689,0,3.447.106Z" transform="translate(1975.932 270.569) rotate(-45)" fill="#b49a85" fill-rule="evenodd"/>
            <path id="Path_412" data-name="Path 412" d="M0,6512.386l187.242-.1L190.91,0,3.668.105Z" transform="translate(795.972 134.994) rotate(-45)" fill="#50b6ff" fill-rule="evenodd"/>
            <path id="Path_413" data-name="Path 413" d="M0,5875.707l86.131-.049L89.441,0,3.31.048Z" transform="translate(478.118 451.039) rotate(-45)" fill="#f3c130" fill-rule="evenodd"/>
            <path id="Path_414" data-name="Path 414" d="M0,6119.122l86.131-.048L89.578,0,3.447.048Z" transform="translate(1322.075 310.691) rotate(-45)" fill="#ff5850" fill-rule="evenodd"/>
            <path id="Path_415" data-name="Path 415" d="M0,6014.266l86.131-.049L89.519,0,3.388.048Z" transform="translate(1561.165 351.379) rotate(-45)" fill="#f3c02f" fill-rule="evenodd"/>
            <path id="Path_416" data-name="Path 416" d="M0,6179.039l86.131-.049L89.612,0,3.48.048Z" transform="translate(1877.317 421.09) rotate(-45)" fill="#23db95" fill-rule="evenodd"/>
          </g>
        </g>
        <g id="diagonal-45-style1-3" data-name="diagonal-45-style1" transform="translate(6698.59 0)" opacity="0.5">
          <g id="Rectangle-3" data-name="Rectangle" transform="translate(6437.682 4790.33) rotate(180)" opacity="0.7">
            <path id="Path_417" data-name="Path 417" d="M0,6145.392l187.242-.105L190.7,0,3.461.105Z" transform="translate(0 327.029) rotate(-45)" fill="#ff5850" fill-rule="evenodd"/>
            <path id="Path_418" data-name="Path 418" d="M0,5789.632l187.242-.1L190.5,0,3.261.105Z" transform="translate(798.012 571.107) rotate(-45)" fill="#b49a85" fill-rule="evenodd"/>
            <path id="Path_419" data-name="Path 419" d="M0,6119.179l187.242-.1L190.689,0,3.447.106Z" transform="translate(1975.932 270.569) rotate(-45)" fill="#b49a85" fill-rule="evenodd"/>
            <path id="Path_420" data-name="Path 420" d="M0,6512.386l187.242-.1L190.91,0,3.668.105Z" transform="translate(795.972 134.994) rotate(-45)" fill="#50b6ff" fill-rule="evenodd"/>
            <path id="Path_421" data-name="Path 421" d="M0,5875.707l86.131-.049L89.441,0,3.31.048Z" transform="translate(478.118 451.039) rotate(-45)" fill="#f3c130" fill-rule="evenodd"/>
            <path id="Path_422" data-name="Path 422" d="M0,6119.122l86.131-.048L89.578,0,3.447.048Z" transform="translate(1322.075 310.691) rotate(-45)" fill="#ff5850" fill-rule="evenodd"/>
            <path id="Path_423" data-name="Path 423" d="M0,6014.266l86.131-.049L89.519,0,3.388.048Z" transform="translate(1561.165 351.379) rotate(-45)" fill="#f3c02f" fill-rule="evenodd"/>
            <path id="Path_424" data-name="Path 424" d="M0,6179.039l86.131-.049L89.612,0,3.48.048Z" transform="translate(1877.317 421.09) rotate(-45)" fill="#23db95" fill-rule="evenodd"/>
          </g>
        </g>
        <g id="diagonal-45-style1-4" data-name="diagonal-45-style1" transform="translate(9314.229 0)" opacity="0.5">
          <g id="Rectangle-4" data-name="Rectangle" transform="translate(6437.682 4790.33) rotate(180)" opacity="0.7">
            <path id="Path_425" data-name="Path 425" d="M0,6145.392l187.242-.105L190.7,0,3.461.105Z" transform="translate(0 327.029) rotate(-45)" fill="#ff5850" fill-rule="evenodd"/>
            <path id="Path_426" data-name="Path 426" d="M0,5789.632l187.242-.1L190.5,0,3.261.105Z" transform="translate(798.012 571.107) rotate(-45)" fill="#b49a85" fill-rule="evenodd"/>
            <path id="Path_427" data-name="Path 427" d="M0,6119.179l187.242-.1L190.689,0,3.447.106Z" transform="translate(1975.932 270.569) rotate(-45)" fill="#b49a85" fill-rule="evenodd"/>
            <path id="Path_428" data-name="Path 428" d="M0,6512.386l187.242-.1L190.91,0,3.668.105Z" transform="translate(795.972 134.994) rotate(-45)" fill="#50b6ff" fill-rule="evenodd"/>
            <path id="Path_429" data-name="Path 429" d="M0,5875.707l86.131-.049L89.441,0,3.31.048Z" transform="translate(478.118 451.039) rotate(-45)" fill="#f3c130" fill-rule="evenodd"/>
            <path id="Path_430" data-name="Path 430" d="M0,6119.122l86.131-.048L89.578,0,3.447.048Z" transform="translate(1322.075 310.691) rotate(-45)" fill="#ff5850" fill-rule="evenodd"/>
            <path id="Path_431" data-name="Path 431" d="M0,6014.266l86.131-.049L89.519,0,3.388.048Z" transform="translate(1561.165 351.379) rotate(-45)" fill="#f3c02f" fill-rule="evenodd"/>
            <path id="Path_432" data-name="Path 432" d="M0,6179.039l86.131-.049L89.612,0,3.48.048Z" transform="translate(1877.317 421.09) rotate(-45)" fill="#23db95" fill-rule="evenodd"/>
          </g>
        </g>
        <g id="diagonal-45-style1-5" data-name="diagonal-45-style1" transform="translate(0 57.804)" opacity="0.7">
          <g id="Rectangle-5" data-name="Rectangle" transform="translate(0 0)">
            <path id="Path_433" data-name="Path 433" d="M0,0,187.241.105,190.7,6145.364l-187.241-.105Z" transform="translate(4345.449 117.852) rotate(45)" fill="#ff5850" fill-rule="evenodd"/>
            <path id="Path_434" data-name="Path 434" d="M0,0,187.241.105l3.261,5789.5L3.261,5789.5Z" transform="translate(4891.901 125.335) rotate(45)" fill="#b49a85" fill-rule="evenodd"/>
            <path id="Path_435" data-name="Path 435" d="M0,0,187.241.106l3.447,6119.045-187.241-.105Z" transform="translate(6302.844 192.849) rotate(45)" fill="#b49a85" fill-rule="evenodd"/>
            <path id="Path_436" data-name="Path 436" d="M0,0,187.241.105l3.668,6512.252-187.241-.106Z" transform="translate(5400.924 50.383) rotate(45)" fill="#50b6ff" fill-rule="evenodd"/>
            <path id="Path_437" data-name="Path 437" d="M0,0,86.131.049l3.31,5875.632-86.131-.048Z" transform="translate(4632.87 184.539) rotate(45)" fill="#f3c130" fill-rule="evenodd"/>
            <path id="Path_438" data-name="Path 438" d="M0,0,86.131.048l3.447,6119.045-86.131-.048Z" transform="translate(5648.947 152.766) rotate(45)" fill="#ff5850" fill-rule="evenodd"/>
            <path id="Path_439" data-name="Path 439" d="M0,0,86.131.048l3.387,6014.19-86.131-.048Z" transform="translate(5813.894 186.223) rotate(45)" fill="#f3c02f" fill-rule="evenodd"/>
            <path id="Path_440" data-name="Path 440" d="M0,0,86.131.048l3.48,6178.962-86.131-.049Z" transform="translate(6246.557 0) rotate(45)" fill="#23db95" fill-rule="evenodd"/>
          </g>
        </g>
        <g id="diagonal-45-style1-6" data-name="diagonal-45-style1" transform="translate(2514.482 57.804)" opacity="0.7">
          <g id="Rectangle-6" data-name="Rectangle" transform="translate(0 0)">
            <path id="Path_441" data-name="Path 441" d="M0,0,187.241.105,190.7,6145.364l-187.241-.105Z" transform="translate(4345.449 117.852) rotate(45)" fill="#ff5850" fill-rule="evenodd"/>
            <path id="Path_442" data-name="Path 442" d="M0,0,187.241.105l3.261,5789.5L3.261,5789.5Z" transform="translate(4891.901 125.335) rotate(45)" fill="#b49a85" fill-rule="evenodd"/>
            <path id="Path_443" data-name="Path 443" d="M0,0,187.241.106l3.447,6119.045-187.241-.105Z" transform="translate(6302.844 192.849) rotate(45)" fill="#b49a85" fill-rule="evenodd"/>
            <path id="Path_444" data-name="Path 444" d="M0,0,187.241.105l3.668,6512.252-187.241-.106Z" transform="translate(5400.924 50.383) rotate(45)" fill="#50b6ff" fill-rule="evenodd"/>
            <path id="Path_445" data-name="Path 445" d="M0,0,86.131.049l3.31,5875.632-86.131-.048Z" transform="translate(4632.87 184.539) rotate(45)" fill="#f3c130" fill-rule="evenodd"/>
            <path id="Path_446" data-name="Path 446" d="M0,0,86.131.048l3.447,6119.045-86.131-.048Z" transform="translate(5648.947 152.766) rotate(45)" fill="#ff5850" fill-rule="evenodd"/>
            <path id="Path_447" data-name="Path 447" d="M0,0,86.131.048l3.387,6014.19-86.131-.048Z" transform="translate(5813.894 186.223) rotate(45)" fill="#f3c02f" fill-rule="evenodd"/>
            <path id="Path_448" data-name="Path 448" d="M0,0,86.131.048l3.48,6178.962-86.131-.049Z" transform="translate(6246.557 0) rotate(45)" fill="#23db95" fill-rule="evenodd"/>
          </g>
        </g>
        <g id="diagonal-45-style1-7" data-name="diagonal-45-style1" transform="translate(4833.875 187.863)" opacity="0.7">
          <g id="Rectangle-7" data-name="Rectangle" transform="translate(0 0)">
            <path id="Path_449" data-name="Path 449" d="M0,0,187.241.105,190.7,6145.364l-187.241-.105Z" transform="translate(4345.449 117.852) rotate(45)" fill="#ff5850" fill-rule="evenodd"/>
            <path id="Path_450" data-name="Path 450" d="M0,0,187.241.105l3.261,5789.5L3.261,5789.5Z" transform="translate(4891.901 125.335) rotate(45)" fill="#b49a85" fill-rule="evenodd"/>
            <path id="Path_451" data-name="Path 451" d="M0,0,187.241.106l3.447,6119.045-187.241-.105Z" transform="translate(6302.844 192.849) rotate(45)" fill="#b49a85" fill-rule="evenodd"/>
            <path id="Path_452" data-name="Path 452" d="M0,0,187.241.105l3.668,6512.252-187.241-.106Z" transform="translate(5400.924 50.383) rotate(45)" fill="#50b6ff" fill-rule="evenodd"/>
            <path id="Path_453" data-name="Path 453" d="M0,0,86.131.049l3.31,5875.632-86.131-.048Z" transform="translate(4632.87 184.539) rotate(45)" fill="#f3c130" fill-rule="evenodd"/>
            <path id="Path_454" data-name="Path 454" d="M0,0,86.131.048l3.447,6119.045-86.131-.048Z" transform="translate(5648.947 152.766) rotate(45)" fill="#ff5850" fill-rule="evenodd"/>
            <path id="Path_455" data-name="Path 455" d="M0,0,86.131.048l3.387,6014.19-86.131-.048Z" transform="translate(5813.894 186.223) rotate(45)" fill="#f3c02f" fill-rule="evenodd"/>
            <path id="Path_456" data-name="Path 456" d="M0,0,86.131.048l3.48,6178.962-86.131-.049Z" transform="translate(6246.557 0) rotate(45)" fill="#23db95" fill-rule="evenodd"/>
          </g>
        </g>
        <g id="diagonal-45-style1-8" data-name="diagonal-45-style1" transform="translate(7355.582 238.442)" opacity="0.7">
          <g id="Rectangle-8" data-name="Rectangle" transform="translate(0 0)">
            <path id="Path_457" data-name="Path 457" d="M0,0,187.241.105,190.7,6145.364l-187.241-.105Z" transform="translate(4345.449 117.852) rotate(45)" fill="#ff5850" fill-rule="evenodd"/>
            <path id="Path_458" data-name="Path 458" d="M0,0,187.241.105l3.261,5789.5L3.261,5789.5Z" transform="translate(4891.901 125.335) rotate(45)" fill="#b49a85" fill-rule="evenodd"/>
            <path id="Path_459" data-name="Path 459" d="M0,0,187.241.106l3.447,6119.045-187.241-.105Z" transform="translate(6302.844 192.849) rotate(45)" fill="#b49a85" fill-rule="evenodd"/>
            <path id="Path_460" data-name="Path 460" d="M0,0,187.241.105l3.668,6512.252-187.241-.106Z" transform="translate(5400.924 50.383) rotate(45)" fill="#50b6ff" fill-rule="evenodd"/>
            <path id="Path_461" data-name="Path 461" d="M0,0,86.131.049l3.31,5875.632-86.131-.048Z" transform="translate(4632.87 184.539) rotate(45)" fill="#f3c130" fill-rule="evenodd"/>
            <path id="Path_462" data-name="Path 462" d="M0,0,86.131.048l3.447,6119.045-86.131-.048Z" transform="translate(5648.947 152.766) rotate(45)" fill="#ff5850" fill-rule="evenodd"/>
            <path id="Path_463" data-name="Path 463" d="M0,0,86.131.048l3.387,6014.19-86.131-.048Z" transform="translate(5813.894 186.223) rotate(45)" fill="#f3c02f" fill-rule="evenodd"/>
            <path id="Path_464" data-name="Path 464" d="M0,0,86.131.048l3.48,6178.962-86.131-.049Z" transform="translate(6246.557 0) rotate(45)" fill="#23db95" fill-rule="evenodd"/>
          </g>
        </g>
      </g>
    </g>
  </g>
</svg>
