<svg xmlns="http://www.w3.org/2000/svg" xmlns:xlink="http://www.w3.org/1999/xlink" width="1456" height="5" viewBox="0 0 1456 5"><defs><clipPath id="a"><rect width="1456" height="5" transform="translate(-0.225 0)" fill="#febf00"/></clipPath><clipPath id="b"><rect width="1456" height="5" transform="translate(-0.225 3)" fill="#f8f8f8" stroke="#707070" stroke-width="1"/></clipPath></defs><g transform="translate(0.225 -3)"><g transform="translate(0 3)" clip-path="url(#a)"><g transform="translate(-162.797 -7.916)" fill="#3c435c"><path d="M 1995.016357421875 26.43656158447266 L 0.5001176595687866 26.43656158447266 L 0.5001176595687866 0.5000622868537903 L 1995.016357421875 0.5000622868537903 L 1995.016357421875 26.43656158447266 Z" stroke="none"/><path d="M 0.9998779296875 1.000062942504883 L 0.9998779296875 25.93656158447266 L 1994.51611328125 25.93656158447266 L 1994.51611328125 1.000062942504883 L 0.9998779296875 1.000062942504883 M -0.0001220703125 6.29425048828125e-05 L 1995.51611328125 6.29425048828125e-05 L 1995.51611328125 26.93656158447266 L -0.0001220703125 26.93656158447266 L -0.0001220703125 6.29425048828125e-05 Z" stroke="none" fill="#707070"/></g></g><g transform="translate(0 0)" clip-path="url(#b)"><g transform="translate(-2336.41 -1508.828)" opacity="0.999"><g transform="translate(0 0)" style="isolation:isolate"><g transform="translate(1253.496 76.434)" opacity="0.5"><g transform="translate(0 0)" opacity="0.7"><path d="M109.874,0,0,.062Z" transform="translate(3776.209 2620.51) rotate(135)" fill="#fff" fill-rule="evenodd"/><path d="M0,3397.367l109.874-.062L111.788,0,1.914.062Z" transform="translate(3309.369 2475.848) rotate(135)" fill="#fc5850" fill-rule="evenodd"/><path d="M0,3590.746l109.874-.061L111.9,0,2.023.062Z" transform="translate(2618.164 2652.205) rotate(135)" fill="#ff5850" fill-rule="evenodd"/><path d="M0,3821.481l109.874-.061L112.027,0,2.153.062Z" transform="translate(3310.567 2731.76) rotate(135)" fill="#50b6ff" fill-rule="evenodd"/><path d="M0,3447.876l50.542-.029L52.484,0,1.942.028Z" transform="translate(3497.084 2546.304) rotate(135)" fill="#fff" fill-rule="evenodd"/><path d="M0,3590.713l50.542-.028L52.565,0,2.023.028Z" transform="translate(3001.849 2628.661) rotate(135)" fill="#febf00" fill-rule="evenodd"/><path d="M0,3529.183l50.542-.029L52.53,0,1.988.028Z" transform="translate(2861.55 2604.785) rotate(135)" fill="#23db95" fill-rule="evenodd"/><path d="M0,3625.872l50.542-.029L52.584,0,2.042.028Z" transform="translate(2676.031 2563.878) rotate(135)" fill="#b49a85" fill-rule="evenodd"/></g></g><g transform="translate(0 76.434)" opacity="0.5"><g transform="translate(0 0)" opacity="0.7"><path d="M109.874,0,0,.062Z" transform="translate(3776.209 2620.51) rotate(135)" fill="#50b6ff" fill-rule="evenodd"/><path d="M0,3397.367l109.874-.062L111.788,0,1.914.062Z" transform="translate(3309.369 2475.848) rotate(135)" fill="#b49a85" fill-rule="evenodd"/><path d="M0,3590.746l109.874-.061L111.9,0,2.023.062Z" transform="translate(2618.164 2652.205) rotate(135)" fill="#50b6ff" fill-rule="evenodd"/><path d="M0,3821.481l109.874-.061L112.027,0,2.153.062Z" transform="translate(3310.567 2731.76) rotate(135)" fill="#50b6ff" fill-rule="evenodd"/><path d="M0,3447.876l50.542-.029L52.484,0,1.942.028Z" transform="translate(3497.084 2546.304) rotate(135)" fill="#50b6ff" fill-rule="evenodd"/><path d="M0,3590.713l50.542-.028L52.565,0,2.023.028Z" transform="translate(3001.849 2628.661) rotate(135)" fill="#50b6ff" fill-rule="evenodd"/><path d="M0,3529.183l50.542-.029L52.53,0,1.988.028Z" transform="translate(2861.55 2604.785) rotate(135)" fill="#50b6ff" fill-rule="evenodd"/><path d="M0,3625.872l50.542-.029L52.584,0,2.042.028Z" transform="translate(2676.031 2563.878) rotate(135)" fill="#50b6ff" fill-rule="evenodd"/></g></g><g transform="translate(1222.96 76.434)" opacity="0.697"><g transform="translate(0 0)"><path d="M109.874.062,0,0Z" transform="translate(0.044 2620.466) rotate(45)" fill="#fff" fill-rule="evenodd"/><path d="M0,0,109.874.061l1.914,3397.306-109.874-.062Z" transform="translate(2869.141 73.546) rotate(45)" fill="#23db95" fill-rule="evenodd"/><path d="M0,0,109.874.061,111.9,3590.746l-109.874-.062Z" transform="translate(3697.085 113.164) rotate(45)" fill="#23db95" fill-rule="evenodd"/><path d="M0,0,109.874.061l2.152,3821.42-109.874-.062Z" transform="translate(3167.837 29.565) rotate(45)" fill="#b49a85" fill-rule="evenodd"/><path d="M0,0,50.542.029l1.942,3447.847-50.542-.028Z" transform="translate(2717.141 108.288) rotate(45)" fill="#f3c02f" fill-rule="evenodd"/><path d="M0,0,50.542.028l2.022,3590.684-50.542-.028Z" transform="translate(3313.377 89.643) rotate(45)" fill="#50b6ff" fill-rule="evenodd"/><path d="M0,0,50.542.029,52.53,3529.183l-50.542-.029Z" transform="translate(3410.168 109.276) rotate(45)" fill="#fc5850" fill-rule="evenodd"/><path d="M0,0,50.542.029l2.042,3625.843-50.542-.028Z" transform="translate(3664.056 0) rotate(45)" fill="#febf00" fill-rule="evenodd"/></g></g><g transform="translate(1098.52 0)" opacity="0.701"><g transform="translate(0 0)"><path d="M0,0,109.874.062l1.914,3397.306-109.874-.062Z" transform="translate(2403.499 43.982) rotate(45)" fill="#fff" fill-rule="evenodd"/><path d="M0,0,109.874.062l1.914,3397.306-109.874-.062Z" transform="translate(3276.695 926.268) rotate(45)" fill="#50b6ff" fill-rule="evenodd"/><path d="M0,0,109.874.062l2.152,3821.419-109.874-.062Z" transform="translate(2702.195 0) rotate(45)" fill="#50b6ff" fill-rule="evenodd"/><path d="M0,0,109.874.062l2.152,3821.419-109.874-.062Z" transform="translate(3619.392 882.285) rotate(45)" fill="#fff" fill-rule="evenodd" opacity="0.66"/><path d="M0,0,50.542.029l2.022,3590.683-50.542-.028Z" transform="translate(2847.736 60.078) rotate(45)" fill="#ff5850" fill-rule="evenodd"/><path d="M0,0,50.542.029l2.022,3590.683-50.542-.028Z" transform="translate(3764.932 942.364) rotate(45)" fill="#fff" fill-rule="evenodd" opacity="0.66"/></g></g></g></g><path d="M0,0,109.874.062l1.914,3397.306-109.874-.062Z" transform="translate(2038.805 -582.561) rotate(45)" fill="#4b9fdf" fill-rule="evenodd"/></g></g></svg>