<?xml version="1.0" encoding="utf-8"?>
<!-- Generator: Adobe Illustrator 26.1.0, SVG Export Plug-In . SVG Version: 6.00 Build 0)  -->
<svg version="1.1" id="Layer_1" xmlns="http://www.w3.org/2000/svg" xmlns:xlink="http://www.w3.org/1999/xlink" x="0px" y="0px"
	 width="55.7px" height="55.7px" viewBox="0 0 55.7 55.7" style="enable-background:new 0 0 55.7 55.7;" xml:space="preserve">
<style type="text/css">
	.st0{fill:#717980;}
</style>
<path class="st0" d="M47.7,1.4c1.8,0,3.3,1.5,3.3,3.3v0.8c0,0.5-0.4,0.8-0.8,0.8c-0.5,0-0.8-0.4-0.8-0.8V4.7c0-0.9-0.7-1.7-1.7-1.7
	H8c-0.9,0-1.7,0.7-1.7,1.7v0.8C6.4,6,6,6.4,5.5,6.4C5.1,6.4,4.7,6,4.7,5.6V4.7c0-1.8,1.5-3.3,3.3-3.3H47.7z M3.1,13
	c0-1.8,1.5-3.3,3.3-3.3h42.9c1.8,0,3.3,1.5,3.3,3.3v0.8c0,0.5-0.4,0.8-0.8,0.8S51,14.3,51,13.8V13c0-0.9-0.7-1.7-1.7-1.7H6.4
	c-0.9,0-1.7,0.7-1.7,1.7v0.8c0,0.5-0.4,0.8-0.8,0.8s-0.8-0.4-0.8-0.8V13z M30.5,39.5c-0.8,0.5-1.7,0.8-2.7,0.8c-1,0-1.9-0.3-2.7-0.8
	c-0.8-0.5-1.5-1.4-1.5-2.5s0.6-2,1.5-2.5c0.8-0.5,1.7-0.8,2.7-0.8c1,0,1.9,0.3,2.7,0.8c0.7,0.5,1.5,1.4,1.5,2.5S31.2,39,30.5,39.5z
	 M27.8,38.6c1.4,0,2.5-0.7,2.5-1.7c0-0.9-1.1-1.7-2.5-1.7c-1.4,0-2.5,0.7-2.5,1.7C25.4,37.8,26.5,38.6,27.8,38.6z M46,36.5
	c0,7.5-8.1,13.6-18.2,13.6S9.7,44,9.7,36.5s8.1-13.6,18.2-13.6S46,29,46,36.5z M39.7,28.2c-3-2.2-7.2-3.7-11.9-3.7s-9,1.4-11.9,3.7
	c-3,2.2-4.7,5.2-4.7,8.3s1.7,6.1,4.7,8.3c2.9,2.2,7.2,3.7,11.9,3.7s8.9-1.4,11.9-3.7c3-2.2,4.7-5.2,4.7-8.3S42.7,30.4,39.7,28.2z
	 M1.9,23.4c-0.3-2.9,2-5.4,4.9-5.4h42.1c2.9,0,5.2,2.5,4.9,5.4l-2.5,26.4c-0.2,2.5-2.4,4.5-4.9,4.5H9.3c-2.6,0-4.7-1.9-4.9-4.5
	L1.9,23.4z M6.8,19.6c-1.9,0-3.5,1.7-3.3,3.6L6,49.6c0.2,1.7,1.6,3,3.3,3h37.1c1.7,0,3.1-1.3,3.3-3l2.5-26.4
	c0.2-1.9-1.3-3.6-3.3-3.6H6.8z"/>
</svg>
