<?xml version="1.0" encoding="utf-8"?>
<!-- Generator: Adobe Illustrator 26.1.0, SVG Export Plug-In . SVG Version: 6.00 Build 0)  -->
<svg version="1.1" id="Layer_1" xmlns="http://www.w3.org/2000/svg" xmlns:xlink="http://www.w3.org/1999/xlink" x="0px" y="0px"
	 width="55.7px" height="55.7px" viewBox="0 0 55.7 55.7" style="enable-background:new 0 0 55.7 55.7;" xml:space="preserve">
<style type="text/css">
	.st0{fill:#717980;}
</style>
<path class="st0" d="M27.8,11.8c-5.1,0-9.3,4.2-9.3,9.3c0,5.1,4.2,9.3,9.2,9.3s9.3-4.2,9.3-9.3C37.1,15.9,33,11.8,27.8,11.8z
	 M27.8,28.7c-4.2,0-7.6-3.4-7.6-7.6s3.4-7.6,7.6-7.6s7.6,3.4,7.6,7.6S32,28.7,27.8,28.7z M48.2,21.1c0-1.7-1.8-3.2-2.3-4.8
	c-0.4-1.7,0.4-3.9-0.5-5.3c-0.9-1.5-3.2-1.9-4.4-3.1c-1.2-1.2-1.6-3.5-3.1-4.4c-0.6-0.3-1.2-0.4-1.9-0.4c-0.7,0-1.4,0.1-2.1,0.1
	c-0.5,0-0.9,0-1.3-0.1c-1.6-0.4-3.1-2.3-4.8-2.3c-1.7,0-3.2,1.8-4.8,2.3c-0.4,0.1-0.8,0.1-1.3,0.1c-0.7,0-1.4-0.1-2.1-0.1
	c-0.7,0-1.4,0.1-1.9,0.4c-1.6,0.9-1.9,3.2-3.1,4.4c-1.2,1.2-3.5,1.6-4.4,3.1c-0.8,1.5,0,3.7-0.5,5.3c-0.4,1.6-2.3,3.1-2.3,4.8
	c0,1.7,1.8,3.2,2.3,4.8c0.4,1.7-0.4,3.9,0.5,5.3c0.9,1.5,3.2,1.8,4.4,3.1c1.2,1.2,1.6,3.5,3.1,4.4c0.6,0.3,1.2,0.4,1.9,0.4
	c0.7,0,1.4-0.1,2.1-0.1c0.5,0,0.9,0,1.3,0.1c1.6,0.4,3.1,2.3,4.8,2.3c1.7,0,3.2-1.8,4.8-2.3C33.1,39,33.5,39,34,39
	c0.7,0,1.4,0.1,2.1,0.1c0.7,0,1.4-0.1,1.9-0.4c1.5-0.9,1.9-3.2,3.1-4.4s3.5-1.6,4.4-3.1c0.8-1.5,0-3.7,0.5-5.3
	C46.3,24.3,48.2,22.8,48.2,21.1z M45.5,23c-0.5,0.7-1,1.6-1.3,2.5c-0.3,1-0.2,2-0.2,2.9c0,0.8,0.1,1.6-0.1,2c-0.2,0.4-1,0.8-1.7,1.1
	c-0.8,0.4-1.7,0.9-2.4,1.6c-0.7,0.7-1.2,1.6-1.6,2.4c-0.4,0.7-0.7,1.5-1.1,1.7c-0.2,0.1-0.5,0.2-1.1,0.2c-0.3,0-0.6,0-1,0
	c-0.4,0-0.8,0-1.2,0c-0.7,0-1.2,0.1-1.7,0.2c-0.9,0.3-1.8,0.8-2.5,1.3c-0.7,0.5-1.4,0.9-1.9,0.9c-0.5,0-1.2-0.5-1.9-0.9
	c-0.7-0.5-1.6-1-2.5-1.3c-0.5-0.1-1.1-0.2-1.7-0.2c-0.4,0-0.8,0-1.2,0c-0.3,0-0.6,0-1,0c-0.5,0-0.9-0.1-1.1-0.2
	c-0.4-0.2-0.8-1-1.1-1.7c-0.4-0.8-0.9-1.7-1.6-2.4c-0.7-0.7-1.6-1.2-2.4-1.6c-0.7-0.4-1.5-0.7-1.7-1.1c-0.2-0.4-0.2-1.2-0.1-2
	c0-0.9,0.1-1.9-0.2-2.9c-0.3-1-0.8-1.8-1.3-2.5c-0.5-0.7-0.9-1.4-0.9-1.9c0-0.5,0.5-1.2,0.9-1.9c0.5-0.7,1-1.6,1.3-2.5
	c0.3-1,0.2-2,0.2-2.9c0-0.8-0.1-1.6,0.1-2.1c0.2-0.4,1-0.8,1.7-1.1c0.8-0.3,1.7-0.8,2.4-1.5c0.7-0.7,1.2-1.6,1.6-2.4
	c0.4-0.7,0.7-1.5,1.1-1.7c0.2-0.1,0.5-0.2,1.1-0.2c0.3,0,0.6,0,1,0c0.4,0,0.8,0,1.2,0c0.7,0,1.2-0.1,1.7-0.2c1-0.3,1.8-0.8,2.5-1.3
	c0.7-0.5,1.4-0.9,1.9-0.9c0.5,0,1.2,0.5,1.9,0.9c0.7,0.5,1.6,1,2.5,1.3c0.5,0.1,1.1,0.2,1.7,0.2c0.4,0,0.8,0,1.2,0c0.3,0,0.6,0,1,0
	c0.5,0,0.9,0.1,1.1,0.2c0.4,0.2,0.8,1,1.1,1.7c0.4,0.8,0.9,1.7,1.6,2.4c0.7,0.7,1.6,1.2,2.4,1.6c0.7,0.4,1.5,0.7,1.7,1.1
	c0.2,0.4,0.2,1.2,0.1,2c0,0.9-0.1,1.9,0.2,2.9c0.3,0.9,0.8,1.8,1.3,2.5c0.5,0.7,0.9,1.4,0.9,1.9C46.5,21.6,46,22.3,45.5,23z
	 M37.8,41.4c-0.5,0.1-0.8,0.5-0.7,1l2.2,10.9l-11.2-5.8c-0.2-0.1-0.5-0.1-0.8,0l-11.1,5.8l2.2-10.8c0.1-0.5-0.2-0.9-0.7-1
	c-0.5-0.1-0.9,0.2-1,0.7l-2.2,10.8c-0.1,0.6,0.1,1.3,0.6,1.7c0.5,0.4,1.2,0.5,1.8,0.2l10.8-5.6l10.8,5.7c0.2,0.1,0.5,0.2,0.7,0.2
	c0.4,0,0.7-0.1,1-0.4c0.5-0.4,0.7-1,0.6-1.7l-2.2-10.8C38.7,41.6,38.3,41.3,37.8,41.4z"/>
</svg>
