<?xml version="1.0" encoding="utf-8"?>
<!-- Generator: Adobe Illustrator 26.1.0, SVG Export Plug-In . SVG Version: 6.00 Build 0)  -->
<svg version="1.1" id="Layer_1" xmlns="http://www.w3.org/2000/svg" xmlns:xlink="http://www.w3.org/1999/xlink" x="0px" y="0px"
	 width="55.7px" height="55.7px" viewBox="0 0 55.7 55.7" style="enable-background:new 0 0 55.7 55.7;" xml:space="preserve">
<style type="text/css">
	.st0{fill:#717980;}
</style>
<path class="st0" d="M40.2,22.9h6.6c0.5,0,0.8,0.4,0.8,0.8c0,0.5-0.4,0.8-0.8,0.8H32c-0.5,0-0.8-0.4-0.8-0.8c0-0.5,0.4-0.8,0.8-0.8
	h6.6V3.4l-5.5,2.1C32.7,5.7,32.2,5.4,32,5c-0.2-0.4,0.1-0.9,0.5-1.1l6.6-2.5c0.2-0.1,0.5-0.1,0.8,0.1c0.2,0.2,0.4,0.4,0.4,0.7V22.9z
	 M17.1,52.6h6.6c0.5,0,0.8,0.4,0.8,0.8c0,0.5-0.4,0.8-0.8,0.8H8.9c-0.5,0-0.8-0.4-0.8-0.8c0-0.5,0.4-0.8,0.8-0.8h6.6V33.2L10,35.2
	c-0.4,0.2-0.9-0.1-1.1-0.5c-0.2-0.4,0.1-0.9,0.5-1.1l6.6-2.5c0.3-0.1,0.5-0.1,0.8,0.1c0.2,0.2,0.4,0.4,0.4,0.7V52.6z M9.7,8
	c0-3.6,3-6.6,6.6-6.6h3.3c3.6,0,6.6,3,6.6,6.6v9.9c0,3.6-3,6.6-6.6,6.6h-3.3c-3.6,0-6.6-3-6.6-6.6V8z M16.3,3.1c-2.7,0-5,2.2-5,5
	v9.9c0,2.7,2.2,5,5,5h3.3c2.7,0,5-2.2,5-5V8c0-2.7-2.2-5-5-5H16.3z M39.4,31.1c3.6,0,6.6,3,6.6,6.6v9.9c0,3.6-3,6.6-6.6,6.6h-3.3
	c-3.6,0-6.6-3-6.6-6.6v-9.9c0-3.6,3-6.6,6.6-6.6H39.4z M31.1,47.7c0,2.7,2.2,5,5,5h3.3c2.7,0,5-2.2,5-5v-9.9c0-2.7-2.2-5-5-5h-3.3
	c-2.7,0-5,2.2-5,5V47.7z"/>
</svg>
