<?xml version="1.0" encoding="utf-8"?>
<!-- Generator: Adobe Illustrator 26.1.0, SVG Export Plug-In . SVG Version: 6.00 Build 0)  -->
<svg version="1.1" id="Layer_1" xmlns="http://www.w3.org/2000/svg" xmlns:xlink="http://www.w3.org/1999/xlink" x="0px" y="0px"
	 width="55.7px" height="55.7px" viewBox="0 0 55.7 55.7" style="enable-background:new 0 0 55.7 55.7;" xml:space="preserve">
<style type="text/css">
	.st0{fill:#717980;}
</style>
<path class="st0" d="M27.8,54.3c-12.8,0-23.1-3.7-23.1-8.3V9.7c0-4.6,10.4-8.3,23.1-8.3S51,5.1,51,9.7V46
	C51,50.6,40.6,54.3,27.8,54.3z M49.3,46v-9.3c-1.9,1.2-4.6,2.3-7.7,3c-3.9,1-8.7,1.5-13.8,1.5S18,40.7,14,39.7
	c-3.1-0.8-5.7-1.8-7.7-3V46c0,0.5,0.3,1,1.2,2c1,0.8,2.5,1.6,4.4,2.3c4,1.4,9.5,2.3,15.8,2.3s11.8-0.9,15.8-2.3
	c2-0.7,3.5-1.5,4.4-2.3C49.1,47,49.3,46.5,49.3,46z M41.7,24.9c-3.9,1-8.7,1.5-13.8,1.5S18,25.8,14,24.9c-3.1-0.8-5.7-1.8-7.7-3
	v12.8c1.7,1.4,4.4,2.6,8.1,3.4c3.8,0.9,8.4,1.5,13.4,1.5s9.6-0.5,13.4-1.5c3.6-0.9,6.4-2.1,8.1-3.4V21.8
	C47.4,23.1,44.7,24.1,41.7,24.9L41.7,24.9z M49.3,19.8V9.7c0-0.5-0.3-1.1-1.2-2c-1-0.8-2.5-1.6-4.4-2.3c-4-1.4-9.5-2.3-15.8-2.3
	S16,4,12.1,5.4c-2,0.7-3.5,1.5-4.4,2.3c-1,0.8-1.2,1.5-1.2,2v10.1c1.7,1.4,4.4,2.6,8.1,3.4c3.8,0.9,8.4,1.5,13.4,1.5
	s9.6-0.5,13.4-1.5C44.9,22.4,47.6,21.2,49.3,19.8z"/>
</svg>
