<svg xmlns="http://www.w3.org/2000/svg" xmlns:xlink="http://www.w3.org/1999/xlink" width="2000" height="1000" viewBox="0 0 2000 1000">
  <defs>
    <filter id="Ellipse_736" x="757.5" y="261.5" width="478" height="478" filterUnits="userSpaceOnUse">
      <feOffset input="SourceAlpha"/>
      <feGaussianBlur stdDeviation="33" result="blur"/>
      <feFlood flood-opacity="0.161"/>
      <feComposite operator="in" in2="blur"/>
      <feComposite in="SourceGraphic"/>
    </filter>
  </defs>
  <g id="Group_8010" data-name="Group 8010" transform="translate(5453 -3568.5)">
    <line id="Line_76" data-name="Line 76" y1="1000" transform="translate(-4453.5 3568.5)" fill="none" stroke="#ddd" stroke-width="1"/>
    <g id="Group_8009" data-name="Group 8009" transform="translate(0.5 150)">
      <line id="Line_77" data-name="Line 77" x2="2000" transform="translate(-5453.5 3913.5)" fill="none" stroke="#ddd" stroke-width="1"/>
      <g id="Group_8008" data-name="Group 8008" transform="translate(-5137 -1419)">
        <g transform="matrix(1, 0, 0, 1, -316.5, 4837.5)" filter="url(#Ellipse_736)">
          <circle id="Ellipse_736-2" data-name="Ellipse 736" cx="140" cy="140" r="140" transform="translate(856.5 360.5)" fill="#3c435c"/>
        </g>
        <path id="Path_16405" data-name="Path 16405" d="M63.267,13h-14V48h14c9.65,0,17-7.6,17-17.5S72.917,13,63.267,13Zm0,27.3h-6V20.7h6c5.5,0,9.3,3.8,9.3,9.8S68.767,40.3,63.267,40.3Zm39.4-17.3v2.35a9.391,9.391,0,0,0-7.45-3.05c-6.55,0-11.95,5.75-11.95,13.2s5.4,13.2,11.95,13.2a9.391,9.391,0,0,0,7.45-3.05V48h7.5V23Zm-5.95,18.6a5.709,5.709,0,0,1-5.95-6.1,5.952,5.952,0,1,1,11.9,0A5.709,5.709,0,0,1,96.717,41.6Zm33.6-11.4V23h-5.15V16l-7.5,2.25V23h-4v7.2h4v8.85c0,7,2.85,9.95,12.65,8.95V41.2c-3.3.2-5.15,0-5.15-2.15V30.2Zm21.9-7.2v2.35a9.391,9.391,0,0,0-7.45-3.05c-6.55,0-11.95,5.75-11.95,13.2s5.4,13.2,11.95,13.2a9.391,9.391,0,0,0,7.45-3.05V48h7.5V23Zm-5.95,18.6a5.709,5.709,0,0,1-5.95-6.1,5.952,5.952,0,1,1,11.9,0A5.709,5.709,0,0,1,146.267,41.6Zm35.9,7.1a18.044,18.044,0,0,0,18.2-18.2,18.2,18.2,0,1,0-36.4,0A18.044,18.044,0,0,0,182.167,48.7Zm0-7.8a9.955,9.955,0,0,1-10.2-10.4,10.2,10.2,0,1,1,20.4,0A9.955,9.955,0,0,1,182.167,40.9Zm33.7,7.8c7.6,0,13-4,13-10.75,0-7.4-5.95-9.25-11.25-10.85-5.45-1.65-6.3-2.75-6.3-4.35,0-1.4,1.25-2.65,3.75-2.65,3.2,0,4.85,1.55,6.05,4.05l6.75-3.95a13.575,13.575,0,0,0-12.8-7.9c-6.05,0-11.75,3.9-11.75,10.65,0,6.7,5.1,9.2,10.3,10.65,5.25,1.45,7.25,2.3,7.25,4.45,0,1.35-.95,2.85-4.75,2.85a7.331,7.331,0,0,1-7.35-4.85l-6.9,4C203.817,45.2,208.517,48.7,215.867,48.7ZM241.3,10.235a10.558,10.558,0,1,0,10.558,10.558A10.555,10.555,0,0,0,241.3,10.235Zm0,20.066a9.509,9.509,0,1,1,9.391-9.508A9.448,9.448,0,0,1,241.3,30.3Zm4.637-11.287c0-2.246-2.042-3.616-4.2-3.616h-4.666V26.188h3.558V23.213h.817l1.4,2.975h3.821L244.45,22.25A4.039,4.039,0,0,0,245.937,19.013Zm-5.308-.408h.729c.612,0,1.021.2,1.021.846,0,.5-.408.846-1.021.846h-.729Z" transform="translate(534 5304)" fill="#febf00"/>
      </g>
    </g>
  </g>
</svg>
