<?xml version="1.0" encoding="utf-8"?>
<!-- Generator: Adobe Illustrator 26.1.0, SVG Export Plug-In . SVG Version: 6.00 Build 0)  -->
<svg version="1.1" id="Layer_1" xmlns="http://www.w3.org/2000/svg" xmlns:xlink="http://www.w3.org/1999/xlink" x="0px" y="0px"
	 width="55.7px" height="55.7px" viewBox="0 0 55.7 55.7" style="enable-background:new 0 0 55.7 55.7;" xml:space="preserve">
<style type="text/css">
	.st0{fill:#717980;}
</style>
<path class="st0" d="M42.7,34.4h-6.6V21.2h6.6c4.6,0,8.3-3.7,8.3-8.3s-3.7-8.3-8.3-8.3s-8.3,3.7-8.3,8.3v6.6H21.2V13
	c0-4.6-3.7-8.3-8.3-8.3S4.7,8.4,4.7,13s3.7,8.3,8.3,8.3h6.6v13.2H13c-4.6,0-8.3,3.7-8.3,8.3S8.4,51,13,51s8.3-3.7,8.3-8.3v-6.6h13.2
	v6.6c0,4.6,3.7,8.3,8.3,8.3s8.3-3.7,8.3-8.3S47.3,34.4,42.7,34.4z M36.1,13c0-3.6,3-6.6,6.6-6.6s6.6,3,6.6,6.6s-3,6.6-6.6,6.6h-6.6
	V13z M13,19.6c-3.6,0-6.6-3-6.6-6.6s3-6.6,6.6-6.6s6.6,3,6.6,6.6v6.6H13z M19.6,42.7c0,3.6-3,6.6-6.6,6.6s-6.6-3-6.6-6.6
	s3-6.6,6.6-6.6h6.6V42.7z M21.2,34.4V21.2h13.2v13.2H21.2z M42.7,49.3c-3.6,0-6.6-3-6.6-6.6v-6.6h6.6c3.6,0,6.6,3,6.6,6.6
	S46.3,49.3,42.7,49.3z"/>
</svg>
