<svg xmlns="http://www.w3.org/2000/svg" xmlns:xlink="http://www.w3.org/1999/xlink" width="40" height="40" viewBox="0 0 40 40">
  <defs>
    <clipPath id="clip-Artboard_1">
      <rect width="40" height="40"/>
    </clipPath>
  </defs>
  <g id="Artboard_1" data-name="Artboard – 1" clip-path="url(#clip-Artboard_1)">
    <g id="dollar" transform="translate(-3.676 -4.135)">
      <path id="Path_16358" data-name="Path 16358" d="M206,143.646a4.784,4.784,0,0,0,4.779,4.779,2.867,2.867,0,1,1-2.867,2.867.956.956,0,1,0-1.912,0,4.787,4.787,0,0,0,3.823,4.683v2.008a.956.956,0,0,0,1.912,0v-2.008a4.779,4.779,0,0,0-.956-9.462,2.867,2.867,0,1,1,2.867-2.867.956.956,0,1,0,1.912,0,4.787,4.787,0,0,0-3.823-4.683v-2.008a.956.956,0,1,0-1.912,0v2.008A4.787,4.787,0,0,0,206,143.646Z" transform="translate(-186.873 -123.56)" fill="#fff"/>
      <path id="Path_16360" data-name="Path 16360" d="M82.761,64.722a.956.956,0,1,0-.442,1.86,17.373,17.373,0,0,1,13.236,16.4A17.262,17.262,0,0,1,78.734,99.8,17.262,17.262,0,0,1,61.912,82.981a17.373,17.373,0,0,1,13.236-16.4.956.956,0,1,0-.442-1.86C66.4,66.7,60,74.464,60,82.981a19.2,19.2,0,0,0,18.734,18.734A19.2,19.2,0,0,0,97.467,82.981C97.467,74.471,91.079,66.7,82.761,64.722Z" transform="translate(-54.828 -59.071)" fill="#fff"/>
      <ellipse id="Ellipse_715" data-name="Ellipse 715" cx="1.5" cy="1" rx="1.5" ry="1" transform="translate(22.676 5.135)" fill="#fff"/>
    </g>
  </g>
</svg>
