<?xml version="1.0" encoding="utf-8"?>
<!-- Generator: Adobe Illustrator 26.1.0, SVG Export Plug-In . SVG Version: 6.00 Build 0)  -->
<svg version="1.1" id="Layer_1" xmlns="http://www.w3.org/2000/svg" xmlns:xlink="http://www.w3.org/1999/xlink" x="0px" y="0px"
	 width="175px" height="175px" viewBox="0 0 175 175" style="enable-background:new 0 0 175 175;" xml:space="preserve">
<style type="text/css">
	.st0{fill:#FFFFFF;stroke:#2B333D;stroke-miterlimit:10;}
	.st1{fill:none;stroke:#2B333D;stroke-miterlimit:10;}
	.st2{fill:none;stroke:#2B333D;stroke-miterlimit:10;stroke-dasharray:8,8,8,8,8,8;}
</style>
<circle class="st0" cx="87.5" cy="87" r="5.7"/>
<path class="st1" d="M21.7,41.3C18,43.4,15,48.6,15,52.9v68.2c0,4.3,3,9.5,6.7,11.6l59.1,34.1c3.7,2.1,9.7,2.1,13.4,0l59.1-34.1
	c3.7-2.1,6.7-7.4,6.7-11.6V52.9c0-4.3-3-9.5-6.7-11.6L94.2,7.2C90.5,5,84.5,5,80.8,7.2L21.7,41.3z"/>
<polyline class="st1" points="15,45.1 87.5,87 87.5,6.2 "/>
<polyline class="st1" points="15,125.8 87.5,87 160,125.8 "/>
<line class="st1" x1="87.5" y1="87" x2="158.4" y2="46.2"/>
<line class="st2" x1="87.5" y1="170.7" x2="87.5" y2="87"/>
</svg>
