<?xml version="1.0" encoding="utf-8"?>
<!-- Generator: Adobe Illustrator 26.1.0, SVG Export Plug-In . SVG Version: 6.00 Build 0)  -->
<svg version="1.1" id="Layer_1" xmlns="http://www.w3.org/2000/svg" xmlns:xlink="http://www.w3.org/1999/xlink" x="0px" y="0px"
	 width="55.7px" height="55.7px" viewBox="0 0 55.7 55.7" style="enable-background:new 0 0 55.7 55.7;" xml:space="preserve">
<style type="text/css">
	.st0{fill:#717980;}
</style>
<path class="st0" d="M54.1,25.5c0-0.5-0.4-0.8-0.8-0.8c-0.2,0-0.4,0.1-0.6,0.2l-1.2,1.2l-22-22l1.2-1.2c0.2-0.2,0.2-0.4,0.2-0.6
	c0-0.5-0.4-0.8-0.8-0.8c-0.2,0-0.4,0.1-0.6,0.2l-14,14c-0.2,0.2-0.2,0.4-0.2,0.6c0,0.4,0.4,0.8,0.8,0.8c0.2,0,0.4-0.1,0.6-0.2
	l1.1-1.1l10.4,10.4l-7.7,7.7l1.2,1.2l7.7-7.7l10.4,10.4l-1.1,1.1c-0.2,0.2-0.2,0.4-0.2,0.6c0,0.5,0.4,0.8,0.8,0.8
	c0.2,0,0.4-0.1,0.6-0.2l14-14C54,25.9,54.1,25.7,54.1,25.5z M19,14.7l9.3-9.3l2.2,2.2l-9.3,9.3L19,14.7z M22.3,18l9.3-9.3L47,24
	l-9.3,9.3L22.3,18z M41,36.7l-2.2-2.2l9.3-9.3l2.2,2.2L41,36.7z M18.8,32.2c-0.7-0.7-1.5-1-2.3-1c-0.8,0-1.7,0.3-2.3,1L2.2,44
	c-0.6,0.6-1,1.5-1,2.3c0,0.8,0.3,1.7,1,2.3l4.7,4.7c0.6,0.7,1.5,1,2.3,1c0.8,0,1.7-0.3,2.3-1l11.8-11.8c0.6-0.6,1-1.5,1-2.3
	c0-0.8-0.3-1.7-1-2.3L18.8,32.2z M22.7,39.2c0,0.4-0.2,0.8-0.5,1.2L10.3,52.2c-0.2,0.3-0.6,0.5-1.1,0.5c-0.4,0-0.9-0.2-1.2-0.5
	l-4.7-4.7c-0.3-0.3-0.5-0.7-0.5-1.2c0-0.4,0.2-0.9,0.5-1.2l11.8-11.8c0.3-0.3,0.7-0.5,1.2-0.5c0.4,0,0.9,0.2,1.2,0.5l4.7,4.7
	C22.6,38.4,22.7,38.8,22.7,39.2z"/>
</svg>
