<?xml version="1.0" encoding="utf-8"?>
<!-- Generator: Adobe Illustrator 26.1.0, SVG Export Plug-In . SVG Version: 6.00 Build 0)  -->
<svg version="1.1" id="Layer_1" xmlns="http://www.w3.org/2000/svg" xmlns:xlink="http://www.w3.org/1999/xlink" x="0px" y="0px"
	 width="55.7px" height="55.7px" viewBox="0 0 55.7 55.7" style="enable-background:new 0 0 55.7 55.7;" xml:space="preserve">
<style type="text/css">
	.st0{fill:#717980;}
</style>
<path class="st0" d="M0.4,43.1v-9.1c0-15.2,12.3-27.4,27.4-27.4s27.4,12.3,27.4,27.4v9.1c0,3.4-2.7,6.1-6.1,6.1H6.5
	C3.1,49.2,0.4,46.4,0.4,43.1z M53.8,33.9c0-4.4-1.1-8.6-3-12.2h-6.1v13.7h9.1V33.9z M43.1,35.5V21.7H12.6v13.7h6.6
	c1.2-3.6,4.6-6.1,8.6-6.1s7.4,2.5,8.6,6.1H43.1z M37,38.5v9.1h12.2c2.5,0,4.6-2,4.6-4.6V37H36.9C36.9,37.5,37,38,37,38.5z M1.9,37
	v6.1c0,2.5,2,4.6,4.6,4.6h12.2v-9.1c0-0.5,0-1,0.1-1.5H1.9z M11.1,21.7H5v0c-1.9,3.6-3,7.8-3,12.2v1.5h9.1V21.7z M32.4,8.4v11.8
	h17.4C46,14.1,39.8,9.7,32.4,8.4z M5.9,20.2h25v-12c-1-0.1-2-0.2-3-0.2C18.6,8,10.4,12.9,5.9,20.2L5.9,20.2z M27.8,30.9
	c-4.2,0-7.6,3.4-7.6,7.6v9.1h15.2v-9.1C35.5,34.3,32.1,30.9,27.8,30.9z"/>
</svg>
