<svg xmlns="http://www.w3.org/2000/svg" width="19.477" height="16.314" viewBox="0 0 19.477 16.314">
  <g id="return" transform="translate(-7.75 -11.75)">
    <path d="M 19.06966400146484 27.93850517272949 C 18.82001304626465 27.93850517272949 18.57820320129395 27.83486557006836 18.40626335144043 27.65416526794434 C 18.23757362365723 27.47707557678223 18.1479434967041 27.24491500854492 18.1539134979248 27.00048446655273 C 18.15988349914551 26.75609397888184 18.26073265075684 26.52857398986816 18.43787384033203 26.35984420776367 L 24.27605438232422 20.82229423522949 L 8.790693283081055 20.82229423522949 C 8.285782814025879 20.82229423522949 7.875003337860107 20.41151428222656 7.875003337860107 19.9066047668457 C 7.875003337860107 19.40169525146484 8.285782814025879 18.99091529846191 8.790693283081055 18.99091529846191 L 24.25209045410156 18.99091529846191 L 18.43827247619629 13.45336532592773 C 18.26112365722656 13.28464508056641 18.1602840423584 13.05705451965332 18.1543025970459 12.81252479553223 C 18.1483325958252 12.56798458099365 18.23796272277832 12.33575439453125 18.40669250488281 12.15861511230469 C 18.5811824798584 11.97540473937988 18.81672286987305 11.87451457977295 19.06993293762207 11.87451457977295 C 19.30600357055664 11.87451457977295 19.53026390075684 11.9641752243042 19.70140266418457 12.12698459625244 L 26.59943389892578 18.69766426086426 C 26.92403221130371 19.02263450622559 27.1015625 19.45120429992676 27.1015625 19.9066047668457 C 27.1015625 20.36233520507813 26.9190731048584 20.79558563232422 26.58771324157715 21.12652397155762 L 19.70105361938477 27.6857852935791 C 19.53015327453613 27.84873580932617 19.3059024810791 27.93850517272949 19.06966400146484 27.93850517272949 Z" stroke="none"/>
    <path d="M 19.06992340087891 11.99950981140137 C 18.86100578308105 11.99952697753906 18.65248107910156 12.08178520202637 18.4972038269043 12.24481391906738 C 18.19595336914063 12.56109428405762 18.20820236206055 13.06160545349121 18.52448272705078 13.36285400390625 L 24.5645637512207 19.11591529846191 L 8.790693283081055 19.11591529846191 C 8.354232788085938 19.11591529846191 8.000003814697266 19.47014427185059 8.000003814697266 19.9066047668457 C 8.000003814697266 20.34306526184082 8.354232788085938 20.69729423522949 8.790693283081055 20.69729423522949 L 24.58947372436523 20.69729423522949 L 18.52408409118652 26.45035552978516 C 18.20781326293945 26.75160598754883 18.19555282592773 27.25172424316406 18.49681282043457 27.56799507141113 C 18.65218353271484 27.73127365112305 18.86092376708984 27.81350517272949 19.06966400146484 27.81350517272949 C 19.2657527923584 27.81350517272949 19.46184349060059 27.74115371704102 19.61484336853027 27.59527587890625 L 26.49938201904297 21.03808403015137 C 26.81170272827148 20.72615432739258 26.9765625 20.32883453369141 26.9765625 19.9066047668457 C 26.9765625 19.48398399353027 26.81170272827148 19.08705520629883 26.51321411132813 18.78817558288574 L 19.61524200439453 12.21754455566406 C 19.46200942993164 12.07176971435547 19.26579666137695 11.9994945526123 19.06992340087891 11.99950981140137 M 19.06989288330078 11.74951553344727 C 19.06991195678711 11.74951553344727 19.06991195678711 11.74951553344727 19.06991195678711 11.74951553344727 C 19.33819198608398 11.74948501586914 19.59306335449219 11.85137557983398 19.78756332397461 12.03642463684082 L 26.68564224243164 18.60715484619141 L 26.68790435791016 18.60930442810059 L 26.69010353088379 18.61151504516602 C 27.03604316711426 18.95790481567383 27.2265625 19.41784477233887 27.2265625 19.9066047668457 C 27.2265625 20.39575576782227 27.03105354309082 20.86041450500488 26.67605209350586 21.21497535705566 L 26.67395401000977 21.21706581115723 L 26.67180252075195 21.21911430358887 L 19.78726196289063 27.77630615234375 C 19.59305191040039 27.96147537231445 19.33817291259766 28.06350517272949 19.06966400146484 28.06350517272949 C 18.78594398498535 28.06350517272949 18.51113319396973 27.94571495056152 18.31570243835449 27.74033355712891 C 18.12403297424316 27.53910446166992 18.02216339111328 27.27524566650391 18.02895355224609 26.99743461608887 C 18.03573226928711 26.71966552734375 18.15034294128418 26.46108627319336 18.35165405273438 26.26933479309082 L 23.96262359619141 20.94729423522949 L 8.790693283081055 20.94729423522949 C 8.216854095458984 20.94729423522949 7.750003814697266 20.48044395446777 7.750003814697266 19.9066047668457 C 7.750003814697266 19.33276557922363 8.216854095458984 18.86591529846191 8.790693283081055 18.86591529846191 L 23.93960952758789 18.86591529846191 L 18.3520622253418 13.54388427734375 C 18.15074348449707 13.35212516784668 18.0361328125 13.09347534179688 18.02934265136719 12.81557464599609 C 18.02255249023438 12.53764533996582 18.12442398071289 12.27371406555176 18.3161735534668 12.07239532470703 C 18.5116024017334 11.86721420288086 18.78633308410645 11.74952507019043 19.06991195678711 11.74951553344727 L 19.06989288330078 11.74951553344727 Z" stroke="none"/>
  </g>
</svg>
