<?xml version="1.0" encoding="utf-8"?>
<!-- Generator: Adobe Illustrator 26.1.0, SVG Export Plug-In . SVG Version: 6.00 Build 0)  -->
<svg version="1.1" id="Layer_1" xmlns="http://www.w3.org/2000/svg" xmlns:xlink="http://www.w3.org/1999/xlink" x="0px" y="0px"
	 width="55.7px" height="55.7px" viewBox="0 0 55.7 55.7" style="enable-background:new 0 0 55.7 55.7;" xml:space="preserve">
<style type="text/css">
	.st0{fill:#717980;}
</style>
<path class="st0" d="M3.1,43.5c0,3.2,2.6,5.8,5.8,5.8h44.6c0.5,0,0.8,0.4,0.8,0.8S53.9,51,53.4,51H8.9c-4.1,0-7.4-3.3-7.4-7.4v-38
	c0-0.5,0.4-0.8,0.8-0.8c0.5,0,0.8,0.4,0.8,0.8V43.5z M35,31.7c-0.3,0.3-0.8,0.3-1.2,0l-9.3-9.3L11.9,35c-0.3,0.3-0.8,0.3-1.2,0
	c-0.3-0.3-0.3-0.8,0-1.2L24,20.6c0.3-0.3,0.8-0.3,1.2,0l9.3,9.3l15.1-15.1c0.3-0.3,0.8-0.3,1.2,0c0.3,0.3,0.3,0.8,0,1.2L35,31.7z"/>
</svg>
