<svg id="Group_84" data-name="Group 84" xmlns="http://www.w3.org/2000/svg" xmlns:xlink="http://www.w3.org/1999/xlink" width="417" height="110.142" viewBox="0 0 417 110.142">
  <defs>
    <clipPath id="clip-path">
      <path id="Path_328" data-name="Path 328" d="M216.916,255.738a37.69,37.69,0,0,1-14.845-2.9,36.16,36.16,0,0,1-19.7-19.847,39.041,39.041,0,0,1,0-29.3,36.16,36.16,0,0,1,19.7-19.847,39.459,39.459,0,0,1,29.693,0,36.161,36.161,0,0,1,19.7,19.847,39.072,39.072,0,0,1,0,29.3,36.16,36.16,0,0,1-19.7,19.847A37.7,37.7,0,0,1,216.916,255.738Z" transform="translate(-179.521 -180.949)"/>
    </clipPath>
  </defs>
  <g id="Group_78" data-name="Group 78" transform="translate(0)">
    <g id="Group_63" data-name="Group 63">
      <path id="Path_60" data-name="Path 60" d="M147.042,181.589h13.3l21.9,37.895h.8l21.9-37.895h13.4v71.59h-13.4V217.884l.8-12h-.8l-18.2,32.1h-8.1l-18.3-32.1h-.8l.8,12v35.295h-13.3Z" transform="translate(-147.042 -179.989)"/>
      <path id="Path_62" data-name="Path 62" d="M213.8,181.589H238a42.6,42.6,0,0,1,15.3,2.6,33.031,33.031,0,0,1,11.6,7.349,31.933,31.933,0,0,1,7.351,11.348,42.818,42.818,0,0,1,0,29.1,31.447,31.447,0,0,1-7.351,11.3,33.316,33.316,0,0,1-11.6,7.3,42.6,42.6,0,0,1-15.3,2.6H213.8Zm23.6,58.792a30.132,30.132,0,0,0,10.4-1.65,20.271,20.271,0,0,0,7.5-4.649,19.018,19.018,0,0,0,4.5-7.249,30.465,30.465,0,0,0,0-18.9,19.038,19.038,0,0,0-4.5-7.249,20.272,20.272,0,0,0-7.5-4.649,30.131,30.131,0,0,0-10.4-1.65H227.3v45.993Z" transform="translate(-46.927 -179.989)"/>
      <path id="Path_63" data-name="Path 63" d="M256.058,194.387v16.6h28.7v12.8h-28.7v16.6h31.9v12.8H242.562v-71.59h45.393v12.8Z" transform="translate(-3.796 -179.989)"/>
      <path id="Path_64" data-name="Path 64" d="M265.681,181.589h26.094a27.02,27.02,0,0,1,9.8,1.7,22.659,22.659,0,0,1,7.549,4.7,20.522,20.522,0,0,1,4.849,7.149,23.668,23.668,0,0,1,1.7,9.049,18.746,18.746,0,0,1-1.2,6.749,20.218,20.218,0,0,1-3.3,5.7,24.4,24.4,0,0,1-4.9,4.5,24.918,24.918,0,0,1-5.9,3.05l-.1.7,19.195,27.5v.8h-15.5l-18.5-26.9h-6.3v26.9h-13.5Zm25.994,32.3a10.528,10.528,0,0,0,7.552-2.8,9.366,9.366,0,0,0,2.947-7.1,10.887,10.887,0,0,0-.647-3.7,9.327,9.327,0,0,0-1.952-3.2,9.577,9.577,0,0,0-3.25-2.25,11.053,11.053,0,0,0-4.449-.85h-12.7v19.9Z" transform="translate(30.874 -179.989)"/>
      <path id="Path_65" data-name="Path 65" d="M290.48,181.589h15.7l28.793,47.993h.8l-.8-13.8v-34.2h13.4v71.59h-14.2l-30.393-50.693h-.8l.8,13.8v36.895h-13.3Z" transform="translate(68.063 -179.989)"/>
      <path id="Path_400" data-name="Path 400" d="M6.5-5.576H.042v-1.68H14.9v1.68H8.441V11.117H6.5Zm27.007-1.68V11.117H31.59V2.639h-11.5v8.478H18.152V-7.256h1.942V.933h11.5V-7.256ZM52.639,9.437v1.68H39.648V-7.256h12.6v1.68H41.59V.96h9.5V2.613h-9.5V9.437ZM83.479-7.256V11.117H81.615v-14.7L74.4,8.781h-.919L66.261-3.5V11.117H64.4V-7.256H66L73.978,6.366l7.9-13.622Zm14.173,18.53a10.089,10.089,0,0,1-4.947-1.22A8.914,8.914,0,0,1,89.24,6.707a9.266,9.266,0,0,1-1.247-4.777A9.266,9.266,0,0,1,89.24-2.846,8.914,8.914,0,0,1,92.7-6.193a10.089,10.089,0,0,1,4.947-1.22,10.027,10.027,0,0,1,4.921,1.207,8.935,8.935,0,0,1,3.451,3.346,9.261,9.261,0,0,1,1.26,4.79,9.261,9.261,0,0,1-1.26,4.79,8.935,8.935,0,0,1-3.451,3.346A10.027,10.027,0,0,1,97.652,11.274Zm0-1.732a7.921,7.921,0,0,0,3.937-.984,7.123,7.123,0,0,0,2.756-2.73,7.715,7.715,0,0,0,1-3.9,7.715,7.715,0,0,0-1-3.9,7.123,7.123,0,0,0-2.756-2.73,7.921,7.921,0,0,0-3.937-.984A8,8,0,0,0,93.7-4.7a7.191,7.191,0,0,0-2.782,2.73,7.637,7.637,0,0,0-1.01,3.9,7.637,7.637,0,0,0,1.01,3.9A7.191,7.191,0,0,0,93.7,8.558,8,8,0,0,0,97.652,9.542ZM111.8-7.256h7.48a10.931,10.931,0,0,1,5.144,1.168,8.522,8.522,0,0,1,3.464,3.255,9.182,9.182,0,0,1,1.234,4.764,9.182,9.182,0,0,1-1.234,4.764,8.522,8.522,0,0,1-3.464,3.255,10.931,10.931,0,0,1-5.144,1.168H111.8Zm7.375,16.693a8.909,8.909,0,0,0,4.226-.958,6.959,6.959,0,0,0,2.808-2.651,7.533,7.533,0,0,0,1-3.9,7.533,7.533,0,0,0-1-3.9A6.959,6.959,0,0,0,123.4-4.618a8.909,8.909,0,0,0-4.226-.958h-5.433V9.437Zm27.454,0v1.68H133.635V-7.256h12.6v1.68H135.577V.96h9.5V2.613h-9.5V9.437Zm17.27,1.68-4.2-5.905a13.308,13.308,0,0,1-1.47.079h-4.934v5.827h-1.942V-7.256h6.877a8.3,8.3,0,0,1,5.512,1.68,5.716,5.716,0,0,1,1.995,4.619,5.972,5.972,0,0,1-1.089,3.635,6.034,6.034,0,0,1-3.11,2.139l4.488,6.3Zm-5.722-7.48a6.347,6.347,0,0,0,4.173-1.207,4.171,4.171,0,0,0,1.444-3.386,4.193,4.193,0,0,0-1.444-3.425,6.4,6.4,0,0,0-4.173-1.194h-4.882V3.637ZM185.839-7.256V11.117h-1.6L172.427-3.791V11.117h-1.942V-7.256h1.6L183.923,7.652V-7.256Zm13.176,0h7.48a10.931,10.931,0,0,1,5.144,1.168A8.522,8.522,0,0,1,215.1-2.833a9.182,9.182,0,0,1,1.234,4.764A9.182,9.182,0,0,1,215.1,6.694a8.522,8.522,0,0,1-3.465,3.255,10.931,10.931,0,0,1-5.144,1.168h-7.48ZM206.39,9.437a8.909,8.909,0,0,0,4.226-.958,6.959,6.959,0,0,0,2.808-2.651,7.534,7.534,0,0,0,1-3.9,7.534,7.534,0,0,0-1-3.9,6.959,6.959,0,0,0-2.808-2.651,8.909,8.909,0,0,0-4.226-.958h-5.433V9.437Zm25.721-3.228H221.875l-2.2,4.908h-2.021l8.4-18.372h1.916l8.4,18.372h-2.047ZM231.4,4.634l-4.409-9.869-4.409,9.869Zm10.813-10.21h-6.457v-1.68h14.855v1.68h-6.457V11.117h-1.942ZM264.473,6.209H254.237l-2.2,4.908h-2.021l8.4-18.372h1.916l8.4,18.372h-2.047Zm-.709-1.575-4.409-9.869-4.409,9.869Zm23.175,6.64a10.027,10.027,0,0,1-4.921-1.207,8.842,8.842,0,0,1-3.438-3.346,9.337,9.337,0,0,1-1.247-4.79,9.337,9.337,0,0,1,1.247-4.79,8.817,8.817,0,0,1,3.451-3.346,10.1,10.1,0,0,1,4.934-1.207,10.222,10.222,0,0,1,3.779.682,7.833,7.833,0,0,1,2.94,1.995L292.451-3.5a7.318,7.318,0,0,0-5.433-2.178,7.985,7.985,0,0,0-3.963,1,7.288,7.288,0,0,0-2.8,2.73,7.566,7.566,0,0,0-1.01,3.884,7.566,7.566,0,0,0,1.01,3.884,7.288,7.288,0,0,0,2.8,2.73,7.985,7.985,0,0,0,3.963,1,7.219,7.219,0,0,0,5.433-2.2l1.234,1.234a7.945,7.945,0,0,1-2.953,2.008A10.153,10.153,0,0,1,286.939,11.274Zm18.687,0a10.089,10.089,0,0,1-4.947-1.22,8.914,8.914,0,0,1-3.464-3.346,9.266,9.266,0,0,1-1.247-4.777,9.266,9.266,0,0,1,1.247-4.777,8.914,8.914,0,0,1,3.464-3.346,10.089,10.089,0,0,1,4.947-1.22,10.027,10.027,0,0,1,4.921,1.207A8.935,8.935,0,0,1,314-2.859a9.261,9.261,0,0,1,1.26,4.79A9.261,9.261,0,0,1,314,6.721a8.935,8.935,0,0,1-3.451,3.346A10.027,10.027,0,0,1,305.627,11.274Zm0-1.732a7.921,7.921,0,0,0,3.937-.984,7.123,7.123,0,0,0,2.756-2.73,7.715,7.715,0,0,0,1-3.9,7.715,7.715,0,0,0-1-3.9,7.123,7.123,0,0,0-2.756-2.73,7.921,7.921,0,0,0-3.937-.984,8,8,0,0,0-3.95.984,7.191,7.191,0,0,0-2.782,2.73,7.637,7.637,0,0,0-1.01,3.9,7.637,7.637,0,0,0,1.01,3.9,7.191,7.191,0,0,0,2.782,2.73A8,8,0,0,0,305.627,9.542Zm33.228-16.8V11.117h-1.863v-14.7L329.773,8.781h-.919L321.637-3.5V11.117h-1.863V-7.256h1.6l7.979,13.622,7.9-13.622Zm13.018,0a8.3,8.3,0,0,1,5.512,1.68,5.716,5.716,0,0,1,1.995,4.619,5.678,5.678,0,0,1-1.995,4.606,8.343,8.343,0,0,1-5.512,1.667h-4.934v5.8H345V-7.256ZM351.82,3.61a6.4,6.4,0,0,0,4.173-1.194,4.132,4.132,0,0,0,1.444-3.373,4.193,4.193,0,0,0-1.444-3.425,6.4,6.4,0,0,0-4.173-1.194h-4.882V3.61Zm22.519,2.6H364.1l-2.2,4.908h-2.021l8.4-18.372h1.916l8.4,18.372h-2.047Zm-.709-1.575-4.409-9.869-4.409,9.869Zm23.517-11.89V11.117h-1.6L383.736-3.791V11.117h-1.942V-7.256h1.6L395.231,7.652V-7.256ZM409.588,4.765v6.352h-1.916V4.765L400.323-7.256H402.4l6.3,10.315,6.3-10.315h1.942Z" transform="translate(0.063 98.867)" fill="#6c6c6c"/>
      <g id="Mask_Group_9" data-name="Mask Group 9" transform="translate(81.488)" clip-path="url(#clip-path)">
        <g id="assets" transform="translate(-448.731 -203.456)">
          <g id="pattern-style1" transform="translate(0 0)">
            <rect id="Mask" width="886.989" height="370.86" transform="translate(359.34 134.054)" fill="#414a6b"/>
            <g id="diagonal-45-style1" transform="translate(170.112 28.199)" opacity="0.5">
              <g id="Rectangle" transform="translate(761.344 566.522) rotate(180)" opacity="0.7">
                <path id="Path_264" data-name="Path 264" d="M0,726.777l22.144-.012L22.553,0,.409.012Z" transform="translate(0 38.676) rotate(-45)" fill="#ff5850" fill-rule="evenodd"/>
                <path id="Path_265" data-name="Path 265" d="M0,684.7l22.144-.012L22.53,0,.386.012Z" transform="translate(94.376 67.541) rotate(-45)" fill="#b49a85" fill-rule="evenodd"/>
                <path id="Path_266" data-name="Path 266" d="M0,723.677l22.144-.013L22.552,0,.408.012Z" transform="translate(233.681 31.998) rotate(-45)" fill="#b49a85" fill-rule="evenodd"/>
                <path id="Path_267" data-name="Path 267" d="M0,770.179l22.144-.013L22.578,0,.434.012Z" transform="translate(94.135 15.965) rotate(-45)" fill="#50b6ff" fill-rule="evenodd"/>
                <path id="Path_268" data-name="Path 268" d="M0,694.883l10.186-.006L10.578,0,.391.006Z" transform="translate(56.544 53.342) rotate(-45)" fill="#f3c130" fill-rule="evenodd"/>
                <path id="Path_269" data-name="Path 269" d="M0,723.67l10.186-.006L10.594,0,.408.006Z" transform="translate(156.353 36.743) rotate(-45)" fill="#ff5850" fill-rule="evenodd"/>
                <path id="Path_270" data-name="Path 270" d="M0,711.269l10.186-.006L10.587,0,.4.006Z" transform="translate(184.629 41.555) rotate(-45)" fill="#f3c02f" fill-rule="evenodd"/>
                <path id="Path_271" data-name="Path 271" d="M0,730.756l10.186-.006L10.6,0,.412.006Z" transform="translate(222.019 49.8) rotate(-45)" fill="#23db95" fill-rule="evenodd"/>
              </g>
            </g>
            <g id="diagonal-45-style1-2" data-name="diagonal-45-style1" transform="translate(469.193 0)" opacity="0.5">
              <g id="Rectangle-2" data-name="Rectangle" transform="translate(761.344 566.522) rotate(180)" opacity="0.7">
                <path id="Path_272" data-name="Path 272" d="M0,726.777l22.144-.012L22.553,0,.409.012Z" transform="translate(0 38.676) rotate(-45)" fill="#ff5850" fill-rule="evenodd"/>
                <path id="Path_273" data-name="Path 273" d="M0,684.7l22.144-.012L22.53,0,.386.012Z" transform="translate(94.376 67.541) rotate(-45)" fill="#b49a85" fill-rule="evenodd"/>
                <path id="Path_274" data-name="Path 274" d="M0,723.677l22.144-.013L22.552,0,.408.012Z" transform="translate(233.681 31.998) rotate(-45)" fill="#b49a85" fill-rule="evenodd"/>
                <path id="Path_275" data-name="Path 275" d="M0,770.179l22.144-.013L22.578,0,.434.012Z" transform="translate(94.135 15.965) rotate(-45)" fill="#50b6ff" fill-rule="evenodd"/>
                <path id="Path_276" data-name="Path 276" d="M0,694.883l10.186-.006L10.578,0,.391.006Z" transform="translate(56.544 53.342) rotate(-45)" fill="#f3c130" fill-rule="evenodd"/>
                <path id="Path_277" data-name="Path 277" d="M0,723.67l10.186-.006L10.594,0,.408.006Z" transform="translate(156.353 36.743) rotate(-45)" fill="#ff5850" fill-rule="evenodd"/>
                <path id="Path_278" data-name="Path 278" d="M0,711.269l10.186-.006L10.587,0,.4.006Z" transform="translate(184.629 41.555) rotate(-45)" fill="#f3c02f" fill-rule="evenodd"/>
                <path id="Path_279" data-name="Path 279" d="M0,730.756l10.186-.006L10.6,0,.412.006Z" transform="translate(222.019 49.8) rotate(-45)" fill="#23db95" fill-rule="evenodd"/>
              </g>
            </g>
            <g id="diagonal-45-style1-3" data-name="diagonal-45-style1" transform="translate(792.2 0)" opacity="0.5">
              <g id="Rectangle-3" data-name="Rectangle" transform="translate(761.344 566.522) rotate(180)" opacity="0.7">
                <path id="Path_280" data-name="Path 280" d="M0,726.777l22.144-.012L22.553,0,.409.012Z" transform="translate(0 38.676) rotate(-45)" fill="#ff5850" fill-rule="evenodd"/>
                <path id="Path_281" data-name="Path 281" d="M0,684.7l22.144-.012L22.53,0,.386.012Z" transform="translate(94.376 67.541) rotate(-45)" fill="#b49a85" fill-rule="evenodd"/>
                <path id="Path_282" data-name="Path 282" d="M0,723.677l22.144-.013L22.552,0,.408.012Z" transform="translate(233.681 31.998) rotate(-45)" fill="#b49a85" fill-rule="evenodd"/>
                <path id="Path_283" data-name="Path 283" d="M0,770.179l22.144-.013L22.578,0,.434.012Z" transform="translate(94.135 15.965) rotate(-45)" fill="#50b6ff" fill-rule="evenodd"/>
                <path id="Path_284" data-name="Path 284" d="M0,694.883l10.186-.006L10.578,0,.391.006Z" transform="translate(56.544 53.342) rotate(-45)" fill="#f3c130" fill-rule="evenodd"/>
                <path id="Path_285" data-name="Path 285" d="M0,723.67l10.186-.006L10.594,0,.408.006Z" transform="translate(156.353 36.743) rotate(-45)" fill="#ff5850" fill-rule="evenodd"/>
                <path id="Path_286" data-name="Path 286" d="M0,711.269l10.186-.006L10.587,0,.4.006Z" transform="translate(184.629 41.555) rotate(-45)" fill="#f3c02f" fill-rule="evenodd"/>
                <path id="Path_287" data-name="Path 287" d="M0,730.756l10.186-.006L10.6,0,.412.006Z" transform="translate(222.019 49.8) rotate(-45)" fill="#23db95" fill-rule="evenodd"/>
              </g>
            </g>
            <g id="diagonal-45-style1-4" data-name="diagonal-45-style1" transform="translate(1101.535 0)" opacity="0.5">
              <g id="Rectangle-4" data-name="Rectangle" transform="translate(761.344 566.522) rotate(180)" opacity="0.7">
                <path id="Path_288" data-name="Path 288" d="M0,726.777l22.144-.012L22.553,0,.409.012Z" transform="translate(0 38.676) rotate(-45)" fill="#ff5850" fill-rule="evenodd"/>
                <path id="Path_289" data-name="Path 289" d="M0,684.7l22.144-.012L22.53,0,.386.012Z" transform="translate(94.376 67.541) rotate(-45)" fill="#b49a85" fill-rule="evenodd"/>
                <path id="Path_290" data-name="Path 290" d="M0,723.677l22.144-.013L22.552,0,.408.012Z" transform="translate(233.681 31.998) rotate(-45)" fill="#b49a85" fill-rule="evenodd"/>
                <path id="Path_291" data-name="Path 291" d="M0,770.179l22.144-.013L22.578,0,.434.012Z" transform="translate(94.135 15.965) rotate(-45)" fill="#50b6ff" fill-rule="evenodd"/>
                <path id="Path_292" data-name="Path 292" d="M0,694.883l10.186-.006L10.578,0,.391.006Z" transform="translate(56.544 53.342) rotate(-45)" fill="#f3c130" fill-rule="evenodd"/>
                <path id="Path_293" data-name="Path 293" d="M0,723.67l10.186-.006L10.594,0,.408.006Z" transform="translate(156.353 36.743) rotate(-45)" fill="#ff5850" fill-rule="evenodd"/>
                <path id="Path_294" data-name="Path 294" d="M0,711.269l10.186-.006L10.587,0,.4.006Z" transform="translate(184.629 41.555) rotate(-45)" fill="#f3c02f" fill-rule="evenodd"/>
                <path id="Path_295" data-name="Path 295" d="M0,730.756l10.186-.006L10.6,0,.412.006Z" transform="translate(222.019 49.8) rotate(-45)" fill="#23db95" fill-rule="evenodd"/>
              </g>
            </g>
            <g id="diagonal-45-style1-5" data-name="diagonal-45-style1" transform="translate(0 6.836)" opacity="0.7">
              <g id="Rectangle-5" data-name="Rectangle" transform="translate(0 0)">
                <path id="Path_296" data-name="Path 296" d="M0,0,22.144.012l.409,726.761L.409,726.761Z" transform="translate(513.909 13.938) rotate(45)" fill="#ff5850" fill-rule="evenodd"/>
                <path id="Path_297" data-name="Path 297" d="M0,0,22.144.012,22.529,684.7.386,684.688Z" transform="translate(578.534 14.823) rotate(45)" fill="#b49a85" fill-rule="evenodd"/>
                <path id="Path_298" data-name="Path 298" d="M0,0,22.144.012l.408,723.661L.408,723.661Z" transform="translate(745.398 22.807) rotate(45)" fill="#b49a85" fill-rule="evenodd"/>
                <path id="Path_299" data-name="Path 299" d="M0,0,22.144.012l.434,770.163L.434,770.163Z" transform="translate(638.733 5.959) rotate(45)" fill="#50b6ff" fill-rule="evenodd"/>
                <path id="Path_300" data-name="Path 300" d="M0,0,10.186.006l.391,694.874L.391,694.874Z" transform="translate(547.901 21.824) rotate(45)" fill="#f3c130" fill-rule="evenodd"/>
                <path id="Path_301" data-name="Path 301" d="M0,0,10.186.006l.408,723.661L.408,723.661Z" transform="translate(668.065 18.067) rotate(45)" fill="#ff5850" fill-rule="evenodd"/>
                <path id="Path_302" data-name="Path 302" d="M0,0,10.186.006l.4,711.26L.4,711.26Z" transform="translate(687.573 22.023) rotate(45)" fill="#f3c02f" fill-rule="evenodd"/>
                <path id="Path_303" data-name="Path 303" d="M0,0,10.186.006,10.6,730.753.412,730.747Z" transform="translate(738.741 0) rotate(45)" fill="#23db95" fill-rule="evenodd"/>
              </g>
            </g>
            <g id="diagonal-45-style1-6" data-name="diagonal-45-style1" transform="translate(297.372 6.836)" opacity="0.7">
              <g id="Rectangle-6" data-name="Rectangle" transform="translate(0 0)">
                <path id="Path_304" data-name="Path 304" d="M0,0,22.144.012l.409,726.761L.409,726.761Z" transform="translate(513.909 13.938) rotate(45)" fill="#ff5850" fill-rule="evenodd"/>
                <path id="Path_305" data-name="Path 305" d="M0,0,22.144.012,22.529,684.7.386,684.688Z" transform="translate(578.534 14.823) rotate(45)" fill="#b49a85" fill-rule="evenodd"/>
                <path id="Path_306" data-name="Path 306" d="M0,0,22.144.012l.408,723.661L.408,723.661Z" transform="translate(745.398 22.807) rotate(45)" fill="#b49a85" fill-rule="evenodd"/>
                <path id="Path_307" data-name="Path 307" d="M0,0,22.144.012l.434,770.163L.434,770.163Z" transform="translate(638.733 5.959) rotate(45)" fill="#50b6ff" fill-rule="evenodd"/>
                <path id="Path_308" data-name="Path 308" d="M0,0,10.186.006l.391,694.874L.391,694.874Z" transform="translate(547.901 21.824) rotate(45)" fill="#f3c130" fill-rule="evenodd"/>
                <path id="Path_309" data-name="Path 309" d="M0,0,10.186.006l.408,723.661L.408,723.661Z" transform="translate(668.065 18.067) rotate(45)" fill="#ff5850" fill-rule="evenodd"/>
                <path id="Path_310" data-name="Path 310" d="M0,0,10.186.006l.4,711.26L.4,711.26Z" transform="translate(687.573 22.023) rotate(45)" fill="#f3c02f" fill-rule="evenodd"/>
                <path id="Path_311" data-name="Path 311" d="M0,0,10.186.006,10.6,730.753.412,730.747Z" transform="translate(738.741 0) rotate(45)" fill="#23db95" fill-rule="evenodd"/>
              </g>
            </g>
            <g id="diagonal-45-style1-7" data-name="diagonal-45-style1" transform="translate(571.672 22.217)" opacity="0.7">
              <g id="Rectangle-7" data-name="Rectangle" transform="translate(0 0)">
                <path id="Path_312" data-name="Path 312" d="M0,0,22.144.012l.409,726.761L.409,726.761Z" transform="translate(513.909 13.938) rotate(45)" fill="#ff5850" fill-rule="evenodd"/>
                <path id="Path_313" data-name="Path 313" d="M0,0,22.144.012,22.529,684.7.386,684.688Z" transform="translate(578.534 14.823) rotate(45)" fill="#b49a85" fill-rule="evenodd"/>
                <path id="Path_314" data-name="Path 314" d="M0,0,22.144.012l.408,723.661L.408,723.661Z" transform="translate(745.398 22.807) rotate(45)" fill="#b49a85" fill-rule="evenodd"/>
                <path id="Path_315" data-name="Path 315" d="M0,0,22.144.012l.434,770.163L.434,770.163Z" transform="translate(638.733 5.959) rotate(45)" fill="#50b6ff" fill-rule="evenodd"/>
                <path id="Path_316" data-name="Path 316" d="M0,0,10.186.006l.391,694.874L.391,694.874Z" transform="translate(547.901 21.824) rotate(45)" fill="#f3c130" fill-rule="evenodd"/>
                <path id="Path_317" data-name="Path 317" d="M0,0,10.186.006l.408,723.661L.408,723.661Z" transform="translate(668.065 18.067) rotate(45)" fill="#ff5850" fill-rule="evenodd"/>
                <path id="Path_318" data-name="Path 318" d="M0,0,10.186.006l.4,711.26L.4,711.26Z" transform="translate(687.573 22.023) rotate(45)" fill="#f3c02f" fill-rule="evenodd"/>
                <path id="Path_319" data-name="Path 319" d="M0,0,10.186.006,10.6,730.753.412,730.747Z" transform="translate(738.741 0) rotate(45)" fill="#23db95" fill-rule="evenodd"/>
              </g>
            </g>
            <g id="diagonal-45-style1-8" data-name="diagonal-45-style1" transform="translate(869.899 28.199)" opacity="0.7">
              <g id="Rectangle-8" data-name="Rectangle" transform="translate(0 0)">
                <path id="Path_320" data-name="Path 320" d="M0,0,22.144.012l.409,726.761L.409,726.761Z" transform="translate(513.909 13.938) rotate(45)" fill="#ff5850" fill-rule="evenodd"/>
                <path id="Path_321" data-name="Path 321" d="M0,0,22.144.012,22.529,684.7.386,684.688Z" transform="translate(578.534 14.823) rotate(45)" fill="#b49a85" fill-rule="evenodd"/>
                <path id="Path_322" data-name="Path 322" d="M0,0,22.144.012l.408,723.661L.408,723.661Z" transform="translate(745.398 22.807) rotate(45)" fill="#b49a85" fill-rule="evenodd"/>
                <path id="Path_323" data-name="Path 323" d="M0,0,22.144.012l.434,770.163L.434,770.163Z" transform="translate(638.733 5.959) rotate(45)" fill="#50b6ff" fill-rule="evenodd"/>
                <path id="Path_324" data-name="Path 324" d="M0,0,10.186.006l.391,694.874L.391,694.874Z" transform="translate(547.901 21.824) rotate(45)" fill="#f3c130" fill-rule="evenodd"/>
                <path id="Path_325" data-name="Path 325" d="M0,0,10.186.006l.408,723.661L.408,723.661Z" transform="translate(668.065 18.067) rotate(45)" fill="#ff5850" fill-rule="evenodd"/>
                <path id="Path_326" data-name="Path 326" d="M0,0,10.186.006l.4,711.26L.4,711.26Z" transform="translate(687.573 22.023) rotate(45)" fill="#f3c02f" fill-rule="evenodd"/>
                <path id="Path_327" data-name="Path 327" d="M0,0,10.186.006,10.6,730.753.412,730.747Z" transform="translate(738.741 0) rotate(45)" fill="#23db95" fill-rule="evenodd"/>
              </g>
            </g>
          </g>
        </g>
      </g>
    </g>
  </g>
</svg>
