<svg xmlns="http://www.w3.org/2000/svg" width="24" height="22" viewBox="0 0 24 22">
  <g id="menu" transform="translate(0 -17.067)">
    <g id="Group_8020" data-name="Group 8020" transform="translate(0 17.067)">
      <g id="Group_8019" data-name="Group 8019" transform="translate(0 0)">
        <path id="Path_16411" data-name="Path 16411" d="M23,17.067H1a1.046,1.046,0,0,0,0,2.091H23a1.046,1.046,0,0,0,0-2.091Z" transform="translate(0 -17.067)"/>
      </g>
    </g>
    <g id="Group_8022" data-name="Group 8022" transform="translate(0 27.021)">
      <g id="Group_8021" data-name="Group 8021">
        <path id="Path_16412" data-name="Path 16412" d="M23,187.733H1a1.047,1.047,0,0,0,0,2.091H23a1.047,1.047,0,0,0,0-2.091Z" transform="translate(0 -187.733)"/>
      </g>
    </g>
    <g id="Group_8024" data-name="Group 8024" transform="translate(0 36.976)">
      <g id="Group_8023" data-name="Group 8023">
        <path id="Path_16413" data-name="Path 16413" d="M23,358.4H1a1.047,1.047,0,0,0,0,2.091H23a1.047,1.047,0,0,0,0-2.091Z" transform="translate(0 -358.4)"/>
      </g>
    </g>
  </g>
</svg>
