<?xml version="1.0" encoding="utf-8"?>
<!-- Generator: Adobe Illustrator 26.1.0, SVG Export Plug-In . SVG Version: 6.00 Build 0)  -->
<svg version="1.1" id="Layer_1" xmlns="http://www.w3.org/2000/svg" xmlns:xlink="http://www.w3.org/1999/xlink" x="0px" y="0px"
	 width="55.7px" height="55.7px" viewBox="0 0 55.7 55.7" style="enable-background:new 0 0 55.7 55.7;" xml:space="preserve">
<style type="text/css">
	.st0{fill:#717980;}
</style>
<path class="st0" d="M55.2,23.8l-7-16.8c-0.4-0.9-1.7-1.5-2.6-1.1L36,10c-0.7,0.3-1.6,1.4-1.1,2.6l6.5,15.7l-5.5,1.9
	c-0.4,0.1-0.6,0.5-0.4,0.9c0.1,0.2,0.4,0.6,0.9,0.4l5.6-2c0.4,0.7,1.4,1.5,2.5,1l9.6-3.9C54.9,26.1,55.7,25.1,55.2,23.8z M53.6,25.2
	l-9.6,4c-0.2,0.1-0.7-0.1-0.8-0.3l-7-16.8c-0.2-0.4,0.3-0.8,0.3-0.8l9.6-4c0.4-0.2,0.7,0.1,0.8,0.3l7,16.8
	C54.1,24.8,53.8,25.1,53.6,25.2z M21.3,35.8c-0.1-0.4-0.5-0.6-0.9-0.4L12,38.3c-0.4,0.1-0.8,0-0.9-0.3l-3.4-8.2c0,0,0,0,0,0
	c0,0,0,0,0,0L7,28c-0.1-0.3,0.1-0.7,0.4-0.9l25.2-12.3c0.3-0.2,0.5-0.6,0.3-0.9c-0.2-0.3-0.6-0.5-0.9-0.3L6.8,26
	c-1,0.5-1.5,1.6-1.1,2.6l0.5,1.1l-4.6,1.9c-0.7,0.3-1.2,1.1-1.2,1.9c0,0.2,0.1,0.5,0.2,0.8l1.7,4c0.3,0.7,1.1,1.2,1.9,1.2
	c0.2,0,0.5-0.1,0.8-0.2l4.6-1.9l0.5,1.1c0.4,1,1.5,1.5,2.6,1.1l8.3-2.9C21.2,36.6,21.4,36.2,21.3,35.8z M4.2,38
	c-0.3,0.1-0.7-0.1-0.8-0.3l-1.7-4c-0.2-0.4,0.1-0.7,0.3-0.8l4.6-1.9l2.1,5.2L4.2,38z M30.8,35.7c1.1-0.9,1.8-2.2,1.8-3.7
	c0-2.7-2.2-4.8-4.7-4.8c-2.7,0-4.8,2.2-4.8,4.8c0,1.5,0.7,2.8,1.8,3.7L19,48.8c-0.2,0.4,0,1,0.6,1c0.3,0,0.5-0.2,0.6-0.4l5.8-13
	c0.6,0.2,1.2,0.4,1.8,0.4c0.6,0,1.3-0.1,1.8-0.4l5.8,13c0.1,0.3,0.4,0.4,0.6,0.4c0.6,0,0.8-0.6,0.6-1L30.8,35.7z M27.8,35.4
	c-1.9,0-3.4-1.5-3.4-3.4c0-1.9,1.5-3.4,3.4-3.4c1.9,0,3.4,1.5,3.4,3.4C31.2,33.8,29.7,35.4,27.8,35.4z"/>
</svg>
