<svg xmlns="http://www.w3.org/2000/svg" width="53.813" height="71.75" viewBox="0 0 53.813 71.75">
  <g id="document" transform="translate(-64)">
    <path id="Path_16396" data-name="Path 16396" d="M117.813,0H71.287V7.287H64V71.75h46.525V64.463h7.287ZM65.682,70.068V8.969H97.633V20.18h11.211V70.068ZM99.314,10.158l8.34,8.34h-8.34Zm16.816,52.623h-5.605V18.991l-11.7-11.7H72.969V1.682h43.162Z" transform="translate(0)" fill="#3c435c"/>
    <path id="Path_16397" data-name="Path 16397" d="M118,116h13.453v1.682H118Z" transform="translate(-46.433 -99.744)" fill="#3c435c"/>
    <path id="Path_16398" data-name="Path 16398" d="M118,148h8.969v1.682H118Z" transform="translate(-46.433 -127.26)" fill="#3c435c"/>
    <path id="Path_16399" data-name="Path 16399" d="M118,196h31.391v1.682H118Z" transform="translate(-46.433 -168.533)" fill="#3c435c"/>
    <path id="Path_16400" data-name="Path 16400" d="M118,228h31.391v1.682H118Z" transform="translate(-46.433 -196.049)" fill="#3c435c"/>
    <path id="Path_16401" data-name="Path 16401" d="M118,292h31.391v1.682H118Z" transform="translate(-46.433 -251.08)" fill="#3c435c"/>
    <path id="Path_16402" data-name="Path 16402" d="M118,324h22.422v1.682H118Z" transform="translate(-46.433 -278.596)" fill="#3c435c"/>
    <path id="Path_16403" data-name="Path 16403" d="M118,260h31.391v1.682H118Z" transform="translate(-46.433 -223.564)" fill="#3c435c"/>
    <path id="Path_16404" data-name="Path 16404" d="M262,372h11.211v1.682H262Z" transform="translate(-170.253 -319.869)" fill="#3c435c"/>
  </g>
</svg>
