<svg xmlns="http://www.w3.org/2000/svg" width="10.582" height="49.064" viewBox="0 0 10.582 49.064">
  <g id="Group_7923" data-name="Group 7923" transform="translate(-855 -724.549)">
    <path id="down" d="M92.535,35.32V24.756a.756.756,0,0,1,1.512,0V35.32l-.756.756Zm1.29,3.072,4.535-4.535a.756.756,0,1,0-1.069-1.069l-4,4-4-4a.756.756,0,1,0-1.069,1.069l4.535,4.535A.756.756,0,0,0,93.825,38.392Z" transform="translate(767 735)" fill="#fff"/>
    <path id="Path_16333" data-name="Path 16333" d="M3.355,11.154c1.672,0,2.86-.88,2.86-2.365,0-1.628-1.309-2.035-2.475-2.387-1.2-.363-1.386-.605-1.386-.957,0-.308.275-.583.825-.583a1.349,1.349,0,0,1,1.331.891L6,4.884A2.987,2.987,0,0,0,3.179,3.146,2.408,2.408,0,0,0,.594,5.489c0,1.474,1.122,2.024,2.266,2.343s1.6.506,1.6.979c0,.3-.209.627-1.045.627A1.613,1.613,0,0,1,1.793,8.371l-1.518.88A3.032,3.032,0,0,0,3.355,11.154Zm6.49,0a2.808,2.808,0,0,0,2.486-1.419L10.89,8.91a1.128,1.128,0,0,1-1.067.616A1.21,1.21,0,0,1,8.58,8.25,1.21,1.21,0,0,1,9.823,6.974a1.139,1.139,0,0,1,1.067.616l1.441-.836A2.834,2.834,0,0,0,9.845,5.346,2.849,2.849,0,0,0,6.93,8.25,2.849,2.849,0,0,0,9.845,11.154ZM14.7,6.479V5.5h-1.65V11H14.7V8.514a1.3,1.3,0,0,1,1.65-1.254V5.39A1.652,1.652,0,0,0,14.7,6.479Zm4.895,4.675a2.9,2.9,0,1,0-2.915-2.9A2.883,2.883,0,0,0,19.591,11.154Zm0-1.606a1.234,1.234,0,0,1-1.265-1.3,1.265,1.265,0,1,1,2.53,0A1.234,1.234,0,0,1,19.591,9.548ZM23.441,11h1.65V2.97h-1.65Zm2.86,0h1.65V2.97H26.3Z" transform="translate(852.5 752.5) rotate(-90)" fill="#fff"/>
  </g>
</svg>
