<svg xmlns="http://www.w3.org/2000/svg" width="39" height="34.697" viewBox="0 0 39 34.697">
  <path id="heart" d="M19.5,34.7a2.287,2.287,0,0,1-1.508-.567c-1.576-1.378-3.094-2.672-4.435-3.814l-.007-.006a82.478,82.478,0,0,1-9.683-9.088C1.229,18.038,0,15.019,0,11.721A12.189,12.189,0,0,1,3.094,3.4a10.487,10.487,0,0,1,7.8-3.4,9.81,9.81,0,0,1,6.128,2.115A12.537,12.537,0,0,1,19.5,4.7a12.538,12.538,0,0,1,2.478-2.587A9.81,9.81,0,0,1,28.105,0a10.488,10.488,0,0,1,7.8,3.4A12.189,12.189,0,0,1,39,11.721c0,3.3-1.229,6.318-3.868,9.5A82.46,82.46,0,0,1,25.45,30.31c-1.343,1.144-2.864,2.44-4.443,3.821A2.289,2.289,0,0,1,19.5,34.7ZM10.895,2.285A8.228,8.228,0,0,0,4.773,4.944a9.916,9.916,0,0,0-2.489,6.777c0,2.774,1.031,5.255,3.343,8.044a81.162,81.162,0,0,0,9.405,8.807l.007.006c1.345,1.146,2.87,2.446,4.457,3.834,1.6-1.39,3.124-2.692,4.472-3.84a81.176,81.176,0,0,0,9.4-8.807c2.311-2.789,3.342-5.27,3.342-8.044a9.916,9.916,0,0,0-2.489-6.777,8.227,8.227,0,0,0-6.121-2.659,7.577,7.577,0,0,0-4.73,1.638,11.086,11.086,0,0,0-2.636,3.05,1.442,1.442,0,0,1-2.477,0,11.075,11.075,0,0,0-2.636-3.05A7.577,7.577,0,0,0,10.895,2.285Zm0,0" fill="#fff"/>
</svg>
