<svg id="clock" xmlns="http://www.w3.org/2000/svg" width="39" height="39" viewBox="0 0 39 39">
  <path id="Path_16334" data-name="Path 16334" d="M19.5,39A19.5,19.5,0,1,1,39,19.5,19.522,19.522,0,0,1,19.5,39Zm0-36.562A17.063,17.063,0,1,0,36.563,19.5,17.081,17.081,0,0,0,19.5,2.438Zm0,0" fill="#fff"/>
  <path id="Path_16335" data-name="Path 16335" d="M249.75,123.676a1.209,1.209,0,0,1-.861-.358l-8.531-8.531a1.219,1.219,0,0,1-.357-.861V102.551a1.219,1.219,0,0,1,2.438,0v10.87l8.174,8.174a1.22,1.22,0,0,1-.861,2.082Zm0,0" transform="translate(-221.719 -93.613)" fill="#fff"/>
</svg>
