<svg xmlns="http://www.w3.org/2000/svg" width="38.963" height="39.006" viewBox="0 0 38.963 39.006">
  <g id="dollar" transform="translate(-5.172 -5.135)">
    <path id="Path_16358" data-name="Path 16358" d="M206,143.952a4.975,4.975,0,0,0,4.97,4.97,2.982,2.982,0,1,1-2.982,2.982.994.994,0,1,0-1.988,0,4.978,4.978,0,0,0,3.976,4.87v2.088a.994.994,0,0,0,1.988,0v-2.088a4.97,4.97,0,0,0-.994-9.839,2.982,2.982,0,1,1,2.982-2.982.994.994,0,1,0,1.988,0,4.978,4.978,0,0,0-3.976-4.87v-2.088a.994.994,0,1,0-1.988,0v2.088A4.978,4.978,0,0,0,206,143.952Z" transform="translate(-186.316 -123.268)" fill="#fff"/>
    <path id="Path_16360" data-name="Path 16360" d="M83.67,64.723a.994.994,0,1,0-.459,1.934A18.067,18.067,0,0,1,96.975,83.71,17.951,17.951,0,0,1,79.481,101.2,17.951,17.951,0,0,1,61.988,83.71,18.067,18.067,0,0,1,75.752,66.657a.994.994,0,1,0-.459-1.934C66.651,66.775,60,74.854,60,83.71c0,10.357,9.055,19.481,19.481,19.481,10.357,0,19.481-9.055,19.481-19.481C98.963,74.861,92.319,66.777,83.67,64.723Z" transform="translate(-54.828 -59.051)" fill="#fff"/>
    <ellipse id="Ellipse_715" data-name="Ellipse 715" cx="1.5" cy="1" rx="1.5" ry="1" transform="translate(23.172 5.135)" fill="#fff"/>
  </g>
</svg>
