<svg xmlns="http://www.w3.org/2000/svg" xmlns:xlink="http://www.w3.org/1999/xlink" width="44" height="44" viewBox="0 0 44 44">
  <defs>
    <clipPath id="clip-Artboard_1">
      <rect width="44" height="44"/>
    </clipPath>
  </defs>
  <g id="Artboard_1" data-name="Artboard – 1" clip-path="url(#clip-Artboard_1)">
    <path id="heart" d="M20.5,36.477a2.4,2.4,0,0,1-1.585-.6c-1.656-1.448-3.253-2.809-4.662-4.01l-.007-.006c-4.131-3.52-7.7-6.56-10.179-9.554C1.292,18.963,0,15.789,0,12.322A12.815,12.815,0,0,1,3.253,3.57,11.025,11.025,0,0,1,11.454,0,10.313,10.313,0,0,1,17.9,2.224a13.18,13.18,0,0,1,2.6,2.72,13.181,13.181,0,0,1,2.6-2.72A10.313,10.313,0,0,1,29.547,0a11.026,11.026,0,0,1,8.2,3.57A12.814,12.814,0,0,1,41,12.322c0,3.467-1.292,6.641-4.066,9.989-2.482,2.995-6.048,6.034-10.178,9.554-1.411,1.2-3.011,2.566-4.671,4.017A2.406,2.406,0,0,1,20.5,36.477ZM11.454,2.4A8.65,8.65,0,0,0,5.018,5.2,10.424,10.424,0,0,0,2.4,12.322c0,2.916,1.084,5.524,3.514,8.457,2.349,2.834,5.843,5.812,9.888,9.259l.008.006c1.414,1.205,3.017,2.572,4.686,4.03,1.679-1.462,3.284-2.83,4.7-4.037,4.045-3.447,7.538-6.424,9.887-9.258,2.43-2.932,3.514-5.54,3.514-8.457A10.424,10.424,0,0,0,35.982,5.2a8.649,8.649,0,0,0-6.435-2.8,7.965,7.965,0,0,0-4.973,1.722A11.654,11.654,0,0,0,21.8,7.33a1.516,1.516,0,0,1-2.6,0,11.643,11.643,0,0,0-2.771-3.207A7.965,7.965,0,0,0,11.454,2.4Zm0,0" transform="translate(1 4.775)"/>
  </g>
</svg>
