<?xml version="1.0" encoding="utf-8"?>
<!-- Generator: Adobe Illustrator 26.1.0, SVG Export Plug-In . SVG Version: 6.00 Build 0)  -->
<svg version="1.1" id="Layer_1" xmlns="http://www.w3.org/2000/svg" xmlns:xlink="http://www.w3.org/1999/xlink" x="0px" y="0px"
	 width="55.7px" height="55.7px" viewBox="0 0 55.7 55.7" style="enable-background:new 0 0 55.7 55.7;" xml:space="preserve">
<style type="text/css">
	.st0{fill:#717980;}
</style>
<path class="st0" d="M24.9,40.4c-0.2-0.5-0.9-0.6-1.3-0.2L13,50.7C10.8,53,7.1,53.2,4.8,51c-2.4-2.2-2.4-6-0.1-8.3l15.5-15.5
	c0.3-0.3,0.3-0.8,0-1.1l0,0c-0.3-0.3-0.8-0.3-1.1,0L3.7,41.4c-2.9,2.9-3.1,7.9-0.1,10.8c1.4,1.4,3.3,2.1,5.2,2.1
	c1.9,0,3.8-0.7,5.2-2.2l10.7-10.7C25,41.1,25,40.8,24.9,40.4C24.9,40.4,24.9,40.5,24.9,40.4z M24.4,9.3c0.3,0.4,0.9,0.4,1.3,0
	c2-2.8,5-4.9,8.4-5.7c1.7-0.4,4.3-0.7,7.1,0l-8.4,8.4v11h11l8.4-8.4c0.6,2.3,0.5,4.7,0,7.1c-0.8,3.2-2.6,5.9-5.1,7.9
	c-0.4,0.3-0.4,0.8,0,1.2c0.3,0.3,0.8,0.3,1.1,0.1c2.7-2.2,4.8-5.3,5.6-8.8c0.7-2.7,0.6-5.4,0-7.8c-0.2-0.8-0.9-1.2-1.6-1.2
	c-0.4,0-0.8,0.2-1.2,0.5l-7.9,7.9h-8.7v-8.7l7.9-7.9c0.9-0.9,0.5-2.5-0.7-2.8c-1.2-0.3-2.5-0.5-3.9-0.5c-1.3,0-2.6,0.2-4,0.5
	c-3.8,0.9-7.1,3.2-9.4,6.4C24.1,8.6,24.1,9,24.4,9.3C24.4,9.2,24.4,9.3,24.4,9.3z M7.9,46c0,0.9,0.7,1.7,1.7,1.7s1.7-0.7,1.7-1.7
	c0-0.9-0.7-1.7-1.7-1.7S7.9,45.1,7.9,46z M41.2,29.5c-3-3-7.8-3.2-11.1-0.5l-8-8v-9.1c0-0.3-0.1-0.5-0.3-0.7L9.1,1.7
	C8.8,1.4,8.4,1.5,8.1,1.8L1.7,8.1C1.4,8.4,1.3,8.8,1.6,9.1l9.6,12.5c0.2,0.2,0.4,0.3,0.7,0.3h9.1l8,8c-2.7,3.3-2.5,8.1,0.5,11.1
	l11.7,11.7c0.9,1,2.1,1.4,3.2,1.4s2.3-0.4,3.2-1.3l5.3-5.3c1.8-1.8,1.8-4.7,0-6.5L41.2,29.5z M20.4,20.4h-8.2L3.3,8.7l5.4-5.4
	l11.7,8.9L20.4,20.4L20.4,20.4z M51.8,46.5l-5.3,5.3c-1.1,1.1-3,1.1-4.1,0L30.6,40c-2.6-2.6-2.6-6.8,0-9.4c2.6-2.6,6.8-2.6,9.4,0
	l11.7,11.7C52.9,43.5,52.9,45.3,51.8,46.5z"/>
</svg>
